<svg xmlns="http://www.w3.org/2000/svg" width="283.396" height="240.5" viewBox="0 0 283.396 240.5" role="img"><title>Class diagram</title><desc>Class diagram with 3 classes and 2 relations. Classes: Animal, Dog, Collar. Relations: Dog inherits from Animal labeled &quot;inherits&quot;; Animal is composed of Collar labeled &quot;composition&quot;.</desc><line x1="132.283" y1="70.565" x2="170.452" y2="64.588" stroke="#94a3b8" stroke-width="1.5"/><line x1="118.452" y1="72.73" x2="133.521" y2="78.468" stroke="#475569" stroke-width="1"/><line x1="133.521" y1="78.468" x2="131.046" y2="62.661" stroke="#475569" stroke-width="1"/><line x1="131.046" y1="62.661" x2="118.452" y2="72.73" stroke="#475569" stroke-width="1"/><path d="M 137.55 64.3 L 137.55 64.58 L 135.3 64.58 L 135.3 64.3 Q 135.64 64.3 135.78 64.24 Q 135.93 64.17 135.96 64.01 Q 136 63.85 136 63.57 L 136 60.78 Q 136 60.46 135.89 60.39 Q 135.78 60.31 135.56 60.31 Q 135.46 60.31 135.38 60.32 Q 135.31 60.33 135.31 60.33 L 135.31 60.04 L 136.57 59.76 L 136.83 59.76 L 136.83 63.57 Q 136.83 63.86 136.87 64.02 Q 136.91 64.18 137.06 64.24 Q 137.22 64.3 137.55 64.3 Z M 136.43 57.85 Q 136.69 57.85 136.84 58.02 Q 137 58.18 137 58.41 Q 137 58.64 136.84 58.81 Q 136.69 58.98 136.43 58.98 Q 136.18 58.98 136.02 58.81 Q 135.86 58.64 135.86 58.41 Q 135.86 58.18 136.01 58.02 Q 136.17 57.85 136.43 57.85 Z M 142.64 61.51 L 142.64 63.57 Q 142.64 63.85 142.68 64.01 Q 142.73 64.17 142.89 64.24 Q 143.05 64.3 143.38 64.3 L 143.38 64.58 L 141.07 64.58 L 141.07 64.3 Q 141.43 64.3 141.58 64.24 Q 141.74 64.17 141.77 64.01 Q 141.81 63.85 141.81 63.57 L 141.81 61.76 Q 141.81 61.16 141.67 60.86 Q 141.54 60.56 141.33 60.47 Q 141.12 60.37 140.89 60.37 Q 140.49 60.37 140.2 60.59 Q 139.91 60.8 139.68 61 L 139.68 63.57 Q 139.68 63.85 139.72 64.01 Q 139.76 64.17 139.92 64.24 Q 140.08 64.3 140.44 64.3 L 140.44 64.58 L 138.15 64.58 L 138.15 64.3 Q 138.49 64.3 138.63 64.24 Q 138.78 64.17 138.81 64.01 Q 138.85 63.85 138.85 63.57 L 138.85 60.76 Q 138.85 60.49 138.74 60.41 Q 138.63 60.32 138.43 60.32 Q 138.3 60.32 138.23 60.33 Q 138.16 60.34 138.16 60.34 L 138.16 60.05 L 139.43 59.76 L 139.66 59.76 L 139.65 60.57 L 139.69 60.57 Q 140.1 60.21 140.46 59.97 Q 140.83 59.73 141.3 59.73 Q 141.98 59.73 142.31 60.19 Q 142.64 60.65 142.64 61.51 Z M 145.42 60.99 L 145.42 63.61 Q 145.42 63.87 145.46 64.02 Q 145.5 64.17 145.66 64.23 Q 145.82 64.29 146.16 64.29 L 146.16 64.58 L 143.89 64.58 L 143.89 64.29 Q 144.28 64.29 144.43 64.18 Q 144.59 64.07 144.59 63.65 L 144.59 58.53 Q 144.59 58.27 144.44 58.2 Q 144.3 58.13 144.1 58.13 Q 143.98 58.13 143.89 58.14 Q 143.81 58.15 143.81 58.15 L 143.81 57.87 L 145.15 57.52 L 145.42 57.52 L 145.42 60.55 L 145.45 60.55 Q 145.92 60.11 146.29 59.92 Q 146.67 59.73 147.07 59.73 Q 147.5 59.73 147.76 59.9 Q 148.03 60.07 148.17 60.35 Q 148.31 60.62 148.36 60.95 Q 148.41 61.27 148.41 61.58 L 148.41 63.57 Q 148.41 63.97 148.54 64.13 Q 148.68 64.29 149.15 64.29 L 149.15 64.58 L 146.85 64.58 L 146.85 64.29 Q 147.2 64.29 147.35 64.22 Q 147.5 64.15 147.54 64 Q 147.58 63.85 147.58 63.61 L 147.58 61.88 Q 147.58 61.47 147.52 61.13 Q 147.46 60.78 147.26 60.58 Q 147.07 60.37 146.66 60.37 Q 146.37 60.37 146.08 60.51 Q 145.79 60.65 145.42 60.99 Z M 153.51 63.15 L 153.7 63.29 Q 153.52 63.67 153.28 63.99 Q 153.04 64.3 152.69 64.49 Q 152.35 64.68 151.83 64.68 Q 151.23 64.68 150.74 64.4 Q 150.26 64.11 149.98 63.56 Q 149.7 63 149.7 62.2 Q 149.7 61.36 149.98 60.82 Q 150.27 60.27 150.75 60 Q 151.23 59.73 151.81 59.73 Q 152.63 59.73 153.13 60.3 Q 153.63 60.87 153.67 61.92 L 150.51 61.92 Q 150.51 62.61 150.73 63.06 Q 150.96 63.5 151.31 63.72 Q 151.67 63.93 152.07 63.93 Q 152.48 63.93 152.73 63.82 Q 152.99 63.71 153.17 63.54 Q 153.35 63.36 153.51 63.15 Z M 150.5 61.55 L 152.73 61.55 Q 152.72 61.18 152.6 60.86 Q 152.48 60.53 152.25 60.33 Q 152.02 60.13 151.66 60.13 Q 150.62 60.13 150.5 61.55 Z M 155.83 59.76 L 155.83 60.79 L 155.86 60.79 Q 156.24 60.23 156.51 59.97 Q 156.79 59.7 157.15 59.7 Q 157.44 59.7 157.58 59.85 Q 157.73 60 157.73 60.26 Q 157.73 60.54 157.59 60.67 Q 157.46 60.8 157.29 60.8 Q 157.13 60.8 157 60.72 Q 156.88 60.63 156.79 60.55 Q 156.7 60.46 156.64 60.46 Q 156.47 60.46 156.25 60.72 Q 156.03 60.98 155.85 61.28 L 155.85 63.56 Q 155.85 63.87 155.93 64.03 Q 156.01 64.19 156.21 64.24 Q 156.42 64.29 156.79 64.29 L 156.79 64.58 L 154.29 64.58 L 154.29 64.29 Q 154.62 64.29 154.77 64.24 Q 154.93 64.18 154.97 64.04 Q 155.02 63.89 155.02 63.61 L 155.02 60.86 Q 155.02 60.59 154.97 60.46 Q 154.93 60.32 154.66 60.32 Q 154.51 60.32 154.43 60.33 Q 154.35 60.34 154.35 60.34 L 154.35 60.06 L 155.59 59.76 L 155.83 59.76 Z M 160.37 64.3 L 160.37 64.58 L 158.12 64.58 L 158.12 64.3 Q 158.46 64.3 158.6 64.24 Q 158.75 64.17 158.78 64.01 Q 158.82 63.85 158.82 63.57 L 158.82 60.78 Q 158.82 60.46 158.71 60.39 Q 158.6 60.31 158.38 60.31 Q 158.28 60.31 158.2 60.32 Q 158.13 60.33 158.13 60.33 L 158.13 60.04 L 159.39 59.76 L 159.65 59.76 L 159.65 63.57 Q 159.65 63.86 159.69 64.02 Q 159.73 64.18 159.88 64.24 Q 160.04 64.3 160.37 64.3 Z M 159.25 57.85 Q 159.51 57.85 159.66 58.02 Q 159.82 58.18 159.82 58.41 Q 159.82 58.64 159.66 58.81 Q 159.51 58.98 159.25 58.98 Q 159 58.98 158.84 58.81 Q 158.68 58.64 158.68 58.41 Q 158.68 58.18 158.83 58.02 Q 158.99 57.85 159.25 57.85 Z M 163.58 63.68 L 163.77 63.84 Q 163.58 64.11 163.41 64.3 Q 163.25 64.48 163.05 64.58 Q 162.85 64.68 162.53 64.68 Q 162.03 64.68 161.8 64.39 Q 161.57 64.09 161.57 63.42 L 161.57 60.32 L 161.02 60.32 L 161.02 60.09 Q 161.37 59.87 161.62 59.5 Q 161.88 59.12 162.15 58.48 L 162.41 58.48 L 162.4 59.9 L 163.53 59.9 L 163.53 60.32 L 162.4 60.32 L 162.4 63.14 Q 162.4 63.67 162.49 63.88 Q 162.59 64.09 162.88 64.09 Q 163.12 64.09 163.25 63.99 Q 163.39 63.89 163.58 63.68 Z M 164.19 62.94 L 164.45 62.94 Q 164.61 63.71 164.92 64.02 Q 165.23 64.32 165.78 64.32 Q 166.16 64.32 166.4 64.17 Q 166.64 64.01 166.64 63.66 Q 166.64 63.42 166.55 63.26 Q 166.47 63.1 166.23 62.94 Q 165.99 62.77 165.52 62.54 Q 164.84 62.19 164.52 61.87 Q 164.2 61.54 164.2 60.99 Q 164.2 60.37 164.64 60.05 Q 165.09 59.73 165.73 59.73 Q 166.11 59.73 166.35 59.82 Q 166.59 59.9 166.78 59.99 L 166.79 59.99 L 166.96 59.78 L 167.16 59.78 L 167.19 61.31 L 166.92 61.31 Q 166.76 60.6 166.47 60.34 Q 166.18 60.07 165.72 60.07 Q 165.38 60.07 165.14 60.23 Q 164.91 60.39 164.91 60.73 Q 164.91 61.02 165.18 61.25 Q 165.45 61.48 166.08 61.8 Q 166.76 62.16 167.12 62.5 Q 167.48 62.83 167.48 63.39 Q 167.48 63.86 167.25 64.15 Q 167.02 64.43 166.63 64.56 Q 166.25 64.69 165.8 64.69 Q 165.37 64.69 165.11 64.6 Q 164.86 64.51 164.66 64.43 L 164.64 64.43 L 164.43 64.66 L 164.22 64.66 L 164.19 62.94 Z" fill="currentColor"/><line x1="68.143" y1="152.235" x2="66.604" y2="188.25" stroke="#94a3b8" stroke-width="1.5"/><path d="M 68.827 136.25 L 61.491 143.944 L 68.143 152.235 L 75.479 144.542 Z" fill="#475569"/><path d="M 45.29 165.76 L 45.48 165.9 Q 45.29 166.3 45.04 166.63 Q 44.8 166.96 44.44 167.15 Q 44.08 167.34 43.54 167.34 Q 42.92 167.34 42.47 167.04 Q 42.02 166.74 41.78 166.21 Q 41.54 165.67 41.54 164.98 Q 41.54 163.8 42.13 163.1 Q 42.72 162.39 43.8 162.39 Q 44.51 162.39 44.91 162.7 Q 45.32 163.01 45.32 163.45 Q 45.32 163.9 44.9 163.9 Q 44.68 163.9 44.56 163.79 Q 44.45 163.67 44.38 163.5 Q 44.31 163.33 44.23 163.16 Q 44.16 162.99 44.02 162.88 Q 43.89 162.76 43.63 162.76 Q 43.02 162.76 42.67 163.21 Q 42.33 163.65 42.33 164.51 Q 42.33 165.42 42.7 166.01 Q 43.08 166.59 43.85 166.59 Q 44.34 166.59 44.64 166.39 Q 44.95 166.19 45.29 165.76 Z M 48.25 162.39 Q 49.28 162.39 49.87 163.03 Q 50.47 163.67 50.47 164.78 Q 50.47 165.62 50.18 166.19 Q 49.9 166.76 49.4 167.05 Q 48.9 167.34 48.25 167.34 Q 47.2 167.34 46.6 166.69 Q 46.01 166.03 46.01 164.82 Q 46.01 164.09 46.29 163.55 Q 46.57 163 47.07 162.7 Q 47.58 162.39 48.25 162.39 Z M 48.21 162.77 Q 47.64 162.77 47.29 163.25 Q 46.94 163.73 46.94 164.69 Q 46.94 165.88 47.29 166.42 Q 47.65 166.95 48.29 166.94 Q 48.7 166.94 48.98 166.75 Q 49.26 166.56 49.4 166.1 Q 49.55 165.64 49.55 164.83 Q 49.55 163.91 49.21 163.34 Q 48.88 162.77 48.21 162.77 Z M 52.66 163.67 L 52.66 166.27 Q 52.66 166.69 52.8 166.82 Q 52.95 166.95 53.41 166.95 L 53.41 167.24 L 51.13 167.24 L 51.13 166.95 Q 51.45 166.95 51.59 166.9 Q 51.74 166.84 51.78 166.69 Q 51.83 166.53 51.83 166.23 L 51.83 163.43 Q 51.83 163.16 51.72 163.07 Q 51.62 162.98 51.41 162.98 Q 51.3 162.98 51.22 162.99 Q 51.14 163 51.14 163 L 51.14 162.71 L 52.39 162.42 L 52.63 162.42 L 52.63 163.23 L 52.67 163.23 Q 53.08 162.88 53.46 162.64 Q 53.84 162.39 54.35 162.39 Q 54.78 162.39 55.04 162.63 Q 55.31 162.86 55.46 163.22 L 55.5 163.22 Q 55.91 162.81 56.3 162.6 Q 56.69 162.39 57.09 162.39 Q 57.68 162.39 58.03 162.76 Q 58.38 163.13 58.38 164.04 L 58.38 166.08 Q 58.38 166.39 58.41 166.59 Q 58.45 166.78 58.6 166.87 Q 58.76 166.95 59.1 166.95 L 59.1 167.24 L 56.84 167.24 L 56.84 166.95 Q 57.18 166.95 57.33 166.86 Q 57.48 166.77 57.51 166.58 Q 57.55 166.38 57.55 166.08 L 57.55 164.16 Q 57.55 163.7 57.43 163.46 Q 57.32 163.22 57.12 163.13 Q 56.93 163.03 56.69 163.03 Q 56.38 163.03 56.08 163.24 Q 55.79 163.44 55.54 163.65 L 55.54 166.08 Q 55.54 166.42 55.58 166.61 Q 55.63 166.8 55.79 166.88 Q 55.95 166.95 56.31 166.95 L 56.31 167.24 L 53.94 167.24 L 53.94 166.95 Q 54.3 166.95 54.46 166.88 Q 54.62 166.81 54.66 166.62 Q 54.71 166.43 54.71 166.08 L 54.71 164.1 Q 54.71 163.46 54.48 163.25 Q 54.26 163.03 53.91 163.03 Q 53.52 163.03 53.2 163.25 Q 52.88 163.47 52.66 163.67 Z M 61.09 162.42 L 61.09 163.26 L 61.12 163.26 Q 61.48 162.84 61.85 162.62 Q 62.23 162.39 62.67 162.39 Q 63.17 162.39 63.54 162.68 Q 63.92 162.96 64.13 163.47 Q 64.35 163.97 64.35 164.63 Q 64.35 165.48 64.05 166.09 Q 63.76 166.69 63.26 167.02 Q 62.76 167.34 62.16 167.34 Q 61.88 167.34 61.62 167.27 Q 61.37 167.21 61.15 167.06 L 61.11 167.06 L 61.11 168.37 Q 61.11 168.69 61.19 168.86 Q 61.27 169.03 61.48 169.09 Q 61.69 169.15 62.08 169.15 L 62.08 169.44 L 59.55 169.44 L 59.55 169.16 Q 60.02 169.16 60.15 169 Q 60.28 168.85 60.28 168.43 L 60.28 163.48 Q 60.28 163.19 60.21 163.08 Q 60.15 162.97 59.9 162.97 Q 59.8 162.97 59.69 162.98 Q 59.58 162.99 59.58 162.99 L 59.58 162.7 L 60.84 162.42 L 61.09 162.42 Z M 61.11 163.68 L 61.11 166.29 Q 61.21 166.39 61.36 166.55 Q 61.51 166.71 61.72 166.83 Q 61.93 166.95 62.21 166.95 Q 62.74 166.95 63.09 166.45 Q 63.44 165.95 63.44 164.91 Q 63.44 163.96 63.13 163.52 Q 62.82 163.07 62.26 163.07 Q 61.86 163.07 61.55 163.28 Q 61.25 163.49 61.11 163.68 Z M 67.28 162.39 Q 68.31 162.39 68.9 163.03 Q 69.5 163.67 69.5 164.78 Q 69.5 165.62 69.21 166.19 Q 68.93 166.76 68.43 167.05 Q 67.93 167.34 67.28 167.34 Q 66.23 167.34 65.63 166.69 Q 65.04 166.03 65.04 164.82 Q 65.04 164.09 65.32 163.55 Q 65.6 163 66.1 162.7 Q 66.61 162.39 67.28 162.39 Z M 67.24 162.77 Q 66.67 162.77 66.32 163.25 Q 65.97 163.73 65.97 164.69 Q 65.97 165.88 66.32 166.42 Q 66.68 166.95 67.32 166.94 Q 67.73 166.94 68.01 166.75 Q 68.29 166.56 68.43 166.1 Q 68.58 165.64 68.58 164.83 Q 68.58 163.91 68.24 163.34 Q 67.91 162.77 67.24 162.77 Z M 70.23 165.6 L 70.49 165.6 Q 70.65 166.37 70.96 166.68 Q 71.27 166.98 71.82 166.98 Q 72.2 166.98 72.44 166.83 Q 72.68 166.67 72.68 166.32 Q 72.68 166.08 72.59 165.92 Q 72.51 165.76 72.27 165.6 Q 72.03 165.43 71.56 165.2 Q 70.88 164.85 70.56 164.53 Q 70.24 164.2 70.24 163.65 Q 70.24 163.03 70.68 162.71 Q 71.13 162.39 71.77 162.39 Q 72.15 162.39 72.39 162.48 Q 72.63 162.56 72.82 162.65 L 72.83 162.65 L 73 162.44 L 73.2 162.44 L 73.23 163.97 L 72.96 163.97 Q 72.8 163.26 72.51 163 Q 72.22 162.73 71.76 162.73 Q 71.42 162.73 71.18 162.89 Q 70.95 163.05 70.95 163.39 Q 70.95 163.68 71.22 163.91 Q 71.49 164.14 72.12 164.46 Q 72.8 164.82 73.16 165.16 Q 73.52 165.49 73.52 166.05 Q 73.52 166.52 73.29 166.81 Q 73.06 167.09 72.67 167.22 Q 72.29 167.35 71.84 167.35 Q 71.41 167.35 71.15 167.26 Q 70.9 167.17 70.7 167.09 L 70.68 167.09 L 70.47 167.32 L 70.26 167.32 L 70.23 165.6 Z M 76.36 166.96 L 76.36 167.24 L 74.11 167.24 L 74.11 166.96 Q 74.45 166.96 74.59 166.9 Q 74.74 166.83 74.77 166.67 Q 74.81 166.51 74.81 166.23 L 74.81 163.44 Q 74.81 163.12 74.7 163.05 Q 74.59 162.97 74.37 162.97 Q 74.27 162.97 74.19 162.98 Q 74.12 162.99 74.12 162.99 L 74.12 162.7 L 75.38 162.42 L 75.64 162.42 L 75.64 166.23 Q 75.64 166.52 75.68 166.68 Q 75.72 166.84 75.87 166.9 Q 76.03 166.96 76.36 166.96 Z M 75.24 160.51 Q 75.5 160.51 75.65 160.68 Q 75.81 160.84 75.81 161.07 Q 75.81 161.3 75.65 161.47 Q 75.5 161.64 75.24 161.64 Q 74.99 161.64 74.83 161.47 Q 74.67 161.3 74.67 161.07 Q 74.67 160.84 74.82 160.68 Q 74.98 160.51 75.24 160.51 Z M 79.57 166.34 L 79.76 166.5 Q 79.57 166.77 79.4 166.96 Q 79.24 167.14 79.04 167.24 Q 78.84 167.34 78.52 167.34 Q 78.02 167.34 77.79 167.05 Q 77.56 166.75 77.56 166.08 L 77.56 162.98 L 77.01 162.98 L 77.01 162.75 Q 77.36 162.53 77.61 162.16 Q 77.87 161.78 78.14 161.14 L 78.4 161.14 L 78.39 162.56 L 79.52 162.56 L 79.52 162.98 L 78.39 162.98 L 78.39 165.8 Q 78.39 166.33 78.48 166.54 Q 78.58 166.75 78.87 166.75 Q 79.11 166.75 79.24 166.65 Q 79.38 166.55 79.57 166.34 Z M 82.36 166.96 L 82.36 167.24 L 80.11 167.24 L 80.11 166.96 Q 80.45 166.96 80.59 166.9 Q 80.74 166.83 80.77 166.67 Q 80.81 166.51 80.81 166.23 L 80.81 163.44 Q 80.81 163.12 80.7 163.05 Q 80.59 162.97 80.37 162.97 Q 80.27 162.97 80.19 162.98 Q 80.12 162.99 80.12 162.99 L 80.12 162.7 L 81.38 162.42 L 81.64 162.42 L 81.64 166.23 Q 81.64 166.52 81.68 166.68 Q 81.72 166.84 81.87 166.9 Q 82.03 166.96 82.36 166.96 Z M 81.24 160.51 Q 81.5 160.51 81.65 160.68 Q 81.81 160.84 81.81 161.07 Q 81.81 161.3 81.65 161.47 Q 81.5 161.64 81.24 161.64 Q 80.99 161.64 80.83 161.47 Q 80.67 161.3 80.67 161.07 Q 80.67 160.84 80.82 160.68 Q 80.98 160.51 81.24 160.51 Z M 85.22 162.39 Q 86.25 162.39 86.84 163.03 Q 87.44 163.67 87.44 164.78 Q 87.44 165.62 87.15 166.19 Q 86.87 166.76 86.37 167.05 Q 85.87 167.34 85.22 167.34 Q 84.17 167.34 83.57 166.69 Q 82.98 166.03 82.98 164.82 Q 82.98 164.09 83.26 163.55 Q 83.54 163 84.04 162.7 Q 84.55 162.39 85.22 162.39 Z M 85.18 162.77 Q 84.61 162.77 84.26 163.25 Q 83.91 163.73 83.91 164.69 Q 83.91 165.88 84.26 166.42 Q 84.62 166.95 85.26 166.94 Q 85.67 166.94 85.95 166.75 Q 86.23 166.56 86.37 166.1 Q 86.52 165.64 86.52 164.83 Q 86.52 163.91 86.18 163.34 Q 85.85 162.77 85.18 162.77 Z M 92.59 164.17 L 92.59 166.23 Q 92.59 166.51 92.63 166.67 Q 92.68 166.83 92.84 166.9 Q 93 166.96 93.33 166.96 L 93.33 167.24 L 91.02 167.24 L 91.02 166.96 Q 91.38 166.96 91.53 166.9 Q 91.69 166.83 91.72 166.67 Q 91.76 166.51 91.76 166.23 L 91.76 164.42 Q 91.76 163.82 91.62 163.52 Q 91.49 163.22 91.28 163.13 Q 91.07 163.03 90.84 163.03 Q 90.44 163.03 90.15 163.25 Q 89.86 163.46 89.63 163.66 L 89.63 166.23 Q 89.63 166.51 89.67 166.67 Q 89.71 166.83 89.87 166.9 Q 90.03 166.96 90.39 166.96 L 90.39 167.24 L 88.1 167.24 L 88.1 166.96 Q 88.44 166.96 88.58 166.9 Q 88.73 166.83 88.76 166.67 Q 88.8 166.51 88.8 166.23 L 88.8 163.42 Q 88.8 163.15 88.69 163.07 Q 88.58 162.98 88.38 162.98 Q 88.25 162.98 88.18 162.99 Q 88.11 163 88.11 163 L 88.11 162.71 L 89.38 162.42 L 89.61 162.42 L 89.6 163.23 L 89.64 163.23 Q 90.05 162.87 90.41 162.63 Q 90.78 162.39 91.25 162.39 Q 91.93 162.39 92.26 162.85 Q 92.59 163.31 92.59 164.17 Z" fill="currentColor"/><rect x="24" y="24" width="94.452" height="112.25" fill="#eef2ff"/><rect x="24" y="24" width="94.452" height="28.25" fill="#c7d2fe"/><line x1="24" y1="24" x2="118.452" y2="24" stroke="#475569" stroke-width="1"/><line x1="24" y1="136.25" x2="118.452" y2="136.25" stroke="#475569" stroke-width="1"/><line x1="24" y1="24" x2="24" y2="136.25" stroke="#475569" stroke-width="1"/><line x1="118.452" y1="24" x2="118.452" y2="136.25" stroke="#475569" stroke-width="1"/><line x1="24" y1="52.25" x2="118.452" y2="52.25" stroke="#475569" stroke-width="1"/><line x1="24" y1="94.25" x2="118.452" y2="94.25" stroke="#475569" stroke-width="1"/><rect x="170.452" y="24" width="88.944" height="67.25" fill="#eef2ff"/><rect x="170.452" y="24" width="88.944" height="28.25" fill="#c7d2fe"/><line x1="170.452" y1="24" x2="259.396" y2="24" stroke="#475569" stroke-width="1"/><line x1="170.452" y1="91.25" x2="259.396" y2="91.25" stroke="#475569" stroke-width="1"/><line x1="170.452" y1="24" x2="170.452" y2="91.25" stroke="#475569" stroke-width="1"/><line x1="259.396" y1="24" x2="259.396" y2="91.25" stroke="#475569" stroke-width="1"/><line x1="170.452" y1="52.25" x2="259.396" y2="52.25" stroke="#475569" stroke-width="1"/><line x1="170.452" y1="64.25" x2="259.396" y2="64.25" stroke="#475569" stroke-width="1"/><rect x="24" y="188.25" width="84" height="28.25" fill="#eef2ff"/><rect x="24" y="188.25" width="84" height="28.25" fill="#c7d2fe"/><line x1="24" y1="188.25" x2="108" y2="188.25" stroke="#475569" stroke-width="1"/><line x1="24" y1="216.5" x2="108" y2="216.5" stroke="#475569" stroke-width="1"/><line x1="24" y1="188.25" x2="24" y2="216.5" stroke="#475569" stroke-width="1"/><line x1="108" y1="188.25" x2="108" y2="216.5" stroke="#475569" stroke-width="1"/><path d="M 59.75 42.68 L 56.25 42.68 L 56.25 42.29 Q 56.44 42.29 56.65 42.26 Q 56.86 42.23 57 42.13 Q 57.15 42.03 57.15 41.8 Q 57.15 41.66 57.1 41.48 Q 57.06 41.28 56.93 41 L 56.42 39.83 L 53.09 39.83 L 52.51 41.21 Q 52.45 41.36 52.4 41.52 Q 52.36 41.66 52.36 41.84 Q 52.36 42.12 52.57 42.21 Q 52.78 42.29 53.23 42.29 L 53.23 42.68 L 50.5 42.68 L 50.5 42.29 Q 50.87 42.29 51.09 42.17 Q 51.31 42.05 51.52 41.7 Q 51.73 41.34 52.04 40.6 L 54.79 34.07 L 55.33 34.07 L 58.41 41.13 Q 58.69 41.77 58.95 42.03 Q 59.23 42.29 59.75 42.29 L 59.75 42.68 Z M 56.22 39.31 L 54.79 35.67 L 54.76 35.67 L 53.29 39.31 L 56.22 39.31 Z M 66.05 38.68 L 66.05 41.36 Q 66.05 41.73 66.1 41.93 Q 66.17 42.14 66.38 42.23 Q 66.58 42.31 67.01 42.31 L 67.01 42.68 L 64.01 42.68 L 64.01 42.31 Q 64.48 42.31 64.67 42.23 Q 64.88 42.14 64.92 41.93 Q 64.97 41.73 64.97 41.36 L 64.97 39.01 Q 64.97 38.23 64.79 37.84 Q 64.62 37.45 64.35 37.33 Q 64.08 37.2 63.78 37.2 Q 63.26 37.2 62.88 37.49 Q 62.5 37.76 62.2 38.02 L 62.2 41.36 Q 62.2 41.73 62.26 41.93 Q 62.31 42.14 62.52 42.23 Q 62.72 42.31 63.19 42.31 L 63.19 42.68 L 60.21 42.68 L 60.21 42.31 Q 60.66 42.31 60.84 42.23 Q 61.03 42.14 61.07 41.93 Q 61.12 41.73 61.12 41.36 L 61.12 37.71 Q 61.12 37.36 60.98 37.25 Q 60.84 37.14 60.58 37.14 Q 60.41 37.14 60.32 37.15 Q 60.23 37.16 60.23 37.16 L 60.23 36.79 L 61.88 36.41 L 62.18 36.41 L 62.16 37.46 L 62.22 37.46 Q 62.75 36.99 63.22 36.68 Q 63.7 36.37 64.31 36.37 Q 65.19 36.37 65.62 36.97 Q 66.05 37.57 66.05 38.68 Z M 70.63 42.31 L 70.63 42.68 L 67.7 42.68 L 67.7 42.31 Q 68.15 42.31 68.33 42.23 Q 68.52 42.14 68.56 41.93 Q 68.61 41.73 68.61 41.36 L 68.61 37.74 Q 68.61 37.32 68.47 37.23 Q 68.33 37.12 68.04 37.12 Q 67.91 37.12 67.81 37.14 Q 67.72 37.15 67.72 37.15 L 67.72 36.77 L 69.35 36.41 L 69.69 36.41 L 69.69 41.36 Q 69.69 41.74 69.74 41.95 Q 69.8 42.15 69.99 42.23 Q 70.2 42.31 70.63 42.31 Z M 69.17 33.93 Q 69.51 33.93 69.71 34.15 Q 69.91 34.35 69.91 34.65 Q 69.91 34.95 69.71 35.17 Q 69.51 35.39 69.17 35.39 Q 68.85 35.39 68.64 35.17 Q 68.43 34.95 68.43 34.65 Q 68.43 34.35 68.63 34.15 Q 68.83 33.93 69.17 33.93 Z M 73.4 38.03 L 73.4 41.41 Q 73.4 41.96 73.58 42.13 Q 73.77 42.3 74.37 42.3 L 74.37 42.68 L 71.41 42.68 L 71.41 42.3 Q 71.82 42.3 72.01 42.23 Q 72.2 42.15 72.25 41.96 Q 72.32 41.75 72.32 41.36 L 72.32 37.72 Q 72.32 37.37 72.18 37.25 Q 72.04 37.14 71.77 37.14 Q 71.63 37.14 71.52 37.15 Q 71.42 37.16 71.42 37.16 L 71.42 36.79 L 73.05 36.41 L 73.36 36.41 L 73.36 37.46 L 73.41 37.46 Q 73.94 37.01 74.44 36.7 Q 74.93 36.37 75.59 36.37 Q 76.15 36.37 76.49 36.68 Q 76.84 36.98 77.04 37.45 L 77.09 37.45 Q 77.62 36.92 78.13 36.64 Q 78.64 36.37 79.16 36.37 Q 79.92 36.37 80.38 36.85 Q 80.83 37.33 80.83 38.52 L 80.83 41.17 Q 80.83 41.57 80.87 41.83 Q 80.92 42.08 81.12 42.19 Q 81.33 42.3 81.77 42.3 L 81.77 42.68 L 78.83 42.68 L 78.83 42.3 Q 79.27 42.3 79.47 42.18 Q 79.66 42.06 79.7 41.82 Q 79.75 41.56 79.75 41.17 L 79.75 38.67 Q 79.75 38.07 79.6 37.76 Q 79.45 37.45 79.19 37.33 Q 78.95 37.2 78.64 37.2 Q 78.23 37.2 77.84 37.47 Q 77.47 37.74 77.14 38.01 L 77.14 41.17 Q 77.14 41.61 77.19 41.86 Q 77.26 42.1 77.47 42.21 Q 77.67 42.3 78.14 42.3 L 78.14 42.68 L 75.06 42.68 L 75.06 42.3 Q 75.53 42.3 75.74 42.21 Q 75.94 42.12 76 41.87 Q 76.06 41.62 76.06 41.17 L 76.06 38.59 Q 76.06 37.76 75.76 37.49 Q 75.48 37.2 75.02 37.2 Q 74.51 37.2 74.1 37.49 Q 73.68 37.77 73.4 38.03 Z M 86.07 41.87 L 86.02 41.87 Q 85.56 42.27 85.15 42.52 Q 84.73 42.77 84.11 42.77 Q 83.35 42.77 82.95 42.35 Q 82.56 41.93 82.56 41.31 Q 82.56 40.79 82.8 40.44 Q 83.04 40.07 83.43 39.83 Q 83.84 39.58 84.29 39.41 Q 84.76 39.24 85.2 39.13 Q 85.64 39.01 85.98 38.9 L 85.98 38.33 Q 85.98 37.49 85.68 37.14 Q 85.4 36.77 84.81 36.77 Q 84.25 36.77 84.1 37.01 Q 83.94 37.24 83.94 37.83 Q 83.94 38.42 83.37 38.42 Q 83.17 38.42 82.99 38.28 Q 82.82 38.13 82.82 37.8 Q 82.82 37.44 83.09 37.11 Q 83.38 36.79 83.89 36.58 Q 84.41 36.37 85.11 36.37 Q 86.18 36.37 86.62 36.86 Q 87.06 37.36 87.06 38.37 L 87.06 41.32 Q 87.06 41.73 87.15 41.84 Q 87.24 41.96 87.45 41.96 Q 87.63 41.96 87.77 41.87 Q 87.93 41.78 88.06 41.64 L 88.26 41.84 Q 87.93 42.31 87.63 42.53 Q 87.35 42.74 86.85 42.74 Q 86.42 42.74 86.28 42.52 Q 86.14 42.3 86.07 41.87 Z M 85.98 41.48 L 85.98 39.33 Q 85.4 39.48 84.88 39.67 Q 84.36 39.87 84.03 40.18 Q 83.71 40.49 83.71 41 Q 83.71 41.48 83.97 41.77 Q 84.23 42.05 84.64 42.05 Q 85.29 42.05 85.98 41.48 Z M 91.69 42.3 L 91.69 42.68 L 88.7 42.68 L 88.7 42.3 Q 89.13 42.3 89.32 42.22 Q 89.52 42.13 89.56 41.93 Q 89.61 41.73 89.61 41.36 L 89.61 34.84 Q 89.61 34.43 89.45 34.35 Q 89.31 34.28 89.06 34.28 Q 88.89 34.28 88.76 34.29 Q 88.65 34.3 88.65 34.3 L 88.65 33.95 L 90.36 33.5 L 90.69 33.5 L 90.69 41.36 Q 90.69 41.74 90.74 41.95 Q 90.8 42.14 91.01 42.22 Q 91.22 42.3 91.69 42.3 Z" fill="#000000"/><path d="M 43.9 64.69 L 40.75 64.69 L 40.75 67.87 L 39.89 67.87 L 39.89 64.69 L 36.74 64.69 L 36.74 63.88 L 39.89 63.88 L 39.89 60.7 L 40.75 60.7 L 40.75 63.88 L 43.9 63.88 L 43.9 64.69 Z M 49.92 61.79 L 49.56 61.79 Q 49.31 60.79 48.89 60.31 Q 48.47 59.83 47.56 59.85 Q 46.94 59.85 46.61 60.13 Q 46.27 60.41 46.27 60.97 Q 46.27 61.42 46.52 61.74 Q 46.78 62.05 47.18 62.31 Q 47.59 62.56 48.04 62.82 Q 48.43 63.05 48.83 63.28 Q 49.24 63.51 49.56 63.79 Q 49.9 64.08 50.09 64.47 Q 50.29 64.85 50.29 65.39 Q 50.29 66.09 49.97 66.57 Q 49.66 67.05 49.1 67.3 Q 48.55 67.54 47.86 67.54 Q 47.23 67.54 46.84 67.44 Q 46.45 67.36 46.22 67.27 Q 46.01 67.18 45.86 67.18 Q 45.74 67.18 45.65 67.29 Q 45.55 67.39 45.54 67.57 L 45.17 67.57 L 45.06 64.98 L 45.43 64.98 Q 45.65 65.81 45.94 66.25 Q 46.22 66.69 46.64 66.85 Q 47.08 67.01 47.69 67.01 Q 48.36 67.01 48.76 66.72 Q 49.15 66.42 49.15 65.74 Q 49.15 65.21 48.85 64.86 Q 48.56 64.51 48.11 64.25 Q 47.65 63.97 47.16 63.7 Q 46.68 63.42 46.24 63.11 Q 45.79 62.8 45.5 62.37 Q 45.23 61.93 45.23 61.31 Q 45.23 60.67 45.54 60.25 Q 45.85 59.82 46.37 59.59 Q 46.88 59.37 47.51 59.37 Q 48.06 59.37 48.36 59.46 Q 48.66 59.55 48.83 59.64 Q 49.01 59.74 49.15 59.74 Q 49.44 59.74 49.52 59.39 L 49.84 59.39 L 49.92 61.79 Z M 54.2 66.31 L 54.43 66.51 Q 54.2 66.83 54 67.06 Q 53.81 67.27 53.57 67.39 Q 53.33 67.51 52.94 67.51 Q 52.34 67.51 52.07 67.17 Q 51.79 66.81 51.79 66 L 51.79 62.28 L 51.13 62.28 L 51.13 62.01 Q 51.55 61.74 51.85 61.3 Q 52.16 60.84 52.49 60.07 L 52.8 60.07 L 52.79 61.78 L 54.14 61.78 L 54.14 62.28 L 52.79 62.28 L 52.79 65.67 Q 52.79 66.3 52.9 66.55 Q 53.02 66.81 53.36 66.81 Q 53.65 66.81 53.81 66.69 Q 53.98 66.57 54.2 66.31 Z M 56.66 61.61 L 56.66 62.85 L 56.7 62.85 Q 57.16 62.17 57.48 61.86 Q 57.82 61.54 58.25 61.54 Q 58.6 61.54 58.76 61.72 Q 58.94 61.9 58.94 62.21 Q 58.94 62.55 58.78 62.7 Q 58.62 62.86 58.42 62.86 Q 58.22 62.86 58.07 62.76 Q 57.92 62.65 57.82 62.56 Q 57.71 62.45 57.64 62.45 Q 57.43 62.45 57.17 62.76 Q 56.9 63.07 56.69 63.43 L 56.69 66.17 Q 56.69 66.54 56.78 66.73 Q 56.88 66.93 57.12 66.99 Q 57.37 67.05 57.82 67.05 L 57.82 67.39 L 54.82 67.39 L 54.82 67.05 Q 55.21 67.05 55.39 66.99 Q 55.58 66.91 55.63 66.75 Q 55.69 66.57 55.69 66.23 L 55.69 62.93 Q 55.69 62.61 55.63 62.45 Q 55.58 62.28 55.26 62.28 Q 55.08 62.28 54.98 62.29 Q 54.89 62.31 54.89 62.31 L 54.89 61.97 L 56.38 61.61 L 56.66 61.61 Z M 62.11 67.06 L 62.11 67.39 L 59.41 67.39 L 59.41 67.06 Q 59.82 67.06 59.99 66.99 Q 60.17 66.9 60.2 66.71 Q 60.25 66.52 60.25 66.18 L 60.25 62.83 Q 60.25 62.45 60.12 62.37 Q 59.99 62.27 59.72 62.27 Q 59.6 62.27 59.51 62.28 Q 59.42 62.29 59.42 62.29 L 59.42 61.95 L 60.94 61.61 L 61.25 61.61 L 61.25 66.18 Q 61.25 66.53 61.3 66.72 Q 61.34 66.91 61.52 66.99 Q 61.72 67.06 62.11 67.06 Z M 60.77 59.32 Q 61.08 59.32 61.26 59.52 Q 61.45 59.71 61.45 59.99 Q 61.45 60.27 61.26 60.47 Q 61.08 60.67 60.77 60.67 Q 60.47 60.67 60.28 60.47 Q 60.08 60.27 60.08 59.99 Q 60.08 59.71 60.26 59.52 Q 60.46 59.32 60.77 59.32 Z M 68.22 63.71 L 68.22 66.18 Q 68.22 66.52 68.27 66.71 Q 68.33 66.9 68.52 66.99 Q 68.71 67.06 69.11 67.06 L 69.11 67.39 L 66.34 67.39 L 66.34 67.06 Q 66.77 67.06 66.95 66.99 Q 67.14 66.9 67.18 66.71 Q 67.22 66.52 67.22 66.18 L 67.22 64.01 Q 67.22 63.29 67.06 62.93 Q 66.9 62.57 66.65 62.46 Q 66.4 62.34 66.12 62.34 Q 65.64 62.34 65.29 62.61 Q 64.94 62.86 64.67 63.1 L 64.67 66.18 Q 64.67 66.52 64.72 66.71 Q 64.76 66.9 64.96 66.99 Q 65.15 67.06 65.58 67.06 L 65.58 67.39 L 62.83 67.39 L 62.83 67.06 Q 63.24 67.06 63.41 66.99 Q 63.59 66.9 63.62 66.71 Q 63.67 66.52 63.67 66.18 L 63.67 62.81 Q 63.67 62.49 63.54 62.39 Q 63.41 62.28 63.17 62.28 Q 63.01 62.28 62.93 62.29 Q 62.84 62.31 62.84 62.31 L 62.84 61.96 L 64.37 61.61 L 64.64 61.61 L 64.63 62.58 L 64.68 62.58 Q 65.17 62.15 65.6 61.86 Q 66.05 61.57 66.61 61.57 Q 67.43 61.57 67.82 62.13 Q 68.22 62.68 68.22 63.71 Z M 70.9 65.19 L 70.9 65.16 Q 70.46 64.91 70.21 64.51 Q 69.97 64.12 69.97 63.53 Q 69.97 62.63 70.58 62.1 Q 71.2 61.57 72.14 61.57 Q 72.54 61.57 72.84 61.65 Q 73.14 61.72 73.31 61.8 Q 73.48 61.87 73.48 61.87 L 75.02 61.79 L 75.02 62.44 L 73.9 62.4 L 73.9 62.46 Q 74.03 62.64 74.17 62.94 Q 74.33 63.24 74.33 63.7 Q 74.33 64.54 73.74 65.03 Q 73.15 65.52 72.2 65.52 Q 71.92 65.52 71.66 65.47 Q 71.41 65.43 71.17 65.34 Q 71.09 65.46 70.97 65.73 Q 70.86 65.99 70.86 66.15 Q 70.86 66.41 71.15 66.52 Q 71.45 66.63 72.28 66.63 Q 73.03 66.63 73.63 66.7 Q 74.24 66.77 74.59 67.07 Q 74.94 67.37 74.94 68.05 Q 74.94 68.65 74.64 69.06 Q 74.35 69.48 73.86 69.73 Q 73.38 69.99 72.79 70.09 Q 72.22 70.21 71.65 70.21 Q 70.87 70.21 70.42 70.02 Q 69.97 69.83 69.79 69.52 Q 69.61 69.22 69.61 68.89 Q 69.61 68.59 69.85 68.26 Q 70.1 67.93 70.58 67.47 L 70.58 67.42 Q 70.28 67.26 70.09 67.03 Q 69.91 66.81 69.91 66.55 Q 69.91 66.23 70.19 65.87 Q 70.48 65.51 70.9 65.19 Z M 70.88 67.51 Q 70.69 67.85 70.62 68.07 Q 70.55 68.29 70.55 68.49 Q 70.55 69.53 72.35 69.53 Q 73.06 69.53 73.49 69.35 Q 73.93 69.17 74.12 68.91 Q 74.33 68.64 74.33 68.39 Q 74.33 68.08 74.14 67.9 Q 73.94 67.73 73.63 67.66 Q 73.33 67.59 72.98 67.56 Q 72.65 67.54 72.35 67.54 Q 72.28 67.54 72.24 67.54 Q 71.76 67.53 71.5 67.53 Q 71.23 67.53 71.1 67.51 Q 70.97 67.51 70.88 67.51 Z M 72.06 62.01 Q 71.59 62.01 71.3 62.37 Q 71.03 62.73 71.03 63.48 Q 71.03 64.25 71.33 64.68 Q 71.63 65.1 72.22 65.1 Q 72.67 65.1 72.96 64.79 Q 73.26 64.48 73.26 63.63 Q 73.26 62.89 72.95 62.45 Q 72.64 62.01 72.06 62.01 Z M 83.76 63.71 L 83.76 66.18 Q 83.76 66.52 83.81 66.71 Q 83.87 66.9 84.06 66.99 Q 84.25 67.06 84.65 67.06 L 84.65 67.39 L 81.88 67.39 L 81.88 67.06 Q 82.31 67.06 82.49 66.99 Q 82.68 66.9 82.72 66.71 Q 82.76 66.52 82.76 66.18 L 82.76 64.01 Q 82.76 63.29 82.6 62.93 Q 82.44 62.57 82.19 62.46 Q 81.94 62.34 81.66 62.34 Q 81.18 62.34 80.83 62.61 Q 80.48 62.86 80.21 63.1 L 80.21 66.18 Q 80.21 66.52 80.26 66.71 Q 80.3 66.9 80.5 66.99 Q 80.69 67.06 81.12 67.06 L 81.12 67.39 L 78.37 67.39 L 78.37 67.06 Q 78.78 67.06 78.95 66.99 Q 79.13 66.9 79.16 66.71 Q 79.21 66.52 79.21 66.18 L 79.21 62.81 Q 79.21 62.49 79.08 62.39 Q 78.95 62.28 78.71 62.28 Q 78.55 62.28 78.47 62.29 Q 78.38 62.31 78.38 62.31 L 78.38 61.96 L 79.91 61.61 L 80.18 61.61 L 80.17 62.58 L 80.22 62.58 Q 80.71 62.15 81.14 61.86 Q 81.59 61.57 82.15 61.57 Q 82.97 61.57 83.36 62.13 Q 83.76 62.68 83.76 63.71 Z M 88.6 66.65 L 88.55 66.65 Q 88.13 67.02 87.74 67.25 Q 87.36 67.48 86.78 67.48 Q 86.09 67.48 85.72 67.09 Q 85.36 66.71 85.36 66.13 Q 85.36 65.65 85.57 65.33 Q 85.8 64.99 86.16 64.77 Q 86.53 64.54 86.95 64.38 Q 87.38 64.23 87.79 64.12 Q 88.2 64.01 88.51 63.91 L 88.51 63.39 Q 88.51 62.61 88.24 62.28 Q 87.97 61.95 87.43 61.95 Q 86.92 61.95 86.77 62.16 Q 86.63 62.38 86.63 62.92 Q 86.63 63.47 86.1 63.47 Q 85.92 63.47 85.75 63.34 Q 85.6 63.19 85.6 62.89 Q 85.6 62.56 85.85 62.26 Q 86.11 61.96 86.58 61.77 Q 87.06 61.57 87.71 61.57 Q 88.69 61.57 89.1 62.03 Q 89.51 62.49 89.51 63.42 L 89.51 66.15 Q 89.51 66.52 89.59 66.63 Q 89.68 66.73 89.87 66.73 Q 90.04 66.73 90.17 66.65 Q 90.31 66.57 90.43 66.43 L 90.61 66.63 Q 90.31 67.06 90.04 67.26 Q 89.77 67.45 89.32 67.45 Q 88.92 67.45 88.79 67.25 Q 88.66 67.05 88.6 66.65 Z M 88.51 66.29 L 88.51 64.31 Q 87.97 64.44 87.49 64.62 Q 87.01 64.8 86.71 65.09 Q 86.41 65.38 86.41 65.85 Q 86.41 66.29 86.65 66.55 Q 86.89 66.82 87.28 66.82 Q 87.88 66.82 88.51 66.29 Z M 92.88 63.11 L 92.88 66.23 Q 92.88 66.73 93.05 66.89 Q 93.23 67.05 93.78 67.05 L 93.78 67.39 L 91.04 67.39 L 91.04 67.05 Q 91.43 67.05 91.6 66.99 Q 91.78 66.91 91.82 66.73 Q 91.88 66.54 91.88 66.18 L 91.88 62.82 Q 91.88 62.5 91.75 62.39 Q 91.63 62.28 91.38 62.28 Q 91.25 62.28 91.15 62.29 Q 91.06 62.31 91.06 62.31 L 91.06 61.96 L 92.56 61.61 L 92.84 61.61 L 92.84 62.58 L 92.89 62.58 Q 93.38 62.16 93.84 61.87 Q 94.3 61.57 94.91 61.57 Q 95.42 61.57 95.74 61.86 Q 96.06 62.14 96.24 62.57 L 96.29 62.57 Q 96.78 62.08 97.25 61.83 Q 97.72 61.57 98.2 61.57 Q 98.9 61.57 99.32 62.02 Q 99.74 62.46 99.74 63.55 L 99.74 66 Q 99.74 66.37 99.78 66.61 Q 99.83 66.84 100.01 66.95 Q 100.2 67.05 100.61 67.05 L 100.61 67.39 L 97.9 67.39 L 97.9 67.05 Q 98.3 67.05 98.48 66.94 Q 98.66 66.83 98.7 66.6 Q 98.75 66.36 98.75 66 L 98.75 63.7 Q 98.75 63.15 98.6 62.86 Q 98.47 62.57 98.23 62.46 Q 98 62.34 97.72 62.34 Q 97.34 62.34 96.98 62.59 Q 96.64 62.83 96.34 63.09 L 96.34 66 Q 96.34 66.41 96.38 66.64 Q 96.44 66.87 96.64 66.96 Q 96.83 67.05 97.26 67.05 L 97.26 67.39 L 94.42 67.39 L 94.42 67.05 Q 94.85 67.05 95.04 66.96 Q 95.23 66.88 95.28 66.65 Q 95.34 66.42 95.34 66 L 95.34 63.63 Q 95.34 62.86 95.06 62.61 Q 94.8 62.34 94.38 62.34 Q 93.91 62.34 93.53 62.61 Q 93.14 62.87 92.88 63.11 Z M 105.86 65.68 L 106.09 65.85 Q 105.88 66.3 105.59 66.69 Q 105.3 67.06 104.88 67.29 Q 104.47 67.51 103.85 67.51 Q 103.13 67.51 102.54 67.18 Q 101.96 66.83 101.63 66.17 Q 101.29 65.5 101.29 64.54 Q 101.29 63.53 101.63 62.88 Q 101.98 62.22 102.55 61.9 Q 103.13 61.57 103.82 61.57 Q 104.81 61.57 105.41 62.26 Q 106.01 62.94 106.06 64.2 L 102.26 64.2 Q 102.26 65.03 102.53 65.57 Q 102.8 66.1 103.22 66.36 Q 103.66 66.61 104.14 66.61 Q 104.63 66.61 104.93 66.48 Q 105.24 66.35 105.46 66.15 Q 105.67 65.93 105.86 65.68 Z M 102.25 63.76 L 104.93 63.76 Q 104.92 63.31 104.77 62.93 Q 104.63 62.53 104.35 62.29 Q 104.08 62.05 103.64 62.05 Q 102.4 62.05 102.25 63.76 Z" fill="#000000"/><path d="M 43.9 79.69 L 40.75 79.69 L 40.75 82.87 L 39.89 82.87 L 39.89 79.69 L 36.74 79.69 L 36.74 78.88 L 39.89 78.88 L 39.89 75.7 L 40.75 75.7 L 40.75 78.88 L 43.9 78.88 L 43.9 79.69 Z M 47.72 82.06 L 47.72 82.39 L 45.02 82.39 L 45.02 82.06 Q 45.43 82.06 45.6 81.99 Q 45.78 81.9 45.82 81.71 Q 45.86 81.52 45.86 81.18 L 45.86 77.83 Q 45.86 77.45 45.73 77.37 Q 45.6 77.27 45.34 77.27 Q 45.22 77.27 45.12 77.28 Q 45.04 77.29 45.04 77.29 L 45.04 76.95 L 46.55 76.61 L 46.86 76.61 L 46.86 81.18 Q 46.86 81.53 46.91 81.72 Q 46.96 81.91 47.14 81.99 Q 47.33 82.06 47.72 82.06 Z M 46.38 74.32 Q 46.69 74.32 46.87 74.52 Q 47.06 74.71 47.06 74.99 Q 47.06 75.27 46.87 75.47 Q 46.69 75.67 46.38 75.67 Q 46.08 75.67 45.89 75.47 Q 45.7 75.27 45.7 74.99 Q 45.7 74.71 45.88 74.52 Q 46.07 74.32 46.38 74.32 Z M 53.83 78.71 L 53.83 81.18 Q 53.83 81.52 53.88 81.71 Q 53.94 81.9 54.13 81.99 Q 54.32 82.06 54.72 82.06 L 54.72 82.39 L 51.95 82.39 L 51.95 82.06 Q 52.38 82.06 52.56 81.99 Q 52.75 81.9 52.79 81.71 Q 52.84 81.52 52.84 81.18 L 52.84 79.01 Q 52.84 78.29 52.67 77.93 Q 52.51 77.57 52.26 77.46 Q 52.01 77.34 51.73 77.34 Q 51.25 77.34 50.9 77.61 Q 50.56 77.86 50.28 78.1 L 50.28 81.18 Q 50.28 81.52 50.33 81.71 Q 50.38 81.9 50.57 81.99 Q 50.76 82.06 51.19 82.06 L 51.19 82.39 L 48.44 82.39 L 48.44 82.06 Q 48.85 82.06 49.02 81.99 Q 49.2 81.9 49.24 81.71 Q 49.28 81.52 49.28 81.18 L 49.28 77.81 Q 49.28 77.49 49.15 77.39 Q 49.02 77.28 48.78 77.28 Q 48.62 77.28 48.54 77.29 Q 48.46 77.31 48.46 77.31 L 48.46 76.96 L 49.98 76.61 L 50.26 76.61 L 50.24 77.58 L 50.29 77.58 Q 50.78 77.15 51.22 76.86 Q 51.66 76.57 52.22 76.57 Q 53.04 76.57 53.44 77.13 Q 53.83 77.68 53.83 78.71 Z M 58.49 81.31 L 58.72 81.51 Q 58.49 81.83 58.28 82.06 Q 58.09 82.27 57.85 82.39 Q 57.61 82.51 57.23 82.51 Q 56.63 82.51 56.35 82.17 Q 56.08 81.81 56.08 81 L 56.08 77.28 L 55.42 77.28 L 55.42 77.01 Q 55.84 76.74 56.14 76.3 Q 56.45 75.84 56.77 75.07 L 57.08 75.07 L 57.07 76.78 L 58.43 76.78 L 58.43 77.28 L 57.07 77.28 L 57.07 80.67 Q 57.07 81.3 57.18 81.55 Q 57.3 81.81 57.65 81.81 Q 57.94 81.81 58.09 81.69 Q 58.26 81.57 58.49 81.31 Z M 65.27 81.65 L 65.22 81.65 Q 64.8 82.02 64.42 82.25 Q 64.03 82.48 63.46 82.48 Q 62.76 82.48 62.39 82.09 Q 62.03 81.71 62.03 81.13 Q 62.03 80.65 62.24 80.33 Q 62.47 79.99 62.83 79.77 Q 63.2 79.54 63.62 79.38 Q 64.06 79.23 64.46 79.12 Q 64.87 79.01 65.18 78.91 L 65.18 78.39 Q 65.18 77.61 64.91 77.28 Q 64.64 76.95 64.1 76.95 Q 63.59 76.95 63.44 77.16 Q 63.3 77.38 63.3 77.92 Q 63.3 78.47 62.77 78.47 Q 62.59 78.47 62.42 78.34 Q 62.27 78.19 62.27 77.89 Q 62.27 77.56 62.52 77.26 Q 62.78 76.96 63.25 76.77 Q 63.73 76.57 64.38 76.57 Q 65.36 76.57 65.77 77.03 Q 66.18 77.49 66.18 78.42 L 66.18 81.15 Q 66.18 81.52 66.26 81.63 Q 66.35 81.73 66.54 81.73 Q 66.71 81.73 66.84 81.65 Q 66.98 81.57 67.1 81.43 L 67.28 81.63 Q 66.98 82.06 66.71 82.26 Q 66.44 82.45 65.99 82.45 Q 65.59 82.45 65.46 82.25 Q 65.33 82.05 65.27 81.65 Z M 65.18 81.29 L 65.18 79.31 Q 64.64 79.44 64.16 79.62 Q 63.68 79.8 63.38 80.09 Q 63.08 80.38 63.08 80.85 Q 63.08 81.29 63.32 81.55 Q 63.56 81.82 63.95 81.82 Q 64.55 81.82 65.18 81.29 Z M 68.87 80.19 L 68.87 80.16 Q 68.44 79.91 68.18 79.51 Q 67.94 79.12 67.94 78.53 Q 67.94 77.63 68.56 77.1 Q 69.17 76.57 70.12 76.57 Q 70.51 76.57 70.81 76.65 Q 71.11 76.72 71.28 76.8 Q 71.45 76.87 71.45 76.87 L 73 76.79 L 73 77.44 L 71.87 77.4 L 71.87 77.46 Q 72 77.64 72.14 77.94 Q 72.3 78.24 72.3 78.7 Q 72.3 79.54 71.71 80.03 Q 71.12 80.52 70.18 80.52 Q 69.89 80.52 69.64 80.47 Q 69.38 80.43 69.14 80.34 Q 69.06 80.46 68.94 80.73 Q 68.83 80.99 68.83 81.15 Q 68.83 81.41 69.12 81.52 Q 69.42 81.63 70.25 81.63 Q 71 81.63 71.6 81.7 Q 72.22 81.77 72.56 82.07 Q 72.91 82.37 72.91 83.05 Q 72.91 83.65 72.61 84.06 Q 72.32 84.48 71.83 84.73 Q 71.35 84.99 70.76 85.09 Q 70.19 85.21 69.62 85.21 Q 68.84 85.21 68.39 85.02 Q 67.94 84.83 67.76 84.52 Q 67.58 84.22 67.58 83.89 Q 67.58 83.59 67.82 83.26 Q 68.08 82.93 68.56 82.47 L 68.56 82.42 Q 68.26 82.26 68.06 82.03 Q 67.88 81.81 67.88 81.55 Q 67.88 81.23 68.16 80.87 Q 68.45 80.51 68.87 80.19 Z M 68.86 82.51 Q 68.66 82.85 68.59 83.07 Q 68.52 83.29 68.52 83.49 Q 68.52 84.53 70.32 84.53 Q 71.03 84.53 71.46 84.35 Q 71.9 84.17 72.1 83.91 Q 72.3 83.64 72.3 83.39 Q 72.3 83.08 72.11 82.9 Q 71.92 82.73 71.6 82.66 Q 71.3 82.59 70.96 82.56 Q 70.62 82.54 70.32 82.54 Q 70.25 82.54 70.21 82.54 Q 69.73 82.53 69.47 82.53 Q 69.2 82.53 69.07 82.51 Q 68.94 82.51 68.86 82.51 Z M 70.03 77.01 Q 69.56 77.01 69.28 77.37 Q 69 77.73 69 78.48 Q 69 79.25 69.3 79.68 Q 69.6 80.1 70.19 80.1 Q 70.64 80.1 70.93 79.79 Q 71.23 79.48 71.23 78.63 Q 71.23 77.89 70.92 77.45 Q 70.61 77.01 70.03 77.01 Z M 78.12 80.68 L 78.35 80.85 Q 78.13 81.3 77.84 81.69 Q 77.56 82.06 77.14 82.29 Q 76.73 82.51 76.1 82.51 Q 75.38 82.51 74.8 82.18 Q 74.22 81.83 73.88 81.17 Q 73.55 80.5 73.55 79.54 Q 73.55 78.53 73.88 77.88 Q 74.23 77.22 74.81 76.9 Q 75.38 76.57 76.08 76.57 Q 77.06 76.57 77.66 77.26 Q 78.26 77.94 78.31 79.2 L 74.52 79.2 Q 74.52 80.03 74.78 80.57 Q 75.06 81.1 75.48 81.36 Q 75.91 81.61 76.39 81.61 Q 76.88 81.61 77.18 81.48 Q 77.5 81.35 77.71 81.15 Q 77.93 80.93 78.12 80.68 Z M 74.51 78.76 L 77.18 78.76 Q 77.17 78.31 77.03 77.93 Q 76.88 77.53 76.61 77.29 Q 76.33 77.05 75.9 77.05 Q 74.65 77.05 74.51 78.76 Z" fill="#000000"/><path d="M 43.9 106.69 L 40.75 106.69 L 40.75 109.87 L 39.89 109.87 L 39.89 106.69 L 36.74 106.69 L 36.74 105.88 L 39.89 105.88 L 39.89 102.7 L 40.75 102.7 L 40.75 105.88 L 43.9 105.88 L 43.9 106.69 Z M 49.62 107.68 L 49.85 107.85 Q 49.63 108.3 49.34 108.69 Q 49.06 109.06 48.64 109.29 Q 48.23 109.51 47.6 109.51 Q 46.88 109.51 46.3 109.18 Q 45.72 108.83 45.38 108.17 Q 45.05 107.5 45.05 106.54 Q 45.05 105.53 45.38 104.88 Q 45.73 104.22 46.31 103.9 Q 46.88 103.57 47.58 103.57 Q 48.56 103.57 49.16 104.26 Q 49.76 104.94 49.81 106.2 L 46.02 106.2 Q 46.02 107.03 46.28 107.57 Q 46.56 108.1 46.98 108.36 Q 47.41 108.61 47.89 108.61 Q 48.38 108.61 48.68 108.48 Q 49 108.35 49.21 108.15 Q 49.43 107.93 49.62 107.68 Z M 46.01 105.76 L 48.68 105.76 Q 48.67 105.31 48.53 104.93 Q 48.38 104.53 48.11 104.29 Q 47.83 104.05 47.4 104.05 Q 46.15 104.05 46.01 105.76 Z M 53.9 108.65 L 53.86 108.65 Q 53.44 109.02 53.05 109.25 Q 52.67 109.48 52.09 109.48 Q 51.4 109.48 51.02 109.09 Q 50.66 108.71 50.66 108.13 Q 50.66 107.65 50.88 107.33 Q 51.11 106.99 51.47 106.77 Q 51.84 106.54 52.26 106.38 Q 52.69 106.23 53.1 106.12 Q 53.51 106.01 53.82 105.91 L 53.82 105.39 Q 53.82 104.61 53.54 104.28 Q 53.28 103.95 52.74 103.95 Q 52.22 103.95 52.08 104.16 Q 51.94 104.38 51.94 104.92 Q 51.94 105.47 51.41 105.47 Q 51.23 105.47 51.06 105.34 Q 50.9 105.19 50.9 104.89 Q 50.9 104.56 51.16 104.26 Q 51.42 103.96 51.89 103.77 Q 52.37 103.57 53.02 103.57 Q 54 103.57 54.41 104.03 Q 54.82 104.49 54.82 105.42 L 54.82 108.15 Q 54.82 108.52 54.9 108.63 Q 54.98 108.73 55.18 108.73 Q 55.34 108.73 55.48 108.65 Q 55.62 108.57 55.74 108.43 L 55.92 108.63 Q 55.62 109.06 55.34 109.26 Q 55.08 109.45 54.62 109.45 Q 54.23 109.45 54.1 109.25 Q 53.96 109.05 53.9 108.65 Z M 53.82 108.29 L 53.82 106.31 Q 53.28 106.44 52.8 106.62 Q 52.32 106.8 52.02 107.09 Q 51.72 107.38 51.72 107.85 Q 51.72 108.29 51.96 108.55 Q 52.2 108.82 52.58 108.82 Q 53.18 108.82 53.82 108.29 Z M 59.48 108.31 L 59.71 108.51 Q 59.48 108.83 59.28 109.06 Q 59.09 109.27 58.85 109.39 Q 58.61 109.51 58.22 109.51 Q 57.62 109.51 57.35 109.17 Q 57.07 108.81 57.07 108 L 57.07 104.28 L 56.41 104.28 L 56.41 104.01 Q 56.83 103.74 57.13 103.3 Q 57.44 102.84 57.77 102.07 L 58.08 102.07 L 58.07 103.78 L 59.42 103.78 L 59.42 104.28 L 58.07 104.28 L 58.07 107.67 Q 58.07 108.3 58.18 108.55 Q 58.3 108.81 58.64 108.81 Q 58.93 108.81 59.09 108.69 Q 59.26 108.57 59.48 108.31 Z M 60.29 106.15 Q 60.29 104.15 61.15 102.73 Q 62.03 101.32 63.48 100.56 L 63.67 100.87 Q 62.36 101.76 61.81 103.05 Q 61.27 104.32 61.27 106.15 Q 61.27 107.99 61.81 109.27 Q 62.36 110.55 63.67 111.43 L 63.48 111.75 Q 62.03 110.99 61.15 109.57 Q 60.29 108.16 60.29 106.15 Z M 67.78 106.15 Q 67.78 108.16 66.9 109.57 Q 66.04 110.99 64.58 111.75 L 64.39 111.43 Q 65.71 110.55 66.25 109.27 Q 66.79 107.99 66.79 106.15 Q 66.79 104.32 66.25 103.05 Q 65.71 101.76 64.39 100.87 L 64.58 100.56 Q 66.04 101.32 66.9 102.73 Q 67.78 104.15 67.78 106.15 Z M 77.11 103.72 L 77.11 104.07 Q 76.76 104.07 76.57 104.23 Q 76.39 104.39 76.21 104.86 L 74.32 109.47 L 73.74 109.47 L 71.95 104.94 Q 71.8 104.57 71.68 104.39 Q 71.56 104.2 71.4 104.14 Q 71.24 104.07 70.98 104.07 L 70.98 103.72 L 73.51 103.72 L 73.51 104.07 Q 73.16 104.07 73.02 104.15 Q 72.89 104.22 72.89 104.37 Q 72.89 104.49 72.92 104.59 Q 72.96 104.7 73.01 104.83 L 74.03 107.51 L 74.26 108.23 L 74.33 108.23 L 74.58 107.5 L 75.61 104.79 Q 75.62 104.74 75.66 104.64 Q 75.7 104.53 75.7 104.39 Q 75.7 104.19 75.52 104.13 Q 75.34 104.07 75.01 104.07 L 75.01 103.72 L 77.11 103.72 Z M 80 103.57 Q 81.24 103.57 81.95 104.34 Q 82.67 105.11 82.67 106.44 Q 82.67 107.45 82.32 108.13 Q 81.98 108.82 81.38 109.17 Q 80.78 109.51 80 109.51 Q 78.74 109.51 78.02 108.73 Q 77.32 107.94 77.32 106.49 Q 77.32 105.61 77.65 104.97 Q 77.99 104.31 78.59 103.95 Q 79.2 103.57 80 103.57 Z M 79.96 104.03 Q 79.27 104.03 78.85 104.61 Q 78.43 105.18 78.43 106.33 Q 78.43 107.76 78.85 108.41 Q 79.28 109.05 80.05 109.03 Q 80.54 109.03 80.88 108.81 Q 81.22 108.58 81.38 108.03 Q 81.56 107.47 81.56 106.5 Q 81.56 105.4 81.16 104.71 Q 80.76 104.03 79.96 104.03 Z M 86.16 109.06 L 86.16 109.39 L 83.46 109.39 L 83.46 109.06 Q 83.87 109.06 84.04 108.99 Q 84.22 108.9 84.25 108.71 Q 84.3 108.52 84.3 108.18 L 84.3 104.83 Q 84.3 104.45 84.17 104.37 Q 84.04 104.27 83.77 104.27 Q 83.65 104.27 83.56 104.28 Q 83.47 104.29 83.47 104.29 L 83.47 103.95 L 84.98 103.61 L 85.3 103.61 L 85.3 108.18 Q 85.3 108.53 85.34 108.72 Q 85.39 108.91 85.57 108.99 Q 85.76 109.06 86.16 109.06 Z M 84.82 101.32 Q 85.13 101.32 85.31 101.52 Q 85.5 101.71 85.5 101.99 Q 85.5 102.27 85.31 102.47 Q 85.13 102.67 84.82 102.67 Q 84.52 102.67 84.32 102.47 Q 84.13 102.27 84.13 101.99 Q 84.13 101.71 84.31 101.52 Q 84.5 101.32 84.82 101.32 Z M 92.66 109.18 L 91.13 109.45 L 90.85 109.45 L 90.85 108.63 L 90.8 108.63 Q 90.47 108.93 90 109.21 Q 89.54 109.49 88.94 109.49 Q 88.27 109.49 87.8 109.13 Q 87.35 108.77 87.12 108.16 Q 86.89 107.53 86.89 106.77 Q 86.89 105.77 87.26 105.06 Q 87.64 104.34 88.26 103.96 Q 88.9 103.57 89.65 103.57 Q 89.95 103.57 90.24 103.65 Q 90.54 103.71 90.82 103.86 L 90.82 102.29 Q 90.82 101.89 90.72 101.77 Q 90.64 101.65 90.29 101.65 Q 90.2 101.65 90.08 101.67 Q 89.98 101.68 89.98 101.68 L 89.98 101.34 L 91.49 100.92 L 91.81 100.92 L 91.81 108.11 Q 91.81 108.58 91.94 108.72 Q 92.08 108.85 92.41 108.85 L 92.66 108.85 L 92.66 109.18 Z M 90.82 108.18 L 90.82 105.01 Q 90.74 104.64 90.47 104.35 Q 90.19 104.05 89.63 104.05 Q 88.87 104.05 88.4 104.61 Q 87.94 105.16 87.94 106.3 Q 87.94 107.53 88.33 108.09 Q 88.74 108.63 89.51 108.63 Q 89.93 108.63 90.22 108.52 Q 90.5 108.4 90.82 108.18 Z" fill="#000000"/><path d="M 43.9 121.69 L 40.75 121.69 L 40.75 124.87 L 39.89 124.87 L 39.89 121.69 L 36.74 121.69 L 36.74 120.88 L 39.89 120.88 L 39.89 117.7 L 40.75 117.7 L 40.75 120.88 L 43.9 120.88 L 43.9 121.69 Z M 45.11 122.43 L 45.42 122.43 Q 45.61 123.35 45.98 123.72 Q 46.36 124.08 47.02 124.08 Q 47.47 124.08 47.76 123.9 Q 48.05 123.71 48.05 123.29 Q 48.05 123 47.94 122.81 Q 47.84 122.62 47.56 122.43 Q 47.27 122.22 46.7 121.95 Q 45.89 121.53 45.5 121.14 Q 45.12 120.75 45.12 120.09 Q 45.12 119.34 45.65 118.96 Q 46.19 118.57 46.96 118.57 Q 47.41 118.57 47.7 118.68 Q 47.99 118.78 48.22 118.89 L 48.23 118.89 L 48.43 118.63 L 48.67 118.63 L 48.71 120.47 L 48.38 120.47 Q 48.19 119.62 47.84 119.31 Q 47.5 118.98 46.94 118.98 Q 46.54 118.98 46.25 119.17 Q 45.97 119.37 45.97 119.77 Q 45.97 120.12 46.3 120.4 Q 46.62 120.67 47.38 121.06 Q 48.19 121.49 48.62 121.9 Q 49.06 122.29 49.06 122.97 Q 49.06 123.53 48.78 123.88 Q 48.5 124.21 48.04 124.37 Q 47.58 124.53 47.04 124.53 Q 46.52 124.53 46.21 124.42 Q 45.91 124.31 45.67 124.21 L 45.65 124.21 L 45.4 124.49 L 45.14 124.49 L 45.11 122.43 Z M 52.5 124.05 L 52.5 124.39 L 49.74 124.39 L 49.74 124.05 Q 50.14 124.05 50.32 123.97 Q 50.5 123.89 50.53 123.71 Q 50.58 123.52 50.58 123.18 L 50.58 117.16 Q 50.58 116.79 50.44 116.71 Q 50.3 116.64 50.08 116.64 Q 49.92 116.64 49.8 116.65 Q 49.69 116.67 49.69 116.67 L 49.69 116.34 L 51.28 115.92 L 51.58 115.92 L 51.58 123.18 Q 51.58 123.53 51.62 123.72 Q 51.68 123.9 51.88 123.97 Q 52.07 124.05 52.5 124.05 Z M 57.76 122.68 L 57.98 122.85 Q 57.77 123.3 57.48 123.69 Q 57.19 124.06 56.77 124.29 Q 56.36 124.51 55.74 124.51 Q 55.02 124.51 54.43 124.18 Q 53.86 123.83 53.52 123.17 Q 53.18 122.5 53.18 121.54 Q 53.18 120.53 53.52 119.88 Q 53.87 119.22 54.44 118.9 Q 55.02 118.57 55.72 118.57 Q 56.7 118.57 57.3 119.26 Q 57.9 119.94 57.95 121.2 L 54.16 121.2 Q 54.16 122.03 54.42 122.57 Q 54.7 123.1 55.12 123.36 Q 55.55 123.61 56.03 123.61 Q 56.52 123.61 56.82 123.48 Q 57.13 123.35 57.35 123.15 Q 57.56 122.93 57.76 122.68 Z M 54.14 120.76 L 56.82 120.76 Q 56.81 120.31 56.66 119.93 Q 56.52 119.53 56.24 119.29 Q 55.97 119.05 55.54 119.05 Q 54.29 119.05 54.14 120.76 Z M 63.32 122.68 L 63.55 122.85 Q 63.34 123.3 63.05 123.69 Q 62.76 124.06 62.34 124.29 Q 61.93 124.51 61.31 124.51 Q 60.59 124.51 60 124.18 Q 59.42 123.83 59.09 123.17 Q 58.75 122.5 58.75 121.54 Q 58.75 120.53 59.09 119.88 Q 59.44 119.22 60.01 118.9 Q 60.59 118.57 61.28 118.57 Q 62.27 118.57 62.87 119.26 Q 63.47 119.94 63.52 121.2 L 59.72 121.2 Q 59.72 122.03 59.99 122.57 Q 60.26 123.1 60.68 123.36 Q 61.12 123.61 61.6 123.61 Q 62.09 123.61 62.39 123.48 Q 62.7 123.35 62.92 123.15 Q 63.13 122.93 63.32 122.68 Z M 59.71 120.76 L 62.39 120.76 Q 62.38 120.31 62.23 119.93 Q 62.09 119.53 61.81 119.29 Q 61.54 119.05 61.1 119.05 Q 59.86 119.05 59.71 120.76 Z M 66.02 118.61 L 66.02 119.62 L 66.06 119.62 Q 66.49 119.11 66.94 118.85 Q 67.39 118.57 67.92 118.57 Q 68.52 118.57 68.96 118.92 Q 69.42 119.26 69.67 119.87 Q 69.94 120.47 69.94 121.26 Q 69.94 122.28 69.58 123.01 Q 69.23 123.73 68.63 124.13 Q 68.03 124.51 67.31 124.51 Q 66.97 124.51 66.66 124.43 Q 66.36 124.36 66.1 124.18 L 66.05 124.18 L 66.05 125.75 Q 66.05 126.13 66.14 126.34 Q 66.24 126.54 66.49 126.61 Q 66.74 126.69 67.21 126.69 L 67.21 127.03 L 64.18 127.03 L 64.18 126.7 Q 64.74 126.7 64.9 126.51 Q 65.05 126.33 65.05 125.82 L 65.05 119.88 Q 65.05 119.53 64.97 119.4 Q 64.9 119.27 64.6 119.27 Q 64.48 119.27 64.34 119.28 Q 64.21 119.29 64.21 119.29 L 64.21 118.95 L 65.72 118.61 L 66.02 118.61 Z M 66.05 120.12 L 66.05 123.25 Q 66.17 123.37 66.35 123.57 Q 66.53 123.76 66.78 123.9 Q 67.03 124.05 67.37 124.05 Q 68 124.05 68.42 123.45 Q 68.84 122.85 68.84 121.6 Q 68.84 120.46 68.47 119.93 Q 68.1 119.39 67.43 119.39 Q 66.95 119.39 66.58 119.64 Q 66.22 119.89 66.05 120.12 Z M 70.9 121.15 Q 70.9 119.15 71.76 117.73 Q 72.64 116.32 74.09 115.56 L 74.28 115.87 Q 72.97 116.76 72.42 118.05 Q 71.88 119.32 71.88 121.15 Q 71.88 122.99 72.42 124.27 Q 72.97 125.55 74.28 126.43 L 74.09 126.75 Q 72.64 125.99 71.76 124.57 Q 70.9 123.16 70.9 121.15 Z M 78.38 121.15 Q 78.38 123.16 77.51 124.57 Q 76.64 125.99 75.19 126.75 L 75 126.43 Q 76.32 125.55 76.86 124.27 Q 77.4 122.99 77.4 121.15 Q 77.4 119.32 76.86 118.05 Q 76.32 116.76 75 115.87 L 75.19 115.56 Q 76.64 116.32 77.51 117.73 Q 78.38 119.15 78.38 121.15 Z" fill="#000000"/><path d="M 204.15 34.13 L 207.72 34.13 Q 208.74 34.13 209.61 34.35 Q 210.49 34.56 211.14 35.06 Q 211.79 35.55 212.16 36.36 Q 212.53 37.16 212.53 38.36 Q 212.53 39.85 211.95 40.82 Q 211.38 41.77 210.32 42.22 Q 209.27 42.68 207.87 42.68 L 204.15 42.68 L 204.15 42.29 Q 204.72 42.29 204.99 42.21 Q 205.27 42.12 205.34 41.86 Q 205.42 41.58 205.42 41.06 L 205.42 35.62 Q 205.42 35.14 205.3 34.91 Q 205.19 34.68 204.91 34.6 Q 204.64 34.52 204.15 34.52 L 204.15 34.13 Z M 206.62 34.69 L 206.62 42.14 Q 207.01 42.18 207.38 42.18 Q 208.57 42.18 209.41 41.87 Q 210.26 41.54 210.71 40.74 Q 211.17 39.93 211.17 38.48 Q 211.17 36.62 210.22 35.64 Q 209.27 34.67 207.25 34.67 Q 207.1 34.67 206.94 34.67 Q 206.8 34.67 206.62 34.69 Z M 216.54 36.37 Q 217.88 36.37 218.64 37.2 Q 219.42 38.03 219.42 39.48 Q 219.42 40.57 219.05 41.31 Q 218.68 42.05 218.03 42.43 Q 217.38 42.81 216.54 42.81 Q 215.17 42.81 214.39 41.96 Q 213.62 41.1 213.62 39.53 Q 213.62 38.58 213.99 37.88 Q 214.35 37.16 215 36.77 Q 215.67 36.37 216.54 36.37 Z M 216.48 36.86 Q 215.74 36.86 215.29 37.49 Q 214.83 38.11 214.83 39.36 Q 214.83 40.91 215.29 41.61 Q 215.76 42.3 216.59 42.29 Q 217.12 42.29 217.49 42.04 Q 217.85 41.79 218.03 41.19 Q 218.23 40.6 218.23 39.54 Q 218.23 38.35 217.78 37.6 Q 217.36 36.86 216.48 36.86 Z M 221.53 40.28 L 221.53 40.26 Q 221.06 39.98 220.79 39.56 Q 220.53 39.13 220.53 38.49 Q 220.53 37.51 221.19 36.94 Q 221.85 36.37 222.88 36.37 Q 223.31 36.37 223.63 36.45 Q 223.96 36.53 224.14 36.62 Q 224.32 36.7 224.32 36.7 L 226 36.6 L 226 37.31 L 224.78 37.27 L 224.78 37.33 Q 224.92 37.53 225.08 37.85 Q 225.25 38.18 225.25 38.67 Q 225.25 39.58 224.61 40.11 Q 223.97 40.65 222.95 40.65 Q 222.63 40.65 222.36 40.6 Q 222.09 40.54 221.83 40.45 Q 221.74 40.58 221.61 40.87 Q 221.49 41.15 221.49 41.32 Q 221.49 41.61 221.8 41.73 Q 222.13 41.84 223.02 41.84 Q 223.84 41.84 224.49 41.92 Q 225.16 42 225.53 42.32 Q 225.91 42.65 225.91 43.39 Q 225.91 44.04 225.58 44.48 Q 225.27 44.94 224.74 45.21 Q 224.22 45.48 223.58 45.6 Q 222.96 45.73 222.35 45.73 Q 221.5 45.73 221.01 45.52 Q 220.53 45.31 220.33 44.98 Q 220.14 44.65 220.14 44.3 Q 220.14 43.97 220.4 43.61 Q 220.67 43.26 221.19 42.75 L 221.19 42.7 Q 220.87 42.53 220.66 42.29 Q 220.46 42.04 220.46 41.77 Q 220.46 41.41 220.76 41.02 Q 221.07 40.63 221.53 40.28 Z M 221.52 42.81 Q 221.31 43.17 221.23 43.4 Q 221.15 43.65 221.15 43.86 Q 221.15 44.99 223.1 44.99 Q 223.87 44.99 224.34 44.79 Q 224.82 44.6 225.03 44.31 Q 225.25 44.03 225.25 43.75 Q 225.25 43.42 225.04 43.22 Q 224.83 43.04 224.49 42.96 Q 224.17 42.88 223.79 42.86 Q 223.43 42.83 223.1 42.83 Q 223.02 42.83 222.98 42.83 Q 222.46 42.82 222.18 42.82 Q 221.89 42.82 221.75 42.81 Q 221.61 42.81 221.52 42.81 Z M 222.79 36.84 Q 222.28 36.84 221.97 37.23 Q 221.67 37.62 221.67 38.44 Q 221.67 39.27 222 39.74 Q 222.32 40.19 222.96 40.19 Q 223.45 40.19 223.76 39.85 Q 224.09 39.52 224.09 38.59 Q 224.09 37.8 223.75 37.32 Q 223.41 36.84 222.79 36.84 Z" fill="#000000"/><path d="M 190.35 76.69 L 187.2 76.69 L 187.2 79.87 L 186.34 79.87 L 186.34 76.69 L 183.2 76.69 L 183.2 75.88 L 186.34 75.88 L 186.34 72.7 L 187.2 72.7 L 187.2 75.88 L 190.35 75.88 L 190.35 76.69 Z M 193.05 70.92 L 193.05 74.59 L 193.08 74.59 Q 193.4 74.21 193.86 73.9 Q 194.33 73.57 194.93 73.57 Q 195.53 73.57 195.98 73.92 Q 196.43 74.26 196.68 74.86 Q 196.94 75.46 196.94 76.24 Q 196.94 77.31 196.56 78.04 Q 196.19 78.77 195.54 79.14 Q 194.9 79.51 194.06 79.51 Q 193.29 79.51 192.77 79.33 Q 192.27 79.15 192.05 79.03 L 192.05 72.29 Q 192.05 71.88 191.96 71.77 Q 191.87 71.65 191.52 71.65 Q 191.38 71.65 191.28 71.67 Q 191.19 71.68 191.19 71.68 L 191.19 71.34 L 192.74 70.92 L 193.05 70.92 Z M 193.05 75.12 L 193.05 78.46 Q 193.22 78.66 193.5 78.84 Q 193.79 79.02 194.27 79.02 Q 194.85 79.02 195.18 78.7 Q 195.53 78.37 195.69 77.83 Q 195.84 77.28 195.84 76.62 Q 195.84 76.05 195.72 75.54 Q 195.6 75.03 195.29 74.71 Q 194.98 74.39 194.4 74.39 Q 193.95 74.39 193.58 74.65 Q 193.22 74.91 193.05 75.12 Z M 201.05 78.65 L 201 78.65 Q 200.58 79.02 200.2 79.25 Q 199.82 79.48 199.24 79.48 Q 198.54 79.48 198.17 79.09 Q 197.81 78.71 197.81 78.13 Q 197.81 77.65 198.03 77.33 Q 198.26 76.99 198.62 76.77 Q 198.99 76.54 199.41 76.38 Q 199.84 76.23 200.25 76.12 Q 200.66 76.01 200.97 75.91 L 200.97 75.39 Q 200.97 74.61 200.69 74.28 Q 200.43 73.95 199.89 73.95 Q 199.37 73.95 199.23 74.16 Q 199.08 74.38 199.08 74.92 Q 199.08 75.47 198.56 75.47 Q 198.38 75.47 198.21 75.34 Q 198.05 75.19 198.05 74.89 Q 198.05 74.56 198.3 74.26 Q 198.57 73.96 199.04 73.77 Q 199.52 73.57 200.16 73.57 Q 201.15 73.57 201.56 74.03 Q 201.96 74.49 201.96 75.42 L 201.96 78.15 Q 201.96 78.52 202.05 78.63 Q 202.13 78.73 202.32 78.73 Q 202.49 78.73 202.62 78.65 Q 202.77 78.57 202.89 78.43 L 203.07 78.63 Q 202.77 79.06 202.49 79.26 Q 202.23 79.45 201.77 79.45 Q 201.38 79.45 201.24 79.25 Q 201.11 79.05 201.05 78.65 Z M 200.97 78.29 L 200.97 76.31 Q 200.43 76.44 199.95 76.62 Q 199.47 76.8 199.17 77.09 Q 198.87 77.38 198.87 77.85 Q 198.87 78.29 199.11 78.55 Q 199.35 78.82 199.73 78.82 Q 200.33 78.82 200.97 78.29 Z M 205.31 73.61 L 205.31 74.85 L 205.35 74.85 Q 205.8 74.17 206.13 73.86 Q 206.46 73.54 206.9 73.54 Q 207.24 73.54 207.41 73.72 Q 207.59 73.9 207.59 74.21 Q 207.59 74.55 207.42 74.7 Q 207.27 74.86 207.06 74.86 Q 206.87 74.86 206.72 74.76 Q 206.57 74.65 206.46 74.56 Q 206.36 74.45 206.28 74.45 Q 206.08 74.45 205.82 74.76 Q 205.55 75.07 205.34 75.43 L 205.34 78.17 Q 205.34 78.54 205.43 78.73 Q 205.53 78.93 205.77 78.99 Q 206.02 79.05 206.46 79.05 L 206.46 79.39 L 203.46 79.39 L 203.46 79.05 Q 203.86 79.05 204.04 78.99 Q 204.23 78.91 204.28 78.75 Q 204.34 78.57 204.34 78.23 L 204.34 74.93 Q 204.34 74.61 204.28 74.45 Q 204.23 74.28 203.91 74.28 Q 203.73 74.28 203.63 74.29 Q 203.54 74.31 203.54 74.31 L 203.54 73.97 L 205.02 73.61 L 205.31 73.61 Z M 214.14 79.39 L 211.49 79.39 L 211.49 79.05 Q 211.76 79.05 211.85 79.02 Q 211.96 78.99 211.96 78.9 Q 211.96 78.82 211.91 78.75 Q 211.88 78.66 211.83 78.61 L 209.94 76.48 L 209.87 76.48 L 209.87 78.3 Q 209.87 78.76 210.03 78.9 Q 210.2 79.05 210.76 79.05 L 210.76 79.39 L 208.04 79.39 L 208.04 79.05 Q 208.58 79.05 208.72 78.9 Q 208.88 78.75 208.88 78.25 L 208.88 72.25 Q 208.88 71.87 208.78 71.76 Q 208.7 71.64 208.4 71.64 Q 208.28 71.64 208.13 71.65 Q 207.99 71.67 207.99 71.67 L 207.99 71.34 L 209.55 70.92 L 209.87 70.92 L 209.87 76.21 L 209.94 76.21 L 211.49 74.68 Q 211.53 74.64 211.61 74.55 Q 211.71 74.44 211.71 74.29 Q 211.71 74.17 211.59 74.13 Q 211.47 74.08 211.12 74.08 L 211.12 73.72 L 213.71 73.72 L 213.71 74.08 Q 213.42 74.08 213.2 74.14 Q 212.98 74.19 212.75 74.34 Q 212.52 74.49 212.19 74.76 Q 211.86 75.04 211.36 75.48 L 210.76 75.97 L 212.87 78.35 Q 213.16 78.67 213.34 78.83 Q 213.53 78.97 213.71 79.01 Q 213.89 79.05 214.14 79.05 L 214.14 79.39 Z M 214.72 76.15 Q 214.72 74.15 215.58 72.73 Q 216.46 71.32 217.91 70.56 L 218.1 70.87 Q 216.8 71.76 216.24 73.05 Q 215.7 74.32 215.7 76.15 Q 215.7 77.99 216.24 79.27 Q 216.8 80.55 218.1 81.43 L 217.91 81.75 Q 216.46 80.99 215.58 79.57 Q 214.72 78.16 214.72 76.15 Z M 222.21 76.15 Q 222.21 78.16 221.33 79.57 Q 220.47 80.99 219.02 81.75 L 218.82 81.43 Q 220.14 80.55 220.68 79.27 Q 221.22 77.99 221.22 76.15 Q 221.22 74.32 220.68 73.05 Q 220.14 71.76 218.82 70.87 L 219.02 70.56 Q 220.47 71.32 221.33 72.73 Q 222.21 74.15 222.21 76.15 Z M 231.54 73.72 L 231.54 74.07 Q 231.2 74.07 231 74.23 Q 230.82 74.39 230.64 74.86 L 228.75 79.47 L 228.17 79.47 L 226.38 74.94 Q 226.23 74.57 226.11 74.39 Q 225.99 74.2 225.83 74.14 Q 225.68 74.07 225.41 74.07 L 225.41 73.72 L 227.94 73.72 L 227.94 74.07 Q 227.6 74.07 227.45 74.15 Q 227.32 74.22 227.32 74.37 Q 227.32 74.49 227.36 74.59 Q 227.39 74.7 227.44 74.83 L 228.46 77.51 L 228.69 78.23 L 228.76 78.23 L 229.01 77.5 L 230.04 74.79 Q 230.06 74.74 230.09 74.64 Q 230.13 74.53 230.13 74.39 Q 230.13 74.19 229.95 74.13 Q 229.77 74.07 229.44 74.07 L 229.44 73.72 L 231.54 73.72 Z M 234.44 73.57 Q 235.67 73.57 236.38 74.34 Q 237.1 75.11 237.1 76.44 Q 237.1 77.45 236.75 78.13 Q 236.42 78.82 235.82 79.17 Q 235.22 79.51 234.44 79.51 Q 233.18 79.51 232.46 78.73 Q 231.75 77.94 231.75 76.49 Q 231.75 75.61 232.08 74.97 Q 232.42 74.31 233.02 73.95 Q 233.63 73.57 234.44 73.57 Z M 234.39 74.03 Q 233.7 74.03 233.28 74.61 Q 232.86 75.18 232.86 76.33 Q 232.86 77.76 233.28 78.41 Q 233.72 79.05 234.48 79.03 Q 234.98 79.03 235.31 78.81 Q 235.65 78.58 235.82 78.03 Q 236 77.47 236 76.5 Q 236 75.4 235.59 74.71 Q 235.19 74.03 234.39 74.03 Z M 240.59 79.06 L 240.59 79.39 L 237.89 79.39 L 237.89 79.06 Q 238.3 79.06 238.47 78.99 Q 238.65 78.9 238.68 78.71 Q 238.73 78.52 238.73 78.18 L 238.73 74.83 Q 238.73 74.45 238.6 74.37 Q 238.47 74.27 238.2 74.27 Q 238.08 74.27 237.99 74.28 Q 237.9 74.29 237.9 74.29 L 237.9 73.95 L 239.42 73.61 L 239.73 73.61 L 239.73 78.18 Q 239.73 78.53 239.78 78.72 Q 239.82 78.91 240 78.99 Q 240.2 79.06 240.59 79.06 Z M 239.25 71.32 Q 239.56 71.32 239.74 71.52 Q 239.93 71.71 239.93 71.99 Q 239.93 72.27 239.74 72.47 Q 239.56 72.67 239.25 72.67 Q 238.95 72.67 238.76 72.47 Q 238.56 72.27 238.56 71.99 Q 238.56 71.71 238.74 71.52 Q 238.94 71.32 239.25 71.32 Z M 247.1 79.18 L 245.56 79.45 L 245.28 79.45 L 245.28 78.63 L 245.24 78.63 Q 244.9 78.93 244.43 79.21 Q 243.98 79.49 243.38 79.49 Q 242.7 79.49 242.24 79.13 Q 241.78 78.77 241.55 78.16 Q 241.32 77.53 241.32 76.77 Q 241.32 75.77 241.7 75.06 Q 242.07 74.34 242.69 73.96 Q 243.33 73.57 244.08 73.57 Q 244.38 73.57 244.67 73.65 Q 244.97 73.71 245.25 73.86 L 245.25 72.29 Q 245.25 71.89 245.15 71.77 Q 245.07 71.65 244.72 71.65 Q 244.64 71.65 244.52 71.67 Q 244.41 71.68 244.41 71.68 L 244.41 71.34 L 245.92 70.92 L 246.24 70.92 L 246.24 78.11 Q 246.24 78.58 246.38 78.72 Q 246.51 78.85 246.84 78.85 L 247.1 78.85 L 247.1 79.18 Z M 245.25 78.18 L 245.25 75.01 Q 245.18 74.64 244.9 74.35 Q 244.62 74.05 244.06 74.05 Q 243.3 74.05 242.84 74.61 Q 242.37 75.16 242.37 76.3 Q 242.37 77.53 242.76 78.09 Q 243.17 78.63 243.94 78.63 Q 244.36 78.63 244.65 78.52 Q 244.94 78.4 245.25 78.18 Z" fill="#000000"/><path d="M 56.94 204.99 L 57.25 205.26 Q 56.73 206.05 55.89 206.56 Q 55.04 207.07 53.77 207.07 Q 52.43 207.07 51.52 206.5 Q 50.61 205.92 50.14 204.92 Q 49.68 203.92 49.68 202.66 Q 49.68 201.24 50.23 200.26 Q 50.78 199.27 51.74 198.75 Q 52.7 198.23 53.95 198.23 Q 54.64 198.23 55.05 198.35 Q 55.47 198.46 55.72 198.58 Q 55.96 198.7 56.12 198.7 Q 56.28 198.7 56.35 198.57 Q 56.44 198.42 56.56 198.23 L 56.95 198.23 L 56.95 201.21 L 56.51 201.21 Q 56.3 199.93 55.63 199.36 Q 54.96 198.79 53.96 198.79 Q 52.56 198.79 51.79 199.79 Q 51.04 200.79 51.04 202.53 Q 51.04 203.83 51.43 204.65 Q 51.83 205.47 52.53 205.86 Q 53.23 206.25 54.14 206.25 Q 55.04 206.25 55.72 205.92 Q 56.39 205.59 56.94 204.99 Z M 61.1 200.62 Q 62.44 200.62 63.21 201.45 Q 63.99 202.28 63.99 203.73 Q 63.99 204.82 63.61 205.56 Q 63.24 206.3 62.59 206.68 Q 61.94 207.06 61.1 207.06 Q 59.73 207.06 58.95 206.21 Q 58.19 205.35 58.19 203.78 Q 58.19 202.83 58.55 202.13 Q 58.92 201.41 59.57 201.02 Q 60.23 200.62 61.1 200.62 Z M 61.05 201.11 Q 60.31 201.11 59.85 201.74 Q 59.4 202.36 59.4 203.61 Q 59.4 205.16 59.85 205.86 Q 60.32 206.55 61.15 206.54 Q 61.68 206.54 62.05 206.29 Q 62.41 206.04 62.59 205.44 Q 62.79 204.85 62.79 203.79 Q 62.79 202.6 62.35 201.86 Q 61.92 201.11 61.05 201.11 Z M 67.81 206.55 L 67.81 206.93 L 64.82 206.93 L 64.82 206.55 Q 65.25 206.55 65.44 206.47 Q 65.64 206.38 65.68 206.18 Q 65.73 205.98 65.73 205.61 L 65.73 199.09 Q 65.73 198.68 65.57 198.61 Q 65.43 198.53 65.18 198.53 Q 65.01 198.53 64.88 198.54 Q 64.76 198.55 64.76 198.55 L 64.76 198.2 L 66.48 197.75 L 66.81 197.75 L 66.81 205.61 Q 66.81 205.99 66.86 206.2 Q 66.92 206.39 67.13 206.47 Q 67.34 206.55 67.81 206.55 Z M 71.49 206.55 L 71.49 206.93 L 68.5 206.93 L 68.5 206.55 Q 68.93 206.55 69.12 206.47 Q 69.32 206.38 69.35 206.18 Q 69.41 205.98 69.41 205.61 L 69.41 199.09 Q 69.41 198.68 69.25 198.61 Q 69.11 198.53 68.86 198.53 Q 68.69 198.53 68.56 198.54 Q 68.44 198.55 68.44 198.55 L 68.44 198.2 L 70.16 197.75 L 70.49 197.75 L 70.49 205.61 Q 70.49 205.99 70.54 206.2 Q 70.6 206.39 70.81 206.47 Q 71.02 206.55 71.49 206.55 Z M 75.79 206.12 L 75.74 206.12 Q 75.28 206.52 74.87 206.77 Q 74.45 207.02 73.83 207.02 Q 73.07 207.02 72.67 206.6 Q 72.28 206.18 72.28 205.56 Q 72.28 205.04 72.51 204.69 Q 72.76 204.33 73.15 204.08 Q 73.55 203.83 74.01 203.66 Q 74.48 203.49 74.92 203.38 Q 75.36 203.26 75.7 203.16 L 75.7 202.58 Q 75.7 201.74 75.4 201.39 Q 75.11 201.02 74.53 201.02 Q 73.97 201.02 73.81 201.26 Q 73.66 201.49 73.66 202.08 Q 73.66 202.67 73.08 202.67 Q 72.89 202.67 72.71 202.53 Q 72.54 202.38 72.54 202.05 Q 72.54 201.69 72.81 201.36 Q 73.1 201.04 73.6 200.83 Q 74.13 200.62 74.83 200.62 Q 75.89 200.62 76.33 201.11 Q 76.78 201.61 76.78 202.62 L 76.78 205.57 Q 76.78 205.98 76.87 206.09 Q 76.96 206.21 77.17 206.21 Q 77.35 206.21 77.49 206.12 Q 77.65 206.03 77.78 205.89 L 77.97 206.09 Q 77.65 206.56 77.35 206.78 Q 77.06 206.99 76.57 206.99 Q 76.14 206.99 76 206.77 Q 75.85 206.55 75.79 206.12 Z M 75.7 205.73 L 75.7 203.58 Q 75.11 203.73 74.59 203.92 Q 74.07 204.12 73.75 204.43 Q 73.42 204.74 73.42 205.25 Q 73.42 205.73 73.68 206.02 Q 73.94 206.3 74.36 206.3 Q 75.01 206.3 75.7 205.73 Z M 80.4 200.66 L 80.4 202 L 80.44 202 Q 80.94 201.27 81.29 200.93 Q 81.65 200.58 82.12 200.58 Q 82.5 200.58 82.68 200.78 Q 82.87 200.97 82.87 201.31 Q 82.87 201.67 82.69 201.84 Q 82.52 202.01 82.3 202.01 Q 82.09 202.01 81.93 201.91 Q 81.77 201.79 81.65 201.69 Q 81.54 201.57 81.46 201.57 Q 81.24 201.57 80.95 201.91 Q 80.66 202.25 80.43 202.64 L 80.43 205.6 Q 80.43 206 80.53 206.21 Q 80.64 206.42 80.9 206.48 Q 81.17 206.55 81.65 206.55 L 81.65 206.93 L 78.4 206.93 L 78.4 206.55 Q 78.83 206.55 79.03 206.48 Q 79.23 206.41 79.29 206.22 Q 79.35 206.03 79.35 205.66 L 79.35 202.09 Q 79.35 201.74 79.29 201.57 Q 79.23 201.39 78.88 201.39 Q 78.69 201.39 78.58 201.4 Q 78.48 201.41 78.48 201.41 L 78.48 201.05 L 80.09 200.66 L 80.4 200.66 Z" fill="#000000"/></svg>