<svg xmlns="http://www.w3.org/2000/svg" width="349.396" height="236.5" viewBox="0 0 349.396 236.5" role="img"><title>Entity-relationship diagram</title><desc>Entity-relationship diagram with 3 entities and 2 relationships. Entities: CUSTOMER (2 attributes), ORDER (2 attributes), LINE-ITEM. Relationships: CUSTOMER (exactly one) to ORDER (zero or many), identifying labeled &quot;places&quot;; ORDER (exactly one) to LINE-ITEM (one or many), identifying labeled &quot;contains&quot;.</desc><line x1="129.396" y1="59.125" x2="213.396" y2="59.125" stroke="#5eead4" stroke-width="1.5"/><line x1="138.396" y1="66.125" x2="138.396" y2="52.125" stroke="#0f766e" stroke-width="1"/><line x1="146.396" y1="66.125" x2="146.396" y2="52.125" stroke="#0f766e" stroke-width="1"/><line x1="213.396" y1="59.125" x2="229.396" y2="59.125" stroke="#0f766e" stroke-width="1"/><line x1="213.396" y1="59.125" x2="229.396" y2="50.125" stroke="#0f766e" stroke-width="1"/><line x1="213.396" y1="59.125" x2="229.396" y2="68.125" stroke="#0f766e" stroke-width="1"/><line x1="205.396" y1="59.125" x2="204.726" y2="61.625" stroke="#0f766e" stroke-width="1"/><line x1="204.726" y1="61.625" x2="202.896" y2="63.455" stroke="#0f766e" stroke-width="1"/><line x1="202.896" y1="63.455" x2="200.396" y2="64.125" stroke="#0f766e" stroke-width="1"/><line x1="200.396" y1="64.125" x2="197.896" y2="63.455" stroke="#0f766e" stroke-width="1"/><line x1="197.896" y1="63.455" x2="196.066" y2="61.625" stroke="#0f766e" stroke-width="1"/><line x1="196.066" y1="61.625" x2="195.396" y2="59.125" stroke="#0f766e" stroke-width="1"/><line x1="195.396" y1="59.125" x2="196.066" y2="56.625" stroke="#0f766e" stroke-width="1"/><line x1="196.066" y1="56.625" x2="197.896" y2="54.795" stroke="#0f766e" stroke-width="1"/><line x1="197.896" y1="54.795" x2="200.396" y2="54.125" stroke="#0f766e" stroke-width="1"/><line x1="200.396" y1="54.125" x2="202.896" y2="54.795" stroke="#0f766e" stroke-width="1"/><line x1="202.896" y1="54.795" x2="204.726" y2="56.625" stroke="#0f766e" stroke-width="1"/><line x1="204.726" y1="56.625" x2="205.396" y2="59.125" stroke="#0f766e" stroke-width="1"/><path d="M 168.13 51.31 L 168.13 52.15 L 168.16 52.15 Q 168.52 51.73 168.89 51.51 Q 169.27 51.28 169.71 51.28 Q 170.21 51.28 170.58 51.57 Q 170.96 51.85 171.17 52.36 Q 171.39 52.86 171.39 53.52 Q 171.39 54.37 171.09 54.98 Q 170.8 55.58 170.3 55.91 Q 169.8 56.23 169.2 56.23 Q 168.92 56.23 168.66 56.16 Q 168.41 56.1 168.19 55.95 L 168.15 55.95 L 168.15 57.26 Q 168.15 57.58 168.23 57.75 Q 168.31 57.92 168.52 57.98 Q 168.73 58.04 169.12 58.04 L 169.12 58.33 L 166.59 58.33 L 166.59 58.05 Q 167.06 58.05 167.19 57.89 Q 167.32 57.74 167.32 57.32 L 167.32 52.37 Q 167.32 52.08 167.25 51.97 Q 167.19 51.86 166.94 51.86 Q 166.84 51.86 166.73 51.87 Q 166.62 51.88 166.62 51.88 L 166.62 51.59 L 167.88 51.31 L 168.13 51.31 Z M 168.15 52.57 L 168.15 55.18 Q 168.25 55.28 168.4 55.44 Q 168.55 55.6 168.76 55.72 Q 168.97 55.84 169.25 55.84 Q 169.78 55.84 170.13 55.34 Q 170.48 54.84 170.48 53.8 Q 170.48 52.85 170.17 52.41 Q 169.86 51.96 169.3 51.96 Q 168.9 51.96 168.59 52.17 Q 168.29 52.38 168.15 52.57 Z M 174.34 55.84 L 174.34 56.13 L 172.04 56.13 L 172.04 55.84 Q 172.37 55.84 172.52 55.78 Q 172.67 55.71 172.7 55.56 Q 172.74 55.4 172.74 55.12 L 172.74 50.1 Q 172.74 49.79 172.62 49.73 Q 172.51 49.67 172.32 49.67 Q 172.19 49.67 172.09 49.68 Q 172 49.69 172 49.69 L 172 49.42 L 173.32 49.07 L 173.57 49.07 L 173.57 55.12 Q 173.57 55.41 173.61 55.57 Q 173.66 55.72 173.82 55.78 Q 173.98 55.84 174.34 55.84 Z M 177.65 55.51 L 177.61 55.51 Q 177.26 55.82 176.94 56.01 Q 176.62 56.2 176.14 56.2 Q 175.56 56.2 175.25 55.88 Q 174.95 55.56 174.95 55.08 Q 174.95 54.68 175.13 54.41 Q 175.32 54.13 175.62 53.94 Q 175.93 53.75 176.28 53.62 Q 176.64 53.49 176.98 53.4 Q 177.32 53.31 177.58 53.23 L 177.58 52.79 Q 177.58 52.14 177.35 51.87 Q 177.13 51.59 176.68 51.59 Q 176.25 51.59 176.13 51.77 Q 176.01 51.95 176.01 52.4 Q 176.01 52.86 175.57 52.86 Q 175.42 52.86 175.28 52.75 Q 175.15 52.63 175.15 52.38 Q 175.15 52.1 175.36 51.85 Q 175.58 51.6 175.97 51.44 Q 176.37 51.28 176.91 51.28 Q 177.73 51.28 178.07 51.66 Q 178.41 52.04 178.41 52.82 L 178.41 55.09 Q 178.41 55.4 178.48 55.49 Q 178.55 55.58 178.71 55.58 Q 178.85 55.58 178.96 55.51 Q 179.08 55.44 179.18 55.33 L 179.33 55.49 Q 179.08 55.85 178.85 56.02 Q 178.63 56.18 178.25 56.18 Q 177.92 56.18 177.81 56.01 Q 177.7 55.84 177.65 55.51 Z M 177.58 55.21 L 177.58 53.56 Q 177.13 53.67 176.73 53.82 Q 176.33 53.97 176.08 54.21 Q 175.83 54.45 175.83 54.84 Q 175.83 55.21 176.03 55.43 Q 176.23 55.65 176.55 55.65 Q 177.05 55.65 177.58 55.21 Z M 183.45 54.65 L 183.64 54.79 Q 183.45 55.19 183.2 55.52 Q 182.96 55.85 182.6 56.04 Q 182.24 56.23 181.7 56.23 Q 181.08 56.23 180.63 55.93 Q 180.18 55.63 179.94 55.1 Q 179.7 54.56 179.7 53.87 Q 179.7 52.69 180.29 51.99 Q 180.88 51.28 181.96 51.28 Q 182.67 51.28 183.07 51.59 Q 183.48 51.9 183.48 52.34 Q 183.48 52.79 183.06 52.79 Q 182.84 52.79 182.72 52.68 Q 182.61 52.56 182.54 52.39 Q 182.47 52.22 182.39 52.05 Q 182.32 51.88 182.18 51.77 Q 182.05 51.65 181.79 51.65 Q 181.18 51.65 180.83 52.1 Q 180.49 52.54 180.49 53.4 Q 180.49 54.31 180.86 54.9 Q 181.24 55.48 182.01 55.48 Q 182.5 55.48 182.8 55.28 Q 183.11 55.08 183.45 54.65 Z M 187.98 54.7 L 188.17 54.84 Q 187.99 55.22 187.75 55.54 Q 187.51 55.85 187.16 56.04 Q 186.82 56.23 186.3 56.23 Q 185.7 56.23 185.21 55.95 Q 184.73 55.66 184.45 55.11 Q 184.17 54.55 184.17 53.75 Q 184.17 52.91 184.45 52.37 Q 184.74 51.82 185.22 51.55 Q 185.7 51.28 186.28 51.28 Q 187.1 51.28 187.6 51.85 Q 188.1 52.42 188.14 53.47 L 184.98 53.47 Q 184.98 54.16 185.2 54.61 Q 185.43 55.05 185.78 55.27 Q 186.14 55.48 186.54 55.48 Q 186.95 55.48 187.2 55.37 Q 187.46 55.26 187.64 55.09 Q 187.82 54.91 187.98 54.7 Z M 184.97 53.1 L 187.2 53.1 Q 187.19 52.73 187.07 52.41 Q 186.95 52.08 186.72 51.88 Q 186.49 51.68 186.13 51.68 Q 185.09 51.68 184.97 53.1 Z M 188.86 54.49 L 189.12 54.49 Q 189.28 55.26 189.59 55.57 Q 189.9 55.87 190.45 55.87 Q 190.83 55.87 191.07 55.72 Q 191.31 55.56 191.31 55.21 Q 191.31 54.97 191.22 54.81 Q 191.14 54.65 190.9 54.49 Q 190.66 54.32 190.19 54.09 Q 189.51 53.74 189.19 53.42 Q 188.87 53.09 188.87 52.54 Q 188.87 51.92 189.31 51.6 Q 189.76 51.28 190.4 51.28 Q 190.78 51.28 191.02 51.37 Q 191.26 51.45 191.45 51.54 L 191.46 51.54 L 191.63 51.33 L 191.83 51.33 L 191.86 52.86 L 191.59 52.86 Q 191.43 52.15 191.14 51.89 Q 190.85 51.62 190.39 51.62 Q 190.05 51.62 189.81 51.78 Q 189.58 51.94 189.58 52.28 Q 189.58 52.57 189.85 52.8 Q 190.12 53.03 190.75 53.35 Q 191.43 53.71 191.79 54.05 Q 192.15 54.38 192.15 54.94 Q 192.15 55.41 191.92 55.7 Q 191.69 55.98 191.3 56.11 Q 190.92 56.24 190.47 56.24 Q 190.04 56.24 189.78 56.15 Q 189.53 56.06 189.33 55.98 L 189.31 55.98 L 189.1 56.21 L 188.89 56.21 L 188.86 54.49 Z" fill="currentColor"/><line x1="229.396" y1="91.667" x2="106.078" y2="175.272" stroke="#5eead4" stroke-width="1.5"/><line x1="218.019" y1="90.923" x2="225.875" y2="102.511" stroke="#0f766e" stroke-width="1"/><line x1="211.397" y1="95.413" x2="219.253" y2="107.001" stroke="#0f766e" stroke-width="1"/><line x1="106.078" y1="175.272" x2="92.835" y2="184.25" stroke="#0f766e" stroke-width="1"/><line x1="106.078" y1="175.272" x2="97.885" y2="191.699" stroke="#0f766e" stroke-width="1"/><line x1="106.078" y1="175.272" x2="87.784" y2="176.801" stroke="#0f766e" stroke-width="1"/><line x1="116.628" y1="176.576" x2="108.772" y2="164.988" stroke="#0f766e" stroke-width="1"/><path d="M 147.26 133.48 L 147.45 133.62 Q 147.26 134.02 147.01 134.35 Q 146.77 134.68 146.41 134.87 Q 146.05 135.06 145.51 135.06 Q 144.89 135.06 144.44 134.76 Q 143.99 134.46 143.75 133.93 Q 143.51 133.39 143.51 132.7 Q 143.51 131.52 144.1 130.82 Q 144.69 130.11 145.77 130.11 Q 146.48 130.11 146.88 130.42 Q 147.29 130.73 147.29 131.17 Q 147.29 131.62 146.87 131.62 Q 146.65 131.62 146.53 131.51 Q 146.42 131.39 146.35 131.22 Q 146.28 131.05 146.2 130.88 Q 146.13 130.71 145.99 130.6 Q 145.86 130.48 145.6 130.48 Q 144.99 130.48 144.64 130.93 Q 144.3 131.37 144.3 132.23 Q 144.3 133.14 144.67 133.73 Q 145.05 134.31 145.82 134.31 Q 146.31 134.31 146.61 134.11 Q 146.92 133.91 147.26 133.48 Z M 150.22 130.11 Q 151.25 130.11 151.84 130.75 Q 152.44 131.39 152.44 132.5 Q 152.44 133.34 152.15 133.91 Q 151.87 134.48 151.37 134.77 Q 150.87 135.06 150.22 135.06 Q 149.17 135.06 148.57 134.41 Q 147.98 133.75 147.98 132.54 Q 147.98 131.81 148.26 131.27 Q 148.54 130.72 149.04 130.42 Q 149.55 130.11 150.22 130.11 Z M 150.18 130.49 Q 149.61 130.49 149.26 130.97 Q 148.91 131.45 148.91 132.41 Q 148.91 133.6 149.26 134.14 Q 149.62 134.67 150.26 134.66 Q 150.67 134.66 150.95 134.47 Q 151.23 134.28 151.37 133.82 Q 151.52 133.36 151.52 132.55 Q 151.52 131.63 151.18 131.06 Q 150.85 130.49 150.18 130.49 Z M 157.59 131.89 L 157.59 133.95 Q 157.59 134.23 157.63 134.39 Q 157.68 134.55 157.84 134.62 Q 158 134.68 158.33 134.68 L 158.33 134.96 L 156.02 134.96 L 156.02 134.68 Q 156.38 134.68 156.53 134.62 Q 156.69 134.55 156.72 134.39 Q 156.76 134.23 156.76 133.95 L 156.76 132.14 Q 156.76 131.54 156.62 131.24 Q 156.49 130.94 156.28 130.85 Q 156.07 130.75 155.84 130.75 Q 155.44 130.75 155.15 130.97 Q 154.86 131.18 154.63 131.38 L 154.63 133.95 Q 154.63 134.23 154.67 134.39 Q 154.71 134.55 154.87 134.62 Q 155.03 134.68 155.39 134.68 L 155.39 134.96 L 153.1 134.96 L 153.1 134.68 Q 153.44 134.68 153.58 134.62 Q 153.73 134.55 153.76 134.39 Q 153.8 134.23 153.8 133.95 L 153.8 131.14 Q 153.8 130.87 153.69 130.79 Q 153.58 130.7 153.38 130.7 Q 153.25 130.7 153.18 130.71 Q 153.11 130.72 153.11 130.72 L 153.11 130.43 L 154.38 130.14 L 154.61 130.14 L 154.6 130.95 L 154.64 130.95 Q 155.05 130.59 155.41 130.35 Q 155.78 130.11 156.25 130.11 Q 156.93 130.11 157.26 130.57 Q 157.59 131.03 157.59 131.89 Z M 161.47 134.06 L 161.66 134.22 Q 161.47 134.49 161.3 134.68 Q 161.14 134.86 160.94 134.96 Q 160.74 135.06 160.42 135.06 Q 159.92 135.06 159.69 134.77 Q 159.46 134.47 159.46 133.8 L 159.46 130.7 L 158.91 130.7 L 158.91 130.47 Q 159.26 130.25 159.51 129.88 Q 159.77 129.5 160.04 128.86 L 160.3 128.86 L 160.29 130.28 L 161.42 130.28 L 161.42 130.7 L 160.29 130.7 L 160.29 133.52 Q 160.29 134.05 160.38 134.26 Q 160.48 134.47 160.77 134.47 Q 161.01 134.47 161.14 134.37 Q 161.28 134.27 161.47 134.06 Z M 164.77 134.34 L 164.73 134.34 Q 164.38 134.65 164.06 134.84 Q 163.74 135.03 163.26 135.03 Q 162.68 135.03 162.37 134.71 Q 162.07 134.39 162.07 133.91 Q 162.07 133.51 162.25 133.24 Q 162.44 132.96 162.74 132.77 Q 163.05 132.58 163.4 132.45 Q 163.76 132.32 164.1 132.23 Q 164.44 132.14 164.7 132.06 L 164.7 131.62 Q 164.7 130.97 164.47 130.7 Q 164.25 130.42 163.8 130.42 Q 163.37 130.42 163.25 130.6 Q 163.13 130.78 163.13 131.23 Q 163.13 131.69 162.69 131.69 Q 162.54 131.69 162.4 131.58 Q 162.27 131.46 162.27 131.21 Q 162.27 130.93 162.48 130.68 Q 162.7 130.43 163.09 130.27 Q 163.49 130.11 164.03 130.11 Q 164.85 130.11 165.19 130.49 Q 165.53 130.87 165.53 131.65 L 165.53 133.92 Q 165.53 134.23 165.6 134.32 Q 165.67 134.41 165.83 134.41 Q 165.97 134.41 166.08 134.34 Q 166.2 134.27 166.3 134.16 L 166.45 134.32 Q 166.2 134.68 165.97 134.85 Q 165.75 135.01 165.37 135.01 Q 165.04 135.01 164.93 134.84 Q 164.82 134.67 164.77 134.34 Z M 164.7 134.04 L 164.7 132.39 Q 164.25 132.5 163.85 132.65 Q 163.45 132.8 163.2 133.04 Q 162.95 133.28 162.95 133.67 Q 162.95 134.04 163.15 134.26 Q 163.35 134.48 163.67 134.48 Q 164.17 134.48 164.7 134.04 Z M 169.06 134.68 L 169.06 134.96 L 166.81 134.96 L 166.81 134.68 Q 167.15 134.68 167.29 134.62 Q 167.44 134.55 167.47 134.39 Q 167.51 134.23 167.51 133.95 L 167.51 131.16 Q 167.51 130.84 167.4 130.77 Q 167.29 130.69 167.07 130.69 Q 166.97 130.69 166.89 130.7 Q 166.82 130.71 166.82 130.71 L 166.82 130.42 L 168.08 130.14 L 168.34 130.14 L 168.34 133.95 Q 168.34 134.24 168.38 134.4 Q 168.42 134.56 168.57 134.62 Q 168.73 134.68 169.06 134.68 Z M 167.94 128.23 Q 168.2 128.23 168.35 128.4 Q 168.51 128.56 168.51 128.79 Q 168.51 129.02 168.35 129.19 Q 168.2 129.36 167.94 129.36 Q 167.69 129.36 167.53 129.19 Q 167.37 129.02 167.37 128.79 Q 167.37 128.56 167.52 128.4 Q 167.68 128.23 167.94 128.23 Z M 174.15 131.89 L 174.15 133.95 Q 174.15 134.23 174.19 134.39 Q 174.24 134.55 174.4 134.62 Q 174.56 134.68 174.89 134.68 L 174.89 134.96 L 172.58 134.96 L 172.58 134.68 Q 172.94 134.68 173.09 134.62 Q 173.25 134.55 173.28 134.39 Q 173.32 134.23 173.32 133.95 L 173.32 132.14 Q 173.32 131.54 173.18 131.24 Q 173.05 130.94 172.84 130.85 Q 172.63 130.75 172.4 130.75 Q 172 130.75 171.71 130.97 Q 171.42 131.18 171.19 131.38 L 171.19 133.95 Q 171.19 134.23 171.23 134.39 Q 171.27 134.55 171.43 134.62 Q 171.59 134.68 171.95 134.68 L 171.95 134.96 L 169.66 134.96 L 169.66 134.68 Q 170 134.68 170.14 134.62 Q 170.29 134.55 170.32 134.39 Q 170.36 134.23 170.36 133.95 L 170.36 131.14 Q 170.36 130.87 170.25 130.79 Q 170.14 130.7 169.94 130.7 Q 169.81 130.7 169.74 130.71 Q 169.67 130.72 169.67 130.72 L 169.67 130.43 L 170.94 130.14 L 171.17 130.14 L 171.16 130.95 L 171.2 130.95 Q 171.61 130.59 171.97 130.35 Q 172.34 130.11 172.81 130.11 Q 173.49 130.11 173.82 130.57 Q 174.15 131.03 174.15 131.89 Z M 175.49 133.32 L 175.75 133.32 Q 175.91 134.09 176.22 134.4 Q 176.53 134.7 177.08 134.7 Q 177.46 134.7 177.7 134.55 Q 177.94 134.39 177.94 134.04 Q 177.94 133.8 177.85 133.64 Q 177.77 133.48 177.53 133.32 Q 177.29 133.15 176.82 132.92 Q 176.14 132.57 175.82 132.25 Q 175.5 131.92 175.5 131.37 Q 175.5 130.75 175.94 130.43 Q 176.39 130.11 177.03 130.11 Q 177.41 130.11 177.65 130.2 Q 177.89 130.28 178.08 130.37 L 178.09 130.37 L 178.26 130.16 L 178.46 130.16 L 178.49 131.69 L 178.22 131.69 Q 178.06 130.98 177.77 130.72 Q 177.48 130.45 177.02 130.45 Q 176.68 130.45 176.44 130.61 Q 176.21 130.77 176.21 131.11 Q 176.21 131.4 176.48 131.63 Q 176.75 131.86 177.38 132.18 Q 178.06 132.54 178.42 132.88 Q 178.78 133.21 178.78 133.77 Q 178.78 134.24 178.55 134.53 Q 178.32 134.81 177.93 134.94 Q 177.55 135.07 177.1 135.07 Q 176.67 135.07 176.41 134.98 Q 176.16 134.89 175.96 134.81 L 175.94 134.81 L 175.73 135.04 L 175.52 135.04 L 175.49 133.32 Z" fill="currentColor"/><rect x="24" y="24" width="105.396" height="70.25" fill="#ecfdf5"/><rect x="24" y="24" width="105.396" height="28.25" fill="#a7f3d0"/><line x1="24" y1="24" x2="129.396" y2="24" stroke="#0f766e" stroke-width="1"/><line x1="24" y1="94.25" x2="129.396" y2="94.25" stroke="#0f766e" stroke-width="1"/><line x1="24" y1="24" x2="24" y2="94.25" stroke="#0f766e" stroke-width="1"/><line x1="129.396" y1="24" x2="129.396" y2="94.25" stroke="#0f766e" stroke-width="1"/><line x1="24" y1="52.25" x2="129.396" y2="52.25" stroke="#0f766e" stroke-width="1"/><rect x="229.396" y="24" width="96" height="70.25" fill="#ecfdf5"/><rect x="229.396" y="24" width="96" height="28.25" fill="#a7f3d0"/><line x1="229.396" y1="24" x2="325.396" y2="24" stroke="#0f766e" stroke-width="1"/><line x1="229.396" y1="94.25" x2="325.396" y2="94.25" stroke="#0f766e" stroke-width="1"/><line x1="229.396" y1="24" x2="229.396" y2="94.25" stroke="#0f766e" stroke-width="1"/><line x1="325.396" y1="24" x2="325.396" y2="94.25" stroke="#0f766e" stroke-width="1"/><line x1="229.396" y1="52.25" x2="325.396" y2="52.25" stroke="#0f766e" stroke-width="1"/><rect x="24" y="184.25" width="96" height="28.25" fill="#ecfdf5"/><rect x="24" y="184.25" width="96" height="28.25" fill="#a7f3d0"/><line x1="24" y1="184.25" x2="120" y2="184.25" stroke="#0f766e" stroke-width="1"/><line x1="24" y1="212.5" x2="120" y2="212.5" stroke="#0f766e" stroke-width="1"/><line x1="24" y1="184.25" x2="24" y2="212.5" stroke="#0f766e" stroke-width="1"/><line x1="120" y1="184.25" x2="120" y2="212.5" stroke="#0f766e" stroke-width="1"/><path d="M 49.2 40.74 L 49.51 41.01 Q 48.99 41.8 48.14 42.31 Q 47.3 42.82 46.02 42.82 Q 44.69 42.82 43.78 42.25 Q 42.87 41.67 42.4 40.67 Q 41.94 39.67 41.94 38.41 Q 41.94 36.99 42.49 36.01 Q 43.03 35.02 44 34.5 Q 44.96 33.98 46.21 33.98 Q 46.9 33.98 47.31 34.1 Q 47.73 34.21 47.97 34.33 Q 48.22 34.45 48.38 34.45 Q 48.53 34.45 48.61 34.32 Q 48.7 34.17 48.82 33.98 L 49.21 33.98 L 49.21 36.96 L 48.77 36.96 Q 48.56 35.68 47.88 35.11 Q 47.22 34.54 46.22 34.54 Q 44.82 34.54 44.05 35.54 Q 43.29 36.54 43.29 38.28 Q 43.29 39.58 43.68 40.4 Q 44.09 41.22 44.79 41.61 Q 45.49 42 46.4 42 Q 47.3 42 47.97 41.67 Q 48.65 41.34 49.2 40.74 Z M 59.54 34.13 L 59.54 34.52 Q 58.99 34.52 58.73 34.65 Q 58.47 34.78 58.39 35.14 Q 58.32 35.47 58.32 36.15 L 58.32 39.28 Q 58.32 41.05 57.5 41.95 Q 56.7 42.83 54.85 42.83 Q 53.12 42.83 52.33 42.04 Q 51.54 41.23 51.54 39.42 L 51.54 35.67 Q 51.54 34.98 51.28 34.76 Q 51.03 34.52 50.26 34.52 L 50.26 34.13 L 54.01 34.13 L 54.01 34.52 Q 53.46 34.52 53.19 34.63 Q 52.91 34.72 52.82 34.98 Q 52.73 35.24 52.73 35.73 L 52.73 39.41 Q 52.73 40.67 53.25 41.35 Q 53.79 42.01 55.18 42.01 Q 56.45 42.01 57.01 41.41 Q 57.58 40.8 57.58 39.46 L 57.58 36.19 Q 57.58 35.5 57.5 35.15 Q 57.43 34.78 57.17 34.65 Q 56.91 34.52 56.36 34.52 L 56.36 34.13 L 59.54 34.13 Z M 65.5 36.6 L 65.11 36.6 Q 64.84 35.53 64.38 35 Q 63.93 34.49 62.94 34.5 Q 62.27 34.5 61.91 34.81 Q 61.55 35.11 61.55 35.72 Q 61.55 36.2 61.82 36.55 Q 62.09 36.89 62.53 37.16 Q 62.98 37.44 63.46 37.72 Q 63.89 37.97 64.32 38.22 Q 64.76 38.46 65.11 38.78 Q 65.47 39.09 65.68 39.5 Q 65.9 39.92 65.9 40.5 Q 65.9 41.26 65.55 41.78 Q 65.21 42.3 64.61 42.57 Q 64.02 42.83 63.26 42.83 Q 62.59 42.83 62.16 42.73 Q 61.74 42.64 61.49 42.54 Q 61.26 42.44 61.1 42.44 Q 60.97 42.44 60.87 42.56 Q 60.77 42.68 60.75 42.87 L 60.35 42.87 L 60.23 40.06 L 60.64 40.06 Q 60.87 40.96 61.18 41.44 Q 61.49 41.91 61.95 42.09 Q 62.42 42.26 63.08 42.26 Q 63.81 42.26 64.24 41.95 Q 64.67 41.62 64.67 40.88 Q 64.67 40.31 64.34 39.93 Q 64.03 39.56 63.54 39.27 Q 63.04 38.97 62.51 38.67 Q 61.99 38.37 61.51 38.03 Q 61.03 37.7 60.71 37.23 Q 60.42 36.76 60.42 36.08 Q 60.42 35.39 60.75 34.94 Q 61.09 34.47 61.65 34.22 Q 62.21 33.98 62.89 33.98 Q 63.48 33.98 63.81 34.08 Q 64.13 34.17 64.32 34.28 Q 64.51 34.38 64.67 34.38 Q 64.98 34.38 65.07 34 L 65.41 34 L 65.5 36.6 Z M 73.96 36.47 L 73.56 36.47 Q 73.42 35.76 73.26 35.38 Q 73.1 35 72.75 34.86 Q 72.4 34.72 71.67 34.72 L 70.85 34.72 L 70.85 40.97 Q 70.85 41.56 70.95 41.84 Q 71.04 42.12 71.31 42.21 Q 71.58 42.29 72.14 42.29 L 72.14 42.68 L 68.37 42.68 L 68.37 42.29 Q 68.92 42.29 69.19 42.21 Q 69.46 42.12 69.55 41.84 Q 69.65 41.56 69.65 40.97 L 69.65 34.72 L 68.81 34.72 Q 68.1 34.72 67.73 34.86 Q 67.38 35 67.23 35.38 Q 67.07 35.76 66.93 36.47 L 66.53 36.47 L 66.67 34.13 L 73.86 34.13 L 73.96 36.47 Z M 83.11 38.28 Q 83.11 39.65 82.61 40.67 Q 82.11 41.69 81.19 42.26 Q 80.27 42.83 78.98 42.83 Q 77.69 42.83 76.76 42.3 Q 75.83 41.77 75.33 40.78 Q 74.83 39.78 74.83 38.4 Q 74.83 37.07 75.33 36.08 Q 75.83 35.08 76.76 34.54 Q 77.69 33.98 78.98 33.98 Q 80.28 33.98 81.2 34.52 Q 82.13 35.06 82.62 36.03 Q 83.11 36.99 83.11 38.28 Z M 81.75 38.32 Q 81.75 37.15 81.4 36.31 Q 81.05 35.45 80.41 34.99 Q 79.79 34.52 78.94 34.52 Q 77.68 34.52 76.94 35.54 Q 76.2 36.54 76.2 38.32 Q 76.2 40.15 76.89 41.22 Q 77.59 42.29 78.99 42.29 Q 80.38 42.29 81.06 41.28 Q 81.75 40.28 81.75 38.32 Z M 94.81 42.68 L 91.36 42.68 L 91.36 42.29 Q 91.86 42.29 92.11 42.19 Q 92.36 42.1 92.43 41.86 Q 92.51 41.6 92.51 41.13 L 92.51 35.53 L 92.46 35.53 L 89.43 42.68 L 89.12 42.68 L 86.05 35.54 L 86 35.54 L 86 40.78 Q 86 41.44 86.09 41.77 Q 86.18 42.09 86.43 42.19 Q 86.69 42.29 87.18 42.29 L 87.18 42.68 L 84.13 42.68 L 84.13 42.29 Q 84.66 42.29 84.92 42.19 Q 85.18 42.09 85.27 41.77 Q 85.36 41.44 85.36 40.78 L 85.36 35.72 Q 85.36 35.23 85.27 34.98 Q 85.18 34.72 84.92 34.63 Q 84.67 34.52 84.15 34.52 L 84.15 34.13 L 86.81 34.13 L 89.55 40.67 L 89.6 40.67 L 92.33 34.13 L 94.8 34.13 L 94.8 34.52 Q 94.35 34.52 94.1 34.63 Q 93.85 34.72 93.76 34.98 Q 93.67 35.23 93.67 35.71 L 93.67 41.13 Q 93.67 41.6 93.76 41.86 Q 93.85 42.1 94.1 42.19 Q 94.35 42.29 94.81 42.29 L 94.81 42.68 Z M 103.17 40.26 L 102.81 42.68 L 95.87 42.68 L 95.87 42.29 Q 96.4 42.29 96.66 42.22 Q 96.93 42.14 97.02 41.9 Q 97.13 41.65 97.13 41.14 L 97.13 35.72 Q 97.13 35.23 97.02 34.97 Q 96.93 34.71 96.66 34.61 Q 96.4 34.52 95.87 34.52 L 95.87 34.13 L 102.69 34.13 L 102.77 36.27 L 102.35 36.27 Q 102.26 35.62 102.07 35.29 Q 101.89 34.95 101.46 34.84 Q 101.04 34.72 100.23 34.72 L 98.32 34.72 L 98.32 38.02 L 99.84 38.02 Q 100.44 38.02 100.75 37.92 Q 101.07 37.81 101.18 37.53 Q 101.3 37.24 101.3 36.72 L 101.72 36.72 L 101.72 39.74 L 101.3 39.74 Q 101.3 39.2 101.18 38.94 Q 101.07 38.68 100.75 38.61 Q 100.44 38.53 99.84 38.53 L 98.32 38.53 L 98.32 42.1 L 100 42.1 Q 100.75 42.1 101.21 42.04 Q 101.68 41.96 101.94 41.77 Q 102.21 41.57 102.38 41.21 Q 102.56 40.84 102.76 40.26 L 103.17 40.26 Z M 110.65 36.27 Q 110.65 36.99 110.31 37.45 Q 109.98 37.9 109.48 38.16 Q 108.98 38.41 108.45 38.54 L 108.45 38.59 Q 108.67 38.72 108.94 39.05 Q 109.23 39.36 109.67 39.98 Q 110.11 40.6 110.83 41.62 Q 111.14 42.05 111.43 42.17 Q 111.73 42.29 112.17 42.29 L 112.17 42.68 L 110.02 42.68 Q 109.49 41.87 109.13 41.34 Q 108.78 40.79 108.53 40.43 Q 108.28 40.05 108.09 39.76 Q 107.89 39.48 107.7 39.19 Q 107.5 38.89 107.33 38.83 Q 107.18 38.76 106.83 38.76 L 106.46 38.76 L 106.46 41.06 Q 106.46 41.6 106.55 41.87 Q 106.64 42.13 106.92 42.21 Q 107.19 42.29 107.75 42.29 L 107.75 42.68 L 104.1 42.68 L 104.1 42.29 Q 104.59 42.29 104.84 42.21 Q 105.08 42.13 105.16 41.87 Q 105.25 41.61 105.25 41.06 L 105.25 35.49 Q 105.25 35.12 105.17 34.91 Q 105.11 34.71 104.86 34.61 Q 104.62 34.52 104.1 34.52 L 104.1 34.13 L 107.29 34.13 Q 108.27 34.13 109.02 34.33 Q 109.79 34.51 110.22 34.98 Q 110.65 35.43 110.65 36.27 Z M 106.46 34.68 L 106.46 38.25 L 106.96 38.27 Q 108.03 38.22 108.68 37.79 Q 109.33 37.35 109.33 36.32 Q 109.33 35.54 108.85 35.1 Q 108.37 34.64 107.32 34.64 Q 106.88 34.64 106.46 34.68 Z" fill="#000000"/><path d="M 36.47 65.43 L 36.78 65.43 Q 36.97 66.35 37.34 66.72 Q 37.72 67.08 38.38 67.08 Q 38.83 67.08 39.12 66.9 Q 39.41 66.71 39.41 66.29 Q 39.41 66 39.3 65.81 Q 39.2 65.62 38.92 65.43 Q 38.63 65.22 38.06 64.95 Q 37.25 64.53 36.86 64.14 Q 36.48 63.75 36.48 63.09 Q 36.48 62.34 37.01 61.96 Q 37.55 61.57 38.32 61.57 Q 38.77 61.57 39.06 61.68 Q 39.35 61.78 39.58 61.89 L 39.59 61.89 L 39.79 61.63 L 40.03 61.63 L 40.07 63.47 L 39.74 63.47 Q 39.55 62.62 39.2 62.31 Q 38.86 61.98 38.3 61.98 Q 37.9 61.98 37.61 62.17 Q 37.33 62.37 37.33 62.77 Q 37.33 63.12 37.66 63.4 Q 37.98 63.67 38.74 64.06 Q 39.55 64.49 39.98 64.9 Q 40.42 65.29 40.42 65.97 Q 40.42 66.53 40.14 66.88 Q 39.86 67.21 39.4 67.37 Q 38.94 67.53 38.4 67.53 Q 37.88 67.53 37.57 67.42 Q 37.27 67.31 37.03 67.21 L 37.01 67.21 L 36.76 67.49 L 36.5 67.49 L 36.47 65.43 Z M 44.26 66.31 L 44.48 66.51 Q 44.26 66.83 44.05 67.06 Q 43.86 67.27 43.62 67.39 Q 43.38 67.51 43 67.51 Q 42.4 67.51 42.12 67.17 Q 41.84 66.81 41.84 66 L 41.84 62.28 L 41.18 62.28 L 41.18 62.01 Q 41.6 61.74 41.9 61.3 Q 42.22 60.84 42.54 60.07 L 42.85 60.07 L 42.84 61.78 L 44.2 61.78 L 44.2 62.28 L 42.84 62.28 L 42.84 65.67 Q 42.84 66.3 42.95 66.55 Q 43.07 66.81 43.42 66.81 Q 43.7 66.81 43.86 66.69 Q 44.03 66.57 44.26 66.31 Z M 46.72 61.61 L 46.72 62.85 L 46.75 62.85 Q 47.21 62.17 47.53 61.86 Q 47.87 61.54 48.3 61.54 Q 48.65 61.54 48.82 61.72 Q 49 61.9 49 62.21 Q 49 62.55 48.83 62.7 Q 48.67 62.86 48.47 62.86 Q 48.28 62.86 48.12 62.76 Q 47.98 62.65 47.87 62.56 Q 47.76 62.45 47.69 62.45 Q 47.48 62.45 47.22 62.76 Q 46.96 63.07 46.74 63.43 L 46.74 66.17 Q 46.74 66.54 46.84 66.73 Q 46.93 66.93 47.17 66.99 Q 47.42 67.05 47.87 67.05 L 47.87 67.39 L 44.87 67.39 L 44.87 67.05 Q 45.26 67.05 45.44 66.99 Q 45.64 66.91 45.68 66.75 Q 45.74 66.57 45.74 66.23 L 45.74 62.93 Q 45.74 62.61 45.68 62.45 Q 45.64 62.28 45.31 62.28 Q 45.13 62.28 45.04 62.29 Q 44.94 62.31 44.94 62.31 L 44.94 61.97 L 46.43 61.61 L 46.72 61.61 Z M 52.16 67.06 L 52.16 67.39 L 49.46 67.39 L 49.46 67.06 Q 49.87 67.06 50.04 66.99 Q 50.22 66.9 50.26 66.71 Q 50.3 66.52 50.3 66.18 L 50.3 62.83 Q 50.3 62.45 50.17 62.37 Q 50.04 62.27 49.78 62.27 Q 49.66 62.27 49.56 62.28 Q 49.48 62.29 49.48 62.29 L 49.48 61.95 L 50.99 61.61 L 51.3 61.61 L 51.3 66.18 Q 51.3 66.53 51.35 66.72 Q 51.4 66.91 51.58 66.99 Q 51.77 67.06 52.16 67.06 Z M 50.82 59.32 Q 51.13 59.32 51.31 59.52 Q 51.5 59.71 51.5 59.99 Q 51.5 60.27 51.31 60.47 Q 51.13 60.67 50.82 60.67 Q 50.52 60.67 50.33 60.47 Q 50.14 60.27 50.14 59.99 Q 50.14 59.71 50.32 59.52 Q 50.51 59.32 50.82 59.32 Z M 58.27 63.71 L 58.27 66.18 Q 58.27 66.52 58.32 66.71 Q 58.38 66.9 58.57 66.99 Q 58.76 67.06 59.16 67.06 L 59.16 67.39 L 56.39 67.39 L 56.39 67.06 Q 56.82 67.06 57 66.99 Q 57.19 66.9 57.23 66.71 Q 57.28 66.52 57.28 66.18 L 57.28 64.01 Q 57.28 63.29 57.11 62.93 Q 56.95 62.57 56.7 62.46 Q 56.45 62.34 56.17 62.34 Q 55.69 62.34 55.34 62.61 Q 55 62.86 54.72 63.1 L 54.72 66.18 Q 54.72 66.52 54.77 66.71 Q 54.82 66.9 55.01 66.99 Q 55.2 67.06 55.63 67.06 L 55.63 67.39 L 52.88 67.39 L 52.88 67.06 Q 53.29 67.06 53.46 66.99 Q 53.64 66.9 53.68 66.71 Q 53.72 66.52 53.72 66.18 L 53.72 62.81 Q 53.72 62.49 53.59 62.39 Q 53.46 62.28 53.22 62.28 Q 53.06 62.28 52.98 62.29 Q 52.9 62.31 52.9 62.31 L 52.9 61.96 L 54.42 61.61 L 54.7 61.61 L 54.68 62.58 L 54.73 62.58 Q 55.22 62.15 55.66 61.86 Q 56.1 61.57 56.66 61.57 Q 57.48 61.57 57.88 62.13 Q 58.27 62.68 58.27 63.71 Z M 60.95 65.19 L 60.95 65.16 Q 60.52 64.91 60.26 64.51 Q 60.02 64.12 60.02 63.53 Q 60.02 62.63 60.64 62.1 Q 61.25 61.57 62.2 61.57 Q 62.59 61.57 62.89 61.65 Q 63.19 61.72 63.36 61.8 Q 63.53 61.87 63.53 61.87 L 65.08 61.79 L 65.08 62.44 L 63.95 62.4 L 63.95 62.46 Q 64.08 62.64 64.22 62.94 Q 64.38 63.24 64.38 63.7 Q 64.38 64.54 63.79 65.03 Q 63.2 65.52 62.26 65.52 Q 61.97 65.52 61.72 65.47 Q 61.46 65.43 61.22 65.34 Q 61.14 65.46 61.02 65.73 Q 60.91 65.99 60.91 66.15 Q 60.91 66.41 61.2 66.52 Q 61.5 66.63 62.33 66.63 Q 63.08 66.63 63.68 66.7 Q 64.3 66.77 64.64 67.07 Q 64.99 67.37 64.99 68.05 Q 64.99 68.65 64.69 69.06 Q 64.4 69.48 63.91 69.73 Q 63.43 69.99 62.84 70.09 Q 62.27 70.21 61.7 70.21 Q 60.92 70.21 60.47 70.02 Q 60.02 69.83 59.84 69.52 Q 59.66 69.22 59.66 68.89 Q 59.66 68.59 59.9 68.26 Q 60.16 67.93 60.64 67.47 L 60.64 67.42 Q 60.34 67.26 60.14 67.03 Q 59.96 66.81 59.96 66.55 Q 59.96 66.23 60.24 65.87 Q 60.53 65.51 60.95 65.19 Z M 60.94 67.51 Q 60.74 67.85 60.67 68.07 Q 60.6 68.29 60.6 68.49 Q 60.6 69.53 62.4 69.53 Q 63.11 69.53 63.54 69.35 Q 63.98 69.17 64.18 68.91 Q 64.38 68.64 64.38 68.39 Q 64.38 68.08 64.19 67.9 Q 64 67.73 63.68 67.66 Q 63.38 67.59 63.04 67.56 Q 62.7 67.54 62.4 67.54 Q 62.33 67.54 62.29 67.54 Q 61.81 67.53 61.55 67.53 Q 61.28 67.53 61.15 67.51 Q 61.02 67.51 60.94 67.51 Z M 62.11 62.01 Q 61.64 62.01 61.36 62.37 Q 61.08 62.73 61.08 63.48 Q 61.08 64.25 61.38 64.68 Q 61.68 65.1 62.27 65.1 Q 62.72 65.1 63.01 64.79 Q 63.31 64.48 63.31 63.63 Q 63.31 62.89 63 62.45 Q 62.69 62.01 62.11 62.01 Z M 73.81 63.71 L 73.81 66.18 Q 73.81 66.52 73.86 66.71 Q 73.92 66.9 74.11 66.99 Q 74.3 67.06 74.7 67.06 L 74.7 67.39 L 71.93 67.39 L 71.93 67.06 Q 72.36 67.06 72.54 66.99 Q 72.73 66.9 72.77 66.71 Q 72.82 66.52 72.82 66.18 L 72.82 64.01 Q 72.82 63.29 72.65 62.93 Q 72.49 62.57 72.24 62.46 Q 71.99 62.34 71.71 62.34 Q 71.23 62.34 70.88 62.61 Q 70.54 62.86 70.26 63.1 L 70.26 66.18 Q 70.26 66.52 70.31 66.71 Q 70.36 66.9 70.55 66.99 Q 70.74 67.06 71.17 67.06 L 71.17 67.39 L 68.42 67.39 L 68.42 67.06 Q 68.83 67.06 69 66.99 Q 69.18 66.9 69.22 66.71 Q 69.26 66.52 69.26 66.18 L 69.26 62.81 Q 69.26 62.49 69.13 62.39 Q 69 62.28 68.76 62.28 Q 68.6 62.28 68.52 62.29 Q 68.44 62.31 68.44 62.31 L 68.44 61.96 L 69.96 61.61 L 70.24 61.61 L 70.22 62.58 L 70.27 62.58 Q 70.76 62.15 71.2 61.86 Q 71.64 61.57 72.2 61.57 Q 73.02 61.57 73.42 62.13 Q 73.81 62.68 73.81 63.71 Z M 78.65 66.65 L 78.6 66.65 Q 78.18 67.02 77.8 67.25 Q 77.41 67.48 76.84 67.48 Q 76.14 67.48 75.77 67.09 Q 75.41 66.71 75.41 66.13 Q 75.41 65.65 75.62 65.33 Q 75.85 64.99 76.21 64.77 Q 76.58 64.54 77 64.38 Q 77.44 64.23 77.84 64.12 Q 78.25 64.01 78.56 63.91 L 78.56 63.39 Q 78.56 62.61 78.29 62.28 Q 78.02 61.95 77.48 61.95 Q 76.97 61.95 76.82 62.16 Q 76.68 62.38 76.68 62.92 Q 76.68 63.47 76.15 63.47 Q 75.97 63.47 75.8 63.34 Q 75.65 63.19 75.65 62.89 Q 75.65 62.56 75.9 62.26 Q 76.16 61.96 76.63 61.77 Q 77.11 61.57 77.76 61.57 Q 78.74 61.57 79.15 62.03 Q 79.56 62.49 79.56 63.42 L 79.56 66.15 Q 79.56 66.52 79.64 66.63 Q 79.73 66.73 79.92 66.73 Q 80.09 66.73 80.22 66.65 Q 80.36 66.57 80.48 66.43 L 80.66 66.63 Q 80.36 67.06 80.09 67.26 Q 79.82 67.45 79.37 67.45 Q 78.97 67.45 78.84 67.25 Q 78.71 67.05 78.65 66.65 Z M 78.56 66.29 L 78.56 64.31 Q 78.02 64.44 77.54 64.62 Q 77.06 64.8 76.76 65.09 Q 76.46 65.38 76.46 65.85 Q 76.46 66.29 76.7 66.55 Q 76.94 66.82 77.33 66.82 Q 77.93 66.82 78.56 66.29 Z M 82.93 63.11 L 82.93 66.23 Q 82.93 66.73 83.1 66.89 Q 83.28 67.05 83.83 67.05 L 83.83 67.39 L 81.1 67.39 L 81.1 67.05 Q 81.48 67.05 81.65 66.99 Q 81.83 66.91 81.88 66.73 Q 81.94 66.54 81.94 66.18 L 81.94 62.82 Q 81.94 62.5 81.8 62.39 Q 81.68 62.28 81.43 62.28 Q 81.3 62.28 81.2 62.29 Q 81.11 62.31 81.11 62.31 L 81.11 61.96 L 82.61 61.61 L 82.9 61.61 L 82.9 62.58 L 82.94 62.58 Q 83.44 62.16 83.89 61.87 Q 84.35 61.57 84.96 61.57 Q 85.48 61.57 85.79 61.86 Q 86.11 62.14 86.29 62.57 L 86.34 62.57 Q 86.83 62.08 87.3 61.83 Q 87.77 61.57 88.25 61.57 Q 88.96 61.57 89.38 62.02 Q 89.8 62.46 89.8 63.55 L 89.8 66 Q 89.8 66.37 89.83 66.61 Q 89.88 66.84 90.06 66.95 Q 90.25 67.05 90.66 67.05 L 90.66 67.39 L 87.95 67.39 L 87.95 67.05 Q 88.36 67.05 88.54 66.94 Q 88.72 66.83 88.75 66.6 Q 88.8 66.36 88.8 66 L 88.8 63.7 Q 88.8 63.15 88.66 62.86 Q 88.52 62.57 88.28 62.46 Q 88.06 62.34 87.77 62.34 Q 87.4 62.34 87.04 62.59 Q 86.69 62.83 86.39 63.09 L 86.39 66 Q 86.39 66.41 86.44 66.64 Q 86.5 66.87 86.69 66.96 Q 86.88 67.05 87.31 67.05 L 87.31 67.39 L 84.47 67.39 L 84.47 67.05 Q 84.9 67.05 85.09 66.96 Q 85.28 66.88 85.33 66.65 Q 85.39 66.42 85.39 66 L 85.39 63.63 Q 85.39 62.86 85.12 62.61 Q 84.85 62.34 84.43 62.34 Q 83.96 62.34 83.58 62.61 Q 83.2 62.87 82.93 63.11 Z M 95.92 65.68 L 96.14 65.85 Q 95.93 66.3 95.64 66.69 Q 95.35 67.06 94.93 67.29 Q 94.52 67.51 93.9 67.51 Q 93.18 67.51 92.59 67.18 Q 92.02 66.83 91.68 66.17 Q 91.34 65.5 91.34 64.54 Q 91.34 63.53 91.68 62.88 Q 92.03 62.22 92.6 61.9 Q 93.18 61.57 93.88 61.57 Q 94.86 61.57 95.46 62.26 Q 96.06 62.94 96.11 64.2 L 92.32 64.2 Q 92.32 65.03 92.58 65.57 Q 92.86 66.1 93.28 66.36 Q 93.71 66.61 94.19 66.61 Q 94.68 66.61 94.98 66.48 Q 95.29 66.35 95.51 66.15 Q 95.72 65.93 95.92 65.68 Z M 92.3 63.76 L 94.98 63.76 Q 94.97 63.31 94.82 62.93 Q 94.68 62.53 94.4 62.29 Q 94.13 62.05 93.7 62.05 Q 92.45 62.05 92.3 63.76 Z M 102.72 59.51 L 105.71 59.51 Q 106.28 59.51 106.81 59.61 Q 107.35 59.69 107.76 59.91 Q 108.18 60.12 108.42 60.52 Q 108.67 60.9 108.67 61.5 Q 108.67 62.2 108.41 62.68 Q 108.14 63.15 107.69 63.43 Q 107.24 63.72 106.68 63.84 Q 106.12 63.96 105.53 63.96 Q 105.35 63.96 105.14 63.94 Q 104.94 63.91 104.84 63.87 L 104.84 65.92 Q 104.84 66.41 104.94 66.65 Q 105.05 66.89 105.31 66.96 Q 105.58 67.03 106.06 67.03 L 106.06 67.39 L 102.67 67.39 L 102.67 67.03 Q 103.14 67.03 103.37 66.95 Q 103.6 66.87 103.67 66.63 Q 103.74 66.37 103.74 65.87 L 103.74 60.71 Q 103.74 60.18 103.51 60.03 Q 103.3 59.87 102.72 59.87 L 102.72 59.51 Z M 104.84 60.03 L 104.84 63.42 Q 104.94 63.43 105.12 63.46 Q 105.31 63.47 105.49 63.47 Q 106.46 63.47 106.97 63.1 Q 107.48 62.71 107.48 61.67 Q 107.48 60.85 107 60.42 Q 106.54 59.98 105.56 59.98 Q 105.38 59.98 105.2 59.99 Q 105.04 60 104.84 60.03 Z M 110.57 65.82 L 110.57 61.09 Q 110.57 60.63 110.51 60.36 Q 110.45 60.09 110.2 59.98 Q 109.96 59.87 109.38 59.87 L 109.38 59.51 L 112.84 59.51 L 112.84 59.87 Q 112.27 59.87 112.02 59.98 Q 111.77 60.09 111.71 60.36 Q 111.66 60.63 111.66 61.09 L 111.66 63.35 L 111.72 63.35 L 113.66 61.45 Q 114.08 61.06 114.3 60.78 Q 114.52 60.51 114.52 60.24 Q 114.52 60.05 114.41 59.97 Q 114.31 59.87 114.06 59.87 L 113.87 59.87 L 113.87 59.51 L 116.81 59.51 L 116.81 59.87 Q 116.47 59.88 116.23 59.97 Q 116 60.05 115.78 60.23 Q 115.56 60.4 115.24 60.7 L 112.63 63.13 L 116.08 66.52 Q 116.38 66.79 116.63 66.91 Q 116.88 67.03 117.32 67.03 L 117.32 67.39 L 113.86 67.39 L 113.86 67.03 L 114.1 67.03 Q 114.56 67.03 114.56 66.79 Q 114.56 66.49 114.14 66.05 Q 113.74 65.61 112.82 64.72 L 111.77 63.66 L 111.66 63.66 L 111.66 65.82 Q 111.66 66.33 111.73 66.59 Q 111.8 66.84 112.06 66.94 Q 112.31 67.03 112.84 67.03 L 112.84 67.39 L 109.38 67.39 L 109.38 67.03 Q 109.93 67.03 110.17 66.95 Q 110.42 66.87 110.5 66.61 Q 110.57 66.35 110.57 65.82 Z" fill="#000000"/><path d="M 36.47 80.43 L 36.78 80.43 Q 36.97 81.35 37.34 81.72 Q 37.72 82.08 38.38 82.08 Q 38.83 82.08 39.12 81.9 Q 39.41 81.71 39.41 81.29 Q 39.41 81 39.3 80.81 Q 39.2 80.62 38.92 80.43 Q 38.63 80.22 38.06 79.95 Q 37.25 79.53 36.86 79.14 Q 36.48 78.75 36.48 78.09 Q 36.48 77.34 37.01 76.96 Q 37.55 76.57 38.32 76.57 Q 38.77 76.57 39.06 76.68 Q 39.35 76.78 39.58 76.89 L 39.59 76.89 L 39.79 76.63 L 40.03 76.63 L 40.07 78.47 L 39.74 78.47 Q 39.55 77.62 39.2 77.31 Q 38.86 76.98 38.3 76.98 Q 37.9 76.98 37.61 77.17 Q 37.33 77.37 37.33 77.77 Q 37.33 78.12 37.66 78.4 Q 37.98 78.67 38.74 79.06 Q 39.55 79.49 39.98 79.9 Q 40.42 80.29 40.42 80.97 Q 40.42 81.53 40.14 81.88 Q 39.86 82.21 39.4 82.37 Q 38.94 82.53 38.4 82.53 Q 37.88 82.53 37.57 82.42 Q 37.27 82.31 37.03 82.21 L 37.01 82.21 L 36.76 82.49 L 36.5 82.49 L 36.47 80.43 Z M 44.26 81.31 L 44.48 81.51 Q 44.26 81.83 44.05 82.06 Q 43.86 82.27 43.62 82.39 Q 43.38 82.51 43 82.51 Q 42.4 82.51 42.12 82.17 Q 41.84 81.81 41.84 81 L 41.84 77.28 L 41.18 77.28 L 41.18 77.01 Q 41.6 76.74 41.9 76.3 Q 42.22 75.84 42.54 75.07 L 42.85 75.07 L 42.84 76.78 L 44.2 76.78 L 44.2 77.28 L 42.84 77.28 L 42.84 80.67 Q 42.84 81.3 42.95 81.55 Q 43.07 81.81 43.42 81.81 Q 43.7 81.81 43.86 81.69 Q 44.03 81.57 44.26 81.31 Z M 46.72 76.61 L 46.72 77.85 L 46.75 77.85 Q 47.21 77.17 47.53 76.86 Q 47.87 76.54 48.3 76.54 Q 48.65 76.54 48.82 76.72 Q 49 76.9 49 77.21 Q 49 77.55 48.83 77.7 Q 48.67 77.86 48.47 77.86 Q 48.28 77.86 48.12 77.76 Q 47.98 77.65 47.87 77.56 Q 47.76 77.45 47.69 77.45 Q 47.48 77.45 47.22 77.76 Q 46.96 78.07 46.74 78.43 L 46.74 81.17 Q 46.74 81.54 46.84 81.73 Q 46.93 81.93 47.17 81.99 Q 47.42 82.05 47.87 82.05 L 47.87 82.39 L 44.87 82.39 L 44.87 82.05 Q 45.26 82.05 45.44 81.99 Q 45.64 81.91 45.68 81.75 Q 45.74 81.57 45.74 81.23 L 45.74 77.93 Q 45.74 77.61 45.68 77.45 Q 45.64 77.28 45.31 77.28 Q 45.13 77.28 45.04 77.29 Q 44.94 77.31 44.94 77.31 L 44.94 76.97 L 46.43 76.61 L 46.72 76.61 Z M 52.16 82.06 L 52.16 82.39 L 49.46 82.39 L 49.46 82.06 Q 49.87 82.06 50.04 81.99 Q 50.22 81.9 50.26 81.71 Q 50.3 81.52 50.3 81.18 L 50.3 77.83 Q 50.3 77.45 50.17 77.37 Q 50.04 77.27 49.78 77.27 Q 49.66 77.27 49.56 77.28 Q 49.48 77.29 49.48 77.29 L 49.48 76.95 L 50.99 76.61 L 51.3 76.61 L 51.3 81.18 Q 51.3 81.53 51.35 81.72 Q 51.4 81.91 51.58 81.99 Q 51.77 82.06 52.16 82.06 Z M 50.82 74.32 Q 51.13 74.32 51.31 74.52 Q 51.5 74.71 51.5 74.99 Q 51.5 75.27 51.31 75.47 Q 51.13 75.67 50.82 75.67 Q 50.52 75.67 50.33 75.47 Q 50.14 75.27 50.14 74.99 Q 50.14 74.71 50.32 74.52 Q 50.51 74.32 50.82 74.32 Z M 58.27 78.71 L 58.27 81.18 Q 58.27 81.52 58.32 81.71 Q 58.38 81.9 58.57 81.99 Q 58.76 82.06 59.16 82.06 L 59.16 82.39 L 56.39 82.39 L 56.39 82.06 Q 56.82 82.06 57 81.99 Q 57.19 81.9 57.23 81.71 Q 57.28 81.52 57.28 81.18 L 57.28 79.01 Q 57.28 78.29 57.11 77.93 Q 56.95 77.57 56.7 77.46 Q 56.45 77.34 56.17 77.34 Q 55.69 77.34 55.34 77.61 Q 55 77.86 54.72 78.1 L 54.72 81.18 Q 54.72 81.52 54.77 81.71 Q 54.82 81.9 55.01 81.99 Q 55.2 82.06 55.63 82.06 L 55.63 82.39 L 52.88 82.39 L 52.88 82.06 Q 53.29 82.06 53.46 81.99 Q 53.64 81.9 53.68 81.71 Q 53.72 81.52 53.72 81.18 L 53.72 77.81 Q 53.72 77.49 53.59 77.39 Q 53.46 77.28 53.22 77.28 Q 53.06 77.28 52.98 77.29 Q 52.9 77.31 52.9 77.31 L 52.9 76.96 L 54.42 76.61 L 54.7 76.61 L 54.68 77.58 L 54.73 77.58 Q 55.22 77.15 55.66 76.86 Q 56.1 76.57 56.66 76.57 Q 57.48 76.57 57.88 77.13 Q 58.27 77.68 58.27 78.71 Z M 60.95 80.19 L 60.95 80.16 Q 60.52 79.91 60.26 79.51 Q 60.02 79.12 60.02 78.53 Q 60.02 77.63 60.64 77.1 Q 61.25 76.57 62.2 76.57 Q 62.59 76.57 62.89 76.65 Q 63.19 76.72 63.36 76.8 Q 63.53 76.87 63.53 76.87 L 65.08 76.79 L 65.08 77.44 L 63.95 77.4 L 63.95 77.46 Q 64.08 77.64 64.22 77.94 Q 64.38 78.24 64.38 78.7 Q 64.38 79.54 63.79 80.03 Q 63.2 80.52 62.26 80.52 Q 61.97 80.52 61.72 80.47 Q 61.46 80.43 61.22 80.34 Q 61.14 80.46 61.02 80.73 Q 60.91 80.99 60.91 81.15 Q 60.91 81.41 61.2 81.52 Q 61.5 81.63 62.33 81.63 Q 63.08 81.63 63.68 81.7 Q 64.3 81.77 64.64 82.07 Q 64.99 82.37 64.99 83.05 Q 64.99 83.65 64.69 84.06 Q 64.4 84.48 63.91 84.73 Q 63.43 84.99 62.84 85.09 Q 62.27 85.21 61.7 85.21 Q 60.92 85.21 60.47 85.02 Q 60.02 84.83 59.84 84.52 Q 59.66 84.22 59.66 83.89 Q 59.66 83.59 59.9 83.26 Q 60.16 82.93 60.64 82.47 L 60.64 82.42 Q 60.34 82.26 60.14 82.03 Q 59.96 81.81 59.96 81.55 Q 59.96 81.23 60.24 80.87 Q 60.53 80.51 60.95 80.19 Z M 60.94 82.51 Q 60.74 82.85 60.67 83.07 Q 60.6 83.29 60.6 83.49 Q 60.6 84.53 62.4 84.53 Q 63.11 84.53 63.54 84.35 Q 63.98 84.17 64.18 83.91 Q 64.38 83.64 64.38 83.39 Q 64.38 83.08 64.19 82.9 Q 64 82.73 63.68 82.66 Q 63.38 82.59 63.04 82.56 Q 62.7 82.54 62.4 82.54 Q 62.33 82.54 62.29 82.54 Q 61.81 82.53 61.55 82.53 Q 61.28 82.53 61.15 82.51 Q 61.02 82.51 60.94 82.51 Z M 62.11 77.01 Q 61.64 77.01 61.36 77.37 Q 61.08 77.73 61.08 78.48 Q 61.08 79.25 61.38 79.68 Q 61.68 80.1 62.27 80.1 Q 62.72 80.1 63.01 79.79 Q 63.31 79.48 63.31 78.63 Q 63.31 77.89 63 77.45 Q 62.69 77.01 62.11 77.01 Z M 73.02 80.68 L 73.25 80.85 Q 73.03 81.3 72.74 81.69 Q 72.46 82.06 72.04 82.29 Q 71.63 82.51 71 82.51 Q 70.28 82.51 69.7 82.18 Q 69.12 81.83 68.78 81.17 Q 68.45 80.5 68.45 79.54 Q 68.45 78.53 68.78 77.88 Q 69.13 77.22 69.71 76.9 Q 70.28 76.57 70.98 76.57 Q 71.96 76.57 72.56 77.26 Q 73.16 77.94 73.21 79.2 L 69.42 79.2 Q 69.42 80.03 69.68 80.57 Q 69.96 81.1 70.38 81.36 Q 70.81 81.61 71.29 81.61 Q 71.78 81.61 72.08 81.48 Q 72.4 81.35 72.61 81.15 Q 72.83 80.93 73.02 80.68 Z M 69.41 78.76 L 72.08 78.76 Q 72.07 78.31 71.93 77.93 Q 71.78 77.53 71.51 77.29 Q 71.23 77.05 70.8 77.05 Q 69.55 77.05 69.41 78.76 Z M 75.83 78.11 L 75.83 81.23 Q 75.83 81.73 76 81.89 Q 76.18 82.05 76.73 82.05 L 76.73 82.39 L 73.99 82.39 L 73.99 82.05 Q 74.38 82.05 74.54 81.99 Q 74.72 81.91 74.77 81.73 Q 74.83 81.54 74.83 81.18 L 74.83 77.82 Q 74.83 77.5 74.7 77.39 Q 74.58 77.28 74.33 77.28 Q 74.2 77.28 74.1 77.29 Q 74 77.31 74 77.31 L 74 76.96 L 75.5 76.61 L 75.79 76.61 L 75.79 77.58 L 75.84 77.58 Q 76.33 77.16 76.79 76.87 Q 77.24 76.57 77.86 76.57 Q 78.37 76.57 78.68 76.86 Q 79.01 77.14 79.19 77.57 L 79.24 77.57 Q 79.73 77.08 80.2 76.83 Q 80.66 76.57 81.14 76.57 Q 81.85 76.57 82.27 77.02 Q 82.69 77.46 82.69 78.55 L 82.69 81 Q 82.69 81.37 82.73 81.61 Q 82.78 81.84 82.96 81.95 Q 83.15 82.05 83.56 82.05 L 83.56 82.39 L 80.84 82.39 L 80.84 82.05 Q 81.25 82.05 81.43 81.94 Q 81.61 81.83 81.65 81.6 Q 81.7 81.36 81.7 81 L 81.7 78.7 Q 81.7 78.15 81.55 77.86 Q 81.42 77.57 81.18 77.46 Q 80.95 77.34 80.66 77.34 Q 80.29 77.34 79.93 77.59 Q 79.58 77.83 79.28 78.09 L 79.28 81 Q 79.28 81.41 79.33 81.64 Q 79.39 81.87 79.58 81.96 Q 79.78 82.05 80.21 82.05 L 80.21 82.39 L 77.36 82.39 L 77.36 82.05 Q 77.8 82.05 77.99 81.96 Q 78.18 81.88 78.23 81.65 Q 78.29 81.42 78.29 81 L 78.29 78.63 Q 78.29 77.86 78.01 77.61 Q 77.75 77.34 77.33 77.34 Q 76.86 77.34 76.48 77.61 Q 76.09 77.87 75.83 78.11 Z M 87.53 81.65 L 87.48 81.65 Q 87.06 82.02 86.68 82.25 Q 86.29 82.48 85.72 82.48 Q 85.02 82.48 84.65 82.09 Q 84.29 81.71 84.29 81.13 Q 84.29 80.65 84.5 80.33 Q 84.73 79.99 85.09 79.77 Q 85.46 79.54 85.88 79.38 Q 86.32 79.23 86.72 79.12 Q 87.13 79.01 87.44 78.91 L 87.44 78.39 Q 87.44 77.61 87.17 77.28 Q 86.9 76.95 86.36 76.95 Q 85.85 76.95 85.7 77.16 Q 85.56 77.38 85.56 77.92 Q 85.56 78.47 85.03 78.47 Q 84.85 78.47 84.68 78.34 Q 84.53 78.19 84.53 77.89 Q 84.53 77.56 84.78 77.26 Q 85.04 76.96 85.51 76.77 Q 85.99 76.57 86.64 76.57 Q 87.62 76.57 88.03 77.03 Q 88.44 77.49 88.44 78.42 L 88.44 81.15 Q 88.44 81.52 88.52 81.63 Q 88.61 81.73 88.8 81.73 Q 88.97 81.73 89.1 81.65 Q 89.24 81.57 89.36 81.43 L 89.54 81.63 Q 89.24 82.06 88.97 82.26 Q 88.7 82.45 88.25 82.45 Q 87.85 82.45 87.72 82.25 Q 87.59 82.05 87.53 81.65 Z M 87.44 81.29 L 87.44 79.31 Q 86.9 79.44 86.42 79.62 Q 85.94 79.8 85.64 80.09 Q 85.34 80.38 85.34 80.85 Q 85.34 81.29 85.58 81.55 Q 85.82 81.82 86.21 81.82 Q 86.81 81.82 87.44 81.29 Z M 92.68 82.06 L 92.68 82.39 L 89.98 82.39 L 89.98 82.06 Q 90.38 82.06 90.55 81.99 Q 90.73 81.9 90.77 81.71 Q 90.82 81.52 90.82 81.18 L 90.82 77.83 Q 90.82 77.45 90.68 77.37 Q 90.55 77.27 90.29 77.27 Q 90.17 77.27 90.07 77.28 Q 89.99 77.29 89.99 77.29 L 89.99 76.95 L 91.5 76.61 L 91.81 76.61 L 91.81 81.18 Q 91.81 81.53 91.86 81.72 Q 91.91 81.91 92.09 81.99 Q 92.28 82.06 92.68 82.06 Z M 91.33 74.32 Q 91.64 74.32 91.82 74.52 Q 92.02 74.71 92.02 74.99 Q 92.02 75.27 91.82 75.47 Q 91.64 75.67 91.33 75.67 Q 91.03 75.67 90.84 75.47 Q 90.65 75.27 90.65 74.99 Q 90.65 74.71 90.83 74.52 Q 91.02 74.32 91.33 74.32 Z M 96.13 82.05 L 96.13 82.39 L 93.37 82.39 L 93.37 82.05 Q 93.77 82.05 93.95 81.97 Q 94.13 81.89 94.16 81.71 Q 94.21 81.52 94.21 81.18 L 94.21 75.16 Q 94.21 74.79 94.07 74.71 Q 93.94 74.64 93.71 74.64 Q 93.55 74.64 93.43 74.65 Q 93.32 74.67 93.32 74.67 L 93.32 74.34 L 94.91 73.92 L 95.21 73.92 L 95.21 81.18 Q 95.21 81.53 95.26 81.72 Q 95.32 81.9 95.51 81.97 Q 95.7 82.05 96.13 82.05 Z" fill="#000000"/><path d="M 264.16 38.28 Q 264.16 39.65 263.65 40.67 Q 263.16 41.69 262.24 42.26 Q 261.31 42.83 260.03 42.83 Q 258.74 42.83 257.8 42.3 Q 256.88 41.77 256.37 40.78 Q 255.88 39.78 255.88 38.4 Q 255.88 37.07 256.37 36.08 Q 256.88 35.08 257.8 34.54 Q 258.74 33.98 260.03 33.98 Q 261.33 33.98 262.25 34.52 Q 263.17 35.06 263.67 36.03 Q 264.16 36.99 264.16 38.28 Z M 262.8 38.32 Q 262.8 37.15 262.45 36.31 Q 262.09 35.45 261.46 34.99 Q 260.83 34.52 259.99 34.52 Q 258.73 34.52 257.99 35.54 Q 257.25 36.54 257.25 38.32 Q 257.25 40.15 257.93 41.22 Q 258.64 42.29 260.04 42.29 Q 261.43 42.29 262.11 41.28 Q 262.8 40.28 262.8 38.32 Z M 271.92 36.27 Q 271.92 36.99 271.58 37.45 Q 271.26 37.9 270.75 38.16 Q 270.26 38.41 269.73 38.54 L 269.73 38.59 Q 269.95 38.72 270.22 39.05 Q 270.51 39.36 270.95 39.98 Q 271.39 40.6 272.1 41.62 Q 272.42 42.05 272.7 42.17 Q 273 42.29 273.44 42.29 L 273.44 42.68 L 271.3 42.68 Q 270.77 41.87 270.4 41.34 Q 270.05 40.79 269.8 40.43 Q 269.56 40.05 269.36 39.76 Q 269.17 39.48 268.97 39.19 Q 268.78 38.89 268.61 38.83 Q 268.45 38.76 268.1 38.76 L 267.74 38.76 L 267.74 41.06 Q 267.74 41.6 267.83 41.87 Q 267.92 42.13 268.19 42.21 Q 268.46 42.29 269.02 42.29 L 269.02 42.68 L 265.37 42.68 L 265.37 42.29 Q 265.86 42.29 266.11 42.21 Q 266.36 42.13 266.44 41.87 Q 266.53 41.61 266.53 41.06 L 266.53 35.49 Q 266.53 35.12 266.45 34.91 Q 266.38 34.71 266.14 34.61 Q 265.89 34.52 265.37 34.52 L 265.37 34.13 L 268.57 34.13 Q 269.54 34.13 270.3 34.33 Q 271.06 34.51 271.49 34.98 Q 271.92 35.43 271.92 36.27 Z M 267.74 34.68 L 267.74 38.25 L 268.23 38.27 Q 269.31 38.22 269.96 37.79 Q 270.61 37.35 270.61 36.32 Q 270.61 35.54 270.13 35.1 Q 269.65 34.64 268.59 34.64 Q 268.15 34.64 267.74 34.68 Z M 273.83 34.13 L 277.41 34.13 Q 278.42 34.13 279.29 34.35 Q 280.18 34.56 280.83 35.06 Q 281.48 35.55 281.84 36.36 Q 282.22 37.16 282.22 38.36 Q 282.22 39.85 281.63 40.82 Q 281.06 41.77 280.01 42.22 Q 278.96 42.68 277.55 42.68 L 273.83 42.68 L 273.83 42.29 Q 274.41 42.29 274.68 42.21 Q 274.95 42.12 275.03 41.86 Q 275.11 41.58 275.11 41.06 L 275.11 35.62 Q 275.11 35.14 274.99 34.91 Q 274.87 34.68 274.6 34.6 Q 274.33 34.52 273.83 34.52 L 273.83 34.13 Z M 276.3 34.69 L 276.3 42.14 Q 276.69 42.18 277.07 42.18 Q 278.25 42.18 279.1 41.87 Q 279.94 41.54 280.4 40.74 Q 280.85 39.93 280.85 38.48 Q 280.85 36.62 279.9 35.64 Q 278.96 34.67 276.94 34.67 Q 276.78 34.67 276.63 34.67 Q 276.49 34.67 276.3 34.69 Z M 290.64 40.26 L 290.28 42.68 L 283.34 42.68 L 283.34 42.29 Q 283.87 42.29 284.13 42.22 Q 284.4 42.14 284.49 41.9 Q 284.6 41.65 284.6 41.14 L 284.6 35.72 Q 284.6 35.23 284.49 34.97 Q 284.4 34.71 284.13 34.61 Q 283.87 34.52 283.34 34.52 L 283.34 34.13 L 290.16 34.13 L 290.24 36.27 L 289.82 36.27 Q 289.73 35.62 289.54 35.29 Q 289.36 34.95 288.93 34.84 Q 288.51 34.72 287.71 34.72 L 285.79 34.72 L 285.79 38.02 L 287.32 38.02 Q 287.91 38.02 288.22 37.92 Q 288.54 37.81 288.65 37.53 Q 288.77 37.24 288.77 36.72 L 289.19 36.72 L 289.19 39.74 L 288.77 39.74 Q 288.77 39.2 288.65 38.94 Q 288.54 38.68 288.22 38.61 Q 287.91 38.53 287.32 38.53 L 285.79 38.53 L 285.79 42.1 L 287.47 42.1 Q 288.22 42.1 288.68 42.04 Q 289.15 41.96 289.41 41.77 Q 289.68 41.57 289.85 41.21 Q 290.03 40.84 290.23 40.26 L 290.64 40.26 Z M 298.12 36.27 Q 298.12 36.99 297.78 37.45 Q 297.45 37.9 296.95 38.16 Q 296.45 38.41 295.92 38.54 L 295.92 38.59 Q 296.14 38.72 296.41 39.05 Q 296.7 39.36 297.14 39.98 Q 297.58 40.6 298.3 41.62 Q 298.61 42.05 298.9 42.17 Q 299.2 42.29 299.64 42.29 L 299.64 42.68 L 297.49 42.68 Q 296.96 41.87 296.6 41.34 Q 296.25 40.79 296 40.43 Q 295.75 40.05 295.56 39.76 Q 295.36 39.48 295.17 39.19 Q 294.97 38.89 294.8 38.83 Q 294.65 38.76 294.3 38.76 L 293.93 38.76 L 293.93 41.06 Q 293.93 41.6 294.02 41.87 Q 294.11 42.13 294.39 42.21 Q 294.66 42.29 295.22 42.29 L 295.22 42.68 L 291.57 42.68 L 291.57 42.29 Q 292.06 42.29 292.31 42.21 Q 292.55 42.13 292.63 41.87 Q 292.72 41.61 292.72 41.06 L 292.72 35.49 Q 292.72 35.12 292.64 34.91 Q 292.58 34.71 292.33 34.61 Q 292.09 34.52 291.57 34.52 L 291.57 34.13 L 294.76 34.13 Q 295.74 34.13 296.49 34.33 Q 297.26 34.51 297.69 34.98 Q 298.12 35.43 298.12 36.27 Z M 293.93 34.68 L 293.93 38.25 L 294.43 38.27 Q 295.5 38.22 296.15 37.79 Q 296.8 37.35 296.8 36.32 Q 296.8 35.54 296.32 35.1 Q 295.84 34.64 294.79 34.64 Q 294.35 34.64 293.93 34.68 Z" fill="#000000"/><path d="M 244.48 67.06 L 244.48 67.39 L 241.78 67.39 L 241.78 67.06 Q 242.19 67.06 242.36 66.99 Q 242.54 66.9 242.57 66.71 Q 242.62 66.52 242.62 66.18 L 242.62 62.83 Q 242.62 62.45 242.49 62.37 Q 242.36 62.27 242.09 62.27 Q 241.97 62.27 241.88 62.28 Q 241.79 62.29 241.79 62.29 L 241.79 61.95 L 243.3 61.61 L 243.62 61.61 L 243.62 66.18 Q 243.62 66.53 243.66 66.72 Q 243.71 66.91 243.89 66.99 Q 244.08 67.06 244.48 67.06 Z M 243.14 59.32 Q 243.45 59.32 243.63 59.52 Q 243.82 59.71 243.82 59.99 Q 243.82 60.27 243.63 60.47 Q 243.45 60.67 243.14 60.67 Q 242.84 60.67 242.64 60.47 Q 242.45 60.27 242.45 59.99 Q 242.45 59.71 242.63 59.52 Q 242.82 59.32 243.14 59.32 Z M 250.59 63.71 L 250.59 66.18 Q 250.59 66.52 250.64 66.71 Q 250.7 66.9 250.89 66.99 Q 251.08 67.06 251.48 67.06 L 251.48 67.39 L 248.7 67.39 L 248.7 67.06 Q 249.14 67.06 249.32 66.99 Q 249.51 66.9 249.54 66.71 Q 249.59 66.52 249.59 66.18 L 249.59 64.01 Q 249.59 63.29 249.42 62.93 Q 249.27 62.57 249.02 62.46 Q 248.76 62.34 248.49 62.34 Q 248.01 62.34 247.66 62.61 Q 247.31 62.86 247.04 63.1 L 247.04 66.18 Q 247.04 66.52 247.08 66.71 Q 247.13 66.9 247.32 66.99 Q 247.52 67.06 247.95 67.06 L 247.95 67.39 L 245.2 67.39 L 245.2 67.06 Q 245.61 67.06 245.78 66.99 Q 245.96 66.9 245.99 66.71 Q 246.04 66.52 246.04 66.18 L 246.04 62.81 Q 246.04 62.49 245.91 62.39 Q 245.78 62.28 245.54 62.28 Q 245.38 62.28 245.3 62.29 Q 245.21 62.31 245.21 62.31 L 245.21 61.96 L 246.74 61.61 L 247.01 61.61 L 247 62.58 L 247.05 62.58 Q 247.54 62.15 247.97 61.86 Q 248.42 61.57 248.98 61.57 Q 249.8 61.57 250.19 62.13 Q 250.59 62.68 250.59 63.71 Z M 255.24 66.31 L 255.47 66.51 Q 255.24 66.83 255.04 67.06 Q 254.85 67.27 254.61 67.39 Q 254.37 67.51 253.98 67.51 Q 253.38 67.51 253.11 67.17 Q 252.83 66.81 252.83 66 L 252.83 62.28 L 252.17 62.28 L 252.17 62.01 Q 252.59 61.74 252.89 61.3 Q 253.2 60.84 253.53 60.07 L 253.84 60.07 L 253.83 61.78 L 255.18 61.78 L 255.18 62.28 L 253.83 62.28 L 253.83 65.67 Q 253.83 66.3 253.94 66.55 Q 254.06 66.81 254.4 66.81 Q 254.69 66.81 254.85 66.69 Q 255.02 66.57 255.24 66.31 Z M 261.41 67.06 L 261.41 67.39 L 258.71 67.39 L 258.71 67.06 Q 259.12 67.06 259.29 66.99 Q 259.47 66.9 259.5 66.71 Q 259.55 66.52 259.55 66.18 L 259.55 62.83 Q 259.55 62.45 259.42 62.37 Q 259.29 62.27 259.02 62.27 Q 258.9 62.27 258.81 62.28 Q 258.72 62.29 258.72 62.29 L 258.72 61.95 L 260.24 61.61 L 260.55 61.61 L 260.55 66.18 Q 260.55 66.53 260.6 66.72 Q 260.64 66.91 260.82 66.99 Q 261.02 67.06 261.41 67.06 Z M 260.07 59.32 Q 260.38 59.32 260.56 59.52 Q 260.75 59.71 260.75 59.99 Q 260.75 60.27 260.56 60.47 Q 260.38 60.67 260.07 60.67 Q 259.77 60.67 259.58 60.47 Q 259.38 60.27 259.38 59.99 Q 259.38 59.71 259.56 59.52 Q 259.76 59.32 260.07 59.32 Z M 267.92 67.18 L 266.38 67.45 L 266.1 67.45 L 266.1 66.63 L 266.06 66.63 Q 265.72 66.93 265.25 67.21 Q 264.8 67.49 264.2 67.49 Q 263.52 67.49 263.06 67.13 Q 262.6 66.77 262.37 66.16 Q 262.14 65.53 262.14 64.77 Q 262.14 63.77 262.52 63.06 Q 262.89 62.34 263.51 61.96 Q 264.15 61.57 264.9 61.57 Q 265.2 61.57 265.49 61.65 Q 265.79 61.71 266.07 61.86 L 266.07 60.29 Q 266.07 59.89 265.97 59.77 Q 265.89 59.65 265.54 59.65 Q 265.46 59.65 265.34 59.67 Q 265.23 59.68 265.23 59.68 L 265.23 59.34 L 266.74 58.92 L 267.06 58.92 L 267.06 66.11 Q 267.06 66.58 267.2 66.72 Q 267.33 66.85 267.66 66.85 L 267.92 66.85 L 267.92 67.18 Z M 266.07 66.18 L 266.07 63.01 Q 266 62.64 265.72 62.35 Q 265.44 62.05 264.88 62.05 Q 264.12 62.05 263.66 62.61 Q 263.19 63.16 263.19 64.3 Q 263.19 65.53 263.58 66.09 Q 263.99 66.63 264.76 66.63 Q 265.18 66.63 265.47 66.52 Q 265.76 66.4 266.07 66.18 Z M 274.43 59.51 L 277.42 59.51 Q 278 59.51 278.52 59.61 Q 279.06 59.69 279.47 59.91 Q 279.89 60.12 280.13 60.52 Q 280.38 60.9 280.38 61.5 Q 280.38 62.2 280.12 62.68 Q 279.86 63.15 279.4 63.43 Q 278.96 63.72 278.39 63.84 Q 277.83 63.96 277.24 63.96 Q 277.06 63.96 276.86 63.94 Q 276.65 63.91 276.56 63.87 L 276.56 65.92 Q 276.56 66.41 276.65 66.65 Q 276.76 66.89 277.02 66.96 Q 277.29 67.03 277.77 67.03 L 277.77 67.39 L 274.38 67.39 L 274.38 67.03 Q 274.85 67.03 275.08 66.95 Q 275.31 66.87 275.38 66.63 Q 275.45 66.37 275.45 65.87 L 275.45 60.71 Q 275.45 60.18 275.22 60.03 Q 275.01 59.87 274.43 59.87 L 274.43 59.51 Z M 276.56 60.03 L 276.56 63.42 Q 276.65 63.43 276.83 63.46 Q 277.02 63.47 277.2 63.47 Q 278.18 63.47 278.68 63.1 Q 279.2 62.71 279.2 61.67 Q 279.2 60.85 278.72 60.42 Q 278.25 59.98 277.28 59.98 Q 277.1 59.98 276.92 59.99 Q 276.75 60 276.56 60.03 Z M 282.28 65.82 L 282.28 61.09 Q 282.28 60.63 282.22 60.36 Q 282.16 60.09 281.91 59.98 Q 281.67 59.87 281.09 59.87 L 281.09 59.51 L 284.55 59.51 L 284.55 59.87 Q 283.98 59.87 283.73 59.98 Q 283.48 60.09 283.42 60.36 Q 283.37 60.63 283.37 61.09 L 283.37 63.35 L 283.43 63.35 L 285.38 61.45 Q 285.8 61.06 286.01 60.78 Q 286.23 60.51 286.23 60.24 Q 286.23 60.05 286.12 59.97 Q 286.02 59.87 285.77 59.87 L 285.58 59.87 L 285.58 59.51 L 288.52 59.51 L 288.52 59.87 Q 288.18 59.88 287.94 59.97 Q 287.72 60.05 287.49 60.23 Q 287.27 60.4 286.95 60.7 L 284.34 63.13 L 287.79 66.52 Q 288.09 66.79 288.34 66.91 Q 288.59 67.03 289.04 67.03 L 289.04 67.39 L 285.57 67.39 L 285.57 67.03 L 285.81 67.03 Q 286.28 67.03 286.28 66.79 Q 286.28 66.49 285.86 66.05 Q 285.45 65.61 284.54 64.72 L 283.48 63.66 L 283.37 63.66 L 283.37 65.82 Q 283.37 66.33 283.44 66.59 Q 283.52 66.84 283.77 66.94 Q 284.02 67.03 284.55 67.03 L 284.55 67.39 L 281.09 67.39 L 281.09 67.03 Q 281.64 67.03 281.88 66.95 Q 282.14 66.87 282.21 66.61 Q 282.28 66.35 282.28 65.82 Z" fill="#000000"/><path d="M 247.56 82.18 L 246.03 82.45 L 245.75 82.45 L 245.75 81.63 L 245.7 81.63 Q 245.37 81.93 244.9 82.21 Q 244.44 82.49 243.84 82.49 Q 243.17 82.49 242.7 82.13 Q 242.25 81.77 242.02 81.16 Q 241.79 80.53 241.79 79.77 Q 241.79 78.77 242.16 78.06 Q 242.54 77.34 243.16 76.96 Q 243.8 76.57 244.55 76.57 Q 244.85 76.57 245.14 76.65 Q 245.44 76.71 245.72 76.86 L 245.72 75.29 Q 245.72 74.89 245.62 74.77 Q 245.54 74.65 245.19 74.65 Q 245.1 74.65 244.98 74.67 Q 244.88 74.68 244.88 74.68 L 244.88 74.34 L 246.39 73.92 L 246.71 73.92 L 246.71 81.11 Q 246.71 81.58 246.84 81.72 Q 246.98 81.85 247.31 81.85 L 247.56 81.85 L 247.56 82.18 Z M 245.72 81.18 L 245.72 78.01 Q 245.64 77.64 245.37 77.35 Q 245.09 77.05 244.53 77.05 Q 243.77 77.05 243.3 77.61 Q 242.84 78.16 242.84 79.3 Q 242.84 80.53 243.23 81.09 Q 243.64 81.63 244.41 81.63 Q 244.83 81.63 245.12 81.52 Q 245.4 81.4 245.72 81.18 Z M 251.56 81.65 L 251.51 81.65 Q 251.09 82.02 250.71 82.25 Q 250.32 82.48 249.75 82.48 Q 249.05 82.48 248.68 82.09 Q 248.32 81.71 248.32 81.13 Q 248.32 80.65 248.54 80.33 Q 248.76 79.99 249.12 79.77 Q 249.5 79.54 249.92 79.38 Q 250.35 79.23 250.76 79.12 Q 251.16 79.01 251.48 78.91 L 251.48 78.39 Q 251.48 77.61 251.2 77.28 Q 250.94 76.95 250.4 76.95 Q 249.88 76.95 249.74 77.16 Q 249.59 77.38 249.59 77.92 Q 249.59 78.47 249.06 78.47 Q 248.88 78.47 248.72 78.34 Q 248.56 78.19 248.56 77.89 Q 248.56 77.56 248.81 77.26 Q 249.08 76.96 249.54 76.77 Q 250.02 76.57 250.67 76.57 Q 251.66 76.57 252.06 77.03 Q 252.47 77.49 252.47 78.42 L 252.47 81.15 Q 252.47 81.52 252.56 81.63 Q 252.64 81.73 252.83 81.73 Q 253 81.73 253.13 81.65 Q 253.28 81.57 253.4 81.43 L 253.58 81.63 Q 253.28 82.06 253 82.26 Q 252.74 82.45 252.28 82.45 Q 251.88 82.45 251.75 82.25 Q 251.62 82.05 251.56 81.65 Z M 251.48 81.29 L 251.48 79.31 Q 250.94 79.44 250.46 79.62 Q 249.98 79.8 249.68 80.09 Q 249.38 80.38 249.38 80.85 Q 249.38 81.29 249.62 81.55 Q 249.86 81.82 250.24 81.82 Q 250.84 81.82 251.48 81.29 Z M 257.14 81.31 L 257.37 81.51 Q 257.14 81.83 256.94 82.06 Q 256.74 82.27 256.5 82.39 Q 256.26 82.51 255.88 82.51 Q 255.28 82.51 255 82.17 Q 254.73 81.81 254.73 81 L 254.73 77.28 L 254.07 77.28 L 254.07 77.01 Q 254.49 76.74 254.79 76.3 Q 255.1 75.84 255.42 75.07 L 255.74 75.07 L 255.72 76.78 L 257.08 76.78 L 257.08 77.28 L 255.72 77.28 L 255.72 80.67 Q 255.72 81.3 255.83 81.55 Q 255.95 81.81 256.3 81.81 Q 256.59 81.81 256.74 81.69 Q 256.91 81.57 257.14 81.31 Z M 262.38 80.68 L 262.61 80.85 Q 262.4 81.3 262.11 81.69 Q 261.82 82.06 261.4 82.29 Q 260.99 82.51 260.37 82.51 Q 259.65 82.51 259.06 82.18 Q 258.48 81.83 258.15 81.17 Q 257.81 80.5 257.81 79.54 Q 257.81 78.53 258.15 77.88 Q 258.5 77.22 259.07 76.9 Q 259.65 76.57 260.34 76.57 Q 261.33 76.57 261.93 77.26 Q 262.53 77.94 262.58 79.2 L 258.78 79.2 Q 258.78 80.03 259.05 80.57 Q 259.32 81.1 259.74 81.36 Q 260.18 81.61 260.66 81.61 Q 261.15 81.61 261.45 81.48 Q 261.76 81.35 261.98 81.15 Q 262.19 80.93 262.38 80.68 Z M 258.77 78.76 L 261.45 78.76 Q 261.44 78.31 261.29 77.93 Q 261.15 77.53 260.87 77.29 Q 260.6 77.05 260.16 77.05 Q 258.92 77.05 258.77 78.76 Z M 270.69 80.62 L 270.92 80.79 Q 270.69 81.27 270.39 81.66 Q 270.1 82.06 269.67 82.29 Q 269.24 82.51 268.59 82.51 Q 267.84 82.51 267.3 82.15 Q 266.76 81.79 266.48 81.16 Q 266.19 80.51 266.19 79.68 Q 266.19 78.27 266.9 77.43 Q 267.6 76.57 268.9 76.57 Q 269.75 76.57 270.23 76.95 Q 270.72 77.32 270.72 77.85 Q 270.72 78.39 270.22 78.39 Q 269.96 78.39 269.81 78.25 Q 269.68 78.11 269.6 77.91 Q 269.51 77.7 269.42 77.5 Q 269.33 77.29 269.16 77.16 Q 269.01 77.02 268.7 77.02 Q 267.96 77.02 267.54 77.56 Q 267.14 78.09 267.14 79.12 Q 267.14 80.21 267.58 80.92 Q 268.04 81.61 268.96 81.61 Q 269.55 81.61 269.91 81.37 Q 270.28 81.13 270.69 80.62 Z M 273.34 76.61 L 273.34 77.85 L 273.38 77.85 Q 273.83 77.17 274.16 76.86 Q 274.49 76.54 274.92 76.54 Q 275.27 76.54 275.44 76.72 Q 275.62 76.9 275.62 77.21 Q 275.62 77.55 275.45 77.7 Q 275.3 77.86 275.09 77.86 Q 274.9 77.86 274.74 77.76 Q 274.6 77.65 274.49 77.56 Q 274.38 77.45 274.31 77.45 Q 274.11 77.45 273.84 77.76 Q 273.58 78.07 273.36 78.43 L 273.36 81.17 Q 273.36 81.54 273.46 81.73 Q 273.56 81.93 273.8 81.99 Q 274.05 82.05 274.49 82.05 L 274.49 82.39 L 271.49 82.39 L 271.49 82.05 Q 271.89 82.05 272.07 81.99 Q 272.26 81.91 272.31 81.75 Q 272.37 81.57 272.37 81.23 L 272.37 77.93 Q 272.37 77.61 272.31 77.45 Q 272.26 77.28 271.94 77.28 Q 271.76 77.28 271.66 77.29 Q 271.56 77.31 271.56 77.31 L 271.56 76.97 L 273.05 76.61 L 273.34 76.61 Z M 280.68 80.68 L 280.91 80.85 Q 280.7 81.3 280.41 81.69 Q 280.12 82.06 279.7 82.29 Q 279.29 82.51 278.67 82.51 Q 277.95 82.51 277.36 82.18 Q 276.78 81.83 276.45 81.17 Q 276.11 80.5 276.11 79.54 Q 276.11 78.53 276.45 77.88 Q 276.8 77.22 277.37 76.9 Q 277.95 76.57 278.64 76.57 Q 279.63 76.57 280.23 77.26 Q 280.83 77.94 280.88 79.2 L 277.08 79.2 Q 277.08 80.03 277.35 80.57 Q 277.62 81.1 278.04 81.36 Q 278.48 81.61 278.96 81.61 Q 279.45 81.61 279.75 81.48 Q 280.06 81.35 280.28 81.15 Q 280.49 80.93 280.68 80.68 Z M 277.07 78.76 L 279.75 78.76 Q 279.74 78.31 279.59 77.93 Q 279.45 77.53 279.17 77.29 Q 278.9 77.05 278.46 77.05 Q 277.22 77.05 277.07 78.76 Z M 284.97 81.65 L 284.92 81.65 Q 284.5 82.02 284.12 82.25 Q 283.73 82.48 283.16 82.48 Q 282.46 82.48 282.09 82.09 Q 281.73 81.71 281.73 81.13 Q 281.73 80.65 281.94 80.33 Q 282.17 79.99 282.53 79.77 Q 282.9 79.54 283.32 79.38 Q 283.76 79.23 284.16 79.12 Q 284.57 79.01 284.88 78.91 L 284.88 78.39 Q 284.88 77.61 284.61 77.28 Q 284.34 76.95 283.8 76.95 Q 283.29 76.95 283.14 77.16 Q 283 77.38 283 77.92 Q 283 78.47 282.47 78.47 Q 282.29 78.47 282.12 78.34 Q 281.97 78.19 281.97 77.89 Q 281.97 77.56 282.22 77.26 Q 282.48 76.96 282.95 76.77 Q 283.43 76.57 284.08 76.57 Q 285.06 76.57 285.47 77.03 Q 285.88 77.49 285.88 78.42 L 285.88 81.15 Q 285.88 81.52 285.96 81.63 Q 286.05 81.73 286.24 81.73 Q 286.41 81.73 286.54 81.65 Q 286.68 81.57 286.8 81.43 L 286.98 81.63 Q 286.68 82.06 286.41 82.26 Q 286.14 82.45 285.69 82.45 Q 285.29 82.45 285.16 82.25 Q 285.03 82.05 284.97 81.65 Z M 284.88 81.29 L 284.88 79.31 Q 284.34 79.44 283.86 79.62 Q 283.38 79.8 283.08 80.09 Q 282.78 80.38 282.78 80.85 Q 282.78 81.29 283.02 81.55 Q 283.26 81.82 283.65 81.82 Q 284.25 81.82 284.88 81.29 Z M 290.55 81.31 L 290.78 81.51 Q 290.55 81.83 290.34 82.06 Q 290.15 82.27 289.91 82.39 Q 289.67 82.51 289.29 82.51 Q 288.69 82.51 288.41 82.17 Q 288.14 81.81 288.14 81 L 288.14 77.28 L 287.48 77.28 L 287.48 77.01 Q 287.9 76.74 288.2 76.3 Q 288.51 75.84 288.83 75.07 L 289.14 75.07 L 289.13 76.78 L 290.49 76.78 L 290.49 77.28 L 289.13 77.28 L 289.13 80.67 Q 289.13 81.3 289.24 81.55 Q 289.36 81.81 289.71 81.81 Q 290 81.81 290.15 81.69 Q 290.32 81.57 290.55 81.31 Z M 295.79 80.68 L 296.02 80.85 Q 295.8 81.3 295.52 81.69 Q 295.23 82.06 294.81 82.29 Q 294.4 82.51 293.78 82.51 Q 293.06 82.51 292.47 82.18 Q 291.89 81.83 291.56 81.17 Q 291.22 80.5 291.22 79.54 Q 291.22 78.53 291.56 77.88 Q 291.9 77.22 292.48 76.9 Q 293.06 76.57 293.75 76.57 Q 294.74 76.57 295.34 77.26 Q 295.94 77.94 295.98 79.2 L 292.19 79.2 Q 292.19 80.03 292.46 80.57 Q 292.73 81.1 293.15 81.36 Q 293.58 81.61 294.06 81.61 Q 294.56 81.61 294.86 81.48 Q 295.17 81.35 295.38 81.15 Q 295.6 80.93 295.79 80.68 Z M 292.18 78.76 L 294.86 78.76 Q 294.84 78.31 294.7 77.93 Q 294.56 77.53 294.28 77.29 Q 294 77.05 293.57 77.05 Q 292.32 77.05 292.18 78.76 Z M 302.55 82.18 L 301.01 82.45 L 300.74 82.45 L 300.74 81.63 L 300.69 81.63 Q 300.35 81.93 299.88 82.21 Q 299.43 82.49 298.83 82.49 Q 298.16 82.49 297.69 82.13 Q 297.23 81.77 297 81.16 Q 296.78 80.53 296.78 79.77 Q 296.78 78.77 297.15 78.06 Q 297.52 77.34 298.14 76.96 Q 298.78 76.57 299.54 76.57 Q 299.84 76.57 300.12 76.65 Q 300.42 76.71 300.7 76.86 L 300.7 75.29 Q 300.7 74.89 300.6 74.77 Q 300.52 74.65 300.17 74.65 Q 300.09 74.65 299.97 74.67 Q 299.86 74.68 299.86 74.68 L 299.86 74.34 L 301.37 73.92 L 301.7 73.92 L 301.7 81.11 Q 301.7 81.58 301.83 81.72 Q 301.96 81.85 302.3 81.85 L 302.55 81.85 L 302.55 82.18 Z M 300.7 81.18 L 300.7 78.01 Q 300.63 77.64 300.35 77.35 Q 300.08 77.05 299.51 77.05 Q 298.76 77.05 298.29 77.61 Q 297.82 78.16 297.82 79.3 Q 297.82 80.53 298.22 81.09 Q 298.62 81.63 299.39 81.63 Q 299.81 81.63 300.1 81.52 Q 300.39 81.4 300.7 81.18 Z" fill="#000000"/><path d="M 46.2 200.39 L 45.81 202.93 L 39.36 202.93 L 39.36 202.54 Q 39.88 202.54 40.12 202.44 Q 40.38 202.35 40.46 202.09 Q 40.54 201.83 40.54 201.33 L 40.54 196.04 Q 40.54 195.53 40.46 195.26 Q 40.38 194.98 40.12 194.88 Q 39.88 194.77 39.36 194.77 L 39.36 194.38 L 43.01 194.38 L 43.01 194.77 Q 42.49 194.77 42.2 194.89 Q 41.93 195 41.83 195.27 Q 41.74 195.54 41.74 196.05 L 41.74 201.69 Q 41.74 202.12 41.94 202.25 Q 42.15 202.38 42.72 202.38 L 43.32 202.38 Q 43.97 202.38 44.38 202.29 Q 44.78 202.18 45.01 201.95 Q 45.26 201.72 45.42 201.34 Q 45.58 200.95 45.78 200.39 L 46.2 200.39 Z M 48.15 201.22 L 48.15 196.1 Q 48.15 195.59 48.08 195.31 Q 48.01 195.01 47.74 194.89 Q 47.48 194.77 46.86 194.77 L 46.86 194.38 L 50.6 194.38 L 50.6 194.77 Q 49.99 194.77 49.72 194.89 Q 49.44 195.01 49.38 195.31 Q 49.33 195.59 49.33 196.1 L 49.33 201.22 Q 49.33 201.78 49.41 202.07 Q 49.48 202.34 49.76 202.44 Q 50.03 202.54 50.6 202.54 L 50.6 202.93 L 46.86 202.93 L 46.86 202.54 Q 47.44 202.54 47.72 202.44 Q 47.99 202.34 48.07 202.07 Q 48.15 201.78 48.15 201.22 Z M 60.35 194.38 L 60.35 194.77 Q 60 194.77 59.82 194.84 Q 59.65 194.89 59.51 195.03 Q 59.35 195.16 59.26 195.49 Q 59.17 195.81 59.17 196.52 L 59.17 203.03 L 58.74 203.03 L 53.36 196.07 L 53.29 196.07 L 53.29 200.99 Q 53.29 201.64 53.38 201.98 Q 53.47 202.3 53.73 202.42 Q 54 202.54 54.48 202.54 L 54.48 202.93 L 51.43 202.93 L 51.43 202.54 Q 51.95 202.54 52.21 202.43 Q 52.47 202.31 52.57 201.98 Q 52.66 201.64 52.66 200.99 L 52.66 195.44 Q 52.34 195.03 52.11 194.9 Q 51.88 194.77 51.43 194.77 L 51.43 194.38 L 53.64 194.38 L 58.45 200.66 L 58.52 200.66 L 58.52 196.45 Q 58.52 195.87 58.47 195.57 Q 58.41 195.27 58.27 195.1 Q 58.12 194.92 57.91 194.85 Q 57.7 194.77 57.28 194.77 L 57.28 194.38 L 60.35 194.38 Z M 68.48 200.51 L 68.11 202.93 L 61.17 202.93 L 61.17 202.54 Q 61.7 202.54 61.96 202.47 Q 62.24 202.39 62.33 202.15 Q 62.43 201.9 62.43 201.39 L 62.43 195.97 Q 62.43 195.48 62.33 195.22 Q 62.24 194.96 61.96 194.87 Q 61.7 194.77 61.17 194.77 L 61.17 194.38 L 68 194.38 L 68.07 196.52 L 67.66 196.52 Q 67.57 195.87 67.37 195.54 Q 67.19 195.2 66.76 195.09 Q 66.35 194.97 65.54 194.97 L 63.63 194.97 L 63.63 198.27 L 65.15 198.27 Q 65.75 198.27 66.06 198.17 Q 66.37 198.06 66.49 197.78 Q 66.6 197.49 66.6 196.97 L 67.02 196.97 L 67.02 199.99 L 66.6 199.99 Q 66.6 199.45 66.49 199.19 Q 66.37 198.93 66.06 198.86 Q 65.75 198.78 65.15 198.78 L 63.63 198.78 L 63.63 202.35 L 65.3 202.35 Q 66.06 202.35 66.51 202.29 Q 66.98 202.21 67.24 202.02 Q 67.52 201.82 67.68 201.46 Q 67.87 201.09 68.06 200.51 L 68.48 200.51 Z M 72.35 200.09 L 69.43 200.09 L 69.43 199.25 L 72.35 199.25 L 72.35 200.09 Z M 74.66 201.22 L 74.66 196.1 Q 74.66 195.59 74.6 195.31 Q 74.54 195.01 74.26 194.89 Q 74 194.77 73.38 194.77 L 73.38 194.38 L 77.12 194.38 L 77.12 194.77 Q 76.51 194.77 76.24 194.89 Q 75.96 195.01 75.9 195.31 Q 75.85 195.59 75.85 196.1 L 75.85 201.22 Q 75.85 201.78 75.93 202.07 Q 76 202.34 76.28 202.44 Q 76.55 202.54 77.12 202.54 L 77.12 202.93 L 73.38 202.93 L 73.38 202.54 Q 73.96 202.54 74.24 202.44 Q 74.51 202.34 74.59 202.07 Q 74.66 201.78 74.66 201.22 Z M 85.21 196.72 L 84.81 196.72 Q 84.66 196.01 84.51 195.63 Q 84.35 195.26 84 195.11 Q 83.65 194.97 82.92 194.97 L 82.1 194.97 L 82.1 201.22 Q 82.1 201.81 82.19 202.09 Q 82.28 202.37 82.56 202.46 Q 82.83 202.54 83.39 202.54 L 83.39 202.93 L 79.62 202.93 L 79.62 202.54 Q 80.16 202.54 80.44 202.46 Q 80.71 202.37 80.8 202.09 Q 80.89 201.81 80.89 201.22 L 80.89 194.97 L 80.06 194.97 Q 79.35 194.97 78.98 195.11 Q 78.63 195.26 78.47 195.63 Q 78.32 196.01 78.18 196.72 L 77.77 196.72 L 77.91 194.38 L 85.1 194.38 L 85.21 196.72 Z M 93.19 200.51 L 92.83 202.93 L 85.88 202.93 L 85.88 202.54 Q 86.42 202.54 86.68 202.47 Q 86.95 202.39 87.04 202.15 Q 87.15 201.9 87.15 201.39 L 87.15 195.97 Q 87.15 195.48 87.04 195.22 Q 86.95 194.96 86.68 194.87 Q 86.42 194.77 85.88 194.77 L 85.88 194.38 L 92.71 194.38 L 92.79 196.52 L 92.37 196.52 Q 92.28 195.87 92.09 195.54 Q 91.9 195.2 91.47 195.09 Q 91.06 194.97 90.25 194.97 L 88.34 194.97 L 88.34 198.27 L 89.86 198.27 Q 90.46 198.27 90.77 198.17 Q 91.08 198.06 91.2 197.78 Q 91.32 197.49 91.32 196.97 L 91.73 196.97 L 91.73 199.99 L 91.32 199.99 Q 91.32 199.45 91.2 199.19 Q 91.08 198.93 90.77 198.86 Q 90.46 198.78 89.86 198.78 L 88.34 198.78 L 88.34 202.35 L 90.02 202.35 Q 90.77 202.35 91.23 202.29 Q 91.7 202.21 91.96 202.02 Q 92.23 201.82 92.4 201.46 Q 92.58 201.09 92.77 200.51 L 93.19 200.51 Z M 104.6 202.93 L 101.15 202.93 L 101.15 202.54 Q 101.65 202.54 101.9 202.44 Q 102.15 202.35 102.23 202.11 Q 102.3 201.85 102.3 201.38 L 102.3 195.78 L 102.25 195.78 L 99.22 202.93 L 98.91 202.93 L 95.84 195.79 L 95.79 195.79 L 95.79 201.03 Q 95.79 201.69 95.88 202.02 Q 95.97 202.34 96.22 202.44 Q 96.48 202.54 96.97 202.54 L 96.97 202.93 L 93.92 202.93 L 93.92 202.54 Q 94.45 202.54 94.71 202.44 Q 94.97 202.34 95.06 202.02 Q 95.15 201.69 95.15 201.03 L 95.15 195.97 Q 95.15 195.48 95.06 195.23 Q 94.97 194.97 94.71 194.88 Q 94.46 194.77 93.94 194.77 L 93.94 194.38 L 96.6 194.38 L 99.34 200.92 L 99.39 200.92 L 102.12 194.38 L 104.59 194.38 L 104.59 194.77 Q 104.14 194.77 103.89 194.88 Q 103.64 194.97 103.55 195.23 Q 103.46 195.48 103.46 195.96 L 103.46 201.38 Q 103.46 201.85 103.55 202.11 Q 103.64 202.35 103.89 202.44 Q 104.14 202.54 104.6 202.54 L 104.6 202.93 Z" fill="#000000"/></svg>