<svg xmlns="http://www.w3.org/2000/svg" width="143.612" height="504" viewBox="0 0 143.612 504" role="img"><title>Flowchart</title><desc>Flowchart with 6 nodes and 7 edges. Nodes: Start, Link, Retry, Idle, Ship, Done. Start leads to Link; Link leads to Retry; Retry leads to Idle; Idle leads to Ship; Ship leads to Done; Start leads to Idle labeled &quot;maybe&quot;; Retry leads to Done labeled &quot;force&quot;.</desc><g data-sirentide-role="edge" data-sirentide-id="A-B" data-sirentide-seq="1"><line x1="71.806" y1="60" x2="51.806" y2="108" stroke="#94a3b8" stroke-width="1.5"/></g><g data-sirentide-role="edge" data-sirentide-id="B-C" data-sirentide-seq="3"><line x1="51.806" y1="144" x2="51.806" y2="148" stroke="#94a3b8" stroke-width="1.5"/><line x1="51.806" y1="151" x2="51.806" y2="155" stroke="#94a3b8" stroke-width="1.5"/><line x1="51.806" y1="158" x2="51.806" y2="162" stroke="#94a3b8" stroke-width="1.5"/><line x1="51.806" y1="165" x2="51.806" y2="169" stroke="#94a3b8" stroke-width="1.5"/><line x1="51.806" y1="172" x2="51.806" y2="176" stroke="#94a3b8" stroke-width="1.5"/><line x1="51.806" y1="179" x2="51.806" y2="182" stroke="#94a3b8" stroke-width="1.5"/><path d="M 51.806 192 L 48.306 182 L 55.306 182 Z" fill="#94a3b8"/></g><g data-sirentide-role="edge" data-sirentide-id="C-D" data-sirentide-seq="5"><line x1="51.806" y1="228" x2="54.367" y2="231.073" stroke="#94a3b8" stroke-width="1.5"/><line x1="56.287" y1="233.378" x2="58.848" y2="236.45" stroke="#94a3b8" stroke-width="1.5"/><line x1="60.769" y1="238.755" x2="63.329" y2="241.828" stroke="#94a3b8" stroke-width="1.5"/><line x1="65.25" y1="244.133" x2="67.811" y2="247.206" stroke="#94a3b8" stroke-width="1.5"/><line x1="69.731" y1="249.51" x2="72.292" y2="252.583" stroke="#94a3b8" stroke-width="1.5"/><line x1="74.212" y1="254.888" x2="76.773" y2="257.961" stroke="#94a3b8" stroke-width="1.5"/><line x1="78.694" y1="260.265" x2="81.254" y2="263.338" stroke="#94a3b8" stroke-width="1.5"/><line x1="83.175" y1="265.643" x2="85.736" y2="268.716" stroke="#94a3b8" stroke-width="1.5"/><line x1="87.656" y1="271.02" x2="90.217" y2="274.093" stroke="#94a3b8" stroke-width="1.5"/></g><g data-sirentide-role="edge" data-sirentide-id="D-E" data-sirentide-seq="7"><line x1="91.806" y1="312" x2="91.806" y2="350" stroke="#94a3b8" stroke-width="3"/><path d="M 91.806 360 L 88.306 350 L 95.306 350 Z" fill="#94a3b8"/></g><g data-sirentide-role="edge" data-sirentide-id="E-F" data-sirentide-seq="9"><line x1="91.806" y1="396" x2="71.806" y2="444" stroke="#94a3b8" stroke-width="3"/></g><g data-sirentide-role="edge" data-sirentide-id="A-D" data-sirentide-seq="12"><line x1="71.806" y1="60" x2="73.876" y2="63.422" stroke="#94a3b8" stroke-width="1.5"/><line x1="75.429" y1="65.989" x2="77.5" y2="69.412" stroke="#94a3b8" stroke-width="1.5"/><line x1="79.053" y1="71.979" x2="81.123" y2="75.401" stroke="#94a3b8" stroke-width="1.5"/><line x1="82.676" y1="77.968" x2="84.746" y2="81.39" stroke="#94a3b8" stroke-width="1.5"/><line x1="86.299" y1="83.957" x2="88.37" y2="87.38" stroke="#94a3b8" stroke-width="1.5"/><line x1="89.923" y1="89.946" x2="91.993" y2="93.369" stroke="#94a3b8" stroke-width="1.5"/><line x1="93.546" y1="95.936" x2="95.616" y2="99.358" stroke="#94a3b8" stroke-width="1.5"/><line x1="97.169" y1="101.925" x2="99.24" y2="105.347" stroke="#94a3b8" stroke-width="1.5"/><line x1="100.793" y1="107.914" x2="102.863" y2="111.337" stroke="#94a3b8" stroke-width="1.5"/><line x1="104.416" y1="113.904" x2="106.486" y2="117.326" stroke="#94a3b8" stroke-width="1.5"/><line x1="108.039" y1="119.893" x2="110.11" y2="123.315" stroke="#94a3b8" stroke-width="1.5"/><line x1="111.663" y1="125.882" x2="111.734" y2="126" stroke="#94a3b8" stroke-width="1.5"/><line x1="111.734" y1="126" x2="111.823" y2="129.999" stroke="#94a3b8" stroke-width="1.5"/><line x1="111.89" y1="132.998" x2="111.98" y2="136.997" stroke="#94a3b8" stroke-width="1.5"/><line x1="112.047" y1="139.997" x2="112.136" y2="143.996" stroke="#94a3b8" stroke-width="1.5"/><line x1="112.203" y1="146.995" x2="112.293" y2="150.994" stroke="#94a3b8" stroke-width="1.5"/><line x1="112.36" y1="153.993" x2="112.449" y2="157.992" stroke="#94a3b8" stroke-width="1.5"/><line x1="112.516" y1="160.991" x2="112.606" y2="164.99" stroke="#94a3b8" stroke-width="1.5"/><line x1="112.673" y1="167.99" x2="112.762" y2="171.989" stroke="#94a3b8" stroke-width="1.5"/><line x1="112.829" y1="174.988" x2="112.919" y2="178.987" stroke="#94a3b8" stroke-width="1.5"/><line x1="112.986" y1="181.986" x2="113.075" y2="185.985" stroke="#94a3b8" stroke-width="1.5"/><line x1="113.142" y1="188.984" x2="113.232" y2="192.983" stroke="#94a3b8" stroke-width="1.5"/><line x1="113.299" y1="195.983" x2="113.388" y2="199.982" stroke="#94a3b8" stroke-width="1.5"/><line x1="113.455" y1="202.981" x2="113.544" y2="206.98" stroke="#94a3b8" stroke-width="1.5"/><line x1="113.612" y1="209.979" x2="113.612" y2="210" stroke="#94a3b8" stroke-width="1.5"/><line x1="113.612" y1="210" x2="112.357" y2="213.798" stroke="#94a3b8" stroke-width="1.5"/><line x1="111.416" y1="216.647" x2="110.161" y2="220.445" stroke="#94a3b8" stroke-width="1.5"/><line x1="109.22" y1="223.293" x2="107.965" y2="227.091" stroke="#94a3b8" stroke-width="1.5"/><line x1="107.024" y1="229.94" x2="105.769" y2="233.738" stroke="#94a3b8" stroke-width="1.5"/><line x1="104.828" y1="236.586" x2="103.573" y2="240.385" stroke="#94a3b8" stroke-width="1.5"/><line x1="102.632" y1="243.233" x2="101.377" y2="247.031" stroke="#94a3b8" stroke-width="1.5"/><line x1="100.436" y1="249.88" x2="99.181" y2="253.678" stroke="#94a3b8" stroke-width="1.5"/><line x1="98.24" y1="256.526" x2="96.985" y2="260.324" stroke="#94a3b8" stroke-width="1.5"/><line x1="96.044" y1="263.173" x2="94.943" y2="266.505" stroke="#94a3b8" stroke-width="1.5"/><path d="M 91.806 276 L 91.62 265.407 L 98.266 267.603 Z" fill="#94a3b8"/><path d="M 98.62 92.93 L 98.62 95.53 Q 98.62 95.95 98.76 96.08 Q 98.91 96.21 99.37 96.21 L 99.37 96.5 L 97.09 96.5 L 97.09 96.21 Q 97.41 96.21 97.55 96.16 Q 97.7 96.1 97.74 95.95 Q 97.79 95.79 97.79 95.49 L 97.79 92.69 Q 97.79 92.42 97.68 92.33 Q 97.58 92.24 97.37 92.24 Q 97.26 92.24 97.18 92.25 Q 97.1 92.26 97.1 92.26 L 97.1 91.97 L 98.35 91.68 L 98.59 91.68 L 98.59 92.49 L 98.63 92.49 Q 99.04 92.14 99.42 91.9 Q 99.8 91.65 100.31 91.65 Q 100.74 91.65 101 91.89 Q 101.27 92.12 101.42 92.48 L 101.46 92.48 Q 101.87 92.07 102.26 91.86 Q 102.65 91.65 103.05 91.65 Q 103.64 91.65 103.99 92.02 Q 104.34 92.39 104.34 93.3 L 104.34 95.34 Q 104.34 95.65 104.37 95.85 Q 104.41 96.04 104.56 96.13 Q 104.72 96.21 105.06 96.21 L 105.06 96.5 L 102.8 96.5 L 102.8 96.21 Q 103.14 96.21 103.29 96.12 Q 103.44 96.03 103.47 95.84 Q 103.51 95.64 103.51 95.34 L 103.51 93.42 Q 103.51 92.96 103.39 92.72 Q 103.28 92.48 103.08 92.39 Q 102.89 92.29 102.65 92.29 Q 102.34 92.29 102.04 92.5 Q 101.75 92.7 101.5 92.91 L 101.5 95.34 Q 101.5 95.68 101.54 95.87 Q 101.59 96.06 101.75 96.14 Q 101.91 96.21 102.27 96.21 L 102.27 96.5 L 99.9 96.5 L 99.9 96.21 Q 100.26 96.21 100.42 96.14 Q 100.58 96.07 100.62 95.88 Q 100.67 95.69 100.67 95.34 L 100.67 93.36 Q 100.67 92.72 100.44 92.51 Q 100.22 92.29 99.87 92.29 Q 99.48 92.29 99.16 92.51 Q 98.84 92.73 98.62 92.93 Z M 108.37 95.88 L 108.33 95.88 Q 107.98 96.19 107.66 96.38 Q 107.34 96.57 106.86 96.57 Q 106.28 96.57 105.97 96.25 Q 105.67 95.93 105.67 95.45 Q 105.67 95.05 105.85 94.78 Q 106.04 94.5 106.34 94.31 Q 106.65 94.12 107 93.99 Q 107.36 93.86 107.7 93.77 Q 108.04 93.68 108.3 93.6 L 108.3 93.16 Q 108.3 92.51 108.07 92.24 Q 107.85 91.96 107.4 91.96 Q 106.97 91.96 106.85 92.14 Q 106.73 92.32 106.73 92.77 Q 106.73 93.23 106.29 93.23 Q 106.14 93.23 106 93.12 Q 105.87 93 105.87 92.75 Q 105.87 92.47 106.08 92.22 Q 106.3 91.97 106.69 91.81 Q 107.09 91.65 107.63 91.65 Q 108.45 91.65 108.79 92.03 Q 109.13 92.41 109.13 93.19 L 109.13 95.46 Q 109.13 95.77 109.2 95.86 Q 109.27 95.95 109.43 95.95 Q 109.57 95.95 109.68 95.88 Q 109.8 95.81 109.9 95.7 L 110.05 95.86 Q 109.8 96.22 109.57 96.39 Q 109.35 96.55 108.97 96.55 Q 108.64 96.55 108.53 96.38 Q 108.42 96.21 108.37 95.88 Z M 108.3 95.58 L 108.3 93.93 Q 107.85 94.04 107.45 94.19 Q 107.05 94.34 106.8 94.58 Q 106.55 94.82 106.55 95.21 Q 106.55 95.58 106.75 95.8 Q 106.95 96.02 107.27 96.02 Q 107.77 96.02 108.3 95.58 Z M 115.02 91.77 L 115.02 92.06 Q 114.72 92.06 114.58 92.2 Q 114.44 92.33 114.33 92.62 L 112.77 96.72 Q 112.48 97.48 112.2 97.95 Q 111.93 98.42 111.61 98.63 Q 111.29 98.85 110.86 98.85 Q 110.55 98.85 110.35 98.73 Q 110.15 98.61 110.15 98.33 Q 110.15 98.1 110.28 98 Q 110.42 97.9 110.61 97.9 Q 110.87 97.9 111.07 98.01 Q 111.28 98.12 111.38 98.12 Q 111.52 98.12 111.68 97.9 Q 111.84 97.69 111.99 97.39 Q 112.15 97.09 112.24 96.82 Q 112.34 96.56 112.34 96.45 Q 112.34 96.35 112.23 96.09 Q 112.13 95.83 112.04 95.63 L 110.57 92.42 Q 110.5 92.25 110.37 92.16 Q 110.24 92.06 109.97 92.06 L 109.97 91.77 L 112.11 91.77 L 112.11 92.07 Q 111.77 92.07 111.65 92.14 Q 111.54 92.2 111.54 92.33 Q 111.54 92.43 111.59 92.55 Q 111.64 92.66 111.68 92.77 L 112.66 94.97 L 112.79 95.46 L 112.86 95.46 L 113.83 92.56 Q 113.85 92.51 113.86 92.44 Q 113.88 92.36 113.88 92.31 Q 113.88 92.16 113.72 92.11 Q 113.57 92.06 113.32 92.06 L 113.32 91.77 L 115.02 91.77 Z M 116.55 89.44 L 116.55 92.5 L 116.58 92.5 Q 116.84 92.18 117.23 91.92 Q 117.62 91.65 118.12 91.65 Q 118.62 91.65 118.99 91.94 Q 119.37 92.22 119.58 92.72 Q 119.79 93.22 119.79 93.87 Q 119.79 94.76 119.48 95.37 Q 119.17 95.98 118.63 96.29 Q 118.09 96.6 117.39 96.6 Q 116.75 96.6 116.32 96.45 Q 115.9 96.3 115.72 96.2 L 115.72 90.58 Q 115.72 90.24 115.64 90.15 Q 115.57 90.05 115.28 90.05 Q 115.16 90.05 115.08 90.06 Q 115 90.07 115 90.07 L 115 89.79 L 116.29 89.44 L 116.55 89.44 Z M 116.55 92.94 L 116.55 95.72 Q 116.69 95.89 116.93 96.04 Q 117.17 96.19 117.57 96.19 Q 118.05 96.19 118.33 95.92 Q 118.62 95.65 118.75 95.2 Q 118.88 94.74 118.88 94.19 Q 118.88 93.71 118.78 93.29 Q 118.68 92.86 118.42 92.6 Q 118.16 92.33 117.68 92.33 Q 117.3 92.33 116.99 92.55 Q 116.69 92.76 116.55 92.94 Z M 124.29 95.07 L 124.48 95.21 Q 124.3 95.59 124.06 95.91 Q 123.82 96.22 123.47 96.41 Q 123.13 96.6 122.61 96.6 Q 122.01 96.6 121.52 96.32 Q 121.04 96.03 120.76 95.48 Q 120.48 94.92 120.48 94.12 Q 120.48 93.28 120.76 92.74 Q 121.05 92.19 121.53 91.92 Q 122.01 91.65 122.59 91.65 Q 123.41 91.65 123.91 92.22 Q 124.41 92.79 124.45 93.84 L 121.29 93.84 Q 121.29 94.53 121.51 94.98 Q 121.74 95.42 122.09 95.64 Q 122.45 95.85 122.85 95.85 Q 123.26 95.85 123.51 95.74 Q 123.77 95.63 123.95 95.46 Q 124.13 95.28 124.29 95.07 Z M 121.28 93.47 L 123.51 93.47 Q 123.5 93.1 123.38 92.78 Q 123.26 92.45 123.03 92.25 Q 122.8 92.05 122.44 92.05 Q 121.4 92.05 121.28 93.47 Z" fill="currentColor"/></g><g data-sirentide-role="edge" data-sirentide-id="C-F" data-sirentide-seq="11"><line x1="51.806" y1="228" x2="33.948" y2="294" stroke="#94a3b8" stroke-width="3"/><line x1="33.948" y1="294" x2="32.388" y2="378" stroke="#94a3b8" stroke-width="3"/><line x1="32.388" y1="378" x2="66.678" y2="435.415" stroke="#94a3b8" stroke-width="3"/><path d="M 71.806 444 L 63.674 437.209 L 69.683 433.62 Z" fill="#94a3b8"/><path d="M 17.03 259.82 L 17.79 259.82 Q 17.79 259.21 17.85 258.83 Q 17.92 258.44 18.11 258.1 Q 18.31 257.75 18.61 257.56 Q 18.92 257.37 19.44 257.37 Q 19.93 257.37 20.24 257.55 Q 20.56 257.73 20.56 258.07 Q 20.56 258.29 20.44 258.4 Q 20.32 258.5 20.15 258.5 Q 19.96 258.5 19.84 258.39 Q 19.72 258.27 19.62 258.12 Q 19.53 257.97 19.41 257.86 Q 19.29 257.74 19.1 257.74 Q 18.82 257.74 18.72 258 Q 18.62 258.25 18.62 258.88 L 18.62 259.82 L 19.84 259.82 L 19.84 260.24 L 18.62 260.24 L 18.62 263.31 Q 18.62 263.7 18.7 263.89 Q 18.78 264.08 19 264.15 Q 19.22 264.21 19.64 264.21 L 19.64 264.5 L 16.95 264.5 L 16.95 264.21 Q 17.32 264.21 17.49 264.15 Q 17.67 264.08 17.73 263.89 Q 17.79 263.7 17.79 263.31 L 17.79 260.24 L 17.03 260.24 L 17.03 259.82 Z M 22.42 259.65 Q 23.45 259.65 24.04 260.29 Q 24.64 260.93 24.64 262.04 Q 24.64 262.88 24.35 263.45 Q 24.07 264.02 23.57 264.31 Q 23.07 264.6 22.42 264.6 Q 21.37 264.6 20.77 263.95 Q 20.18 263.29 20.18 262.08 Q 20.18 261.35 20.46 260.81 Q 20.74 260.26 21.24 259.96 Q 21.75 259.65 22.42 259.65 Z M 22.38 260.03 Q 21.81 260.03 21.46 260.51 Q 21.11 260.99 21.11 261.95 Q 21.11 263.14 21.46 263.68 Q 21.82 264.21 22.46 264.2 Q 22.87 264.2 23.15 264.01 Q 23.43 263.82 23.57 263.36 Q 23.72 262.9 23.72 262.09 Q 23.72 261.17 23.38 260.6 Q 23.05 260.03 22.38 260.03 Z M 26.81 259.68 L 26.81 260.71 L 26.84 260.71 Q 27.22 260.15 27.49 259.89 Q 27.77 259.62 28.13 259.62 Q 28.42 259.62 28.56 259.77 Q 28.71 259.92 28.71 260.18 Q 28.71 260.46 28.57 260.59 Q 28.44 260.72 28.27 260.72 Q 28.11 260.72 27.98 260.64 Q 27.86 260.55 27.77 260.47 Q 27.68 260.38 27.62 260.38 Q 27.45 260.38 27.23 260.64 Q 27.01 260.9 26.83 261.2 L 26.83 263.48 Q 26.83 263.79 26.91 263.95 Q 26.99 264.11 27.19 264.16 Q 27.4 264.21 27.77 264.21 L 27.77 264.5 L 25.27 264.5 L 25.27 264.21 Q 25.6 264.21 25.75 264.16 Q 25.91 264.1 25.95 263.96 Q 26 263.81 26 263.53 L 26 260.78 Q 26 260.51 25.95 260.38 Q 25.91 260.24 25.64 260.24 Q 25.49 260.24 25.41 260.25 Q 25.33 260.26 25.33 260.26 L 25.33 259.98 L 26.57 259.68 L 26.81 259.68 Z M 32.86 263.02 L 33.05 263.16 Q 32.86 263.56 32.61 263.89 Q 32.37 264.22 32.01 264.41 Q 31.65 264.6 31.11 264.6 Q 30.49 264.6 30.04 264.3 Q 29.59 264 29.35 263.47 Q 29.11 262.93 29.11 262.24 Q 29.11 261.06 29.7 260.36 Q 30.29 259.65 31.37 259.65 Q 32.08 259.65 32.48 259.96 Q 32.89 260.27 32.89 260.71 Q 32.89 261.16 32.47 261.16 Q 32.25 261.16 32.13 261.05 Q 32.02 260.93 31.95 260.76 Q 31.88 260.59 31.8 260.42 Q 31.73 260.25 31.59 260.14 Q 31.46 260.02 31.2 260.02 Q 30.59 260.02 30.24 260.47 Q 29.9 260.91 29.9 261.77 Q 29.9 262.68 30.27 263.27 Q 30.65 263.85 31.42 263.85 Q 31.91 263.85 32.21 263.65 Q 32.52 263.45 32.86 263.02 Z M 37.39 263.07 L 37.58 263.21 Q 37.4 263.59 37.16 263.91 Q 36.92 264.22 36.57 264.41 Q 36.23 264.6 35.71 264.6 Q 35.11 264.6 34.62 264.32 Q 34.14 264.03 33.86 263.48 Q 33.58 262.92 33.58 262.12 Q 33.58 261.28 33.86 260.74 Q 34.15 260.19 34.63 259.92 Q 35.11 259.65 35.69 259.65 Q 36.51 259.65 37.01 260.22 Q 37.51 260.79 37.55 261.84 L 34.39 261.84 Q 34.39 262.53 34.61 262.98 Q 34.84 263.42 35.19 263.64 Q 35.55 263.85 35.95 263.85 Q 36.36 263.85 36.61 263.74 Q 36.87 263.63 37.05 263.46 Q 37.23 263.28 37.39 263.07 Z M 34.38 261.47 L 36.61 261.47 Q 36.6 261.1 36.48 260.78 Q 36.36 260.45 36.13 260.25 Q 35.9 260.05 35.54 260.05 Q 34.5 260.05 34.38 261.47 Z" fill="currentColor"/></g><g data-sirentide-role="node" data-sirentide-id="Start" data-sirentide-seq="0"><rect x="45.842" y="24" width="51.928" height="36" fill="#dbe4ff"/><path d="M 65.12 40.6 L 64.76 40.6 Q 64.51 39.6 64.09 39.12 Q 63.67 38.64 62.76 38.65 Q 62.15 38.65 61.81 38.94 Q 61.47 39.22 61.47 39.78 Q 61.47 40.22 61.73 40.55 Q 61.98 40.86 62.39 41.11 Q 62.79 41.36 63.24 41.63 Q 63.63 41.86 64.03 42.08 Q 64.44 42.31 64.76 42.6 Q 65.1 42.89 65.29 43.27 Q 65.49 43.66 65.49 44.2 Q 65.49 44.89 65.17 45.37 Q 64.86 45.85 64.31 46.1 Q 63.75 46.34 63.06 46.34 Q 62.43 46.34 62.04 46.25 Q 61.65 46.16 61.43 46.08 Q 61.21 45.98 61.07 45.98 Q 60.95 45.98 60.85 46.09 Q 60.75 46.2 60.74 46.38 L 60.37 46.38 L 60.26 43.79 L 60.63 43.79 Q 60.85 44.62 61.14 45.06 Q 61.43 45.49 61.85 45.66 Q 62.28 45.82 62.89 45.82 Q 63.56 45.82 63.96 45.53 Q 64.35 45.23 64.35 44.54 Q 64.35 44.02 64.05 43.67 Q 63.77 43.32 63.31 43.06 Q 62.85 42.78 62.36 42.5 Q 61.88 42.23 61.44 41.92 Q 60.99 41.6 60.71 41.17 Q 60.43 40.74 60.43 40.12 Q 60.43 39.48 60.74 39.06 Q 61.05 38.63 61.57 38.4 Q 62.09 38.17 62.71 38.17 Q 63.26 38.17 63.56 38.27 Q 63.86 38.35 64.03 38.45 Q 64.21 38.54 64.35 38.54 Q 64.64 38.54 64.73 38.2 L 65.04 38.2 L 65.12 40.6 Z M 69.41 45.12 L 69.63 45.31 Q 69.41 45.64 69.2 45.86 Q 69.01 46.08 68.77 46.2 Q 68.53 46.32 68.15 46.32 Q 67.55 46.32 67.27 45.97 Q 66.99 45.61 66.99 44.81 L 66.99 41.09 L 66.33 41.09 L 66.33 40.81 Q 66.75 40.55 67.05 40.1 Q 67.37 39.65 67.69 38.88 L 68 38.88 L 67.99 40.58 L 69.35 40.58 L 69.35 41.09 L 67.99 41.09 L 67.99 44.47 Q 67.99 45.11 68.1 45.36 Q 68.22 45.61 68.57 45.61 Q 68.85 45.61 69.01 45.49 Q 69.18 45.37 69.41 45.12 Z M 73.37 45.46 L 73.32 45.46 Q 72.9 45.83 72.51 46.06 Q 72.13 46.28 71.55 46.28 Q 70.86 46.28 70.49 45.9 Q 70.13 45.52 70.13 44.94 Q 70.13 44.46 70.34 44.14 Q 70.57 43.8 70.93 43.57 Q 71.3 43.34 71.72 43.19 Q 72.15 43.03 72.56 42.92 Q 72.97 42.82 73.28 42.72 L 73.28 42.19 Q 73.28 41.41 73.01 41.09 Q 72.74 40.75 72.2 40.75 Q 71.69 40.75 71.54 40.97 Q 71.4 41.18 71.4 41.72 Q 71.4 42.28 70.87 42.28 Q 70.69 42.28 70.52 42.14 Q 70.37 42 70.37 41.7 Q 70.37 41.36 70.62 41.06 Q 70.88 40.76 71.35 40.57 Q 71.83 40.38 72.48 40.38 Q 73.46 40.38 73.87 40.84 Q 74.28 41.29 74.28 42.23 L 74.28 44.95 Q 74.28 45.32 74.36 45.43 Q 74.45 45.54 74.64 45.54 Q 74.81 45.54 74.94 45.46 Q 75.08 45.37 75.2 45.24 L 75.38 45.43 Q 75.08 45.86 74.81 46.07 Q 74.54 46.26 74.09 46.26 Q 73.69 46.26 73.56 46.06 Q 73.43 45.85 73.37 45.46 Z M 73.28 45.1 L 73.28 43.12 Q 72.74 43.25 72.26 43.43 Q 71.78 43.61 71.48 43.9 Q 71.18 44.18 71.18 44.65 Q 71.18 45.1 71.42 45.36 Q 71.66 45.62 72.05 45.62 Q 72.65 45.62 73.28 45.1 Z M 77.63 40.42 L 77.63 41.65 L 77.66 41.65 Q 78.12 40.98 78.44 40.67 Q 78.78 40.34 79.21 40.34 Q 79.56 40.34 79.73 40.52 Q 79.91 40.7 79.91 41.02 Q 79.91 41.35 79.74 41.51 Q 79.58 41.66 79.38 41.66 Q 79.19 41.66 79.03 41.57 Q 78.89 41.46 78.78 41.36 Q 78.67 41.26 78.6 41.26 Q 78.39 41.26 78.13 41.57 Q 77.87 41.88 77.65 42.24 L 77.65 44.98 Q 77.65 45.35 77.75 45.54 Q 77.84 45.73 78.08 45.79 Q 78.33 45.85 78.78 45.85 L 78.78 46.2 L 75.78 46.2 L 75.78 45.85 Q 76.17 45.85 76.35 45.79 Q 76.55 45.72 76.59 45.55 Q 76.65 45.37 76.65 45.04 L 76.65 41.74 Q 76.65 41.41 76.59 41.26 Q 76.55 41.09 76.22 41.09 Q 76.04 41.09 75.95 41.1 Q 75.85 41.11 75.85 41.11 L 75.85 40.78 L 77.34 40.42 L 77.63 40.42 Z M 83.51 45.12 L 83.73 45.31 Q 83.51 45.64 83.3 45.86 Q 83.11 46.08 82.87 46.2 Q 82.63 46.32 82.25 46.32 Q 81.65 46.32 81.37 45.97 Q 81.09 45.61 81.09 44.81 L 81.09 41.09 L 80.43 41.09 L 80.43 40.81 Q 80.85 40.55 81.15 40.1 Q 81.47 39.65 81.79 38.88 L 82.1 38.88 L 82.09 40.58 L 83.45 40.58 L 83.45 41.09 L 82.09 41.09 L 82.09 44.47 Q 82.09 45.11 82.2 45.36 Q 82.32 45.61 82.67 45.61 Q 82.95 45.61 83.11 45.49 Q 83.28 45.37 83.51 45.12 Z" fill="#000000"/></g><g data-sirentide-role="node" data-sirentide-id="Link" data-sirentide-seq="2"><rect x="25.878" y="108" width="51.856" height="36" fill="#dbe4ff"/><path d="M 46.69 127.86 L 46.33 130.2 L 40.38 130.2 L 40.38 129.84 Q 40.86 129.84 41.09 129.76 Q 41.33 129.67 41.4 129.43 Q 41.47 129.19 41.47 128.72 L 41.47 123.84 Q 41.47 123.37 41.4 123.12 Q 41.33 122.87 41.09 122.77 Q 40.86 122.68 40.38 122.68 L 40.38 122.32 L 43.75 122.32 L 43.75 122.68 Q 43.27 122.68 43.01 122.78 Q 42.76 122.88 42.66 123.13 Q 42.58 123.38 42.58 123.85 L 42.58 129.06 Q 42.58 129.46 42.77 129.58 Q 42.96 129.7 43.49 129.7 L 44.04 129.7 Q 44.64 129.7 45.01 129.61 Q 45.39 129.52 45.6 129.3 Q 45.83 129.08 45.97 128.74 Q 46.13 128.38 46.31 127.86 L 46.69 127.86 Z M 49.98 129.86 L 49.98 130.2 L 47.28 130.2 L 47.28 129.86 Q 47.69 129.86 47.86 129.79 Q 48.04 129.71 48.07 129.52 Q 48.12 129.32 48.12 128.99 L 48.12 125.64 Q 48.12 125.26 47.99 125.17 Q 47.86 125.08 47.59 125.08 Q 47.47 125.08 47.38 125.09 Q 47.29 125.1 47.29 125.1 L 47.29 124.75 L 48.81 124.42 L 49.12 124.42 L 49.12 128.99 Q 49.12 129.34 49.17 129.53 Q 49.21 129.72 49.39 129.79 Q 49.59 129.86 49.98 129.86 Z M 48.64 122.12 Q 48.95 122.12 49.13 122.33 Q 49.32 122.52 49.32 122.8 Q 49.32 123.07 49.13 123.28 Q 48.95 123.48 48.64 123.48 Q 48.34 123.48 48.15 123.28 Q 47.95 123.07 47.95 122.8 Q 47.95 122.52 48.13 122.33 Q 48.33 122.12 48.64 122.12 Z M 56.09 126.52 L 56.09 128.99 Q 56.09 129.32 56.14 129.52 Q 56.2 129.71 56.39 129.79 Q 56.58 129.86 56.98 129.86 L 56.98 130.2 L 54.21 130.2 L 54.21 129.86 Q 54.64 129.86 54.82 129.79 Q 55.01 129.71 55.05 129.52 Q 55.09 129.32 55.09 128.99 L 55.09 126.82 Q 55.09 126.1 54.93 125.74 Q 54.77 125.38 54.52 125.27 Q 54.27 125.15 53.99 125.15 Q 53.51 125.15 53.16 125.41 Q 52.81 125.66 52.54 125.9 L 52.54 128.99 Q 52.54 129.32 52.59 129.52 Q 52.63 129.71 52.83 129.79 Q 53.02 129.86 53.45 129.86 L 53.45 130.2 L 50.7 130.2 L 50.7 129.86 Q 51.11 129.86 51.28 129.79 Q 51.46 129.71 51.49 129.52 Q 51.54 129.32 51.54 128.99 L 51.54 125.62 Q 51.54 125.29 51.41 125.2 Q 51.28 125.09 51.04 125.09 Q 50.88 125.09 50.8 125.1 Q 50.71 125.11 50.71 125.11 L 50.71 124.76 L 52.24 124.42 L 52.51 124.42 L 52.5 125.39 L 52.55 125.39 Q 53.04 124.96 53.47 124.67 Q 53.92 124.38 54.48 124.38 Q 55.3 124.38 55.69 124.93 Q 56.09 125.48 56.09 126.52 Z M 63.7 130.2 L 61.05 130.2 L 61.05 129.85 Q 61.31 129.85 61.41 129.83 Q 61.51 129.79 61.51 129.71 Q 61.51 129.62 61.47 129.55 Q 61.43 129.47 61.38 129.42 L 59.5 127.28 L 59.43 127.28 L 59.43 129.11 Q 59.43 129.56 59.58 129.71 Q 59.75 129.85 60.31 129.85 L 60.31 130.2 L 57.59 130.2 L 57.59 129.85 Q 58.13 129.85 58.27 129.71 Q 58.43 129.55 58.43 129.06 L 58.43 123.06 Q 58.43 122.68 58.33 122.57 Q 58.25 122.45 57.95 122.45 Q 57.83 122.45 57.69 122.46 Q 57.54 122.47 57.54 122.47 L 57.54 122.15 L 59.1 121.73 L 59.43 121.73 L 59.43 127.02 L 59.5 127.02 L 61.05 125.48 Q 61.08 125.45 61.17 125.35 Q 61.26 125.24 61.26 125.1 Q 61.26 124.98 61.14 124.93 Q 61.02 124.88 60.67 124.88 L 60.67 124.52 L 63.27 124.52 L 63.27 124.88 Q 62.98 124.88 62.75 124.94 Q 62.53 124.99 62.31 125.15 Q 62.08 125.29 61.74 125.57 Q 61.42 125.84 60.91 126.29 L 60.31 126.78 L 62.43 129.16 Q 62.71 129.48 62.89 129.64 Q 63.09 129.78 63.27 129.82 Q 63.45 129.85 63.7 129.85 L 63.7 130.2 Z" fill="#000000"/></g><g data-sirentide-role="node" data-sirentide-id="Retry" data-sirentide-seq="4"><rect x="24" y="192" width="55.612" height="36" fill="#dbe4ff"/><path d="M 44.56 208.28 Q 44.56 208.96 44.25 209.38 Q 43.95 209.8 43.48 210.04 Q 43.03 210.26 42.54 210.38 L 42.54 210.43 Q 42.74 210.55 42.99 210.85 Q 43.26 211.14 43.66 211.72 Q 44.07 212.28 44.73 213.23 Q 45.02 213.62 45.28 213.73 Q 45.56 213.84 45.97 213.84 L 45.97 214.2 L 43.99 214.2 Q 43.5 213.46 43.16 212.96 Q 42.84 212.46 42.61 212.12 Q 42.38 211.78 42.2 211.51 Q 42.02 211.25 41.84 210.98 Q 41.66 210.71 41.5 210.65 Q 41.36 210.59 41.04 210.59 L 40.7 210.59 L 40.7 212.71 Q 40.7 213.2 40.78 213.46 Q 40.87 213.7 41.12 213.77 Q 41.37 213.84 41.89 213.84 L 41.89 214.2 L 38.52 214.2 L 38.52 213.84 Q 38.97 213.84 39.2 213.77 Q 39.43 213.7 39.5 213.46 Q 39.58 213.22 39.58 212.71 L 39.58 207.56 Q 39.58 207.23 39.51 207.04 Q 39.45 206.84 39.22 206.76 Q 39 206.68 38.52 206.68 L 38.52 206.32 L 41.47 206.32 Q 42.37 206.32 43.06 206.5 Q 43.77 206.66 44.17 207.1 Q 44.56 207.52 44.56 208.28 Z M 40.7 206.82 L 40.7 210.12 L 41.16 210.13 Q 42.15 210.08 42.75 209.69 Q 43.35 209.28 43.35 208.33 Q 43.35 207.61 42.91 207.2 Q 42.46 206.78 41.49 206.78 Q 41.08 206.78 40.7 206.82 Z M 50.89 212.48 L 51.12 212.65 Q 50.9 213.11 50.61 213.49 Q 50.32 213.86 49.9 214.09 Q 49.5 214.32 48.87 214.32 Q 48.15 214.32 47.56 213.98 Q 46.99 213.64 46.65 212.98 Q 46.32 212.3 46.32 211.34 Q 46.32 210.34 46.65 209.69 Q 47 209.03 47.58 208.7 Q 48.15 208.38 48.85 208.38 Q 49.83 208.38 50.43 209.06 Q 51.03 209.75 51.08 211.01 L 47.29 211.01 Q 47.29 211.84 47.55 212.38 Q 47.83 212.9 48.25 213.17 Q 48.68 213.42 49.16 213.42 Q 49.65 213.42 49.95 213.29 Q 50.26 213.16 50.48 212.95 Q 50.7 212.74 50.89 212.48 Z M 47.28 210.56 L 49.95 210.56 Q 49.94 210.12 49.8 209.74 Q 49.65 209.34 49.38 209.1 Q 49.1 208.86 48.67 208.86 Q 47.42 208.86 47.28 210.56 Z M 54.99 213.12 L 55.22 213.31 Q 54.99 213.64 54.79 213.86 Q 54.6 214.08 54.36 214.2 Q 54.12 214.32 53.73 214.32 Q 53.13 214.32 52.86 213.97 Q 52.58 213.61 52.58 212.81 L 52.58 209.09 L 51.92 209.09 L 51.92 208.81 Q 52.34 208.55 52.64 208.1 Q 52.95 207.65 53.28 206.88 L 53.59 206.88 L 53.58 208.58 L 54.93 208.58 L 54.93 209.09 L 53.58 209.09 L 53.58 212.47 Q 53.58 213.11 53.68 213.36 Q 53.8 213.61 54.15 213.61 Q 54.44 213.61 54.6 213.49 Q 54.76 213.37 54.99 213.12 Z M 57.45 208.42 L 57.45 209.65 L 57.49 209.65 Q 57.94 208.98 58.27 208.67 Q 58.6 208.34 59.04 208.34 Q 59.38 208.34 59.55 208.52 Q 59.73 208.7 59.73 209.02 Q 59.73 209.35 59.56 209.51 Q 59.41 209.66 59.2 209.66 Q 59.01 209.66 58.86 209.57 Q 58.71 209.46 58.6 209.36 Q 58.5 209.26 58.42 209.26 Q 58.22 209.26 57.96 209.57 Q 57.69 209.88 57.48 210.24 L 57.48 212.98 Q 57.48 213.35 57.57 213.54 Q 57.67 213.73 57.91 213.79 Q 58.16 213.85 58.6 213.85 L 58.6 214.2 L 55.6 214.2 L 55.6 213.85 Q 56 213.85 56.18 213.79 Q 56.37 213.72 56.42 213.55 Q 56.48 213.37 56.48 213.04 L 56.48 209.74 Q 56.48 209.41 56.42 209.26 Q 56.37 209.09 56.05 209.09 Q 55.87 209.09 55.77 209.1 Q 55.68 209.11 55.68 209.11 L 55.68 208.78 L 57.16 208.42 L 57.45 208.42 Z M 65.73 208.52 L 65.73 208.87 Q 65.37 208.87 65.2 209.04 Q 65.04 209.2 64.9 209.54 L 63.03 214.46 Q 62.68 215.38 62.35 215.94 Q 62.02 216.5 61.64 216.76 Q 61.26 217.02 60.74 217.02 Q 60.37 217.02 60.13 216.88 Q 59.89 216.73 59.89 216.4 Q 59.89 216.12 60.04 216 Q 60.21 215.88 60.44 215.88 Q 60.75 215.88 60.99 216.01 Q 61.24 216.14 61.36 216.14 Q 61.53 216.14 61.72 215.88 Q 61.92 215.63 62.1 215.27 Q 62.29 214.91 62.4 214.58 Q 62.52 214.27 62.52 214.14 Q 62.52 214.02 62.38 213.71 Q 62.26 213.4 62.16 213.16 L 60.39 209.3 Q 60.31 209.1 60.15 208.99 Q 60 208.87 59.67 208.87 L 59.67 208.52 L 62.24 208.52 L 62.24 208.88 Q 61.83 208.88 61.69 208.97 Q 61.56 209.04 61.56 209.2 Q 61.56 209.32 61.62 209.46 Q 61.68 209.59 61.72 209.72 L 62.9 212.36 L 63.06 212.95 L 63.14 212.95 L 64.3 209.47 Q 64.33 209.41 64.34 209.33 Q 64.36 209.23 64.36 209.17 Q 64.36 208.99 64.17 208.93 Q 63.99 208.87 63.69 208.87 L 63.69 208.52 L 65.73 208.52 Z" fill="#000000"/></g><g data-sirentide-role="node" data-sirentide-id="Idle" data-sirentide-seq="6"><rect x="67.948" y="276" width="47.716" height="36" fill="#dbe4ff"/><path d="M 83.54 296.63 L 83.54 291.9 Q 83.54 291.43 83.48 291.17 Q 83.42 290.89 83.17 290.78 Q 82.93 290.68 82.36 290.68 L 82.36 290.32 L 85.81 290.32 L 85.81 290.68 Q 85.25 290.68 85 290.78 Q 84.74 290.89 84.68 291.17 Q 84.64 291.43 84.64 291.9 L 84.64 296.63 Q 84.64 297.14 84.71 297.41 Q 84.78 297.66 85.03 297.76 Q 85.28 297.84 85.81 297.84 L 85.81 298.2 L 82.36 298.2 L 82.36 297.84 Q 82.9 297.84 83.15 297.76 Q 83.4 297.66 83.47 297.41 Q 83.54 297.14 83.54 296.63 Z M 92.4 297.98 L 90.86 298.26 L 90.59 298.26 L 90.59 297.43 L 90.54 297.43 Q 90.2 297.73 89.74 298.02 Q 89.28 298.3 88.68 298.3 Q 88.01 298.3 87.54 297.94 Q 87.08 297.58 86.86 296.96 Q 86.63 296.34 86.63 295.57 Q 86.63 294.58 87 293.87 Q 87.37 293.15 88 292.76 Q 88.63 292.38 89.39 292.38 Q 89.69 292.38 89.98 292.45 Q 90.28 292.51 90.55 292.67 L 90.55 291.1 Q 90.55 290.7 90.46 290.58 Q 90.37 290.46 90.02 290.46 Q 89.94 290.46 89.82 290.47 Q 89.71 290.48 89.71 290.48 L 89.71 290.15 L 91.22 289.73 L 91.55 289.73 L 91.55 296.92 Q 91.55 297.38 91.68 297.53 Q 91.81 297.66 92.15 297.66 L 92.4 297.66 L 92.4 297.98 Z M 90.55 296.99 L 90.55 293.82 Q 90.48 293.45 90.2 293.16 Q 89.93 292.86 89.36 292.86 Q 88.61 292.86 88.14 293.41 Q 87.67 293.96 87.67 295.1 Q 87.67 296.34 88.07 296.89 Q 88.48 297.43 89.24 297.43 Q 89.66 297.43 89.95 297.32 Q 90.24 297.2 90.55 296.99 Z M 95.82 297.85 L 95.82 298.2 L 93.06 298.2 L 93.06 297.85 Q 93.46 297.85 93.64 297.78 Q 93.82 297.7 93.85 297.52 Q 93.9 297.32 93.9 296.99 L 93.9 290.96 Q 93.9 290.59 93.76 290.52 Q 93.62 290.45 93.4 290.45 Q 93.24 290.45 93.12 290.46 Q 93.01 290.47 93.01 290.47 L 93.01 290.15 L 94.6 289.73 L 94.9 289.73 L 94.9 296.99 Q 94.9 297.34 94.94 297.53 Q 95 297.71 95.2 297.78 Q 95.39 297.85 95.82 297.85 Z M 101.08 296.48 L 101.3 296.65 Q 101.09 297.11 100.8 297.49 Q 100.51 297.86 100.09 298.09 Q 99.68 298.32 99.06 298.32 Q 98.34 298.32 97.75 297.98 Q 97.18 297.64 96.84 296.98 Q 96.5 296.3 96.5 295.34 Q 96.5 294.34 96.84 293.69 Q 97.19 293.03 97.76 292.7 Q 98.34 292.38 99.04 292.38 Q 100.02 292.38 100.62 293.06 Q 101.22 293.75 101.27 295.01 L 97.48 295.01 Q 97.48 295.84 97.74 296.38 Q 98.02 296.9 98.44 297.17 Q 98.87 297.42 99.35 297.42 Q 99.84 297.42 100.14 297.29 Q 100.45 297.16 100.67 296.95 Q 100.88 296.74 101.08 296.48 Z M 97.46 294.56 L 100.14 294.56 Q 100.13 294.12 99.98 293.74 Q 99.84 293.34 99.56 293.1 Q 99.29 292.86 98.86 292.86 Q 97.61 292.86 97.46 294.56 Z" fill="#000000"/></g><g data-sirentide-role="node" data-sirentide-id="Ship" data-sirentide-seq="8"><rect x="66.388" y="360" width="50.836" height="36" fill="#dbe4ff"/><path d="M 85.67 376.6 L 85.31 376.6 Q 85.06 375.6 84.64 375.12 Q 84.22 374.64 83.3 374.65 Q 82.69 374.65 82.36 374.94 Q 82.02 375.22 82.02 375.78 Q 82.02 376.22 82.27 376.55 Q 82.52 376.86 82.93 377.11 Q 83.34 377.36 83.78 377.63 Q 84.18 377.86 84.58 378.08 Q 84.98 378.31 85.31 378.6 Q 85.64 378.89 85.84 379.27 Q 86.04 379.66 86.04 380.2 Q 86.04 380.89 85.72 381.37 Q 85.4 381.85 84.85 382.1 Q 84.3 382.34 83.6 382.34 Q 82.98 382.34 82.58 382.25 Q 82.2 382.16 81.97 382.08 Q 81.76 381.98 81.61 381.98 Q 81.49 381.98 81.4 382.09 Q 81.3 382.2 81.29 382.38 L 80.92 382.38 L 80.81 379.79 L 81.18 379.79 Q 81.4 380.62 81.68 381.06 Q 81.97 381.49 82.39 381.66 Q 82.82 381.82 83.44 381.82 Q 84.11 381.82 84.5 381.53 Q 84.9 381.23 84.9 380.54 Q 84.9 380.02 84.6 379.67 Q 84.31 379.32 83.86 379.06 Q 83.4 378.78 82.91 378.5 Q 82.43 378.23 81.98 377.92 Q 81.54 377.6 81.25 377.17 Q 80.98 376.74 80.98 376.12 Q 80.98 375.48 81.29 375.06 Q 81.6 374.63 82.12 374.4 Q 82.63 374.17 83.26 374.17 Q 83.81 374.17 84.11 374.27 Q 84.41 374.35 84.58 374.45 Q 84.76 374.54 84.9 374.54 Q 85.19 374.54 85.27 374.2 L 85.58 374.2 L 85.67 376.6 Z M 88.63 377.89 L 88.63 381.04 Q 88.63 381.35 88.68 381.53 Q 88.73 381.71 88.92 381.78 Q 89.11 381.85 89.52 381.85 L 89.52 382.2 L 86.8 382.2 L 86.8 381.85 Q 87.26 381.85 87.44 381.72 Q 87.64 381.59 87.64 381.08 L 87.64 374.94 Q 87.64 374.63 87.46 374.54 Q 87.29 374.46 87.05 374.46 Q 86.9 374.46 86.8 374.47 Q 86.7 374.48 86.7 374.48 L 86.7 374.15 L 88.31 373.73 L 88.63 373.73 L 88.63 377.36 L 88.67 377.36 Q 89.23 376.84 89.68 376.61 Q 90.13 376.38 90.61 376.38 Q 91.13 376.38 91.44 376.58 Q 91.76 376.79 91.93 377.12 Q 92.1 377.45 92.16 377.84 Q 92.22 378.23 92.22 378.6 L 92.22 380.99 Q 92.22 381.47 92.38 381.66 Q 92.54 381.85 93.11 381.85 L 93.11 382.2 L 90.35 382.2 L 90.35 381.85 Q 90.77 381.85 90.95 381.77 Q 91.13 381.68 91.18 381.5 Q 91.22 381.32 91.22 381.04 L 91.22 378.96 Q 91.22 378.47 91.15 378.06 Q 91.08 377.64 90.84 377.4 Q 90.61 377.15 90.12 377.15 Q 89.77 377.15 89.42 377.32 Q 89.08 377.48 88.63 377.89 Z M 96.44 381.86 L 96.44 382.2 L 93.74 382.2 L 93.74 381.86 Q 94.15 381.86 94.32 381.79 Q 94.5 381.71 94.54 381.52 Q 94.58 381.32 94.58 380.99 L 94.58 377.64 Q 94.58 377.26 94.45 377.17 Q 94.32 377.08 94.06 377.08 Q 93.94 377.08 93.84 377.09 Q 93.76 377.1 93.76 377.1 L 93.76 376.75 L 95.27 376.42 L 95.58 376.42 L 95.58 380.99 Q 95.58 381.34 95.63 381.53 Q 95.68 381.72 95.86 381.79 Q 96.05 381.86 96.44 381.86 Z M 95.1 374.12 Q 95.41 374.12 95.59 374.33 Q 95.78 374.52 95.78 374.8 Q 95.78 375.07 95.59 375.28 Q 95.41 375.48 95.1 375.48 Q 94.8 375.48 94.61 375.28 Q 94.42 375.07 94.42 374.8 Q 94.42 374.52 94.6 374.33 Q 94.79 374.12 95.1 374.12 Z M 98.89 376.42 L 98.89 377.42 L 98.93 377.42 Q 99.36 376.92 99.8 376.66 Q 100.26 376.38 100.79 376.38 Q 101.39 376.38 101.83 376.73 Q 102.29 377.06 102.54 377.68 Q 102.8 378.28 102.8 379.07 Q 102.8 380.09 102.44 380.82 Q 102.1 381.54 101.5 381.94 Q 100.9 382.32 100.18 382.32 Q 99.84 382.32 99.53 382.24 Q 99.23 382.16 98.96 381.98 L 98.92 381.98 L 98.92 383.56 Q 98.92 383.94 99.01 384.14 Q 99.11 384.35 99.36 384.42 Q 99.61 384.49 100.08 384.49 L 100.08 384.84 L 97.04 384.84 L 97.04 384.5 Q 97.61 384.5 97.76 384.31 Q 97.92 384.13 97.92 383.63 L 97.92 377.69 Q 97.92 377.34 97.84 377.21 Q 97.76 377.08 97.46 377.08 Q 97.34 377.08 97.21 377.09 Q 97.08 377.1 97.08 377.1 L 97.08 376.75 L 98.59 376.42 L 98.89 376.42 Z M 98.92 377.93 L 98.92 381.06 Q 99.04 381.18 99.22 381.37 Q 99.4 381.56 99.65 381.71 Q 99.9 381.85 100.24 381.85 Q 100.87 381.85 101.29 381.25 Q 101.71 380.65 101.71 379.4 Q 101.71 378.26 101.34 377.74 Q 100.97 377.2 100.3 377.2 Q 99.82 377.2 99.44 377.45 Q 99.08 377.7 98.92 377.93 Z" fill="#000000"/></g><g data-sirentide-role="node" data-sirentide-id="Done" data-sirentide-seq="10"><rect x="44.102" y="444" width="55.408" height="36" fill="#dbe4ff"/><path d="M 58.52 458.32 L 61.82 458.32 Q 62.76 458.32 63.56 458.52 Q 64.38 458.71 64.98 459.17 Q 65.58 459.62 65.91 460.37 Q 66.26 461.11 66.26 462.22 Q 66.26 463.6 65.72 464.48 Q 65.19 465.36 64.22 465.78 Q 63.25 466.2 61.95 466.2 L 58.52 466.2 L 58.52 465.84 Q 59.05 465.84 59.3 465.77 Q 59.55 465.68 59.63 465.44 Q 59.7 465.19 59.7 464.71 L 59.7 459.68 Q 59.7 459.24 59.59 459.04 Q 59.48 458.82 59.23 458.75 Q 58.98 458.68 58.52 458.68 L 58.52 458.32 Z M 60.8 458.83 L 60.8 465.71 Q 61.16 465.74 61.51 465.74 Q 62.6 465.74 63.38 465.46 Q 64.16 465.16 64.58 464.41 Q 65 463.67 65 462.32 Q 65 460.61 64.13 459.71 Q 63.25 458.81 61.39 458.81 Q 61.25 458.81 61.1 458.81 Q 60.97 458.81 60.8 458.83 Z M 69.96 460.38 Q 71.19 460.38 71.9 461.15 Q 72.62 461.92 72.62 463.25 Q 72.62 464.26 72.27 464.94 Q 71.94 465.62 71.34 465.97 Q 70.74 466.32 69.96 466.32 Q 68.7 466.32 67.98 465.54 Q 67.27 464.75 67.27 463.3 Q 67.27 462.42 67.61 461.77 Q 67.94 461.11 68.54 460.75 Q 69.15 460.38 69.96 460.38 Z M 69.91 460.84 Q 69.23 460.84 68.81 461.41 Q 68.39 461.99 68.39 463.14 Q 68.39 464.57 68.81 465.22 Q 69.24 465.85 70.01 465.84 Q 70.5 465.84 70.83 465.61 Q 71.17 465.38 71.34 464.83 Q 71.52 464.28 71.52 463.31 Q 71.52 462.2 71.11 461.52 Q 70.71 460.84 69.91 460.84 Z M 78.8 462.52 L 78.8 464.99 Q 78.8 465.32 78.85 465.52 Q 78.91 465.71 79.1 465.79 Q 79.29 465.86 79.69 465.86 L 79.69 466.2 L 76.92 466.2 L 76.92 465.86 Q 77.35 465.86 77.53 465.79 Q 77.72 465.71 77.76 465.52 Q 77.81 465.32 77.81 464.99 L 77.81 462.82 Q 77.81 462.1 77.64 461.74 Q 77.48 461.38 77.23 461.27 Q 76.98 461.15 76.7 461.15 Q 76.22 461.15 75.87 461.41 Q 75.53 461.66 75.25 461.9 L 75.25 464.99 Q 75.25 465.32 75.3 465.52 Q 75.35 465.71 75.54 465.79 Q 75.73 465.86 76.16 465.86 L 76.16 466.2 L 73.41 466.2 L 73.41 465.86 Q 73.82 465.86 73.99 465.79 Q 74.17 465.71 74.21 465.52 Q 74.25 465.32 74.25 464.99 L 74.25 461.62 Q 74.25 461.29 74.12 461.2 Q 73.99 461.09 73.75 461.09 Q 73.59 461.09 73.51 461.1 Q 73.43 461.11 73.43 461.11 L 73.43 460.76 L 74.95 460.42 L 75.23 460.42 L 75.21 461.39 L 75.26 461.39 Q 75.75 460.96 76.19 460.67 Q 76.63 460.38 77.19 460.38 Q 78.01 460.38 78.41 460.93 Q 78.8 461.48 78.8 462.52 Z M 84.92 464.48 L 85.15 464.65 Q 84.93 465.11 84.65 465.49 Q 84.36 465.86 83.94 466.09 Q 83.53 466.32 82.91 466.32 Q 82.19 466.32 81.6 465.98 Q 81.02 465.64 80.69 464.98 Q 80.35 464.3 80.35 463.34 Q 80.35 462.34 80.69 461.69 Q 81.03 461.03 81.61 460.7 Q 82.19 460.38 82.88 460.38 Q 83.87 460.38 84.47 461.06 Q 85.07 461.75 85.11 463.01 L 81.32 463.01 Q 81.32 463.84 81.59 464.38 Q 81.86 464.9 82.28 465.17 Q 82.71 465.42 83.19 465.42 Q 83.69 465.42 83.99 465.29 Q 84.3 465.16 84.51 464.95 Q 84.73 464.74 84.92 464.48 Z M 81.31 462.56 L 83.99 462.56 Q 83.97 462.12 83.83 461.74 Q 83.69 461.34 83.41 461.1 Q 83.13 460.86 82.7 460.86 Q 81.45 460.86 81.31 462.56 Z" fill="#000000"/></g></svg>