<svg xmlns="http://www.w3.org/2000/svg" width="380" height="202.27" viewBox="0 0 380 202.27" role="img"><title>Flowchart</title><desc>Flowchart with 6 nodes and 5 edges. Nodes: A, Sink, B, C, D, E. A leads to Sink labeled &quot;provisioning&quot;; B leads to Sink labeled &quot;invalidating&quot;; C leads to Sink labeled &quot;transitioning&quot;; D leads to Sink labeled &quot;reactivating&quot;; E leads to Sink labeled &quot;deprovisioning&quot;.</desc><g data-sirentide-role="edge" data-sirentide-id="A-S" data-sirentide-seq="0"><line x1="46" y1="60" x2="180.513" y2="104.838" stroke="#94a3b8" stroke-width="1.5"/><path d="M 190 108 L 179.406 108.158 L 181.62 101.517 Z" fill="#94a3b8"/><path d="M 120.02 81.1 L 120.02 81.94 L 120.05 81.94 Q 120.41 81.52 120.78 81.3 Q 121.16 81.07 121.6 81.07 Q 122.1 81.07 122.47 81.36 Q 122.85 81.64 123.06 82.15 Q 123.28 82.65 123.28 83.31 Q 123.28 84.16 122.98 84.77 Q 122.69 85.37 122.19 85.7 Q 121.69 86.02 121.09 86.02 Q 120.81 86.02 120.55 85.95 Q 120.3 85.89 120.08 85.74 L 120.04 85.74 L 120.04 87.05 Q 120.04 87.37 120.12 87.54 Q 120.2 87.71 120.41 87.77 Q 120.62 87.83 121.01 87.83 L 121.01 88.12 L 118.48 88.12 L 118.48 87.84 Q 118.95 87.84 119.08 87.68 Q 119.21 87.53 119.21 87.11 L 119.21 82.16 Q 119.21 81.87 119.14 81.76 Q 119.08 81.65 118.83 81.65 Q 118.73 81.65 118.62 81.66 Q 118.51 81.67 118.51 81.67 L 118.51 81.38 L 119.77 81.1 L 120.02 81.1 Z M 120.04 82.36 L 120.04 84.97 Q 120.14 85.07 120.29 85.23 Q 120.44 85.39 120.65 85.51 Q 120.86 85.63 121.14 85.63 Q 121.67 85.63 122.02 85.13 Q 122.37 84.63 122.37 83.59 Q 122.37 82.64 122.06 82.2 Q 121.75 81.75 121.19 81.75 Q 120.79 81.75 120.48 81.96 Q 120.18 82.17 120.04 82.36 Z M 125.46 81.1 L 125.46 82.13 L 125.49 82.13 Q 125.87 81.57 126.14 81.31 Q 126.42 81.04 126.78 81.04 Q 127.07 81.04 127.21 81.19 Q 127.36 81.34 127.36 81.6 Q 127.36 81.88 127.22 82.01 Q 127.09 82.14 126.92 82.14 Q 126.76 82.14 126.63 82.06 Q 126.51 81.97 126.42 81.89 Q 126.33 81.8 126.27 81.8 Q 126.1 81.8 125.88 82.06 Q 125.66 82.32 125.48 82.62 L 125.48 84.9 Q 125.48 85.21 125.56 85.37 Q 125.64 85.53 125.84 85.58 Q 126.05 85.63 126.42 85.63 L 126.42 85.92 L 123.92 85.92 L 123.92 85.63 Q 124.25 85.63 124.4 85.58 Q 124.56 85.52 124.6 85.38 Q 124.65 85.23 124.65 84.95 L 124.65 82.2 Q 124.65 81.93 124.6 81.8 Q 124.56 81.66 124.29 81.66 Q 124.14 81.66 124.06 81.67 Q 123.98 81.68 123.98 81.68 L 123.98 81.4 L 125.22 81.1 L 125.46 81.1 Z M 130.01 81.07 Q 131.04 81.07 131.63 81.71 Q 132.23 82.35 132.23 83.46 Q 132.23 84.3 131.94 84.87 Q 131.66 85.44 131.16 85.73 Q 130.66 86.02 130.01 86.02 Q 128.96 86.02 128.36 85.37 Q 127.77 84.71 127.77 83.5 Q 127.77 82.77 128.05 82.23 Q 128.33 81.68 128.83 81.38 Q 129.34 81.07 130.01 81.07 Z M 129.97 81.45 Q 129.4 81.45 129.05 81.93 Q 128.7 82.41 128.7 83.37 Q 128.7 84.56 129.05 85.1 Q 129.41 85.63 130.05 85.62 Q 130.46 85.62 130.74 85.43 Q 131.02 85.24 131.16 84.78 Q 131.31 84.32 131.31 83.51 Q 131.31 82.59 130.97 82.02 Q 130.64 81.45 129.97 81.45 Z M 137.55 81.19 L 137.55 81.48 Q 137.26 81.48 137.1 81.62 Q 136.95 81.75 136.8 82.14 L 135.22 85.98 L 134.74 85.98 L 133.25 82.21 Q 133.12 81.9 133.02 81.75 Q 132.92 81.59 132.79 81.54 Q 132.66 81.48 132.44 81.48 L 132.44 81.19 L 134.55 81.19 L 134.55 81.48 Q 134.26 81.48 134.14 81.55 Q 134.03 81.61 134.03 81.73 Q 134.03 81.83 134.06 81.92 Q 134.09 82.01 134.13 82.12 L 134.98 84.35 L 135.17 84.95 L 135.23 84.95 L 135.44 84.34 L 136.3 82.08 Q 136.31 82.04 136.34 81.96 Q 136.37 81.87 136.37 81.75 Q 136.37 81.58 136.22 81.53 Q 136.07 81.48 135.8 81.48 L 135.8 81.19 L 137.55 81.19 Z M 139.95 85.64 L 139.95 85.92 L 137.7 85.92 L 137.7 85.64 Q 138.04 85.64 138.18 85.58 Q 138.33 85.51 138.36 85.35 Q 138.4 85.19 138.4 84.91 L 138.4 82.12 Q 138.4 81.8 138.29 81.73 Q 138.18 81.65 137.96 81.65 Q 137.86 81.65 137.78 81.66 Q 137.71 81.67 137.71 81.67 L 137.71 81.38 L 138.97 81.1 L 139.23 81.1 L 139.23 84.91 Q 139.23 85.2 139.27 85.36 Q 139.31 85.52 139.46 85.58 Q 139.62 85.64 139.95 85.64 Z M 138.83 79.19 Q 139.09 79.19 139.24 79.36 Q 139.4 79.52 139.4 79.75 Q 139.4 79.98 139.24 80.15 Q 139.09 80.32 138.83 80.32 Q 138.58 80.32 138.42 80.15 Q 138.26 79.98 138.26 79.75 Q 138.26 79.52 138.41 79.36 Q 138.57 79.19 138.83 79.19 Z M 140.62 84.28 L 140.88 84.28 Q 141.04 85.05 141.35 85.36 Q 141.66 85.66 142.21 85.66 Q 142.59 85.66 142.83 85.51 Q 143.07 85.35 143.07 85 Q 143.07 84.76 142.98 84.6 Q 142.9 84.44 142.66 84.28 Q 142.42 84.11 141.95 83.88 Q 141.27 83.53 140.95 83.21 Q 140.63 82.88 140.63 82.33 Q 140.63 81.71 141.07 81.39 Q 141.52 81.07 142.16 81.07 Q 142.54 81.07 142.78 81.16 Q 143.02 81.24 143.21 81.33 L 143.22 81.33 L 143.39 81.12 L 143.59 81.12 L 143.62 82.65 L 143.35 82.65 Q 143.19 81.94 142.9 81.68 Q 142.61 81.41 142.15 81.41 Q 141.81 81.41 141.57 81.57 Q 141.34 81.73 141.34 82.07 Q 141.34 82.36 141.61 82.59 Q 141.88 82.82 142.51 83.14 Q 143.19 83.5 143.55 83.84 Q 143.91 84.17 143.91 84.73 Q 143.91 85.2 143.68 85.49 Q 143.45 85.77 143.06 85.9 Q 142.68 86.03 142.23 86.03 Q 141.8 86.03 141.54 85.94 Q 141.29 85.85 141.09 85.77 L 141.07 85.77 L 140.86 86 L 140.65 86 L 140.62 84.28 Z M 146.75 85.64 L 146.75 85.92 L 144.5 85.92 L 144.5 85.64 Q 144.84 85.64 144.98 85.58 Q 145.13 85.51 145.16 85.35 Q 145.2 85.19 145.2 84.91 L 145.2 82.12 Q 145.2 81.8 145.09 81.73 Q 144.98 81.65 144.76 81.65 Q 144.66 81.65 144.58 81.66 Q 144.51 81.67 144.51 81.67 L 144.51 81.38 L 145.77 81.1 L 146.03 81.1 L 146.03 84.91 Q 146.03 85.2 146.07 85.36 Q 146.11 85.52 146.26 85.58 Q 146.42 85.64 146.75 85.64 Z M 145.63 79.19 Q 145.89 79.19 146.04 79.36 Q 146.2 79.52 146.2 79.75 Q 146.2 79.98 146.04 80.15 Q 145.89 80.32 145.63 80.32 Q 145.38 80.32 145.22 80.15 Q 145.06 79.98 145.06 79.75 Q 145.06 79.52 145.21 79.36 Q 145.37 79.19 145.63 79.19 Z M 149.61 81.07 Q 150.64 81.07 151.23 81.71 Q 151.83 82.35 151.83 83.46 Q 151.83 84.3 151.54 84.87 Q 151.26 85.44 150.76 85.73 Q 150.26 86.02 149.61 86.02 Q 148.56 86.02 147.96 85.37 Q 147.37 84.71 147.37 83.5 Q 147.37 82.77 147.65 82.23 Q 147.93 81.68 148.43 81.38 Q 148.94 81.07 149.61 81.07 Z M 149.57 81.45 Q 149 81.45 148.65 81.93 Q 148.3 82.41 148.3 83.37 Q 148.3 84.56 148.65 85.1 Q 149.01 85.63 149.65 85.62 Q 150.06 85.62 150.34 85.43 Q 150.62 85.24 150.76 84.78 Q 150.91 84.32 150.91 83.51 Q 150.91 82.59 150.57 82.02 Q 150.24 81.45 149.57 81.45 Z M 156.98 82.85 L 156.98 84.91 Q 156.98 85.19 157.02 85.35 Q 157.07 85.51 157.23 85.58 Q 157.39 85.64 157.72 85.64 L 157.72 85.92 L 155.41 85.92 L 155.41 85.64 Q 155.77 85.64 155.92 85.58 Q 156.08 85.51 156.11 85.35 Q 156.15 85.19 156.15 84.91 L 156.15 83.1 Q 156.15 82.5 156.01 82.2 Q 155.88 81.9 155.67 81.81 Q 155.46 81.71 155.23 81.71 Q 154.83 81.71 154.54 81.93 Q 154.25 82.14 154.02 82.34 L 154.02 84.91 Q 154.02 85.19 154.06 85.35 Q 154.1 85.51 154.26 85.58 Q 154.42 85.64 154.78 85.64 L 154.78 85.92 L 152.49 85.92 L 152.49 85.64 Q 152.83 85.64 152.97 85.58 Q 153.12 85.51 153.15 85.35 Q 153.19 85.19 153.19 84.91 L 153.19 82.1 Q 153.19 81.83 153.08 81.75 Q 152.97 81.66 152.77 81.66 Q 152.64 81.66 152.57 81.67 Q 152.5 81.68 152.5 81.68 L 152.5 81.39 L 153.77 81.1 L 154 81.1 L 153.99 81.91 L 154.03 81.91 Q 154.44 81.55 154.8 81.31 Q 155.17 81.07 155.64 81.07 Q 156.32 81.07 156.65 81.53 Q 156.98 81.99 156.98 82.85 Z M 160.5 85.64 L 160.5 85.92 L 158.25 85.92 L 158.25 85.64 Q 158.59 85.64 158.73 85.58 Q 158.88 85.51 158.91 85.35 Q 158.95 85.19 158.95 84.91 L 158.95 82.12 Q 158.95 81.8 158.84 81.73 Q 158.73 81.65 158.51 81.65 Q 158.41 81.65 158.33 81.66 Q 158.26 81.67 158.26 81.67 L 158.26 81.38 L 159.52 81.1 L 159.78 81.1 L 159.78 84.91 Q 159.78 85.2 159.82 85.36 Q 159.86 85.52 160.01 85.58 Q 160.17 85.64 160.5 85.64 Z M 159.38 79.19 Q 159.64 79.19 159.79 79.36 Q 159.95 79.52 159.95 79.75 Q 159.95 79.98 159.79 80.15 Q 159.64 80.32 159.38 80.32 Q 159.13 80.32 158.97 80.15 Q 158.81 79.98 158.81 79.75 Q 158.81 79.52 158.96 79.36 Q 159.12 79.19 159.38 79.19 Z M 165.59 82.85 L 165.59 84.91 Q 165.59 85.19 165.63 85.35 Q 165.68 85.51 165.84 85.58 Q 166 85.64 166.33 85.64 L 166.33 85.92 L 164.02 85.92 L 164.02 85.64 Q 164.38 85.64 164.53 85.58 Q 164.69 85.51 164.72 85.35 Q 164.76 85.19 164.76 84.91 L 164.76 83.1 Q 164.76 82.5 164.62 82.2 Q 164.49 81.9 164.28 81.81 Q 164.07 81.71 163.84 81.71 Q 163.44 81.71 163.15 81.93 Q 162.86 82.14 162.63 82.34 L 162.63 84.91 Q 162.63 85.19 162.67 85.35 Q 162.71 85.51 162.87 85.58 Q 163.03 85.64 163.39 85.64 L 163.39 85.92 L 161.1 85.92 L 161.1 85.64 Q 161.44 85.64 161.58 85.58 Q 161.73 85.51 161.76 85.35 Q 161.8 85.19 161.8 84.91 L 161.8 82.1 Q 161.8 81.83 161.69 81.75 Q 161.58 81.66 161.38 81.66 Q 161.25 81.66 161.18 81.67 Q 161.11 81.68 161.11 81.68 L 161.11 81.39 L 162.38 81.1 L 162.61 81.1 L 162.6 81.91 L 162.64 81.91 Q 163.05 81.55 163.41 81.31 Q 163.78 81.07 164.25 81.07 Q 164.93 81.07 165.26 81.53 Q 165.59 81.99 165.59 82.85 Z M 167.82 84.08 L 167.82 84.06 Q 167.46 83.85 167.25 83.52 Q 167.05 83.19 167.05 82.7 Q 167.05 81.95 167.56 81.51 Q 168.07 81.07 168.86 81.07 Q 169.19 81.07 169.44 81.13 Q 169.69 81.19 169.83 81.26 Q 169.97 81.32 169.97 81.32 L 171.26 81.25 L 171.26 81.79 L 170.32 81.76 L 170.32 81.81 Q 170.43 81.96 170.55 82.21 Q 170.68 82.46 170.68 82.84 Q 170.68 83.54 170.19 83.95 Q 169.7 84.36 168.91 84.36 Q 168.67 84.36 168.46 84.32 Q 168.25 84.28 168.05 84.21 Q 167.98 84.31 167.88 84.53 Q 167.79 84.75 167.79 84.88 Q 167.79 85.1 168.03 85.19 Q 168.28 85.28 168.97 85.28 Q 169.6 85.28 170.1 85.34 Q 170.61 85.4 170.9 85.65 Q 171.19 85.9 171.19 86.47 Q 171.19 86.97 170.94 87.31 Q 170.7 87.66 170.29 87.87 Q 169.89 88.08 169.4 88.17 Q 168.92 88.27 168.45 88.27 Q 167.8 88.27 167.42 88.11 Q 167.05 87.95 166.9 87.69 Q 166.75 87.44 166.75 87.17 Q 166.75 86.92 166.95 86.64 Q 167.16 86.37 167.56 85.98 L 167.56 85.94 Q 167.31 85.81 167.15 85.62 Q 167 85.43 167 85.22 Q 167 84.95 167.23 84.65 Q 167.47 84.35 167.82 84.08 Z M 167.81 86.02 Q 167.65 86.3 167.59 86.48 Q 167.53 86.67 167.53 86.83 Q 167.53 87.7 169.03 87.7 Q 169.62 87.7 169.98 87.55 Q 170.35 87.4 170.51 87.18 Q 170.68 86.96 170.68 86.75 Q 170.68 86.49 170.52 86.34 Q 170.36 86.2 170.1 86.14 Q 169.85 86.08 169.56 86.06 Q 169.28 86.04 169.03 86.04 Q 168.97 86.04 168.94 86.04 Q 168.54 86.03 168.32 86.03 Q 168.1 86.03 167.99 86.02 Q 167.88 86.02 167.81 86.02 Z M 168.79 81.43 Q 168.4 81.43 168.16 81.73 Q 167.93 82.03 167.93 82.66 Q 167.93 83.3 168.18 83.66 Q 168.43 84.01 168.92 84.01 Q 169.3 84.01 169.54 83.75 Q 169.79 83.49 169.79 82.78 Q 169.79 82.17 169.53 81.8 Q 169.27 81.43 168.79 81.43 Z" fill="currentColor"/></g><g data-sirentide-role="edge" data-sirentide-id="B-S" data-sirentide-seq="1"><line x1="118" y1="60" x2="181.679" y2="102.453" stroke="#94a3b8" stroke-width="1.5"/><path d="M 190 108 L 179.738 105.365 L 183.621 99.541 Z" fill="#94a3b8"/><path d="M 157.41 99.45 L 157.41 99.73 L 155.16 99.73 L 155.16 99.45 Q 155.5 99.45 155.64 99.39 Q 155.79 99.32 155.82 99.16 Q 155.86 99 155.86 98.72 L 155.86 95.93 Q 155.86 95.61 155.75 95.54 Q 155.64 95.46 155.42 95.46 Q 155.32 95.46 155.24 95.47 Q 155.17 95.48 155.17 95.48 L 155.17 95.19 L 156.43 94.91 L 156.69 94.91 L 156.69 98.72 Q 156.69 99.01 156.73 99.17 Q 156.77 99.33 156.92 99.39 Q 157.08 99.45 157.41 99.45 Z M 156.29 93 Q 156.55 93 156.7 93.17 Q 156.86 93.33 156.86 93.56 Q 156.86 93.79 156.7 93.96 Q 156.55 94.13 156.29 94.13 Q 156.04 94.13 155.88 93.96 Q 155.72 93.79 155.72 93.56 Q 155.72 93.33 155.87 93.17 Q 156.03 93 156.29 93 Z M 162.5 96.66 L 162.5 98.72 Q 162.5 99 162.54 99.16 Q 162.59 99.32 162.75 99.39 Q 162.91 99.45 163.24 99.45 L 163.24 99.73 L 160.93 99.73 L 160.93 99.45 Q 161.29 99.45 161.44 99.39 Q 161.6 99.32 161.63 99.16 Q 161.67 99 161.67 98.72 L 161.67 96.91 Q 161.67 96.31 161.53 96.01 Q 161.4 95.71 161.19 95.62 Q 160.98 95.52 160.75 95.52 Q 160.35 95.52 160.06 95.74 Q 159.77 95.95 159.54 96.15 L 159.54 98.72 Q 159.54 99 159.58 99.16 Q 159.62 99.32 159.78 99.39 Q 159.94 99.45 160.3 99.45 L 160.3 99.73 L 158.01 99.73 L 158.01 99.45 Q 158.35 99.45 158.49 99.39 Q 158.64 99.32 158.67 99.16 Q 158.71 99 158.71 98.72 L 158.71 95.91 Q 158.71 95.64 158.6 95.56 Q 158.49 95.47 158.29 95.47 Q 158.16 95.47 158.09 95.48 Q 158.02 95.49 158.02 95.49 L 158.02 95.2 L 159.29 94.91 L 159.52 94.91 L 159.51 95.72 L 159.55 95.72 Q 159.96 95.36 160.32 95.12 Q 160.69 94.88 161.16 94.88 Q 161.84 94.88 162.17 95.34 Q 162.5 95.8 162.5 96.66 Z M 168.43 95 L 168.43 95.29 Q 168.14 95.29 167.98 95.43 Q 167.83 95.56 167.68 95.95 L 166.1 99.79 L 165.62 99.79 L 164.13 96.02 Q 164 95.71 163.9 95.56 Q 163.8 95.4 163.67 95.35 Q 163.54 95.29 163.32 95.29 L 163.32 95 L 165.43 95 L 165.43 95.29 Q 165.14 95.29 165.02 95.36 Q 164.91 95.42 164.91 95.54 Q 164.91 95.64 164.94 95.73 Q 164.97 95.82 165.01 95.93 L 165.86 98.16 L 166.05 98.76 L 166.11 98.76 L 166.32 98.15 L 167.18 95.89 Q 167.19 95.85 167.22 95.77 Q 167.25 95.68 167.25 95.56 Q 167.25 95.39 167.1 95.34 Q 166.95 95.29 166.68 95.29 L 166.68 95 L 168.43 95 Z M 171.34 99.11 L 171.3 99.11 Q 170.95 99.42 170.63 99.61 Q 170.31 99.8 169.83 99.8 Q 169.25 99.8 168.94 99.48 Q 168.64 99.16 168.64 98.68 Q 168.64 98.28 168.82 98.01 Q 169.01 97.73 169.31 97.54 Q 169.62 97.35 169.97 97.22 Q 170.33 97.09 170.67 97 Q 171.01 96.91 171.27 96.83 L 171.27 96.39 Q 171.27 95.74 171.04 95.47 Q 170.82 95.19 170.37 95.19 Q 169.94 95.19 169.82 95.37 Q 169.7 95.55 169.7 96 Q 169.7 96.46 169.26 96.46 Q 169.11 96.46 168.97 96.35 Q 168.84 96.23 168.84 95.98 Q 168.84 95.7 169.05 95.45 Q 169.27 95.2 169.66 95.04 Q 170.06 94.88 170.6 94.88 Q 171.42 94.88 171.76 95.26 Q 172.1 95.64 172.1 96.42 L 172.1 98.69 Q 172.1 99 172.17 99.09 Q 172.24 99.18 172.4 99.18 Q 172.54 99.18 172.65 99.11 Q 172.77 99.04 172.87 98.93 L 173.02 99.09 Q 172.77 99.45 172.54 99.62 Q 172.32 99.78 171.94 99.78 Q 171.61 99.78 171.5 99.61 Q 171.39 99.44 171.34 99.11 Z M 171.27 98.81 L 171.27 97.16 Q 170.82 97.27 170.42 97.42 Q 170.02 97.57 169.77 97.81 Q 169.52 98.05 169.52 98.44 Q 169.52 98.81 169.72 99.03 Q 169.92 99.25 170.24 99.25 Q 170.74 99.25 171.27 98.81 Z M 175.66 99.44 L 175.66 99.73 L 173.36 99.73 L 173.36 99.44 Q 173.69 99.44 173.84 99.38 Q 173.99 99.31 174.02 99.16 Q 174.06 99 174.06 98.72 L 174.06 93.7 Q 174.06 93.39 173.94 93.33 Q 173.83 93.27 173.64 93.27 Q 173.51 93.27 173.41 93.28 Q 173.32 93.29 173.32 93.29 L 173.32 93.02 L 174.64 92.67 L 174.89 92.67 L 174.89 98.72 Q 174.89 99.01 174.93 99.17 Q 174.98 99.32 175.14 99.38 Q 175.3 99.44 175.66 99.44 Z M 178.46 99.45 L 178.46 99.73 L 176.21 99.73 L 176.21 99.45 Q 176.55 99.45 176.69 99.39 Q 176.84 99.32 176.87 99.16 Q 176.91 99 176.91 98.72 L 176.91 95.93 Q 176.91 95.61 176.8 95.54 Q 176.69 95.46 176.47 95.46 Q 176.37 95.46 176.29 95.47 Q 176.22 95.48 176.22 95.48 L 176.22 95.19 L 177.48 94.91 L 177.74 94.91 L 177.74 98.72 Q 177.74 99.01 177.78 99.17 Q 177.82 99.33 177.97 99.39 Q 178.13 99.45 178.46 99.45 Z M 177.34 93 Q 177.6 93 177.75 93.17 Q 177.91 93.33 177.91 93.56 Q 177.91 93.79 177.75 93.96 Q 177.6 94.13 177.34 94.13 Q 177.09 94.13 176.93 93.96 Q 176.77 93.79 176.77 93.56 Q 176.77 93.33 176.92 93.17 Q 177.08 93 177.34 93 Z M 183.88 99.55 L 182.6 99.78 L 182.37 99.78 L 182.37 99.09 L 182.33 99.09 Q 182.05 99.34 181.66 99.58 Q 181.28 99.81 180.78 99.81 Q 180.22 99.81 179.83 99.51 Q 179.45 99.21 179.26 98.7 Q 179.07 98.18 179.07 97.54 Q 179.07 96.71 179.38 96.12 Q 179.69 95.52 180.21 95.2 Q 180.74 94.88 181.37 94.88 Q 181.62 94.88 181.86 94.94 Q 182.11 94.99 182.34 95.12 L 182.34 93.81 Q 182.34 93.48 182.26 93.38 Q 182.19 93.28 181.9 93.28 Q 181.83 93.28 181.73 93.29 Q 181.64 93.3 181.64 93.3 L 181.64 93.02 L 182.9 92.67 L 183.17 92.67 L 183.17 98.66 Q 183.17 99.05 183.28 99.17 Q 183.39 99.28 183.67 99.28 L 183.88 99.28 L 183.88 99.55 Z M 182.34 98.72 L 182.34 96.08 Q 182.28 95.77 182.05 95.53 Q 181.82 95.28 181.35 95.28 Q 180.72 95.28 180.33 95.74 Q 179.94 96.2 179.94 97.15 Q 179.94 98.18 180.27 98.64 Q 180.61 99.09 181.25 99.09 Q 181.6 99.09 181.84 99 Q 182.08 98.9 182.34 98.72 Z M 187.21 99.11 L 187.17 99.11 Q 186.82 99.42 186.5 99.61 Q 186.18 99.8 185.7 99.8 Q 185.12 99.8 184.81 99.48 Q 184.51 99.16 184.51 98.68 Q 184.51 98.28 184.69 98.01 Q 184.88 97.73 185.18 97.54 Q 185.49 97.35 185.84 97.22 Q 186.2 97.09 186.54 97 Q 186.88 96.91 187.14 96.83 L 187.14 96.39 Q 187.14 95.74 186.91 95.47 Q 186.69 95.19 186.24 95.19 Q 185.81 95.19 185.69 95.37 Q 185.57 95.55 185.57 96 Q 185.57 96.46 185.13 96.46 Q 184.98 96.46 184.84 96.35 Q 184.71 96.23 184.71 95.98 Q 184.71 95.7 184.92 95.45 Q 185.14 95.2 185.53 95.04 Q 185.93 94.88 186.47 94.88 Q 187.29 94.88 187.63 95.26 Q 187.97 95.64 187.97 96.42 L 187.97 98.69 Q 187.97 99 188.04 99.09 Q 188.11 99.18 188.27 99.18 Q 188.41 99.18 188.52 99.11 Q 188.64 99.04 188.74 98.93 L 188.89 99.09 Q 188.64 99.45 188.41 99.62 Q 188.19 99.78 187.81 99.78 Q 187.48 99.78 187.37 99.61 Q 187.26 99.44 187.21 99.11 Z M 187.14 98.81 L 187.14 97.16 Q 186.69 97.27 186.29 97.42 Q 185.89 97.57 185.64 97.81 Q 185.39 98.05 185.39 98.44 Q 185.39 98.81 185.59 99.03 Q 185.79 99.25 186.11 99.25 Q 186.61 99.25 187.14 98.81 Z M 191.86 98.83 L 192.05 98.99 Q 191.86 99.26 191.69 99.45 Q 191.53 99.63 191.33 99.73 Q 191.13 99.83 190.81 99.83 Q 190.31 99.83 190.08 99.54 Q 189.85 99.24 189.85 98.57 L 189.85 95.47 L 189.3 95.47 L 189.3 95.24 Q 189.65 95.02 189.9 94.65 Q 190.16 94.27 190.43 93.63 L 190.69 93.63 L 190.68 95.05 L 191.81 95.05 L 191.81 95.47 L 190.68 95.47 L 190.68 98.29 Q 190.68 98.82 190.77 99.03 Q 190.87 99.24 191.16 99.24 Q 191.4 99.24 191.53 99.14 Q 191.67 99.04 191.86 98.83 Z M 194.65 99.45 L 194.65 99.73 L 192.4 99.73 L 192.4 99.45 Q 192.74 99.45 192.88 99.39 Q 193.03 99.32 193.06 99.16 Q 193.1 99 193.1 98.72 L 193.1 95.93 Q 193.1 95.61 192.99 95.54 Q 192.88 95.46 192.66 95.46 Q 192.56 95.46 192.48 95.47 Q 192.41 95.48 192.41 95.48 L 192.41 95.19 L 193.67 94.91 L 193.93 94.91 L 193.93 98.72 Q 193.93 99.01 193.97 99.17 Q 194.01 99.33 194.16 99.39 Q 194.32 99.45 194.65 99.45 Z M 193.53 93 Q 193.79 93 193.94 93.17 Q 194.1 93.33 194.1 93.56 Q 194.1 93.79 193.94 93.96 Q 193.79 94.13 193.53 94.13 Q 193.28 94.13 193.12 93.96 Q 192.96 93.79 192.96 93.56 Q 192.96 93.33 193.11 93.17 Q 193.27 93 193.53 93 Z M 199.74 96.66 L 199.74 98.72 Q 199.74 99 199.78 99.16 Q 199.83 99.32 199.99 99.39 Q 200.15 99.45 200.48 99.45 L 200.48 99.73 L 198.17 99.73 L 198.17 99.45 Q 198.53 99.45 198.68 99.39 Q 198.84 99.32 198.87 99.16 Q 198.91 99 198.91 98.72 L 198.91 96.91 Q 198.91 96.31 198.77 96.01 Q 198.64 95.71 198.43 95.62 Q 198.22 95.52 197.99 95.52 Q 197.59 95.52 197.3 95.74 Q 197.01 95.95 196.78 96.15 L 196.78 98.72 Q 196.78 99 196.82 99.16 Q 196.86 99.32 197.02 99.39 Q 197.18 99.45 197.54 99.45 L 197.54 99.73 L 195.25 99.73 L 195.25 99.45 Q 195.59 99.45 195.73 99.39 Q 195.88 99.32 195.91 99.16 Q 195.95 99 195.95 98.72 L 195.95 95.91 Q 195.95 95.64 195.84 95.56 Q 195.73 95.47 195.53 95.47 Q 195.4 95.47 195.33 95.48 Q 195.26 95.49 195.26 95.49 L 195.26 95.2 L 196.53 94.91 L 196.76 94.91 L 196.75 95.72 L 196.79 95.72 Q 197.2 95.36 197.56 95.12 Q 197.93 94.88 198.4 94.88 Q 199.08 94.88 199.41 95.34 Q 199.74 95.8 199.74 96.66 Z M 201.97 97.89 L 201.97 97.87 Q 201.61 97.66 201.4 97.33 Q 201.2 97 201.2 96.51 Q 201.2 95.76 201.71 95.32 Q 202.22 94.88 203.01 94.88 Q 203.34 94.88 203.59 94.94 Q 203.84 95 203.98 95.07 Q 204.12 95.13 204.12 95.13 L 205.41 95.06 L 205.41 95.6 L 204.47 95.57 L 204.47 95.62 Q 204.58 95.77 204.7 96.02 Q 204.83 96.27 204.83 96.65 Q 204.83 97.35 204.34 97.76 Q 203.85 98.17 203.06 98.17 Q 202.82 98.17 202.61 98.13 Q 202.4 98.09 202.2 98.02 Q 202.13 98.12 202.03 98.34 Q 201.94 98.56 201.94 98.69 Q 201.94 98.91 202.18 99 Q 202.43 99.09 203.12 99.09 Q 203.75 99.09 204.25 99.15 Q 204.76 99.21 205.05 99.46 Q 205.34 99.71 205.34 100.28 Q 205.34 100.78 205.09 101.12 Q 204.85 101.47 204.44 101.68 Q 204.04 101.89 203.55 101.98 Q 203.07 102.08 202.6 102.08 Q 201.95 102.08 201.57 101.92 Q 201.2 101.76 201.05 101.5 Q 200.9 101.25 200.9 100.98 Q 200.9 100.73 201.1 100.45 Q 201.31 100.18 201.71 99.79 L 201.71 99.75 Q 201.46 99.62 201.3 99.43 Q 201.15 99.24 201.15 99.03 Q 201.15 98.76 201.38 98.46 Q 201.62 98.16 201.97 97.89 Z M 201.96 99.83 Q 201.8 100.11 201.74 100.29 Q 201.68 100.48 201.68 100.64 Q 201.68 101.51 203.18 101.51 Q 203.77 101.51 204.13 101.36 Q 204.5 101.21 204.66 100.99 Q 204.83 100.77 204.83 100.56 Q 204.83 100.3 204.67 100.15 Q 204.51 100.01 204.25 99.95 Q 204 99.89 203.71 99.87 Q 203.43 99.85 203.18 99.85 Q 203.12 99.85 203.09 99.85 Q 202.69 99.84 202.47 99.84 Q 202.25 99.84 202.14 99.83 Q 202.03 99.83 201.96 99.83 Z M 202.94 95.24 Q 202.55 95.24 202.31 95.54 Q 202.08 95.84 202.08 96.47 Q 202.08 97.11 202.33 97.47 Q 202.58 97.82 203.07 97.82 Q 203.45 97.82 203.69 97.56 Q 203.94 97.3 203.94 96.59 Q 203.94 95.98 203.68 95.61 Q 203.42 95.24 202.94 95.24 Z" fill="currentColor"/></g><g data-sirentide-role="edge" data-sirentide-id="C-S" data-sirentide-seq="2"><line x1="190" y1="60" x2="190" y2="98" stroke="#94a3b8" stroke-width="1.5"/><path d="M 190 108 L 186.5 98 L 193.5 98 Z" fill="#94a3b8"/><path d="M 197.93 81.6 L 198.12 81.76 Q 197.93 82.03 197.76 82.22 Q 197.6 82.4 197.4 82.5 Q 197.2 82.6 196.88 82.6 Q 196.38 82.6 196.15 82.31 Q 195.92 82.01 195.92 81.34 L 195.92 78.24 L 195.37 78.24 L 195.37 78.01 Q 195.72 77.79 195.97 77.42 Q 196.23 77.04 196.5 76.4 L 196.76 76.4 L 196.75 77.82 L 197.88 77.82 L 197.88 78.24 L 196.75 78.24 L 196.75 81.06 Q 196.75 81.59 196.84 81.8 Q 196.94 82.01 197.23 82.01 Q 197.47 82.01 197.6 81.91 Q 197.74 81.81 197.93 81.6 Z M 199.98 77.68 L 199.98 78.71 L 200.01 78.71 Q 200.39 78.15 200.66 77.89 Q 200.94 77.62 201.3 77.62 Q 201.59 77.62 201.73 77.77 Q 201.88 77.92 201.88 78.18 Q 201.88 78.46 201.74 78.59 Q 201.61 78.72 201.44 78.72 Q 201.28 78.72 201.15 78.64 Q 201.03 78.55 200.94 78.47 Q 200.85 78.38 200.79 78.38 Q 200.62 78.38 200.4 78.64 Q 200.18 78.9 200 79.2 L 200 81.48 Q 200 81.79 200.08 81.95 Q 200.16 82.11 200.36 82.16 Q 200.57 82.21 200.94 82.21 L 200.94 82.5 L 198.44 82.5 L 198.44 82.21 Q 198.77 82.21 198.92 82.16 Q 199.08 82.1 199.12 81.96 Q 199.17 81.81 199.17 81.53 L 199.17 78.78 Q 199.17 78.51 199.12 78.38 Q 199.08 78.24 198.81 78.24 Q 198.66 78.24 198.58 78.25 Q 198.5 78.26 198.5 78.26 L 198.5 77.98 L 199.74 77.68 L 199.98 77.68 Z M 205.03 81.88 L 204.99 81.88 Q 204.64 82.19 204.32 82.38 Q 204 82.57 203.52 82.57 Q 202.94 82.57 202.63 82.25 Q 202.33 81.93 202.33 81.45 Q 202.33 81.05 202.51 80.78 Q 202.7 80.5 203 80.31 Q 203.31 80.12 203.66 79.99 Q 204.02 79.86 204.36 79.77 Q 204.7 79.68 204.96 79.6 L 204.96 79.16 Q 204.96 78.51 204.73 78.24 Q 204.51 77.96 204.06 77.96 Q 203.63 77.96 203.51 78.14 Q 203.39 78.32 203.39 78.77 Q 203.39 79.23 202.95 79.23 Q 202.8 79.23 202.66 79.12 Q 202.53 79 202.53 78.75 Q 202.53 78.47 202.74 78.22 Q 202.96 77.97 203.35 77.81 Q 203.75 77.65 204.29 77.65 Q 205.11 77.65 205.45 78.03 Q 205.79 78.41 205.79 79.19 L 205.79 81.46 Q 205.79 81.77 205.86 81.86 Q 205.93 81.95 206.09 81.95 Q 206.23 81.95 206.34 81.88 Q 206.46 81.81 206.56 81.7 L 206.71 81.86 Q 206.46 82.22 206.23 82.39 Q 206.01 82.55 205.63 82.55 Q 205.3 82.55 205.19 82.38 Q 205.08 82.21 205.03 81.88 Z M 204.96 81.58 L 204.96 79.93 Q 204.51 80.04 204.11 80.19 Q 203.71 80.34 203.46 80.58 Q 203.21 80.82 203.21 81.21 Q 203.21 81.58 203.41 81.8 Q 203.61 82.02 203.93 82.02 Q 204.43 82.02 204.96 81.58 Z M 211.56 79.43 L 211.56 81.49 Q 211.56 81.77 211.6 81.93 Q 211.65 82.09 211.81 82.16 Q 211.97 82.22 212.3 82.22 L 212.3 82.5 L 209.99 82.5 L 209.99 82.22 Q 210.35 82.22 210.5 82.16 Q 210.66 82.09 210.69 81.93 Q 210.73 81.77 210.73 81.49 L 210.73 79.68 Q 210.73 79.08 210.59 78.78 Q 210.46 78.48 210.25 78.39 Q 210.04 78.29 209.81 78.29 Q 209.41 78.29 209.12 78.51 Q 208.83 78.72 208.6 78.92 L 208.6 81.49 Q 208.6 81.77 208.64 81.93 Q 208.68 82.09 208.84 82.16 Q 209 82.22 209.36 82.22 L 209.36 82.5 L 207.07 82.5 L 207.07 82.22 Q 207.41 82.22 207.55 82.16 Q 207.7 82.09 207.73 81.93 Q 207.77 81.77 207.77 81.49 L 207.77 78.68 Q 207.77 78.41 207.66 78.33 Q 207.55 78.24 207.35 78.24 Q 207.22 78.24 207.15 78.25 Q 207.08 78.26 207.08 78.26 L 207.08 77.97 L 208.35 77.68 L 208.58 77.68 L 208.57 78.49 L 208.61 78.49 Q 209.02 78.13 209.38 77.89 Q 209.75 77.65 210.22 77.65 Q 210.9 77.65 211.23 78.11 Q 211.56 78.57 211.56 79.43 Z M 212.9 80.86 L 213.16 80.86 Q 213.32 81.63 213.63 81.94 Q 213.94 82.24 214.49 82.24 Q 214.87 82.24 215.11 82.09 Q 215.35 81.93 215.35 81.58 Q 215.35 81.34 215.26 81.18 Q 215.18 81.02 214.94 80.86 Q 214.7 80.69 214.23 80.46 Q 213.55 80.11 213.23 79.79 Q 212.91 79.46 212.91 78.91 Q 212.91 78.29 213.35 77.97 Q 213.8 77.65 214.44 77.65 Q 214.82 77.65 215.06 77.74 Q 215.3 77.82 215.49 77.91 L 215.5 77.91 L 215.67 77.7 L 215.87 77.7 L 215.9 79.23 L 215.63 79.23 Q 215.47 78.52 215.18 78.26 Q 214.89 77.99 214.43 77.99 Q 214.09 77.99 213.85 78.15 Q 213.62 78.31 213.62 78.65 Q 213.62 78.94 213.89 79.17 Q 214.16 79.4 214.79 79.72 Q 215.47 80.08 215.83 80.42 Q 216.19 80.75 216.19 81.31 Q 216.19 81.78 215.96 82.07 Q 215.73 82.35 215.34 82.48 Q 214.96 82.61 214.51 82.61 Q 214.08 82.61 213.82 82.52 Q 213.57 82.43 213.37 82.35 L 213.35 82.35 L 213.14 82.58 L 212.93 82.58 L 212.9 80.86 Z M 219.03 82.22 L 219.03 82.5 L 216.78 82.5 L 216.78 82.22 Q 217.12 82.22 217.26 82.16 Q 217.41 82.09 217.44 81.93 Q 217.48 81.77 217.48 81.49 L 217.48 78.7 Q 217.48 78.38 217.37 78.31 Q 217.26 78.23 217.04 78.23 Q 216.94 78.23 216.86 78.24 Q 216.79 78.25 216.79 78.25 L 216.79 77.96 L 218.05 77.68 L 218.31 77.68 L 218.31 81.49 Q 218.31 81.78 218.35 81.94 Q 218.39 82.1 218.54 82.16 Q 218.7 82.22 219.03 82.22 Z M 217.91 75.77 Q 218.17 75.77 218.32 75.94 Q 218.48 76.1 218.48 76.33 Q 218.48 76.56 218.32 76.73 Q 218.17 76.9 217.91 76.9 Q 217.66 76.9 217.5 76.73 Q 217.34 76.56 217.34 76.33 Q 217.34 76.1 217.49 75.94 Q 217.65 75.77 217.91 75.77 Z M 222.24 81.6 L 222.43 81.76 Q 222.24 82.03 222.07 82.22 Q 221.91 82.4 221.71 82.5 Q 221.51 82.6 221.19 82.6 Q 220.69 82.6 220.46 82.31 Q 220.23 82.01 220.23 81.34 L 220.23 78.24 L 219.68 78.24 L 219.68 78.01 Q 220.03 77.79 220.28 77.42 Q 220.54 77.04 220.81 76.4 L 221.07 76.4 L 221.06 77.82 L 222.19 77.82 L 222.19 78.24 L 221.06 78.24 L 221.06 81.06 Q 221.06 81.59 221.15 81.8 Q 221.25 82.01 221.54 82.01 Q 221.78 82.01 221.91 81.91 Q 222.05 81.81 222.24 81.6 Z M 225.03 82.22 L 225.03 82.5 L 222.78 82.5 L 222.78 82.22 Q 223.12 82.22 223.26 82.16 Q 223.41 82.09 223.44 81.93 Q 223.48 81.77 223.48 81.49 L 223.48 78.7 Q 223.48 78.38 223.37 78.31 Q 223.26 78.23 223.04 78.23 Q 222.94 78.23 222.86 78.24 Q 222.79 78.25 222.79 78.25 L 222.79 77.96 L 224.05 77.68 L 224.31 77.68 L 224.31 81.49 Q 224.31 81.78 224.35 81.94 Q 224.39 82.1 224.54 82.16 Q 224.7 82.22 225.03 82.22 Z M 223.91 75.77 Q 224.17 75.77 224.32 75.94 Q 224.48 76.1 224.48 76.33 Q 224.48 76.56 224.32 76.73 Q 224.17 76.9 223.91 76.9 Q 223.66 76.9 223.5 76.73 Q 223.34 76.56 223.34 76.33 Q 223.34 76.1 223.49 75.94 Q 223.65 75.77 223.91 75.77 Z M 227.89 77.65 Q 228.92 77.65 229.51 78.29 Q 230.11 78.93 230.11 80.04 Q 230.11 80.88 229.82 81.45 Q 229.54 82.02 229.04 82.31 Q 228.54 82.6 227.89 82.6 Q 226.84 82.6 226.24 81.95 Q 225.65 81.29 225.65 80.08 Q 225.65 79.35 225.93 78.81 Q 226.21 78.26 226.71 77.96 Q 227.22 77.65 227.89 77.65 Z M 227.85 78.03 Q 227.28 78.03 226.93 78.51 Q 226.58 78.99 226.58 79.95 Q 226.58 81.14 226.93 81.68 Q 227.29 82.21 227.93 82.2 Q 228.34 82.2 228.62 82.01 Q 228.9 81.82 229.04 81.36 Q 229.19 80.9 229.19 80.09 Q 229.19 79.17 228.85 78.6 Q 228.52 78.03 227.85 78.03 Z M 235.26 79.43 L 235.26 81.49 Q 235.26 81.77 235.3 81.93 Q 235.35 82.09 235.51 82.16 Q 235.67 82.22 236 82.22 L 236 82.5 L 233.69 82.5 L 233.69 82.22 Q 234.05 82.22 234.2 82.16 Q 234.36 82.09 234.39 81.93 Q 234.43 81.77 234.43 81.49 L 234.43 79.68 Q 234.43 79.08 234.29 78.78 Q 234.16 78.48 233.95 78.39 Q 233.74 78.29 233.51 78.29 Q 233.11 78.29 232.82 78.51 Q 232.53 78.72 232.3 78.92 L 232.3 81.49 Q 232.3 81.77 232.34 81.93 Q 232.38 82.09 232.54 82.16 Q 232.7 82.22 233.06 82.22 L 233.06 82.5 L 230.77 82.5 L 230.77 82.22 Q 231.11 82.22 231.25 82.16 Q 231.4 82.09 231.43 81.93 Q 231.47 81.77 231.47 81.49 L 231.47 78.68 Q 231.47 78.41 231.36 78.33 Q 231.25 78.24 231.05 78.24 Q 230.92 78.24 230.85 78.25 Q 230.78 78.26 230.78 78.26 L 230.78 77.97 L 232.05 77.68 L 232.28 77.68 L 232.27 78.49 L 232.31 78.49 Q 232.72 78.13 233.08 77.89 Q 233.45 77.65 233.92 77.65 Q 234.6 77.65 234.93 78.11 Q 235.26 78.57 235.26 79.43 Z M 238.78 82.22 L 238.78 82.5 L 236.53 82.5 L 236.53 82.22 Q 236.87 82.22 237.01 82.16 Q 237.16 82.09 237.19 81.93 Q 237.23 81.77 237.23 81.49 L 237.23 78.7 Q 237.23 78.38 237.12 78.31 Q 237.01 78.23 236.79 78.23 Q 236.69 78.23 236.61 78.24 Q 236.54 78.25 236.54 78.25 L 236.54 77.96 L 237.8 77.68 L 238.06 77.68 L 238.06 81.49 Q 238.06 81.78 238.1 81.94 Q 238.14 82.1 238.29 82.16 Q 238.45 82.22 238.78 82.22 Z M 237.66 75.77 Q 237.92 75.77 238.07 75.94 Q 238.23 76.1 238.23 76.33 Q 238.23 76.56 238.07 76.73 Q 237.92 76.9 237.66 76.9 Q 237.41 76.9 237.25 76.73 Q 237.09 76.56 237.09 76.33 Q 237.09 76.1 237.24 75.94 Q 237.4 75.77 237.66 75.77 Z M 243.87 79.43 L 243.87 81.49 Q 243.87 81.77 243.91 81.93 Q 243.96 82.09 244.12 82.16 Q 244.28 82.22 244.61 82.22 L 244.61 82.5 L 242.3 82.5 L 242.3 82.22 Q 242.66 82.22 242.81 82.16 Q 242.97 82.09 243 81.93 Q 243.04 81.77 243.04 81.49 L 243.04 79.68 Q 243.04 79.08 242.9 78.78 Q 242.77 78.48 242.56 78.39 Q 242.35 78.29 242.12 78.29 Q 241.72 78.29 241.43 78.51 Q 241.14 78.72 240.91 78.92 L 240.91 81.49 Q 240.91 81.77 240.95 81.93 Q 240.99 82.09 241.15 82.16 Q 241.31 82.22 241.67 82.22 L 241.67 82.5 L 239.38 82.5 L 239.38 82.22 Q 239.72 82.22 239.86 82.16 Q 240.01 82.09 240.04 81.93 Q 240.08 81.77 240.08 81.49 L 240.08 78.68 Q 240.08 78.41 239.97 78.33 Q 239.86 78.24 239.66 78.24 Q 239.53 78.24 239.46 78.25 Q 239.39 78.26 239.39 78.26 L 239.39 77.97 L 240.66 77.68 L 240.89 77.68 L 240.88 78.49 L 240.92 78.49 Q 241.33 78.13 241.69 77.89 Q 242.06 77.65 242.53 77.65 Q 243.21 77.65 243.54 78.11 Q 243.87 78.57 243.87 79.43 Z M 246.1 80.66 L 246.1 80.64 Q 245.74 80.43 245.53 80.1 Q 245.33 79.77 245.33 79.28 Q 245.33 78.53 245.84 78.09 Q 246.35 77.65 247.14 77.65 Q 247.47 77.65 247.72 77.71 Q 247.97 77.77 248.11 77.84 Q 248.25 77.9 248.25 77.9 L 249.54 77.83 L 249.54 78.37 L 248.6 78.34 L 248.6 78.39 Q 248.71 78.54 248.83 78.79 Q 248.96 79.04 248.96 79.42 Q 248.96 80.12 248.47 80.53 Q 247.98 80.94 247.19 80.94 Q 246.95 80.94 246.74 80.9 Q 246.53 80.86 246.33 80.79 Q 246.26 80.89 246.16 81.11 Q 246.07 81.33 246.07 81.46 Q 246.07 81.68 246.31 81.77 Q 246.56 81.86 247.25 81.86 Q 247.88 81.86 248.38 81.92 Q 248.89 81.98 249.18 82.23 Q 249.47 82.48 249.47 83.05 Q 249.47 83.55 249.22 83.89 Q 248.98 84.24 248.57 84.45 Q 248.17 84.66 247.68 84.75 Q 247.2 84.85 246.73 84.85 Q 246.08 84.85 245.7 84.69 Q 245.33 84.53 245.18 84.27 Q 245.03 84.02 245.03 83.75 Q 245.03 83.5 245.23 83.22 Q 245.44 82.95 245.84 82.56 L 245.84 82.52 Q 245.59 82.39 245.43 82.2 Q 245.28 82.01 245.28 81.8 Q 245.28 81.53 245.51 81.23 Q 245.75 80.93 246.1 80.66 Z M 246.09 82.6 Q 245.93 82.88 245.87 83.06 Q 245.81 83.25 245.81 83.41 Q 245.81 84.28 247.31 84.28 Q 247.9 84.28 248.26 84.13 Q 248.63 83.98 248.79 83.76 Q 248.96 83.54 248.96 83.33 Q 248.96 83.07 248.8 82.92 Q 248.64 82.78 248.38 82.72 Q 248.13 82.66 247.84 82.64 Q 247.56 82.62 247.31 82.62 Q 247.25 82.62 247.22 82.62 Q 246.82 82.61 246.6 82.61 Q 246.38 82.61 246.27 82.6 Q 246.16 82.6 246.09 82.6 Z M 247.07 78.01 Q 246.68 78.01 246.44 78.31 Q 246.21 78.61 246.21 79.24 Q 246.21 79.88 246.46 80.24 Q 246.71 80.59 247.2 80.59 Q 247.58 80.59 247.82 80.33 Q 248.07 80.07 248.07 79.36 Q 248.07 78.75 247.81 78.38 Q 247.55 78.01 247.07 78.01 Z" fill="currentColor"/></g><g data-sirentide-role="edge" data-sirentide-id="D-S" data-sirentide-seq="3"><line x1="262" y1="60" x2="198.321" y2="102.453" stroke="#94a3b8" stroke-width="1.5"/><path d="M 190 108 L 196.379 99.541 L 200.262 105.365 Z" fill="#94a3b8"/><path d="M 177.08 154.91 L 177.08 155.94 L 177.11 155.94 Q 177.49 155.38 177.76 155.12 Q 178.04 154.85 178.4 154.85 Q 178.69 154.85 178.83 155 Q 178.98 155.15 178.98 155.41 Q 178.98 155.69 178.84 155.82 Q 178.71 155.95 178.54 155.95 Q 178.38 155.95 178.25 155.87 Q 178.13 155.78 178.04 155.7 Q 177.95 155.61 177.89 155.61 Q 177.72 155.61 177.5 155.87 Q 177.28 156.13 177.1 156.43 L 177.1 158.71 Q 177.1 159.02 177.18 159.18 Q 177.26 159.34 177.46 159.39 Q 177.67 159.44 178.04 159.44 L 178.04 159.73 L 175.54 159.73 L 175.54 159.44 Q 175.87 159.44 176.02 159.39 Q 176.18 159.33 176.22 159.19 Q 176.27 159.04 176.27 158.76 L 176.27 156.01 Q 176.27 155.74 176.22 155.61 Q 176.18 155.47 175.91 155.47 Q 175.76 155.47 175.68 155.48 Q 175.6 155.49 175.6 155.49 L 175.6 155.21 L 176.84 154.91 L 177.08 154.91 Z M 183.2 158.3 L 183.39 158.44 Q 183.21 158.82 182.97 159.14 Q 182.73 159.45 182.38 159.64 Q 182.04 159.83 181.52 159.83 Q 180.92 159.83 180.43 159.55 Q 179.95 159.26 179.67 158.71 Q 179.39 158.15 179.39 157.35 Q 179.39 156.51 179.67 155.97 Q 179.96 155.42 180.44 155.15 Q 180.92 154.88 181.5 154.88 Q 182.32 154.88 182.82 155.45 Q 183.32 156.02 183.36 157.07 L 180.2 157.07 Q 180.2 157.76 180.42 158.21 Q 180.65 158.65 181 158.87 Q 181.36 159.08 181.76 159.08 Q 182.17 159.08 182.42 158.97 Q 182.68 158.86 182.86 158.69 Q 183.04 158.51 183.2 158.3 Z M 180.19 156.7 L 182.42 156.7 Q 182.41 156.33 182.29 156.01 Q 182.17 155.68 181.94 155.48 Q 181.71 155.28 181.35 155.28 Q 180.31 155.28 180.19 156.7 Z M 186.77 159.11 L 186.73 159.11 Q 186.38 159.42 186.06 159.61 Q 185.74 159.8 185.26 159.8 Q 184.68 159.8 184.37 159.48 Q 184.07 159.16 184.07 158.68 Q 184.07 158.28 184.25 158.01 Q 184.44 157.73 184.74 157.54 Q 185.05 157.35 185.4 157.22 Q 185.76 157.09 186.1 157 Q 186.44 156.91 186.7 156.83 L 186.7 156.39 Q 186.7 155.74 186.47 155.47 Q 186.25 155.19 185.8 155.19 Q 185.37 155.19 185.25 155.37 Q 185.13 155.55 185.13 156 Q 185.13 156.46 184.69 156.46 Q 184.54 156.46 184.4 156.35 Q 184.27 156.23 184.27 155.98 Q 184.27 155.7 184.48 155.45 Q 184.7 155.2 185.09 155.04 Q 185.49 154.88 186.03 154.88 Q 186.85 154.88 187.19 155.26 Q 187.53 155.64 187.53 156.42 L 187.53 158.69 Q 187.53 159 187.6 159.09 Q 187.67 159.18 187.83 159.18 Q 187.97 159.18 188.08 159.11 Q 188.2 159.04 188.3 158.93 L 188.45 159.09 Q 188.2 159.45 187.97 159.62 Q 187.75 159.78 187.37 159.78 Q 187.04 159.78 186.93 159.61 Q 186.82 159.44 186.77 159.11 Z M 186.7 158.81 L 186.7 157.16 Q 186.25 157.27 185.85 157.42 Q 185.45 157.57 185.2 157.81 Q 184.95 158.05 184.95 158.44 Q 184.95 158.81 185.15 159.03 Q 185.35 159.25 185.67 159.25 Q 186.17 159.25 186.7 158.81 Z M 192.57 158.25 L 192.76 158.39 Q 192.57 158.79 192.32 159.12 Q 192.08 159.45 191.72 159.64 Q 191.36 159.83 190.82 159.83 Q 190.2 159.83 189.75 159.53 Q 189.3 159.23 189.06 158.7 Q 188.82 158.16 188.82 157.47 Q 188.82 156.29 189.41 155.59 Q 190 154.88 191.08 154.88 Q 191.79 154.88 192.19 155.19 Q 192.6 155.5 192.6 155.94 Q 192.6 156.39 192.18 156.39 Q 191.96 156.39 191.84 156.28 Q 191.73 156.16 191.66 155.99 Q 191.59 155.82 191.51 155.65 Q 191.44 155.48 191.3 155.37 Q 191.17 155.25 190.91 155.25 Q 190.3 155.25 189.95 155.7 Q 189.61 156.14 189.61 157 Q 189.61 157.91 189.98 158.5 Q 190.36 159.08 191.13 159.08 Q 191.62 159.08 191.92 158.88 Q 192.23 158.68 192.57 158.25 Z M 195.88 158.83 L 196.07 158.99 Q 195.88 159.26 195.71 159.45 Q 195.55 159.63 195.35 159.73 Q 195.15 159.83 194.83 159.83 Q 194.33 159.83 194.1 159.54 Q 193.87 159.24 193.87 158.57 L 193.87 155.47 L 193.32 155.47 L 193.32 155.24 Q 193.67 155.02 193.92 154.65 Q 194.18 154.27 194.45 153.63 L 194.71 153.63 L 194.7 155.05 L 195.83 155.05 L 195.83 155.47 L 194.7 155.47 L 194.7 158.29 Q 194.7 158.82 194.79 159.03 Q 194.89 159.24 195.18 159.24 Q 195.42 159.24 195.55 159.14 Q 195.69 159.04 195.88 158.83 Z M 198.67 159.45 L 198.67 159.73 L 196.42 159.73 L 196.42 159.45 Q 196.76 159.45 196.9 159.39 Q 197.05 159.32 197.08 159.16 Q 197.12 159 197.12 158.72 L 197.12 155.93 Q 197.12 155.61 197.01 155.54 Q 196.9 155.46 196.68 155.46 Q 196.58 155.46 196.5 155.47 Q 196.43 155.48 196.43 155.48 L 196.43 155.19 L 197.69 154.91 L 197.95 154.91 L 197.95 158.72 Q 197.95 159.01 197.99 159.17 Q 198.03 159.33 198.18 159.39 Q 198.34 159.45 198.67 159.45 Z M 197.55 153 Q 197.81 153 197.96 153.17 Q 198.12 153.33 198.12 153.56 Q 198.12 153.79 197.96 153.96 Q 197.81 154.13 197.55 154.13 Q 197.3 154.13 197.14 153.96 Q 196.98 153.79 196.98 153.56 Q 196.98 153.33 197.13 153.17 Q 197.29 153 197.55 153 Z M 203.93 155 L 203.93 155.29 Q 203.64 155.29 203.48 155.43 Q 203.33 155.56 203.18 155.95 L 201.6 159.79 L 201.12 159.79 L 199.63 156.02 Q 199.5 155.71 199.4 155.56 Q 199.3 155.4 199.17 155.35 Q 199.04 155.29 198.82 155.29 L 198.82 155 L 200.93 155 L 200.93 155.29 Q 200.64 155.29 200.52 155.36 Q 200.41 155.42 200.41 155.54 Q 200.41 155.64 200.44 155.73 Q 200.47 155.82 200.51 155.93 L 201.36 158.16 L 201.55 158.76 L 201.61 158.76 L 201.82 158.15 L 202.68 155.89 Q 202.69 155.85 202.72 155.77 Q 202.75 155.68 202.75 155.56 Q 202.75 155.39 202.6 155.34 Q 202.45 155.29 202.18 155.29 L 202.18 155 L 203.93 155 Z M 206.84 159.11 L 206.8 159.11 Q 206.45 159.42 206.13 159.61 Q 205.81 159.8 205.33 159.8 Q 204.75 159.8 204.44 159.48 Q 204.14 159.16 204.14 158.68 Q 204.14 158.28 204.32 158.01 Q 204.51 157.73 204.81 157.54 Q 205.12 157.35 205.47 157.22 Q 205.83 157.09 206.17 157 Q 206.51 156.91 206.77 156.83 L 206.77 156.39 Q 206.77 155.74 206.54 155.47 Q 206.32 155.19 205.87 155.19 Q 205.44 155.19 205.32 155.37 Q 205.2 155.55 205.2 156 Q 205.2 156.46 204.76 156.46 Q 204.61 156.46 204.47 156.35 Q 204.34 156.23 204.34 155.98 Q 204.34 155.7 204.55 155.45 Q 204.77 155.2 205.16 155.04 Q 205.56 154.88 206.1 154.88 Q 206.92 154.88 207.26 155.26 Q 207.6 155.64 207.6 156.42 L 207.6 158.69 Q 207.6 159 207.67 159.09 Q 207.74 159.18 207.9 159.18 Q 208.04 159.18 208.15 159.11 Q 208.27 159.04 208.37 158.93 L 208.52 159.09 Q 208.27 159.45 208.04 159.62 Q 207.82 159.78 207.44 159.78 Q 207.11 159.78 207 159.61 Q 206.89 159.44 206.84 159.11 Z M 206.77 158.81 L 206.77 157.16 Q 206.32 157.27 205.92 157.42 Q 205.52 157.57 205.27 157.81 Q 205.02 158.05 205.02 158.44 Q 205.02 158.81 205.22 159.03 Q 205.42 159.25 205.74 159.25 Q 206.24 159.25 206.77 158.81 Z M 211.49 158.83 L 211.68 158.99 Q 211.49 159.26 211.32 159.45 Q 211.16 159.63 210.96 159.73 Q 210.76 159.83 210.44 159.83 Q 209.94 159.83 209.71 159.54 Q 209.48 159.24 209.48 158.57 L 209.48 155.47 L 208.93 155.47 L 208.93 155.24 Q 209.28 155.02 209.53 154.65 Q 209.79 154.27 210.06 153.63 L 210.32 153.63 L 210.31 155.05 L 211.44 155.05 L 211.44 155.47 L 210.31 155.47 L 210.31 158.29 Q 210.31 158.82 210.4 159.03 Q 210.5 159.24 210.79 159.24 Q 211.03 159.24 211.16 159.14 Q 211.3 159.04 211.49 158.83 Z M 214.28 159.45 L 214.28 159.73 L 212.03 159.73 L 212.03 159.45 Q 212.37 159.45 212.51 159.39 Q 212.66 159.32 212.69 159.16 Q 212.73 159 212.73 158.72 L 212.73 155.93 Q 212.73 155.61 212.62 155.54 Q 212.51 155.46 212.29 155.46 Q 212.19 155.46 212.11 155.47 Q 212.04 155.48 212.04 155.48 L 212.04 155.19 L 213.3 154.91 L 213.56 154.91 L 213.56 158.72 Q 213.56 159.01 213.6 159.17 Q 213.64 159.33 213.79 159.39 Q 213.95 159.45 214.28 159.45 Z M 213.16 153 Q 213.42 153 213.57 153.17 Q 213.73 153.33 213.73 153.56 Q 213.73 153.79 213.57 153.96 Q 213.42 154.13 213.16 154.13 Q 212.91 154.13 212.75 153.96 Q 212.59 153.79 212.59 153.56 Q 212.59 153.33 212.74 153.17 Q 212.9 153 213.16 153 Z M 219.37 156.66 L 219.37 158.72 Q 219.37 159 219.41 159.16 Q 219.46 159.32 219.62 159.39 Q 219.78 159.45 220.11 159.45 L 220.11 159.73 L 217.8 159.73 L 217.8 159.45 Q 218.16 159.45 218.31 159.39 Q 218.47 159.32 218.5 159.16 Q 218.54 159 218.54 158.72 L 218.54 156.91 Q 218.54 156.31 218.4 156.01 Q 218.27 155.71 218.06 155.62 Q 217.85 155.52 217.62 155.52 Q 217.22 155.52 216.93 155.74 Q 216.64 155.95 216.41 156.15 L 216.41 158.72 Q 216.41 159 216.45 159.16 Q 216.49 159.32 216.65 159.39 Q 216.81 159.45 217.17 159.45 L 217.17 159.73 L 214.88 159.73 L 214.88 159.45 Q 215.22 159.45 215.36 159.39 Q 215.51 159.32 215.54 159.16 Q 215.58 159 215.58 158.72 L 215.58 155.91 Q 215.58 155.64 215.47 155.56 Q 215.36 155.47 215.16 155.47 Q 215.03 155.47 214.96 155.48 Q 214.89 155.49 214.89 155.49 L 214.89 155.2 L 216.16 154.91 L 216.39 154.91 L 216.38 155.72 L 216.42 155.72 Q 216.83 155.36 217.19 155.12 Q 217.56 154.88 218.03 154.88 Q 218.71 154.88 219.04 155.34 Q 219.37 155.8 219.37 156.66 Z M 221.6 157.89 L 221.6 157.87 Q 221.24 157.66 221.03 157.33 Q 220.83 157 220.83 156.51 Q 220.83 155.76 221.34 155.32 Q 221.85 154.88 222.64 154.88 Q 222.97 154.88 223.22 154.94 Q 223.47 155 223.61 155.07 Q 223.75 155.13 223.75 155.13 L 225.04 155.06 L 225.04 155.6 L 224.1 155.57 L 224.1 155.62 Q 224.21 155.77 224.33 156.02 Q 224.46 156.27 224.46 156.65 Q 224.46 157.35 223.97 157.76 Q 223.48 158.17 222.69 158.17 Q 222.45 158.17 222.24 158.13 Q 222.03 158.09 221.83 158.02 Q 221.76 158.12 221.66 158.34 Q 221.57 158.56 221.57 158.69 Q 221.57 158.91 221.81 159 Q 222.06 159.09 222.75 159.09 Q 223.38 159.09 223.88 159.15 Q 224.39 159.21 224.68 159.46 Q 224.97 159.71 224.97 160.28 Q 224.97 160.78 224.72 161.12 Q 224.48 161.47 224.07 161.68 Q 223.67 161.89 223.18 161.98 Q 222.7 162.08 222.23 162.08 Q 221.58 162.08 221.2 161.92 Q 220.83 161.76 220.68 161.5 Q 220.53 161.25 220.53 160.98 Q 220.53 160.73 220.73 160.45 Q 220.94 160.18 221.34 159.79 L 221.34 159.75 Q 221.09 159.62 220.93 159.43 Q 220.78 159.24 220.78 159.03 Q 220.78 158.76 221.01 158.46 Q 221.25 158.16 221.6 157.89 Z M 221.59 159.83 Q 221.43 160.11 221.37 160.29 Q 221.31 160.48 221.31 160.64 Q 221.31 161.51 222.81 161.51 Q 223.4 161.51 223.76 161.36 Q 224.13 161.21 224.29 160.99 Q 224.46 160.77 224.46 160.56 Q 224.46 160.3 224.3 160.15 Q 224.14 160.01 223.88 159.95 Q 223.63 159.89 223.34 159.87 Q 223.06 159.85 222.81 159.85 Q 222.75 159.85 222.72 159.85 Q 222.32 159.84 222.1 159.84 Q 221.88 159.84 221.77 159.83 Q 221.66 159.83 221.59 159.83 Z M 222.57 155.24 Q 222.18 155.24 221.94 155.54 Q 221.71 155.84 221.71 156.47 Q 221.71 157.11 221.96 157.47 Q 222.21 157.82 222.7 157.82 Q 223.08 157.82 223.32 157.56 Q 223.57 157.3 223.57 156.59 Q 223.57 155.98 223.31 155.61 Q 223.05 155.24 222.57 155.24 Z" fill="currentColor"/></g><g data-sirentide-role="edge" data-sirentide-id="E-S" data-sirentide-seq="4"><line x1="334" y1="60" x2="199.487" y2="104.838" stroke="#94a3b8" stroke-width="1.5"/><path d="M 190 108 L 198.38 101.517 L 200.594 108.158 Z" fill="#94a3b8"/><path d="M 203.73 175.74 L 202.45 175.97 L 202.22 175.97 L 202.22 175.28 L 202.18 175.28 Q 201.9 175.53 201.51 175.77 Q 201.13 176 200.63 176 Q 200.07 176 199.68 175.7 Q 199.3 175.4 199.11 174.89 Q 198.92 174.37 198.92 173.73 Q 198.92 172.9 199.23 172.31 Q 199.54 171.71 200.06 171.39 Q 200.59 171.07 201.22 171.07 Q 201.47 171.07 201.71 171.13 Q 201.96 171.18 202.19 171.31 L 202.19 170 Q 202.19 169.67 202.11 169.57 Q 202.04 169.47 201.75 169.47 Q 201.68 169.47 201.58 169.48 Q 201.49 169.49 201.49 169.49 L 201.49 169.21 L 202.75 168.86 L 203.02 168.86 L 203.02 174.85 Q 203.02 175.24 203.13 175.36 Q 203.24 175.47 203.52 175.47 L 203.73 175.47 L 203.73 175.74 Z M 202.19 174.91 L 202.19 172.27 Q 202.13 171.96 201.9 171.72 Q 201.67 171.47 201.2 171.47 Q 200.57 171.47 200.18 171.93 Q 199.79 172.39 199.79 173.34 Q 199.79 174.37 200.12 174.83 Q 200.46 175.28 201.1 175.28 Q 201.45 175.28 201.69 175.19 Q 201.93 175.09 202.19 174.91 Z M 208.13 174.49 L 208.32 174.63 Q 208.14 175.01 207.9 175.33 Q 207.66 175.64 207.31 175.83 Q 206.97 176.02 206.45 176.02 Q 205.85 176.02 205.36 175.74 Q 204.88 175.45 204.6 174.9 Q 204.32 174.34 204.32 173.54 Q 204.32 172.7 204.6 172.16 Q 204.89 171.61 205.37 171.34 Q 205.85 171.07 206.43 171.07 Q 207.25 171.07 207.75 171.64 Q 208.25 172.21 208.29 173.26 L 205.13 173.26 Q 205.13 173.95 205.35 174.4 Q 205.58 174.84 205.93 175.06 Q 206.29 175.27 206.69 175.27 Q 207.1 175.27 207.35 175.16 Q 207.61 175.05 207.79 174.88 Q 207.97 174.7 208.13 174.49 Z M 205.12 172.89 L 207.35 172.89 Q 207.34 172.52 207.22 172.2 Q 207.1 171.87 206.87 171.67 Q 206.64 171.47 206.28 171.47 Q 205.24 171.47 205.12 172.89 Z M 210.38 171.1 L 210.38 171.94 L 210.41 171.94 Q 210.77 171.52 211.14 171.3 Q 211.52 171.07 211.96 171.07 Q 212.46 171.07 212.83 171.36 Q 213.21 171.64 213.42 172.15 Q 213.64 172.65 213.64 173.31 Q 213.64 174.16 213.34 174.77 Q 213.05 175.37 212.55 175.7 Q 212.05 176.02 211.45 176.02 Q 211.17 176.02 210.91 175.95 Q 210.66 175.89 210.44 175.74 L 210.4 175.74 L 210.4 177.05 Q 210.4 177.37 210.48 177.54 Q 210.56 177.71 210.77 177.77 Q 210.98 177.83 211.37 177.83 L 211.37 178.12 L 208.84 178.12 L 208.84 177.84 Q 209.31 177.84 209.44 177.68 Q 209.57 177.53 209.57 177.11 L 209.57 172.16 Q 209.57 171.87 209.5 171.76 Q 209.44 171.65 209.19 171.65 Q 209.09 171.65 208.98 171.66 Q 208.87 171.67 208.87 171.67 L 208.87 171.38 L 210.13 171.1 L 210.38 171.1 Z M 210.4 172.36 L 210.4 174.97 Q 210.5 175.07 210.65 175.23 Q 210.8 175.39 211.01 175.51 Q 211.22 175.63 211.5 175.63 Q 212.03 175.63 212.38 175.13 Q 212.73 174.63 212.73 173.59 Q 212.73 172.64 212.42 172.2 Q 212.11 171.75 211.55 171.75 Q 211.15 171.75 210.84 171.96 Q 210.54 172.17 210.4 172.36 Z M 215.82 171.1 L 215.82 172.13 L 215.85 172.13 Q 216.23 171.57 216.5 171.31 Q 216.78 171.04 217.14 171.04 Q 217.43 171.04 217.57 171.19 Q 217.72 171.34 217.72 171.6 Q 217.72 171.88 217.58 172.01 Q 217.45 172.14 217.28 172.14 Q 217.12 172.14 216.99 172.06 Q 216.87 171.97 216.78 171.89 Q 216.69 171.8 216.63 171.8 Q 216.46 171.8 216.24 172.06 Q 216.02 172.32 215.84 172.62 L 215.84 174.9 Q 215.84 175.21 215.92 175.37 Q 216 175.53 216.2 175.58 Q 216.41 175.63 216.78 175.63 L 216.78 175.92 L 214.28 175.92 L 214.28 175.63 Q 214.61 175.63 214.76 175.58 Q 214.92 175.52 214.96 175.38 Q 215.01 175.23 215.01 174.95 L 215.01 172.2 Q 215.01 171.93 214.96 171.8 Q 214.92 171.66 214.65 171.66 Q 214.5 171.66 214.42 171.67 Q 214.34 171.68 214.34 171.68 L 214.34 171.4 L 215.58 171.1 L 215.82 171.1 Z M 220.37 171.07 Q 221.4 171.07 221.99 171.71 Q 222.59 172.35 222.59 173.46 Q 222.59 174.3 222.3 174.87 Q 222.02 175.44 221.52 175.73 Q 221.02 176.02 220.37 176.02 Q 219.32 176.02 218.72 175.37 Q 218.13 174.71 218.13 173.5 Q 218.13 172.77 218.41 172.23 Q 218.69 171.68 219.19 171.38 Q 219.7 171.07 220.37 171.07 Z M 220.33 171.45 Q 219.76 171.45 219.41 171.93 Q 219.06 172.41 219.06 173.37 Q 219.06 174.56 219.41 175.1 Q 219.77 175.63 220.41 175.62 Q 220.82 175.62 221.1 175.43 Q 221.38 175.24 221.52 174.78 Q 221.67 174.32 221.67 173.51 Q 221.67 172.59 221.33 172.02 Q 221 171.45 220.33 171.45 Z M 227.91 171.19 L 227.91 171.48 Q 227.62 171.48 227.46 171.62 Q 227.31 171.75 227.16 172.14 L 225.58 175.98 L 225.1 175.98 L 223.61 172.21 Q 223.48 171.9 223.38 171.75 Q 223.28 171.59 223.15 171.54 Q 223.02 171.48 222.8 171.48 L 222.8 171.19 L 224.91 171.19 L 224.91 171.48 Q 224.62 171.48 224.5 171.55 Q 224.39 171.61 224.39 171.73 Q 224.39 171.83 224.42 171.92 Q 224.45 172.01 224.49 172.12 L 225.34 174.35 L 225.53 174.95 L 225.59 174.95 L 225.8 174.34 L 226.66 172.08 Q 226.67 172.04 226.7 171.96 Q 226.73 171.87 226.73 171.75 Q 226.73 171.58 226.58 171.53 Q 226.43 171.48 226.16 171.48 L 226.16 171.19 L 227.91 171.19 Z M 230.31 175.64 L 230.31 175.92 L 228.06 175.92 L 228.06 175.64 Q 228.4 175.64 228.54 175.58 Q 228.69 175.51 228.72 175.35 Q 228.76 175.19 228.76 174.91 L 228.76 172.12 Q 228.76 171.8 228.65 171.73 Q 228.54 171.65 228.32 171.65 Q 228.22 171.65 228.14 171.66 Q 228.07 171.67 228.07 171.67 L 228.07 171.38 L 229.33 171.1 L 229.59 171.1 L 229.59 174.91 Q 229.59 175.2 229.63 175.36 Q 229.67 175.52 229.82 175.58 Q 229.98 175.64 230.31 175.64 Z M 229.19 169.19 Q 229.45 169.19 229.6 169.36 Q 229.76 169.52 229.76 169.75 Q 229.76 169.98 229.6 170.15 Q 229.45 170.32 229.19 170.32 Q 228.94 170.32 228.78 170.15 Q 228.62 169.98 228.62 169.75 Q 228.62 169.52 228.77 169.36 Q 228.93 169.19 229.19 169.19 Z M 230.98 174.28 L 231.24 174.28 Q 231.4 175.05 231.71 175.36 Q 232.02 175.66 232.57 175.66 Q 232.95 175.66 233.19 175.51 Q 233.43 175.35 233.43 175 Q 233.43 174.76 233.34 174.6 Q 233.26 174.44 233.02 174.28 Q 232.78 174.11 232.31 173.88 Q 231.63 173.53 231.31 173.21 Q 230.99 172.88 230.99 172.33 Q 230.99 171.71 231.43 171.39 Q 231.88 171.07 232.52 171.07 Q 232.9 171.07 233.14 171.16 Q 233.38 171.24 233.57 171.33 L 233.58 171.33 L 233.75 171.12 L 233.95 171.12 L 233.98 172.65 L 233.71 172.65 Q 233.55 171.94 233.26 171.68 Q 232.97 171.41 232.51 171.41 Q 232.17 171.41 231.93 171.57 Q 231.7 171.73 231.7 172.07 Q 231.7 172.36 231.97 172.59 Q 232.24 172.82 232.87 173.14 Q 233.55 173.5 233.91 173.84 Q 234.27 174.17 234.27 174.73 Q 234.27 175.2 234.04 175.49 Q 233.81 175.77 233.42 175.9 Q 233.04 176.03 232.59 176.03 Q 232.16 176.03 231.9 175.94 Q 231.65 175.85 231.45 175.77 L 231.43 175.77 L 231.22 176 L 231.01 176 L 230.98 174.28 Z M 237.11 175.64 L 237.11 175.92 L 234.86 175.92 L 234.86 175.64 Q 235.2 175.64 235.34 175.58 Q 235.49 175.51 235.52 175.35 Q 235.56 175.19 235.56 174.91 L 235.56 172.12 Q 235.56 171.8 235.45 171.73 Q 235.34 171.65 235.12 171.65 Q 235.02 171.65 234.94 171.66 Q 234.87 171.67 234.87 171.67 L 234.87 171.38 L 236.13 171.1 L 236.39 171.1 L 236.39 174.91 Q 236.39 175.2 236.43 175.36 Q 236.47 175.52 236.62 175.58 Q 236.78 175.64 237.11 175.64 Z M 235.99 169.19 Q 236.25 169.19 236.4 169.36 Q 236.56 169.52 236.56 169.75 Q 236.56 169.98 236.4 170.15 Q 236.25 170.32 235.99 170.32 Q 235.74 170.32 235.58 170.15 Q 235.42 169.98 235.42 169.75 Q 235.42 169.52 235.57 169.36 Q 235.73 169.19 235.99 169.19 Z M 239.97 171.07 Q 241 171.07 241.59 171.71 Q 242.19 172.35 242.19 173.46 Q 242.19 174.3 241.9 174.87 Q 241.62 175.44 241.12 175.73 Q 240.62 176.02 239.97 176.02 Q 238.92 176.02 238.32 175.37 Q 237.73 174.71 237.73 173.5 Q 237.73 172.77 238.01 172.23 Q 238.29 171.68 238.79 171.38 Q 239.3 171.07 239.97 171.07 Z M 239.93 171.45 Q 239.36 171.45 239.01 171.93 Q 238.66 172.41 238.66 173.37 Q 238.66 174.56 239.01 175.1 Q 239.37 175.63 240.01 175.62 Q 240.42 175.62 240.7 175.43 Q 240.98 175.24 241.12 174.78 Q 241.27 174.32 241.27 173.51 Q 241.27 172.59 240.93 172.02 Q 240.6 171.45 239.93 171.45 Z M 247.34 172.85 L 247.34 174.91 Q 247.34 175.19 247.38 175.35 Q 247.43 175.51 247.59 175.58 Q 247.75 175.64 248.08 175.64 L 248.08 175.92 L 245.77 175.92 L 245.77 175.64 Q 246.13 175.64 246.28 175.58 Q 246.44 175.51 246.47 175.35 Q 246.51 175.19 246.51 174.91 L 246.51 173.1 Q 246.51 172.5 246.37 172.2 Q 246.24 171.9 246.03 171.81 Q 245.82 171.71 245.59 171.71 Q 245.19 171.71 244.9 171.93 Q 244.61 172.14 244.38 172.34 L 244.38 174.91 Q 244.38 175.19 244.42 175.35 Q 244.46 175.51 244.62 175.58 Q 244.78 175.64 245.14 175.64 L 245.14 175.92 L 242.85 175.92 L 242.85 175.64 Q 243.19 175.64 243.33 175.58 Q 243.48 175.51 243.51 175.35 Q 243.55 175.19 243.55 174.91 L 243.55 172.1 Q 243.55 171.83 243.44 171.75 Q 243.33 171.66 243.13 171.66 Q 243 171.66 242.93 171.67 Q 242.86 171.68 242.86 171.68 L 242.86 171.39 L 244.13 171.1 L 244.36 171.1 L 244.35 171.91 L 244.39 171.91 Q 244.8 171.55 245.16 171.31 Q 245.53 171.07 246 171.07 Q 246.68 171.07 247.01 171.53 Q 247.34 171.99 247.34 172.85 Z M 250.86 175.64 L 250.86 175.92 L 248.61 175.92 L 248.61 175.64 Q 248.95 175.64 249.09 175.58 Q 249.24 175.51 249.27 175.35 Q 249.31 175.19 249.31 174.91 L 249.31 172.12 Q 249.31 171.8 249.2 171.73 Q 249.09 171.65 248.87 171.65 Q 248.77 171.65 248.69 171.66 Q 248.62 171.67 248.62 171.67 L 248.62 171.38 L 249.88 171.1 L 250.14 171.1 L 250.14 174.91 Q 250.14 175.2 250.18 175.36 Q 250.22 175.52 250.37 175.58 Q 250.53 175.64 250.86 175.64 Z M 249.74 169.19 Q 250 169.19 250.15 169.36 Q 250.31 169.52 250.31 169.75 Q 250.31 169.98 250.15 170.15 Q 250 170.32 249.74 170.32 Q 249.49 170.32 249.33 170.15 Q 249.17 169.98 249.17 169.75 Q 249.17 169.52 249.32 169.36 Q 249.48 169.19 249.74 169.19 Z M 255.95 172.85 L 255.95 174.91 Q 255.95 175.19 255.99 175.35 Q 256.04 175.51 256.2 175.58 Q 256.36 175.64 256.69 175.64 L 256.69 175.92 L 254.38 175.92 L 254.38 175.64 Q 254.74 175.64 254.89 175.58 Q 255.05 175.51 255.08 175.35 Q 255.12 175.19 255.12 174.91 L 255.12 173.1 Q 255.12 172.5 254.98 172.2 Q 254.85 171.9 254.64 171.81 Q 254.43 171.71 254.2 171.71 Q 253.8 171.71 253.51 171.93 Q 253.22 172.14 252.99 172.34 L 252.99 174.91 Q 252.99 175.19 253.03 175.35 Q 253.07 175.51 253.23 175.58 Q 253.39 175.64 253.75 175.64 L 253.75 175.92 L 251.46 175.92 L 251.46 175.64 Q 251.8 175.64 251.94 175.58 Q 252.09 175.51 252.12 175.35 Q 252.16 175.19 252.16 174.91 L 252.16 172.1 Q 252.16 171.83 252.05 171.75 Q 251.94 171.66 251.74 171.66 Q 251.61 171.66 251.54 171.67 Q 251.47 171.68 251.47 171.68 L 251.47 171.39 L 252.74 171.1 L 252.97 171.1 L 252.96 171.91 L 253 171.91 Q 253.41 171.55 253.77 171.31 Q 254.14 171.07 254.61 171.07 Q 255.29 171.07 255.62 171.53 Q 255.95 171.99 255.95 172.85 Z M 258.18 174.08 L 258.18 174.06 Q 257.82 173.85 257.61 173.52 Q 257.41 173.19 257.41 172.7 Q 257.41 171.95 257.92 171.51 Q 258.43 171.07 259.22 171.07 Q 259.55 171.07 259.8 171.13 Q 260.05 171.19 260.19 171.26 Q 260.33 171.32 260.33 171.32 L 261.62 171.25 L 261.62 171.79 L 260.68 171.76 L 260.68 171.81 Q 260.79 171.96 260.91 172.21 Q 261.04 172.46 261.04 172.84 Q 261.04 173.54 260.55 173.95 Q 260.06 174.36 259.27 174.36 Q 259.03 174.36 258.82 174.32 Q 258.61 174.28 258.41 174.21 Q 258.34 174.31 258.24 174.53 Q 258.15 174.75 258.15 174.88 Q 258.15 175.1 258.39 175.19 Q 258.64 175.28 259.33 175.28 Q 259.96 175.28 260.46 175.34 Q 260.97 175.4 261.26 175.65 Q 261.55 175.9 261.55 176.47 Q 261.55 176.97 261.3 177.31 Q 261.06 177.66 260.65 177.87 Q 260.25 178.08 259.76 178.17 Q 259.28 178.27 258.81 178.27 Q 258.16 178.27 257.78 178.11 Q 257.41 177.95 257.26 177.69 Q 257.11 177.44 257.11 177.17 Q 257.11 176.92 257.31 176.64 Q 257.52 176.37 257.92 175.98 L 257.92 175.94 Q 257.67 175.81 257.51 175.62 Q 257.36 175.43 257.36 175.22 Q 257.36 174.95 257.59 174.65 Q 257.83 174.35 258.18 174.08 Z M 258.17 176.02 Q 258.01 176.3 257.95 176.48 Q 257.89 176.67 257.89 176.83 Q 257.89 177.7 259.39 177.7 Q 259.98 177.7 260.34 177.55 Q 260.71 177.4 260.87 177.18 Q 261.04 176.96 261.04 176.75 Q 261.04 176.49 260.88 176.34 Q 260.72 176.2 260.46 176.14 Q 260.21 176.08 259.92 176.06 Q 259.64 176.04 259.39 176.04 Q 259.33 176.04 259.3 176.04 Q 258.9 176.03 258.68 176.03 Q 258.46 176.03 258.35 176.02 Q 258.24 176.02 258.17 176.02 Z M 259.15 171.43 Q 258.76 171.43 258.52 171.73 Q 258.29 172.03 258.29 172.66 Q 258.29 173.3 258.54 173.66 Q 258.79 174.01 259.28 174.01 Q 259.66 174.01 259.9 173.75 Q 260.15 173.49 260.15 172.78 Q 260.15 172.17 259.89 171.8 Q 259.63 171.43 259.15 171.43 Z" fill="currentColor"/></g><g data-sirentide-role="node" data-sirentide-id="A" data-sirentide-seq="5"><rect x="24" y="24" width="44" height="36" fill="#dbe4ff"/><path d="M 50.26 46.2 L 47.03 46.2 L 47.03 45.84 Q 47.21 45.84 47.4 45.82 Q 47.6 45.79 47.73 45.7 Q 47.86 45.6 47.86 45.4 Q 47.86 45.26 47.81 45.1 Q 47.78 44.92 47.66 44.65 L 47.19 43.57 L 44.12 43.57 L 43.58 44.84 Q 43.53 44.99 43.48 45.13 Q 43.44 45.26 43.44 45.43 Q 43.44 45.68 43.64 45.77 Q 43.83 45.84 44.25 45.84 L 44.25 46.2 L 41.73 46.2 L 41.73 45.84 Q 42.06 45.84 42.27 45.73 Q 42.47 45.62 42.66 45.3 Q 42.86 44.96 43.14 44.28 L 45.69 38.26 L 46.18 38.26 L 49.02 44.77 Q 49.29 45.36 49.53 45.6 Q 49.78 45.84 50.26 45.84 L 50.26 46.2 Z M 47.01 43.09 L 45.69 39.73 L 45.65 39.73 L 44.3 43.09 L 47.01 43.09 Z" fill="#000000"/></g><g data-sirentide-role="node" data-sirentide-id="Sink" data-sirentide-seq="6"><rect x="164.558" y="108" width="50.884" height="36" fill="#dbe4ff"/><path d="M 183.84 124.6 L 183.48 124.6 Q 183.23 123.6 182.81 123.12 Q 182.39 122.64 181.47 122.65 Q 180.86 122.65 180.53 122.94 Q 180.19 123.22 180.19 123.78 Q 180.19 124.22 180.44 124.55 Q 180.69 124.86 181.1 125.11 Q 181.51 125.36 181.95 125.63 Q 182.35 125.86 182.75 126.08 Q 183.15 126.31 183.48 126.6 Q 183.81 126.89 184.01 127.27 Q 184.21 127.66 184.21 128.2 Q 184.21 128.89 183.89 129.37 Q 183.57 129.85 183.02 130.1 Q 182.47 130.34 181.77 130.34 Q 181.15 130.34 180.75 130.25 Q 180.37 130.16 180.14 130.08 Q 179.93 129.98 179.78 129.98 Q 179.66 129.98 179.57 130.09 Q 179.47 130.2 179.46 130.38 L 179.09 130.38 L 178.98 127.79 L 179.35 127.79 Q 179.57 128.62 179.85 129.06 Q 180.14 129.49 180.56 129.66 Q 180.99 129.82 181.61 129.82 Q 182.28 129.82 182.67 129.53 Q 183.07 129.23 183.07 128.54 Q 183.07 128.02 182.77 127.67 Q 182.48 127.32 182.03 127.06 Q 181.57 126.78 181.08 126.5 Q 180.6 126.23 180.15 125.92 Q 179.71 125.6 179.42 125.17 Q 179.15 124.74 179.15 124.12 Q 179.15 123.48 179.46 123.06 Q 179.77 122.63 180.29 122.4 Q 180.8 122.17 181.43 122.17 Q 181.98 122.17 182.28 122.27 Q 182.58 122.35 182.75 122.45 Q 182.93 122.54 183.07 122.54 Q 183.36 122.54 183.44 122.2 L 183.75 122.2 L 183.84 124.6 Z M 187.69 129.86 L 187.69 130.2 L 184.99 130.2 L 184.99 129.86 Q 185.4 129.86 185.57 129.79 Q 185.75 129.71 185.78 129.52 Q 185.83 129.32 185.83 128.99 L 185.83 125.64 Q 185.83 125.26 185.7 125.17 Q 185.57 125.08 185.3 125.08 Q 185.18 125.08 185.09 125.09 Q 185 125.1 185 125.1 L 185 124.75 L 186.51 124.42 L 186.83 124.42 L 186.83 128.99 Q 186.83 129.34 186.87 129.53 Q 186.92 129.72 187.1 129.79 Q 187.29 129.86 187.69 129.86 Z M 186.35 122.12 Q 186.66 122.12 186.84 122.33 Q 187.03 122.52 187.03 122.8 Q 187.03 123.07 186.84 123.28 Q 186.66 123.48 186.35 123.48 Q 186.05 123.48 185.85 123.28 Q 185.66 123.07 185.66 122.8 Q 185.66 122.52 185.84 122.33 Q 186.03 122.12 186.35 122.12 Z M 193.8 126.52 L 193.8 128.99 Q 193.8 129.32 193.85 129.52 Q 193.91 129.71 194.1 129.79 Q 194.29 129.86 194.69 129.86 L 194.69 130.2 L 191.91 130.2 L 191.91 129.86 Q 192.35 129.86 192.53 129.79 Q 192.72 129.71 192.75 129.52 Q 192.8 129.32 192.8 128.99 L 192.8 126.82 Q 192.8 126.1 192.63 125.74 Q 192.48 125.38 192.23 125.27 Q 191.97 125.15 191.7 125.15 Q 191.22 125.15 190.87 125.41 Q 190.52 125.66 190.25 125.9 L 190.25 128.99 Q 190.25 129.32 190.29 129.52 Q 190.34 129.71 190.53 129.79 Q 190.73 129.86 191.16 129.86 L 191.16 130.2 L 188.41 130.2 L 188.41 129.86 Q 188.82 129.86 188.99 129.79 Q 189.17 129.71 189.2 129.52 Q 189.25 129.32 189.25 128.99 L 189.25 125.62 Q 189.25 125.29 189.12 125.2 Q 188.99 125.09 188.75 125.09 Q 188.59 125.09 188.51 125.1 Q 188.42 125.11 188.42 125.11 L 188.42 124.76 L 189.95 124.42 L 190.22 124.42 L 190.21 125.39 L 190.26 125.39 Q 190.75 124.96 191.18 124.67 Q 191.63 124.38 192.19 124.38 Q 193.01 124.38 193.4 124.93 Q 193.8 125.48 193.8 126.52 Z M 201.41 130.2 L 198.75 130.2 L 198.75 129.85 Q 199.02 129.85 199.11 129.83 Q 199.22 129.79 199.22 129.71 Q 199.22 129.62 199.17 129.55 Q 199.14 129.47 199.09 129.42 L 197.21 127.28 L 197.13 127.28 L 197.13 129.11 Q 197.13 129.56 197.29 129.71 Q 197.46 129.85 198.02 129.85 L 198.02 130.2 L 195.3 130.2 L 195.3 129.85 Q 195.84 129.85 195.98 129.71 Q 196.14 129.55 196.14 129.06 L 196.14 123.06 Q 196.14 122.68 196.04 122.57 Q 195.96 122.45 195.66 122.45 Q 195.54 122.45 195.39 122.46 Q 195.25 122.47 195.25 122.47 L 195.25 122.15 L 196.81 121.73 L 197.13 121.73 L 197.13 127.02 L 197.21 127.02 L 198.75 125.48 Q 198.79 125.45 198.87 125.35 Q 198.97 125.24 198.97 125.1 Q 198.97 124.98 198.85 124.93 Q 198.73 124.88 198.38 124.88 L 198.38 124.52 L 200.97 124.52 L 200.97 124.88 Q 200.69 124.88 200.46 124.94 Q 200.24 124.99 200.01 125.15 Q 199.79 125.29 199.45 125.57 Q 199.13 125.84 198.62 126.29 L 198.02 126.78 L 200.13 129.16 Q 200.42 129.48 200.6 129.64 Q 200.79 129.78 200.97 129.82 Q 201.15 129.85 201.41 129.85 L 201.41 130.2 Z" fill="#000000"/></g><g data-sirentide-role="node" data-sirentide-id="B" data-sirentide-seq="7"><rect x="96" y="24" width="44" height="36" fill="#dbe4ff"/><path d="M 119.2 42 L 119.2 42.05 Q 119.72 42.13 120.18 42.36 Q 120.66 42.59 120.98 43.01 Q 121.29 43.42 121.29 44.08 Q 121.29 45.1 120.52 45.65 Q 119.76 46.2 118.42 46.2 L 114.72 46.2 L 114.72 45.84 Q 115.22 45.84 115.46 45.76 Q 115.71 45.67 115.79 45.42 Q 115.89 45.17 115.89 44.68 L 115.89 39.77 Q 115.89 39.29 115.79 39.06 Q 115.71 38.82 115.46 38.75 Q 115.22 38.68 114.72 38.68 L 114.72 38.32 L 117.96 38.32 Q 119.57 38.32 120.23 38.81 Q 120.9 39.3 120.9 40.19 Q 120.9 40.99 120.42 41.4 Q 119.94 41.8 119.2 42 Z M 116.99 42.36 L 116.99 45.72 Q 117.42 45.76 117.86 45.76 Q 118.24 45.76 118.62 45.71 Q 119.01 45.66 119.32 45.5 Q 119.64 45.34 119.84 45.01 Q 120.03 44.68 120.03 44.1 Q 120.03 43.42 119.7 43.04 Q 119.39 42.66 118.89 42.52 Q 118.4 42.36 117.83 42.36 L 116.99 42.36 Z M 116.99 41.86 L 117.81 41.86 Q 118.9 41.86 119.31 41.48 Q 119.72 41.1 119.72 40.28 Q 119.72 39.58 119.26 39.18 Q 118.82 38.78 117.71 38.78 Q 117.35 38.78 116.99 38.82 L 116.99 41.86 Z" fill="#000000"/></g><g data-sirentide-role="node" data-sirentide-id="C" data-sirentide-seq="8"><rect x="168" y="24" width="44" height="36" fill="#dbe4ff"/><path d="M 193.28 44.41 L 193.56 44.66 Q 193.08 45.4 192.3 45.86 Q 191.52 46.33 190.35 46.33 Q 189.11 46.33 188.27 45.8 Q 187.43 45.28 187 44.35 Q 186.58 43.43 186.58 42.26 Q 186.58 40.96 187.08 40.04 Q 187.59 39.13 188.48 38.65 Q 189.36 38.17 190.52 38.17 Q 191.15 38.17 191.54 38.28 Q 191.92 38.39 192.15 38.5 Q 192.38 38.6 192.52 38.6 Q 192.66 38.6 192.74 38.48 Q 192.82 38.35 192.93 38.17 L 193.29 38.17 L 193.29 40.92 L 192.88 40.92 Q 192.69 39.74 192.06 39.22 Q 191.45 38.69 190.53 38.69 Q 189.23 38.69 188.52 39.61 Q 187.83 40.54 187.83 42.14 Q 187.83 43.34 188.19 44.1 Q 188.56 44.86 189.21 45.22 Q 189.86 45.58 190.7 45.58 Q 191.52 45.58 192.15 45.28 Q 192.77 44.96 193.28 44.41 Z" fill="#000000"/></g><g data-sirentide-role="node" data-sirentide-id="D" data-sirentide-seq="9"><rect x="240" y="24" width="44" height="36" fill="#dbe4ff"/><path d="M 258.04 38.32 L 261.34 38.32 Q 262.28 38.32 263.08 38.52 Q 263.9 38.71 264.5 39.17 Q 265.1 39.62 265.43 40.37 Q 265.78 41.11 265.78 42.22 Q 265.78 43.6 265.24 44.48 Q 264.71 45.36 263.74 45.78 Q 262.77 46.2 261.47 46.2 L 258.04 46.2 L 258.04 45.84 Q 258.57 45.84 258.82 45.77 Q 259.07 45.68 259.14 45.44 Q 259.22 45.19 259.22 44.71 L 259.22 39.68 Q 259.22 39.24 259.11 39.04 Q 259 38.82 258.75 38.75 Q 258.5 38.68 258.04 38.68 L 258.04 38.32 Z M 260.32 38.83 L 260.32 45.71 Q 260.68 45.74 261.03 45.74 Q 262.12 45.74 262.9 45.46 Q 263.68 45.16 264.1 44.41 Q 264.52 43.67 264.52 42.32 Q 264.52 40.61 263.64 39.71 Q 262.77 38.81 260.91 38.81 Q 260.76 38.81 260.62 38.81 Q 260.49 38.81 260.32 38.83 Z" fill="#000000"/></g><g data-sirentide-role="node" data-sirentide-id="E" data-sirentide-seq="10"><rect x="312" y="24" width="44" height="36" fill="#dbe4ff"/><path d="M 337.42 43.97 L 337.08 46.2 L 330.68 46.2 L 330.68 45.84 Q 331.17 45.84 331.41 45.78 Q 331.66 45.71 331.74 45.48 Q 331.84 45.25 331.84 44.78 L 331.84 39.78 Q 331.84 39.32 331.74 39.08 Q 331.66 38.84 331.41 38.76 Q 331.17 38.68 330.68 38.68 L 330.68 38.32 L 336.98 38.32 L 337.05 40.28 L 336.66 40.28 Q 336.58 39.68 336.4 39.38 Q 336.23 39.07 335.84 38.96 Q 335.45 38.86 334.71 38.86 L 332.94 38.86 L 332.94 41.9 L 334.35 41.9 Q 334.9 41.9 335.19 41.81 Q 335.48 41.71 335.58 41.45 Q 335.69 41.18 335.69 40.7 L 336.08 40.7 L 336.08 43.49 L 335.69 43.49 Q 335.69 43 335.58 42.76 Q 335.48 42.52 335.19 42.44 Q 334.9 42.37 334.35 42.37 L 332.94 42.37 L 332.94 45.67 L 334.49 45.67 Q 335.19 45.67 335.61 45.61 Q 336.04 45.54 336.28 45.36 Q 336.53 45.18 336.69 44.84 Q 336.86 44.51 337.04 43.97 L 337.42 43.97 Z" fill="#000000"/></g></svg>