<svg xmlns="http://www.w3.org/2000/svg" width="344" height="120" viewBox="0 0 344 120" role="img"><title>Git graph</title><desc>Git graph with 6 commits across 2 branches. Branches: main, develop. Commits: (main), &quot;fix&quot; (main), (develop), (develop), (main), (main). Merges: develop into main.</desc><line x1="120" y1="42" x2="120" y2="90" stroke="#f28e2b" stroke-width="3"/><line x1="120" y1="90" x2="166" y2="90" stroke="#f28e2b" stroke-width="3"/><line x1="212" y1="90" x2="258" y2="90" stroke="#f28e2b" stroke-width="3"/><line x1="258" y1="90" x2="258" y2="42" stroke="#f28e2b" stroke-width="3"/><g data-sirentide-role="branch" data-sirentide-id="main" data-sirentide-seq="0"><line x1="74" y1="42" x2="304" y2="42" stroke="#4e79a7" stroke-width="3"/><path d="M 8.04 41.57 L 8.04 44.43 Q 8.04 44.9 8.19 45.04 Q 8.35 45.18 8.86 45.18 L 8.86 45.5 L 6.35 45.5 L 6.35 45.18 Q 6.7 45.18 6.86 45.13 Q 7.02 45.06 7.07 44.9 Q 7.12 44.72 7.12 44.39 L 7.12 41.31 Q 7.12 41.01 7 40.91 Q 6.89 40.81 6.66 40.81 Q 6.54 40.81 6.45 40.83 Q 6.36 40.84 6.36 40.84 L 6.36 40.52 L 7.74 40.2 L 8 40.2 L 8 41.09 L 8.05 41.09 Q 8.5 40.7 8.91 40.44 Q 9.33 40.17 9.89 40.17 Q 10.37 40.17 10.65 40.43 Q 10.95 40.68 11.11 41.08 L 11.16 41.08 Q 11.61 40.63 12.04 40.4 Q 12.47 40.17 12.91 40.17 Q 13.56 40.17 13.94 40.57 Q 14.33 40.98 14.33 41.98 L 14.33 44.22 Q 14.33 44.57 14.36 44.79 Q 14.4 44.99 14.57 45.09 Q 14.75 45.18 15.12 45.18 L 15.12 45.5 L 12.63 45.5 L 12.63 45.18 Q 13.01 45.18 13.17 45.08 Q 13.34 44.98 13.37 44.77 Q 13.41 44.55 13.41 44.22 L 13.41 42.11 Q 13.41 41.61 13.28 41.34 Q 13.16 41.08 12.94 40.98 Q 12.73 40.87 12.47 40.87 Q 12.13 40.87 11.8 41.1 Q 11.48 41.32 11.2 41.55 L 11.2 44.22 Q 11.2 44.6 11.25 44.81 Q 11.3 45.02 11.48 45.1 Q 11.65 45.18 12.05 45.18 L 12.05 45.5 L 9.44 45.5 L 9.44 45.18 Q 9.84 45.18 10.02 45.1 Q 10.19 45.03 10.24 44.82 Q 10.29 44.61 10.29 44.22 L 10.29 42.05 Q 10.29 41.34 10.04 41.11 Q 9.8 40.87 9.41 40.87 Q 8.98 40.87 8.63 41.11 Q 8.28 41.35 8.04 41.57 Z M 18.76 44.82 L 18.72 44.82 Q 18.33 45.16 17.98 45.37 Q 17.63 45.58 17.1 45.58 Q 16.46 45.58 16.12 45.23 Q 15.79 44.87 15.79 44.35 Q 15.79 43.91 15.99 43.61 Q 16.2 43.3 16.53 43.09 Q 16.87 42.88 17.25 42.74 Q 17.65 42.6 18.02 42.5 Q 18.4 42.4 18.68 42.31 L 18.68 41.83 Q 18.68 41.11 18.43 40.81 Q 18.19 40.51 17.69 40.51 Q 17.22 40.51 17.09 40.7 Q 16.96 40.9 16.96 41.4 Q 16.96 41.9 16.47 41.9 Q 16.31 41.9 16.15 41.78 Q 16.01 41.65 16.01 41.38 Q 16.01 41.07 16.24 40.79 Q 16.48 40.52 16.91 40.34 Q 17.35 40.17 17.95 40.17 Q 18.85 40.17 19.22 40.58 Q 19.6 41 19.6 41.86 L 19.6 44.36 Q 19.6 44.7 19.67 44.8 Q 19.75 44.9 19.93 44.9 Q 20.08 44.9 20.2 44.82 Q 20.33 44.74 20.44 44.62 L 20.61 44.8 Q 20.33 45.19 20.08 45.38 Q 19.84 45.56 19.42 45.56 Q 19.06 45.56 18.94 45.37 Q 18.81 45.18 18.76 44.82 Z M 18.68 44.49 L 18.68 42.67 Q 18.19 42.79 17.75 42.96 Q 17.31 43.12 17.03 43.39 Q 16.76 43.65 16.76 44.08 Q 16.76 44.49 16.98 44.73 Q 17.2 44.97 17.55 44.97 Q 18.1 44.97 18.68 44.49 Z M 23.48 45.19 L 23.48 45.5 L 21 45.5 L 21 45.19 Q 21.38 45.19 21.53 45.13 Q 21.7 45.05 21.73 44.87 Q 21.77 44.7 21.77 44.39 L 21.77 41.32 Q 21.77 40.97 21.65 40.89 Q 21.53 40.8 21.29 40.8 Q 21.18 40.8 21.09 40.81 Q 21.02 40.83 21.02 40.83 L 21.02 40.51 L 22.4 40.2 L 22.69 40.2 L 22.69 44.39 Q 22.69 44.71 22.73 44.88 Q 22.78 45.06 22.94 45.13 Q 23.12 45.19 23.48 45.19 Z M 22.25 38.1 Q 22.53 38.1 22.7 38.28 Q 22.87 38.46 22.87 38.71 Q 22.87 38.97 22.7 39.15 Q 22.53 39.34 22.25 39.34 Q 21.97 39.34 21.8 39.15 Q 21.62 38.97 21.62 38.71 Q 21.62 38.46 21.79 38.28 Q 21.96 38.1 22.25 38.1 Z M 29.08 42.12 L 29.08 44.39 Q 29.08 44.7 29.12 44.87 Q 29.18 45.05 29.35 45.13 Q 29.53 45.19 29.89 45.19 L 29.89 45.5 L 27.35 45.5 L 27.35 45.19 Q 27.75 45.19 27.91 45.13 Q 28.09 45.05 28.12 44.87 Q 28.17 44.7 28.17 44.39 L 28.17 42.4 Q 28.17 41.74 28.01 41.41 Q 27.87 41.08 27.64 40.98 Q 27.41 40.87 27.15 40.87 Q 26.71 40.87 26.39 41.11 Q 26.08 41.34 25.82 41.56 L 25.82 44.39 Q 25.82 44.7 25.87 44.87 Q 25.91 45.05 26.09 45.13 Q 26.26 45.19 26.66 45.19 L 26.66 45.5 L 24.14 45.5 L 24.14 45.19 Q 24.51 45.19 24.67 45.13 Q 24.83 45.05 24.87 44.87 Q 24.91 44.7 24.91 44.39 L 24.91 41.3 Q 24.91 41 24.79 40.91 Q 24.67 40.81 24.45 40.81 Q 24.3 40.81 24.23 40.83 Q 24.15 40.84 24.15 40.84 L 24.15 40.52 L 25.55 40.2 L 25.8 40.2 L 25.79 41.09 L 25.83 41.09 Q 26.28 40.69 26.68 40.43 Q 27.09 40.17 27.6 40.17 Q 28.35 40.17 28.72 40.67 Q 29.08 41.18 29.08 42.12 Z" fill="#4e79a7"/></g><g data-sirentide-role="branch" data-sirentide-id="develop" data-sirentide-seq="1"><line x1="166" y1="90" x2="212" y2="90" stroke="#f28e2b" stroke-width="3"/><path d="M 11.65 93.3 L 10.25 93.56 L 9.99 93.56 L 9.99 92.8 L 9.95 92.8 Q 9.64 93.07 9.21 93.34 Q 8.79 93.59 8.24 93.59 Q 7.63 93.59 7.2 93.26 Q 6.78 92.93 6.57 92.37 Q 6.36 91.8 6.36 91.09 Q 6.36 90.18 6.7 89.53 Q 7.05 88.87 7.62 88.52 Q 8.2 88.17 8.89 88.17 Q 9.17 88.17 9.43 88.23 Q 9.71 88.29 9.96 88.43 L 9.96 86.99 Q 9.96 86.63 9.87 86.52 Q 9.8 86.41 9.48 86.41 Q 9.4 86.41 9.29 86.42 Q 9.19 86.43 9.19 86.43 L 9.19 86.12 L 10.58 85.73 L 10.87 85.73 L 10.87 92.32 Q 10.87 92.75 10.99 92.88 Q 11.11 93.01 11.42 93.01 L 11.65 93.01 L 11.65 93.3 Z M 9.96 92.39 L 9.96 89.49 Q 9.89 89.14 9.64 88.88 Q 9.39 88.61 8.87 88.61 Q 8.18 88.61 7.75 89.11 Q 7.32 89.62 7.32 90.66 Q 7.32 91.8 7.68 92.3 Q 8.06 92.8 8.76 92.8 Q 9.15 92.8 9.41 92.7 Q 9.67 92.59 9.96 92.39 Z M 16.49 91.93 L 16.7 92.08 Q 16.51 92.5 16.24 92.85 Q 15.98 93.19 15.59 93.4 Q 15.22 93.61 14.65 93.61 Q 13.99 93.61 13.45 93.3 Q 12.92 92.98 12.61 92.38 Q 12.3 91.76 12.3 90.88 Q 12.3 89.96 12.61 89.36 Q 12.93 88.76 13.46 88.46 Q 13.99 88.17 14.62 88.17 Q 15.53 88.17 16.08 88.79 Q 16.63 89.42 16.67 90.57 L 13.19 90.57 Q 13.19 91.33 13.44 91.83 Q 13.69 92.31 14.07 92.55 Q 14.47 92.79 14.91 92.79 Q 15.36 92.79 15.64 92.66 Q 15.92 92.54 16.12 92.36 Q 16.32 92.16 16.49 91.93 Z M 13.18 90.17 L 15.64 90.17 Q 15.62 89.76 15.49 89.41 Q 15.36 89.05 15.11 88.83 Q 14.85 88.61 14.46 88.61 Q 13.31 88.61 13.18 90.17 Z M 22.51 88.3 L 22.51 88.62 Q 22.19 88.62 22.02 88.77 Q 21.85 88.91 21.69 89.34 L 19.95 93.57 L 19.42 93.57 L 17.78 89.42 Q 17.64 89.08 17.53 88.91 Q 17.42 88.74 17.27 88.68 Q 17.13 88.62 16.89 88.62 L 16.89 88.3 L 19.21 88.3 L 19.21 88.62 Q 18.89 88.62 18.76 88.69 Q 18.64 88.76 18.64 88.89 Q 18.64 89 18.67 89.1 Q 18.7 89.2 18.75 89.32 L 19.68 91.77 L 19.89 92.43 L 19.96 92.43 L 20.19 91.76 L 21.14 89.28 Q 21.15 89.23 21.18 89.14 Q 21.21 89.05 21.21 88.91 Q 21.21 88.73 21.05 88.67 Q 20.88 88.62 20.59 88.62 L 20.59 88.3 L 22.51 88.3 Z M 26.89 91.93 L 27.1 92.08 Q 26.9 92.5 26.64 92.85 Q 26.37 93.19 25.99 93.4 Q 25.61 93.61 25.04 93.61 Q 24.38 93.61 23.84 93.3 Q 23.31 92.98 23.01 92.38 Q 22.7 91.76 22.7 90.88 Q 22.7 89.96 23.01 89.36 Q 23.33 88.76 23.85 88.46 Q 24.38 88.17 25.02 88.17 Q 25.92 88.17 26.47 88.79 Q 27.02 89.42 27.07 90.57 L 23.59 90.57 Q 23.59 91.33 23.83 91.83 Q 24.08 92.31 24.47 92.55 Q 24.87 92.79 25.31 92.79 Q 25.76 92.79 26.03 92.66 Q 26.32 92.54 26.51 92.36 Q 26.71 92.16 26.89 91.93 Z M 23.58 90.17 L 26.03 90.17 Q 26.02 89.76 25.89 89.41 Q 25.76 89.05 25.5 88.83 Q 25.25 88.61 24.85 88.61 Q 23.71 88.61 23.58 90.17 Z M 30.29 93.18 L 30.29 93.5 L 27.76 93.5 L 27.76 93.18 Q 28.12 93.18 28.29 93.12 Q 28.45 93.04 28.48 92.87 Q 28.53 92.7 28.53 92.39 L 28.53 86.87 Q 28.53 86.53 28.4 86.46 Q 28.28 86.39 28.07 86.39 Q 27.92 86.39 27.81 86.41 Q 27.71 86.42 27.71 86.42 L 27.71 86.12 L 29.17 85.73 L 29.44 85.73 L 29.44 92.39 Q 29.44 92.71 29.48 92.88 Q 29.54 93.05 29.72 93.12 Q 29.89 93.18 30.29 93.18 Z M 33.38 88.17 Q 34.51 88.17 35.16 88.87 Q 35.82 89.57 35.82 90.79 Q 35.82 91.72 35.5 92.35 Q 35.19 92.97 34.64 93.29 Q 34.09 93.61 33.38 93.61 Q 32.22 93.61 31.56 92.9 Q 30.91 92.17 30.91 90.84 Q 30.91 90.04 31.22 89.44 Q 31.53 88.84 32.08 88.51 Q 32.64 88.17 33.38 88.17 Z M 33.33 88.58 Q 32.71 88.58 32.32 89.11 Q 31.94 89.64 31.94 90.7 Q 31.94 92 32.32 92.6 Q 32.72 93.18 33.42 93.17 Q 33.87 93.17 34.18 92.96 Q 34.49 92.75 34.64 92.25 Q 34.81 91.74 34.81 90.85 Q 34.81 89.84 34.43 89.21 Q 34.07 88.58 33.33 88.58 Z M 38.13 88.2 L 38.13 89.12 L 38.16 89.12 Q 38.56 88.66 38.97 88.42 Q 39.38 88.17 39.87 88.17 Q 40.42 88.17 40.83 88.48 Q 41.24 88.79 41.47 89.35 Q 41.72 89.9 41.72 90.63 Q 41.72 91.56 41.39 92.24 Q 41.07 92.9 40.52 93.26 Q 39.97 93.61 39.31 93.61 Q 39 93.61 38.71 93.53 Q 38.44 93.47 38.2 93.3 L 38.15 93.3 L 38.15 94.74 Q 38.15 95.1 38.24 95.28 Q 38.33 95.47 38.56 95.54 Q 38.79 95.6 39.22 95.6 L 39.22 95.92 L 36.44 95.92 L 36.44 95.61 Q 36.95 95.61 37.1 95.44 Q 37.24 95.27 37.24 94.81 L 37.24 89.36 Q 37.24 89.05 37.16 88.92 Q 37.1 88.8 36.82 88.8 Q 36.71 88.8 36.59 88.81 Q 36.47 88.83 36.47 88.83 L 36.47 88.51 L 37.86 88.2 L 38.13 88.2 Z M 38.15 89.58 L 38.15 92.46 Q 38.26 92.57 38.43 92.74 Q 38.59 92.92 38.82 93.05 Q 39.05 93.18 39.36 93.18 Q 39.95 93.18 40.33 92.63 Q 40.72 92.08 40.72 90.94 Q 40.72 89.89 40.37 89.41 Q 40.03 88.91 39.42 88.91 Q 38.98 88.91 38.64 89.14 Q 38.31 89.38 38.15 89.58 Z" fill="#f28e2b"/></g><g data-sirentide-role="commit" data-sirentide-id="main-1" data-sirentide-seq="2"><path d="M 80 42 A 6 6 0 1 1 68 42 A 6 6 0 1 1 80 42 Z" fill="#4e79a7"/></g><g data-sirentide-role="commit" data-sirentide-id="fix" data-sirentide-seq="3"><path d="M 126 42 A 6 6 0 1 1 114 42 A 6 6 0 1 1 126 42 Z" fill="#4e79a7"/><path d="M 114.91 54.32 L 115.67 54.32 Q 115.67 53.71 115.73 53.33 Q 115.8 52.94 115.99 52.6 Q 116.19 52.25 116.49 52.06 Q 116.8 51.87 117.32 51.87 Q 117.81 51.87 118.12 52.05 Q 118.44 52.23 118.44 52.57 Q 118.44 52.79 118.32 52.9 Q 118.2 53 118.03 53 Q 117.84 53 117.72 52.89 Q 117.6 52.77 117.49 52.62 Q 117.41 52.47 117.29 52.36 Q 117.17 52.24 116.98 52.24 Q 116.7 52.24 116.6 52.5 Q 116.49 52.75 116.49 53.38 L 116.49 54.32 L 117.72 54.32 L 117.72 54.74 L 116.49 54.74 L 116.49 57.81 Q 116.49 58.2 116.58 58.39 Q 116.66 58.58 116.88 58.65 Q 117.1 58.71 117.52 58.71 L 117.52 59 L 114.83 59 L 114.83 58.71 Q 115.2 58.71 115.37 58.65 Q 115.55 58.58 115.6 58.39 Q 115.67 58.2 115.67 57.81 L 115.67 54.74 L 114.91 54.74 L 114.91 54.32 Z M 120.29 58.72 L 120.29 59 L 118.04 59 L 118.04 58.72 Q 118.38 58.72 118.52 58.66 Q 118.67 58.59 118.7 58.43 Q 118.74 58.27 118.74 57.99 L 118.74 55.2 Q 118.74 54.88 118.63 54.81 Q 118.52 54.73 118.3 54.73 Q 118.2 54.73 118.12 54.74 Q 118.05 54.75 118.05 54.75 L 118.05 54.46 L 119.31 54.18 L 119.57 54.18 L 119.57 57.99 Q 119.57 58.28 119.61 58.44 Q 119.65 58.6 119.8 58.66 Q 119.96 58.72 120.29 58.72 Z M 119.17 52.27 Q 119.43 52.27 119.58 52.44 Q 119.74 52.6 119.74 52.83 Q 119.74 53.06 119.58 53.23 Q 119.43 53.4 119.17 53.4 Q 118.92 53.4 118.76 53.23 Q 118.6 53.06 118.6 52.83 Q 118.6 52.6 118.75 52.44 Q 118.91 52.27 119.17 52.27 Z M 125.39 59 L 123.3 59 L 123.3 58.71 Q 123.56 58.71 123.66 58.67 Q 123.77 58.62 123.77 58.49 Q 123.77 58.39 123.7 58.28 L 123.07 57.31 L 122.87 56.96 L 122.83 56.96 L 122.01 58.14 Q 121.94 58.26 121.85 58.38 Q 121.77 58.5 121.77 58.56 Q 121.77 58.64 121.87 58.68 Q 121.97 58.71 122.22 58.71 L 122.22 59 L 120.55 59 L 120.55 58.71 Q 120.81 58.71 120.98 58.61 Q 121.15 58.5 121.4 58.21 L 122.6 56.65 L 121.56 55.16 Q 121.39 54.91 121.27 54.78 Q 121.15 54.65 121.02 54.61 Q 120.89 54.56 120.68 54.56 L 120.68 54.27 L 122.83 54.27 L 122.83 54.55 Q 122.35 54.55 122.35 54.78 Q 122.35 54.9 122.48 55.1 Q 122.62 55.29 122.87 55.71 L 123.11 56.15 L 123.15 56.15 L 123.62 55.47 Q 123.82 55.19 123.9 55.05 Q 123.98 54.91 123.98 54.79 Q 123.98 54.68 123.89 54.62 Q 123.81 54.55 123.57 54.55 L 123.57 54.27 L 125.22 54.27 L 125.22 54.56 Q 124.97 54.56 124.78 54.69 Q 124.59 54.81 124.42 55.03 L 123.36 56.39 L 124.59 58.13 Q 124.8 58.43 124.95 58.57 Q 125.11 58.71 125.39 58.71 L 125.39 59 Z" fill="currentColor"/></g><g data-sirentide-role="commit" data-sirentide-id="develop-1" data-sirentide-seq="4"><path d="M 172 90 A 6 6 0 1 1 160 90 A 6 6 0 1 1 172 90 Z" fill="#f28e2b"/></g><g data-sirentide-role="commit" data-sirentide-id="develop-2" data-sirentide-seq="5"><path d="M 218 90 A 6 6 0 1 1 206 90 A 6 6 0 1 1 218 90 Z" fill="#f28e2b"/></g><g data-sirentide-role="commit" data-sirentide-id="main-2" data-sirentide-seq="6"><path d="M 264 42 A 6 6 0 1 1 252 42 A 6 6 0 1 1 264 42 Z" fill="#4e79a7"/></g><g data-sirentide-role="commit" data-sirentide-id="main-3" data-sirentide-seq="7"><path d="M 310 42 A 6 6 0 1 1 298 42 A 6 6 0 1 1 310 42 Z" fill="#4e79a7"/></g></svg>