<svg xmlns="http://www.w3.org/2000/svg" width="362" height="314" viewBox="0 0 362 314" role="img"><title>Quadrant chart</title><desc>Quadrant chart, x-axis Low Reach to High Reach, y-axis Low Impact to High Impact, with 3 points: Feature A, Feature B, Feature C.</desc><rect x="78" y="24" width="130" height="130" fill="#eafbf1"/><rect x="208" y="24" width="130" height="130" fill="#eaf2fb"/><rect x="78" y="154" width="130" height="130" fill="#fdf2ec"/><rect x="208" y="154" width="130" height="130" fill="#f6eefb"/><line x1="78" y1="24" x2="338" y2="24" stroke="#94a3b8" stroke-width="1"/><line x1="78" y1="284" x2="338" y2="284" stroke="#94a3b8" stroke-width="1"/><line x1="78" y1="24" x2="78" y2="284" stroke="#94a3b8" stroke-width="1"/><line x1="338" y1="24" x2="338" y2="284" stroke="#94a3b8" stroke-width="1"/><line x1="208" y1="24" x2="208" y2="284" stroke="#94a3b8" stroke-width="1.5"/><line x1="78" y1="154" x2="338" y2="154" stroke="#94a3b8" stroke-width="1.5"/><path d="M 251.08 92.85 L 248.15 92.85 L 248.15 92.52 Q 248.58 92.52 248.79 92.44 Q 249 92.37 249.06 92.16 Q 249.13 91.94 249.13 91.54 L 249.13 86.8 L 249.09 86.8 L 246.52 92.85 L 246.26 92.85 L 243.66 86.81 L 243.62 86.81 L 243.62 91.24 Q 243.62 91.81 243.7 92.08 Q 243.77 92.35 243.98 92.44 Q 244.2 92.52 244.62 92.52 L 244.62 92.85 L 242.04 92.85 L 242.04 92.52 Q 242.49 92.52 242.71 92.44 Q 242.93 92.35 243 92.08 Q 243.08 91.81 243.08 91.24 L 243.08 86.96 Q 243.08 86.55 243 86.34 Q 242.93 86.12 242.71 86.04 Q 242.5 85.95 242.06 85.95 L 242.06 85.62 L 244.3 85.62 L 246.62 91.16 L 246.67 91.16 L 248.98 85.62 L 251.07 85.62 L 251.07 85.95 Q 250.68 85.95 250.47 86.04 Q 250.26 86.12 250.19 86.34 Q 250.11 86.55 250.11 86.95 L 250.11 91.54 Q 250.11 91.94 250.19 92.16 Q 250.26 92.37 250.47 92.44 Q 250.68 92.52 251.08 92.52 L 251.08 92.85 Z M 254.96 92.17 L 254.92 92.17 Q 254.53 92.51 254.18 92.72 Q 253.83 92.93 253.3 92.93 Q 252.66 92.93 252.32 92.57 Q 251.99 92.22 251.99 91.7 Q 251.99 91.26 252.19 90.96 Q 252.4 90.65 252.73 90.44 Q 253.07 90.23 253.45 90.09 Q 253.85 89.95 254.22 89.85 Q 254.6 89.75 254.88 89.66 L 254.88 89.18 Q 254.88 88.46 254.63 88.16 Q 254.39 87.86 253.89 87.86 Q 253.42 87.86 253.29 88.05 Q 253.16 88.25 253.16 88.75 Q 253.16 89.25 252.67 89.25 Q 252.51 89.25 252.35 89.13 Q 252.21 89 252.21 88.73 Q 252.21 88.42 252.44 88.14 Q 252.68 87.87 253.11 87.69 Q 253.55 87.52 254.15 87.52 Q 255.05 87.52 255.42 87.93 Q 255.8 88.35 255.8 89.21 L 255.8 91.71 Q 255.8 92.05 255.87 92.15 Q 255.95 92.24 256.13 92.24 Q 256.28 92.24 256.4 92.17 Q 256.53 92.09 256.64 91.97 L 256.81 92.15 Q 256.53 92.54 256.28 92.73 Q 256.04 92.91 255.62 92.91 Q 255.26 92.91 255.14 92.72 Q 255.02 92.53 254.96 92.17 Z M 254.88 91.84 L 254.88 90.02 Q 254.39 90.14 253.95 90.31 Q 253.51 90.47 253.23 90.74 Q 252.96 91 252.96 91.43 Q 252.96 91.84 253.18 92.08 Q 253.4 92.32 253.75 92.32 Q 254.3 92.32 254.88 91.84 Z M 258.86 87.55 L 258.86 92.87 Q 258.86 94.17 258.4 94.8 Q 257.95 95.43 256.97 95.43 Q 256.43 95.43 256.13 95.21 Q 255.81 95.01 255.81 94.64 Q 255.81 94.43 255.94 94.3 Q 256.07 94.18 256.29 94.18 Q 256.49 94.18 256.62 94.29 Q 256.74 94.41 256.84 94.57 Q 256.94 94.72 257.06 94.83 Q 257.18 94.95 257.37 94.95 Q 257.78 94.95 257.86 94.51 Q 257.95 94.08 257.95 93.2 L 257.95 88.75 Q 257.95 88.38 257.85 88.27 Q 257.77 88.15 257.47 88.15 Q 257.34 88.15 257.24 88.18 Q 257.14 88.19 257.14 88.19 L 257.14 87.86 L 258.57 87.55 L 258.86 87.55 Z M 258.38 85.45 Q 258.67 85.45 258.84 85.63 Q 259.03 85.81 259.03 86.06 Q 259.03 86.32 258.84 86.5 Q 258.67 86.69 258.38 86.69 Q 258.11 86.69 257.92 86.5 Q 257.74 86.32 257.74 86.06 Q 257.74 85.81 257.91 85.63 Q 258.08 85.45 258.38 85.45 Z M 262.58 87.52 Q 263.72 87.52 264.36 88.22 Q 265.02 88.92 265.02 90.14 Q 265.02 91.07 264.71 91.7 Q 264.4 92.32 263.85 92.64 Q 263.3 92.96 262.58 92.96 Q 261.43 92.96 260.77 92.24 Q 260.12 91.52 260.12 90.19 Q 260.12 89.39 260.43 88.79 Q 260.73 88.19 261.28 87.86 Q 261.85 87.52 262.58 87.52 Z M 262.54 87.93 Q 261.91 87.93 261.53 88.46 Q 261.14 88.99 261.14 90.04 Q 261.14 91.35 261.53 91.95 Q 261.92 92.53 262.63 92.52 Q 263.08 92.52 263.39 92.31 Q 263.69 92.1 263.85 91.6 Q 264.01 91.09 264.01 90.2 Q 264.01 89.19 263.64 88.56 Q 263.28 87.93 262.54 87.93 Z M 267.41 87.55 L 267.41 88.68 L 267.44 88.68 Q 267.86 88.07 268.16 87.78 Q 268.47 87.48 268.86 87.48 Q 269.18 87.48 269.34 87.65 Q 269.5 87.81 269.5 88.1 Q 269.5 88.41 269.35 88.55 Q 269.2 88.69 269.02 88.69 Q 268.84 88.69 268.7 88.6 Q 268.57 88.51 268.47 88.42 Q 268.37 88.32 268.3 88.32 Q 268.12 88.32 267.87 88.6 Q 267.63 88.89 267.43 89.22 L 267.43 91.73 Q 267.43 92.07 267.52 92.24 Q 267.61 92.42 267.83 92.48 Q 268.06 92.53 268.47 92.53 L 268.47 92.85 L 265.72 92.85 L 265.72 92.53 Q 266.08 92.53 266.25 92.48 Q 266.42 92.41 266.47 92.26 Q 266.52 92.09 266.52 91.78 L 266.52 88.76 Q 266.52 88.46 266.47 88.32 Q 266.42 88.16 266.12 88.16 Q 265.96 88.16 265.87 88.18 Q 265.78 88.19 265.78 88.19 L 265.78 87.88 L 267.15 87.55 L 267.41 87.55 Z M 274.1 87.55 L 274.1 88.47 L 274.13 88.47 Q 274.53 88.01 274.94 87.77 Q 275.35 87.52 275.84 87.52 Q 276.39 87.52 276.79 87.83 Q 277.21 88.14 277.44 88.7 Q 277.69 89.25 277.69 89.98 Q 277.69 90.91 277.36 91.59 Q 277.04 92.24 276.49 92.61 Q 275.94 92.96 275.28 92.96 Q 274.97 92.96 274.68 92.88 Q 274.41 92.82 274.17 92.65 L 274.12 92.65 L 274.12 94.09 Q 274.12 94.45 274.21 94.63 Q 274.3 94.82 274.53 94.89 Q 274.76 94.95 275.19 94.95 L 275.19 95.27 L 272.41 95.27 L 272.41 94.96 Q 272.92 94.96 273.07 94.79 Q 273.21 94.62 273.21 94.16 L 273.21 88.71 Q 273.21 88.4 273.13 88.27 Q 273.07 88.15 272.79 88.15 Q 272.68 88.15 272.56 88.16 Q 272.44 88.18 272.44 88.18 L 272.44 87.86 L 273.82 87.55 L 274.1 87.55 Z M 274.12 88.93 L 274.12 91.81 Q 274.23 91.92 274.4 92.09 Q 274.56 92.27 274.79 92.4 Q 275.02 92.53 275.33 92.53 Q 275.91 92.53 276.3 91.98 Q 276.68 91.43 276.68 90.29 Q 276.68 89.24 276.34 88.76 Q 276 88.26 275.39 88.26 Q 274.95 88.26 274.61 88.49 Q 274.28 88.73 274.12 88.93 Z M 280.08 87.55 L 280.08 88.68 L 280.12 88.68 Q 280.53 88.07 280.83 87.78 Q 281.14 87.48 281.54 87.48 Q 281.85 87.48 282.01 87.65 Q 282.17 87.81 282.17 88.1 Q 282.17 88.41 282.02 88.55 Q 281.88 88.69 281.69 88.69 Q 281.51 88.69 281.37 88.6 Q 281.24 88.51 281.14 88.42 Q 281.04 88.32 280.97 88.32 Q 280.79 88.32 280.55 88.6 Q 280.3 88.89 280.11 89.22 L 280.11 91.73 Q 280.11 92.07 280.19 92.24 Q 280.28 92.42 280.5 92.48 Q 280.73 92.53 281.14 92.53 L 281.14 92.85 L 278.39 92.85 L 278.39 92.53 Q 278.75 92.53 278.92 92.48 Q 279.09 92.41 279.14 92.26 Q 279.19 92.09 279.19 91.78 L 279.19 88.76 Q 279.19 88.46 279.14 88.32 Q 279.09 88.16 278.8 88.16 Q 278.63 88.16 278.54 88.18 Q 278.46 88.19 278.46 88.19 L 278.46 87.88 L 279.82 87.55 L 280.08 87.55 Z M 285.09 87.52 Q 286.22 87.52 286.87 88.22 Q 287.53 88.92 287.53 90.14 Q 287.53 91.07 287.21 91.7 Q 286.9 92.32 286.35 92.64 Q 285.8 92.96 285.09 92.96 Q 283.93 92.96 283.27 92.24 Q 282.62 91.52 282.62 90.19 Q 282.62 89.39 282.93 88.79 Q 283.24 88.19 283.79 87.86 Q 284.35 87.52 285.09 87.52 Z M 285.04 87.93 Q 284.42 87.93 284.03 88.46 Q 283.65 88.99 283.65 90.04 Q 283.65 91.35 284.03 91.95 Q 284.43 92.53 285.13 92.52 Q 285.58 92.52 285.89 92.31 Q 286.2 92.1 286.35 91.6 Q 286.52 91.09 286.52 90.2 Q 286.52 89.19 286.14 88.56 Q 285.78 87.93 285.04 87.93 Z M 289.92 87.55 L 289.92 92.87 Q 289.92 94.17 289.46 94.8 Q 289 95.43 288.03 95.43 Q 287.49 95.43 287.18 95.21 Q 286.86 95.01 286.86 94.64 Q 286.86 94.43 286.99 94.3 Q 287.12 94.18 287.34 94.18 Q 287.54 94.18 287.67 94.29 Q 287.79 94.41 287.89 94.57 Q 287.99 94.72 288.11 94.83 Q 288.23 94.95 288.42 94.95 Q 288.83 94.95 288.92 94.51 Q 289 94.08 289 93.2 L 289 88.75 Q 289 88.38 288.91 88.27 Q 288.82 88.15 288.52 88.15 Q 288.39 88.15 288.29 88.18 Q 288.19 88.19 288.19 88.19 L 288.19 87.86 L 289.62 87.55 L 289.92 87.55 Z M 289.43 85.45 Q 289.72 85.45 289.9 85.63 Q 290.08 85.81 290.08 86.06 Q 290.08 86.32 289.9 86.5 Q 289.72 86.69 289.43 86.69 Q 289.16 86.69 288.97 86.5 Q 288.8 86.32 288.8 86.06 Q 288.8 85.81 288.96 85.63 Q 289.14 85.45 289.43 85.45 Z M 295.36 91.28 L 295.57 91.43 Q 295.37 91.85 295.11 92.2 Q 294.85 92.54 294.46 92.75 Q 294.09 92.96 293.51 92.96 Q 292.85 92.96 292.32 92.65 Q 291.79 92.33 291.48 91.73 Q 291.17 91.11 291.17 90.23 Q 291.17 89.31 291.48 88.71 Q 291.8 88.11 292.33 87.81 Q 292.85 87.52 293.49 87.52 Q 294.39 87.52 294.94 88.14 Q 295.49 88.77 295.54 89.92 L 292.06 89.92 Q 292.06 90.68 292.3 91.18 Q 292.56 91.66 292.94 91.9 Q 293.34 92.14 293.78 92.14 Q 294.23 92.14 294.5 92.01 Q 294.79 91.89 294.99 91.71 Q 295.19 91.51 295.36 91.28 Z M 292.05 89.52 L 294.5 89.52 Q 294.49 89.11 294.36 88.76 Q 294.23 88.4 293.98 88.18 Q 293.72 87.96 293.33 87.96 Q 292.18 87.96 292.05 89.52 Z M 300.39 91.22 L 300.6 91.38 Q 300.39 91.82 300.11 92.18 Q 299.85 92.54 299.45 92.75 Q 299.06 92.96 298.46 92.96 Q 297.78 92.96 297.29 92.63 Q 296.79 92.3 296.53 91.72 Q 296.26 91.12 296.26 90.36 Q 296.26 89.07 296.91 88.3 Q 297.56 87.52 298.75 87.52 Q 299.53 87.52 299.97 87.86 Q 300.42 88.2 300.42 88.68 Q 300.42 89.18 299.96 89.18 Q 299.72 89.18 299.59 89.06 Q 299.47 88.92 299.39 88.74 Q 299.31 88.55 299.22 88.36 Q 299.15 88.18 298.99 88.05 Q 298.85 87.92 298.56 87.92 Q 297.89 87.92 297.51 88.42 Q 297.13 88.9 297.13 89.85 Q 297.13 90.85 297.54 91.5 Q 297.96 92.14 298.81 92.14 Q 299.34 92.14 299.67 91.92 Q 300.02 91.7 300.39 91.22 Z M 304.03 91.86 L 304.24 92.04 Q 304.03 92.33 303.84 92.54 Q 303.67 92.74 303.45 92.85 Q 303.23 92.96 302.88 92.96 Q 302.33 92.96 302.07 92.64 Q 301.82 92.31 301.82 91.57 L 301.82 88.16 L 301.21 88.16 L 301.21 87.91 Q 301.6 87.67 301.87 87.26 Q 302.16 86.84 302.46 86.14 L 302.74 86.14 L 302.73 87.7 L 303.98 87.7 L 303.98 88.16 L 302.73 88.16 L 302.73 91.27 Q 302.73 91.85 302.83 92.08 Q 302.94 92.31 303.26 92.31 Q 303.52 92.31 303.67 92.2 Q 303.82 92.09 304.03 91.86 Z" fill="#000000"/><path d="M 126.22 89.12 Q 126.22 90.08 125.91 90.85 Q 125.61 91.62 125.05 92.14 Q 124.49 92.64 123.71 92.83 L 123.71 92.85 Q 124.11 93.4 124.49 93.74 Q 124.89 94.08 125.37 94.24 Q 125.86 94.39 126.52 94.39 L 126.52 94.75 L 125.97 94.75 Q 125.05 94.75 124.44 94.62 Q 123.82 94.5 123.41 94.2 Q 123.01 93.92 122.71 93.42 L 122.45 92.97 Q 120.95 92.87 120.08 91.89 Q 119.21 90.91 119.21 89.23 Q 119.21 88.11 119.63 87.27 Q 120.06 86.43 120.84 85.96 Q 121.63 85.49 122.72 85.49 Q 123.82 85.49 124.6 85.95 Q 125.38 86.4 125.8 87.23 Q 126.22 88.04 126.22 89.12 Z M 125.06 89.17 Q 125.06 88.18 124.77 87.46 Q 124.47 86.73 123.93 86.35 Q 123.4 85.95 122.69 85.95 Q 121.62 85.95 120.99 86.81 Q 120.37 87.66 120.37 89.17 Q 120.37 90.72 120.95 91.62 Q 121.54 92.52 122.73 92.52 Q 123.91 92.52 124.48 91.67 Q 125.06 90.83 125.06 89.17 Z M 132.71 92.35 L 132.71 92.65 L 131.31 92.91 L 131.07 92.91 L 131.07 92.06 L 131.02 92.06 Q 130.58 92.49 130.16 92.73 Q 129.74 92.96 129.21 92.96 Q 128.53 92.96 128.14 92.52 Q 127.77 92.07 127.77 90.95 L 127.77 88.71 Q 127.77 88.26 127.62 88.18 Q 127.47 88.08 127.02 88.07 L 127.02 87.76 L 128.44 87.59 L 128.68 87.59 L 128.68 90.8 Q 128.68 91.64 128.96 91.95 Q 129.24 92.26 129.67 92.26 Q 130.09 92.26 130.39 92.07 Q 130.7 91.88 131.03 91.6 L 131.03 88.7 Q 131.03 88.26 130.84 88.16 Q 130.66 88.07 130.14 88.07 L 130.14 87.76 L 131.68 87.59 L 131.94 87.59 L 131.94 91.63 Q 131.94 92.11 132.07 92.23 Q 132.2 92.35 132.6 92.35 L 132.71 92.35 Z M 135.87 92.54 L 135.87 92.85 L 133.39 92.85 L 133.39 92.54 Q 133.77 92.54 133.92 92.48 Q 134.08 92.4 134.12 92.22 Q 134.16 92.05 134.16 91.74 L 134.16 88.67 Q 134.16 88.32 134.04 88.24 Q 133.92 88.15 133.68 88.15 Q 133.57 88.15 133.48 88.16 Q 133.4 88.18 133.4 88.18 L 133.4 87.86 L 134.79 87.55 L 135.07 87.55 L 135.07 91.74 Q 135.07 92.06 135.12 92.23 Q 135.16 92.41 135.33 92.48 Q 135.5 92.54 135.87 92.54 Z M 134.63 85.45 Q 134.92 85.45 135.09 85.63 Q 135.26 85.81 135.26 86.06 Q 135.26 86.32 135.09 86.5 Q 134.92 86.69 134.63 86.69 Q 134.36 86.69 134.18 86.5 Q 134.01 86.32 134.01 86.06 Q 134.01 85.81 134.17 85.63 Q 134.35 85.45 134.63 85.45 Z M 140.66 91.22 L 140.87 91.38 Q 140.66 91.82 140.39 92.18 Q 140.12 92.54 139.73 92.75 Q 139.33 92.96 138.74 92.96 Q 138.06 92.96 137.56 92.63 Q 137.07 92.3 136.8 91.72 Q 136.54 91.12 136.54 90.36 Q 136.54 89.07 137.19 88.3 Q 137.84 87.52 139.02 87.52 Q 139.8 87.52 140.24 87.86 Q 140.7 88.2 140.7 88.68 Q 140.7 89.18 140.23 89.18 Q 139.99 89.18 139.86 89.06 Q 139.74 88.92 139.66 88.74 Q 139.58 88.55 139.5 88.36 Q 139.42 88.18 139.27 88.05 Q 139.12 87.92 138.84 87.92 Q 138.17 87.92 137.78 88.42 Q 137.41 88.9 137.41 89.85 Q 137.41 90.85 137.81 91.5 Q 138.23 92.14 139.08 92.14 Q 139.62 92.14 139.95 91.92 Q 140.29 91.7 140.66 91.22 Z M 147.01 92.85 L 144.58 92.85 L 144.58 92.53 Q 144.82 92.53 144.91 92.51 Q 145.01 92.48 145.01 92.4 Q 145.01 92.32 144.96 92.26 Q 144.93 92.18 144.89 92.14 L 143.16 90.18 L 143.09 90.18 L 143.09 91.85 Q 143.09 92.27 143.24 92.4 Q 143.39 92.53 143.91 92.53 L 143.91 92.85 L 141.41 92.85 L 141.41 92.53 Q 141.91 92.53 142.04 92.4 Q 142.18 92.26 142.18 91.81 L 142.18 86.31 Q 142.18 85.95 142.09 85.85 Q 142.02 85.74 141.74 85.74 Q 141.63 85.74 141.5 85.76 Q 141.37 85.77 141.37 85.77 L 141.37 85.47 L 142.8 85.08 L 143.09 85.08 L 143.09 89.93 L 143.16 89.93 L 144.58 88.53 Q 144.61 88.49 144.69 88.41 Q 144.78 88.31 144.78 88.18 Q 144.78 88.07 144.67 88.02 Q 144.56 87.98 144.24 87.98 L 144.24 87.65 L 146.61 87.65 L 146.61 87.98 Q 146.35 87.98 146.14 88.03 Q 145.94 88.08 145.73 88.22 Q 145.52 88.35 145.22 88.6 Q 144.92 88.86 144.46 89.26 L 143.91 89.71 L 145.84 91.89 Q 146.11 92.19 146.27 92.33 Q 146.45 92.46 146.61 92.5 Q 146.78 92.53 147.01 92.53 L 147.01 92.85 Z M 158.01 87.65 L 158.01 87.97 Q 157.69 87.97 157.53 88.12 Q 157.36 88.26 157.2 88.69 L 155.56 92.92 L 155.03 92.92 L 153.86 89.71 L 153.82 89.71 L 152.53 92.92 L 152.03 92.92 L 150.38 88.77 Q 150.23 88.43 150.11 88.26 Q 149.99 88.09 149.84 88.03 Q 149.68 87.97 149.44 87.97 L 149.44 87.65 L 151.81 87.65 L 151.81 87.97 Q 151.48 87.97 151.34 88.04 Q 151.22 88.11 151.22 88.24 Q 151.22 88.35 151.26 88.45 Q 151.3 88.55 151.34 88.67 L 152.3 91.1 L 152.5 91.74 L 152.58 91.74 L 152.81 91.1 L 153.6 89.1 L 153.48 88.77 Q 153.35 88.41 153.22 88.24 Q 153.11 88.07 152.96 88.02 Q 152.81 87.97 152.56 87.97 L 152.56 87.65 L 154.86 87.65 L 154.86 87.97 Q 154.56 87.97 154.43 88.04 Q 154.31 88.11 154.31 88.24 Q 154.31 88.34 154.34 88.46 Q 154.37 88.57 154.41 88.69 L 155.3 91.1 L 155.5 91.74 L 155.57 91.74 L 155.79 91.1 L 156.66 88.64 Q 156.67 88.59 156.69 88.49 Q 156.72 88.38 156.72 88.24 Q 156.72 88.09 156.57 88.03 Q 156.41 87.97 156.11 87.97 L 156.11 87.65 L 158.01 87.65 Z M 160.69 92.54 L 160.69 92.85 L 158.22 92.85 L 158.22 92.54 Q 158.59 92.54 158.75 92.48 Q 158.91 92.4 158.94 92.22 Q 158.99 92.05 158.99 91.74 L 158.99 88.67 Q 158.99 88.32 158.87 88.24 Q 158.75 88.15 158.5 88.15 Q 158.39 88.15 158.31 88.16 Q 158.23 88.18 158.23 88.18 L 158.23 87.86 L 159.62 87.55 L 159.9 87.55 L 159.9 91.74 Q 159.9 92.06 159.95 92.23 Q 159.99 92.41 160.15 92.48 Q 160.33 92.54 160.69 92.54 Z M 159.46 85.45 Q 159.75 85.45 159.91 85.63 Q 160.09 85.81 160.09 86.06 Q 160.09 86.32 159.91 86.5 Q 159.75 86.69 159.46 86.69 Q 159.19 86.69 159.01 86.5 Q 158.83 86.32 158.83 86.06 Q 158.83 85.81 159 85.63 Q 159.18 85.45 159.46 85.45 Z M 166.29 89.47 L 166.29 91.74 Q 166.29 92.05 166.34 92.22 Q 166.39 92.4 166.57 92.48 Q 166.74 92.54 167.11 92.54 L 167.11 92.85 L 164.57 92.85 L 164.57 92.54 Q 164.96 92.54 165.13 92.48 Q 165.3 92.4 165.34 92.22 Q 165.38 92.05 165.38 91.74 L 165.38 89.75 Q 165.38 89.09 165.23 88.76 Q 165.08 88.43 164.85 88.33 Q 164.62 88.22 164.37 88.22 Q 163.93 88.22 163.61 88.46 Q 163.29 88.69 163.04 88.91 L 163.04 91.74 Q 163.04 92.05 163.08 92.22 Q 163.12 92.4 163.3 92.48 Q 163.48 92.54 163.87 92.54 L 163.87 92.85 L 161.35 92.85 L 161.35 92.54 Q 161.73 92.54 161.88 92.48 Q 162.05 92.4 162.08 92.22 Q 162.12 92.05 162.12 91.74 L 162.12 88.65 Q 162.12 88.35 162 88.26 Q 161.88 88.16 161.66 88.16 Q 161.52 88.16 161.44 88.18 Q 161.36 88.19 161.36 88.19 L 161.36 87.87 L 162.76 87.55 L 163.01 87.55 L 163 88.44 L 163.05 88.44 Q 163.5 88.04 163.89 87.78 Q 164.3 87.52 164.82 87.52 Q 165.57 87.52 165.93 88.02 Q 166.29 88.53 166.29 89.47 Z" fill="#000000"/><path d="M 115.35 215.62 L 118.38 215.62 Q 119.23 215.62 119.97 215.81 Q 120.72 215.99 121.27 216.4 Q 121.82 216.82 122.13 217.5 Q 122.45 218.19 122.45 219.2 Q 122.45 220.46 121.95 221.28 Q 121.47 222.08 120.58 222.47 Q 119.69 222.85 118.5 222.85 L 115.35 222.85 L 115.35 222.52 Q 115.84 222.52 116.07 222.45 Q 116.3 222.38 116.36 222.16 Q 116.43 221.93 116.43 221.49 L 116.43 216.88 Q 116.43 216.47 116.33 216.28 Q 116.23 216.09 116 216.02 Q 115.77 215.95 115.35 215.95 L 115.35 215.62 Z M 117.44 216.1 L 117.44 222.4 Q 117.77 222.43 118.09 222.43 Q 119.09 222.43 119.81 222.17 Q 120.52 221.89 120.91 221.21 Q 121.29 220.53 121.29 219.3 Q 121.29 217.72 120.49 216.9 Q 119.69 216.07 117.98 216.07 Q 117.85 216.07 117.72 216.07 Q 117.6 216.07 117.44 216.1 Z M 127.56 221.28 L 127.77 221.43 Q 127.57 221.85 127.31 222.2 Q 127.04 222.54 126.66 222.75 Q 126.29 222.96 125.71 222.96 Q 125.05 222.96 124.51 222.65 Q 123.99 222.33 123.68 221.73 Q 123.37 221.11 123.37 220.23 Q 123.37 219.31 123.68 218.71 Q 124 218.11 124.53 217.81 Q 125.05 217.52 125.69 217.52 Q 126.59 217.52 127.14 218.14 Q 127.69 218.77 127.74 219.92 L 124.26 219.92 Q 124.26 220.68 124.5 221.18 Q 124.76 221.66 125.14 221.9 Q 125.54 222.14 125.98 222.14 Q 126.43 222.14 126.7 222.01 Q 126.99 221.89 127.19 221.71 Q 127.39 221.51 127.56 221.28 Z M 124.25 219.52 L 126.7 219.52 Q 126.69 219.11 126.56 218.76 Q 126.43 218.4 126.18 218.18 Q 125.92 217.96 125.53 217.96 Q 124.38 217.96 124.25 219.52 Z M 130.04 217.55 L 130.04 218.47 L 130.07 218.47 Q 130.47 218.01 130.87 217.77 Q 131.29 217.52 131.77 217.52 Q 132.32 217.52 132.73 217.83 Q 133.15 218.14 133.38 218.7 Q 133.62 219.25 133.62 219.98 Q 133.62 220.91 133.29 221.59 Q 132.97 222.25 132.42 222.61 Q 131.87 222.96 131.21 222.96 Q 130.91 222.96 130.62 222.88 Q 130.34 222.82 130.1 222.65 L 130.06 222.65 L 130.06 224.09 Q 130.06 224.45 130.15 224.63 Q 130.23 224.82 130.47 224.89 Q 130.7 224.95 131.13 224.95 L 131.13 225.27 L 128.34 225.27 L 128.34 224.96 Q 128.86 224.96 129 224.79 Q 129.15 224.62 129.15 224.16 L 129.15 218.71 Q 129.15 218.4 129.07 218.27 Q 129 218.15 128.73 218.15 Q 128.62 218.15 128.5 218.16 Q 128.38 218.18 128.38 218.18 L 128.38 217.86 L 129.76 217.55 L 130.04 217.55 Z M 130.06 218.93 L 130.06 221.81 Q 130.17 221.92 130.33 222.09 Q 130.5 222.27 130.73 222.4 Q 130.96 222.53 131.27 222.53 Q 131.85 222.53 132.24 221.98 Q 132.62 221.43 132.62 220.29 Q 132.62 219.24 132.28 218.76 Q 131.94 218.26 131.32 218.26 Q 130.88 218.26 130.54 218.49 Q 130.21 218.73 130.06 218.93 Z M 136.02 217.55 L 136.02 218.68 L 136.05 218.68 Q 136.47 218.07 136.77 217.78 Q 137.08 217.48 137.47 217.48 Q 137.79 217.48 137.95 217.65 Q 138.11 217.81 138.11 218.1 Q 138.11 218.41 137.96 218.55 Q 137.81 218.69 137.63 218.69 Q 137.45 218.69 137.31 218.6 Q 137.18 218.51 137.08 218.42 Q 136.98 218.32 136.91 218.32 Q 136.72 218.32 136.48 218.6 Q 136.24 218.89 136.04 219.22 L 136.04 221.73 Q 136.04 222.07 136.13 222.25 Q 136.22 222.42 136.44 222.48 Q 136.67 222.53 137.08 222.53 L 137.08 222.85 L 134.33 222.85 L 134.33 222.53 Q 134.69 222.53 134.85 222.48 Q 135.03 222.41 135.07 222.26 Q 135.13 222.09 135.13 221.78 L 135.13 218.76 Q 135.13 218.46 135.07 218.32 Q 135.03 218.16 134.73 218.16 Q 134.57 218.16 134.48 218.18 Q 134.39 218.19 134.39 218.19 L 134.39 217.88 L 135.76 217.55 L 136.02 217.55 Z M 141.01 222.54 L 141.01 222.85 L 138.54 222.85 L 138.54 222.54 Q 138.91 222.54 139.07 222.48 Q 139.23 222.4 139.27 222.22 Q 139.31 222.05 139.31 221.74 L 139.31 218.67 Q 139.31 218.32 139.19 218.24 Q 139.07 218.15 138.83 218.15 Q 138.72 218.15 138.63 218.16 Q 138.55 218.18 138.55 218.18 L 138.55 217.86 L 139.94 217.55 L 140.22 217.55 L 140.22 221.74 Q 140.22 222.06 140.27 222.23 Q 140.31 222.41 140.48 222.48 Q 140.65 222.54 141.01 222.54 Z M 139.78 215.45 Q 140.07 215.45 140.23 215.63 Q 140.41 215.81 140.41 216.06 Q 140.41 216.32 140.23 216.5 Q 140.07 216.69 139.78 216.69 Q 139.51 216.69 139.33 216.5 Q 139.16 216.32 139.16 216.06 Q 139.16 215.81 139.32 215.63 Q 139.5 215.45 139.78 215.45 Z M 144.16 217.52 Q 145.29 217.52 145.94 218.22 Q 146.6 218.92 146.6 220.14 Q 146.6 221.07 146.28 221.7 Q 145.98 222.32 145.43 222.64 Q 144.88 222.96 144.16 222.96 Q 143.01 222.96 142.35 222.25 Q 141.7 221.52 141.7 220.19 Q 141.7 219.39 142 218.79 Q 142.31 218.19 142.86 217.86 Q 143.42 217.52 144.16 217.52 Z M 144.12 217.93 Q 143.49 217.93 143.1 218.46 Q 142.72 218.99 142.72 220.05 Q 142.72 221.35 143.1 221.95 Q 143.5 222.53 144.2 222.52 Q 144.66 222.52 144.96 222.31 Q 145.27 222.1 145.43 221.6 Q 145.59 221.09 145.59 220.2 Q 145.59 219.19 145.22 218.56 Q 144.85 217.93 144.12 217.93 Z M 148.99 217.55 L 148.99 218.68 L 149.02 218.68 Q 149.44 218.07 149.74 217.78 Q 150.05 217.48 150.44 217.48 Q 150.76 217.48 150.91 217.65 Q 151.08 217.81 151.08 218.1 Q 151.08 218.41 150.93 218.55 Q 150.78 218.69 150.6 218.69 Q 150.42 218.69 150.28 218.6 Q 150.14 218.51 150.05 218.42 Q 149.95 218.32 149.88 218.32 Q 149.69 218.32 149.45 218.6 Q 149.21 218.89 149.01 219.22 L 149.01 221.73 Q 149.01 222.07 149.1 222.25 Q 149.19 222.42 149.41 222.48 Q 149.64 222.53 150.05 222.53 L 150.05 222.85 L 147.3 222.85 L 147.3 222.53 Q 147.66 222.53 147.82 222.48 Q 148 222.41 148.04 222.26 Q 148.1 222.09 148.1 221.78 L 148.1 218.76 Q 148.1 218.46 148.04 218.32 Q 148 218.16 147.7 218.16 Q 147.54 218.16 147.45 218.18 Q 147.36 218.19 147.36 218.19 L 147.36 217.88 L 148.73 217.55 L 148.99 217.55 Z M 153.98 222.54 L 153.98 222.85 L 151.51 222.85 L 151.51 222.54 Q 151.88 222.54 152.04 222.48 Q 152.2 222.4 152.23 222.22 Q 152.28 222.05 152.28 221.74 L 152.28 218.67 Q 152.28 218.32 152.16 218.24 Q 152.04 218.15 151.79 218.15 Q 151.68 218.15 151.6 218.16 Q 151.52 218.18 151.52 218.18 L 151.52 217.86 L 152.91 217.55 L 153.19 217.55 L 153.19 221.74 Q 153.19 222.06 153.24 222.23 Q 153.28 222.41 153.44 222.48 Q 153.62 222.54 153.98 222.54 Z M 152.75 215.45 Q 153.04 215.45 153.2 215.63 Q 153.38 215.81 153.38 216.06 Q 153.38 216.32 153.2 216.5 Q 153.04 216.69 152.75 216.69 Q 152.48 216.69 152.3 216.5 Q 152.12 216.32 152.12 216.06 Q 152.12 215.81 152.29 215.63 Q 152.47 215.45 152.75 215.45 Z M 157.51 221.86 L 157.72 222.04 Q 157.51 222.33 157.33 222.54 Q 157.15 222.74 156.93 222.85 Q 156.71 222.96 156.36 222.96 Q 155.81 222.96 155.56 222.64 Q 155.3 222.31 155.3 221.57 L 155.3 218.16 L 154.7 218.16 L 154.7 217.91 Q 155.08 217.67 155.36 217.26 Q 155.64 216.84 155.94 216.14 L 156.23 216.14 L 156.22 217.7 L 157.46 217.7 L 157.46 218.16 L 156.22 218.16 L 156.22 221.27 Q 156.22 221.85 156.32 222.08 Q 156.43 222.31 156.74 222.31 Q 157.01 222.31 157.15 222.2 Q 157.31 222.09 157.51 221.86 Z M 160.58 222.54 L 160.58 222.85 L 158.11 222.85 L 158.11 222.54 Q 158.48 222.54 158.64 222.48 Q 158.8 222.4 158.83 222.22 Q 158.88 222.05 158.88 221.74 L 158.88 218.67 Q 158.88 218.32 158.76 218.24 Q 158.64 218.15 158.39 218.15 Q 158.28 218.15 158.2 218.16 Q 158.12 218.18 158.12 218.18 L 158.12 217.86 L 159.51 217.55 L 159.79 217.55 L 159.79 221.74 Q 159.79 222.06 159.84 222.23 Q 159.88 222.41 160.04 222.48 Q 160.22 222.54 160.58 222.54 Z M 159.35 215.45 Q 159.64 215.45 159.8 215.63 Q 159.98 215.81 159.98 216.06 Q 159.98 216.32 159.8 216.5 Q 159.64 216.69 159.35 216.69 Q 159.08 216.69 158.9 216.5 Q 158.72 216.32 158.72 216.06 Q 158.72 215.81 158.89 215.63 Q 159.07 215.45 159.35 215.45 Z M 165.57 221.09 L 165.46 222.85 L 161.23 222.85 L 161.23 222.53 L 164.32 218.14 L 164.32 218.11 L 162.84 218.11 Q 162.23 218.11 162.02 218.42 Q 161.83 218.71 161.75 219.26 L 161.41 219.26 L 161.46 217.65 L 165.52 217.65 L 165.52 217.97 L 162.43 222.37 L 162.43 222.4 L 163.81 222.4 Q 164.28 222.4 164.54 222.29 Q 164.81 222.17 164.95 221.88 Q 165.09 221.6 165.2 221.09 L 165.57 221.09 Z M 170.49 221.28 L 170.7 221.43 Q 170.51 221.85 170.24 222.2 Q 169.98 222.54 169.59 222.75 Q 169.22 222.96 168.65 222.96 Q 167.99 222.96 167.45 222.65 Q 166.92 222.33 166.61 221.73 Q 166.3 221.11 166.3 220.23 Q 166.3 219.31 166.61 218.71 Q 166.93 218.11 167.46 217.81 Q 167.99 217.52 168.62 217.52 Q 169.53 217.52 170.08 218.14 Q 170.63 218.77 170.67 219.92 L 167.19 219.92 Q 167.19 220.68 167.44 221.18 Q 167.69 221.66 168.07 221.9 Q 168.47 222.14 168.91 222.14 Q 169.36 222.14 169.64 222.01 Q 169.92 221.89 170.12 221.71 Q 170.32 221.51 170.49 221.28 Z M 167.18 219.52 L 169.64 219.52 Q 169.63 219.11 169.49 218.76 Q 169.36 218.4 169.11 218.18 Q 168.86 217.96 168.46 217.96 Q 167.32 217.96 167.18 219.52 Z" fill="#000000"/><path d="M 264.93 217.43 L 264.58 217.43 Q 264.5 217.03 264.41 216.78 Q 264.34 216.53 264.17 216.38 Q 264.01 216.24 263.69 216.18 Q 263.38 216.12 262.84 216.12 L 261.09 216.12 L 261.09 218.9 L 262.39 218.9 Q 262.86 218.9 263.12 218.81 Q 263.37 218.73 263.46 218.49 Q 263.56 218.25 263.56 217.81 L 263.93 217.81 L 263.93 220.36 L 263.56 220.36 Q 263.56 219.91 263.46 219.69 Q 263.37 219.47 263.12 219.41 Q 262.86 219.33 262.39 219.33 L 261.09 219.33 L 261.09 221.64 Q 261.09 222.2 261.35 222.37 Q 261.6 222.52 262.24 222.52 L 262.24 222.85 L 259.01 222.85 L 259.01 222.52 Q 259.46 222.52 259.68 222.45 Q 259.92 222.39 259.99 222.19 Q 260.08 221.98 260.08 221.57 L 260.08 216.87 Q 260.08 216.29 259.84 216.13 Q 259.61 215.95 259.01 215.95 L 259.01 215.62 L 264.87 215.62 L 264.93 217.43 Z M 267.91 222.54 L 267.91 222.85 L 265.44 222.85 L 265.44 222.54 Q 265.81 222.54 265.97 222.48 Q 266.13 222.4 266.16 222.22 Q 266.21 222.05 266.21 221.74 L 266.21 218.67 Q 266.21 218.32 266.09 218.24 Q 265.97 218.15 265.72 218.15 Q 265.61 218.15 265.53 218.16 Q 265.45 218.18 265.45 218.18 L 265.45 217.86 L 266.83 217.55 L 267.12 217.55 L 267.12 221.74 Q 267.12 222.06 267.16 222.23 Q 267.21 222.41 267.37 222.48 Q 267.55 222.54 267.91 222.54 Z M 266.68 215.45 Q 266.97 215.45 267.13 215.63 Q 267.31 215.81 267.31 216.06 Q 267.31 216.32 267.13 216.5 Q 266.97 216.69 266.68 216.69 Q 266.41 216.69 266.23 216.5 Q 266.05 216.32 266.05 216.06 Q 266.05 215.81 266.22 215.63 Q 266.39 215.45 266.68 215.45 Z M 271.08 222.53 L 271.08 222.85 L 268.55 222.85 L 268.55 222.53 Q 268.91 222.53 269.08 222.47 Q 269.24 222.39 269.28 222.22 Q 269.32 222.05 269.32 221.74 L 269.32 216.22 Q 269.32 215.88 269.19 215.81 Q 269.07 215.74 268.86 215.74 Q 268.72 215.74 268.61 215.76 Q 268.51 215.77 268.51 215.77 L 268.51 215.47 L 269.96 215.08 L 270.23 215.08 L 270.23 221.74 Q 270.23 222.06 270.28 222.23 Q 270.33 222.4 270.51 222.47 Q 270.68 222.53 271.08 222.53 Z M 274.19 222.53 L 274.19 222.85 L 271.66 222.85 L 271.66 222.53 Q 272.03 222.53 272.19 222.47 Q 272.36 222.39 272.39 222.22 Q 272.43 222.05 272.43 221.74 L 272.43 216.22 Q 272.43 215.88 272.3 215.81 Q 272.18 215.74 271.97 215.74 Q 271.83 215.74 271.72 215.76 Q 271.62 215.77 271.62 215.77 L 271.62 215.47 L 273.07 215.08 L 273.35 215.08 L 273.35 221.74 Q 273.35 222.06 273.39 222.23 Q 273.45 222.4 273.62 222.47 Q 273.8 222.53 274.19 222.53 Z M 277.42 220.45 L 274.94 220.45 L 274.94 219.74 L 277.42 219.74 L 277.42 220.45 Z M 280.74 222.54 L 280.74 222.85 L 278.26 222.85 L 278.26 222.54 Q 278.64 222.54 278.79 222.48 Q 278.96 222.4 278.99 222.22 Q 279.03 222.05 279.03 221.74 L 279.03 218.67 Q 279.03 218.32 278.91 218.24 Q 278.79 218.15 278.55 218.15 Q 278.44 218.15 278.35 218.16 Q 278.27 218.18 278.27 218.18 L 278.27 217.86 L 279.66 217.55 L 279.95 217.55 L 279.95 221.74 Q 279.95 222.06 279.99 222.23 Q 280.03 222.41 280.2 222.48 Q 280.38 222.54 280.74 222.54 Z M 279.51 215.45 Q 279.79 215.45 279.96 215.63 Q 280.13 215.81 280.13 216.06 Q 280.13 216.32 279.96 216.5 Q 279.79 216.69 279.51 216.69 Q 279.23 216.69 279.06 216.5 Q 278.88 216.32 278.88 216.06 Q 278.88 215.81 279.04 215.63 Q 279.22 215.45 279.51 215.45 Z M 286.34 219.47 L 286.34 221.74 Q 286.34 222.05 286.38 222.22 Q 286.44 222.4 286.61 222.48 Q 286.79 222.54 287.15 222.54 L 287.15 222.85 L 284.61 222.85 L 284.61 222.54 Q 285.01 222.54 285.17 222.48 Q 285.35 222.4 285.38 222.22 Q 285.42 222.05 285.42 221.74 L 285.42 219.75 Q 285.42 219.09 285.27 218.76 Q 285.13 218.43 284.9 218.33 Q 284.67 218.22 284.41 218.22 Q 283.97 218.22 283.65 218.46 Q 283.33 218.69 283.08 218.91 L 283.08 221.74 Q 283.08 222.05 283.13 222.22 Q 283.17 222.4 283.35 222.48 Q 283.52 222.54 283.92 222.54 L 283.92 222.85 L 281.4 222.85 L 281.4 222.54 Q 281.77 222.54 281.93 222.48 Q 282.09 222.4 282.12 222.22 Q 282.17 222.05 282.17 221.74 L 282.17 218.65 Q 282.17 218.35 282.05 218.26 Q 281.93 218.16 281.71 218.16 Q 281.56 218.16 281.49 218.18 Q 281.41 218.19 281.41 218.19 L 281.41 217.87 L 282.81 217.55 L 283.06 217.55 L 283.05 218.44 L 283.09 218.44 Q 283.54 218.04 283.94 217.78 Q 284.35 217.52 284.86 217.52 Q 285.61 217.52 285.97 218.02 Q 286.34 218.53 286.34 219.47 Z" fill="#000000"/><g data-sirentide-role="point" data-sirentide-id="FeatureA" data-sirentide-seq="0"><path d="M 160 128 A 4 4 0 1 1 152 128 A 4 4 0 1 1 160 128 Z" fill="#4e79a7"/><path d="M 170.31 126.43 L 169.96 126.43 Q 169.89 126.03 169.8 125.78 Q 169.72 125.53 169.56 125.38 Q 169.39 125.24 169.07 125.18 Q 168.76 125.12 168.22 125.12 L 166.48 125.12 L 166.48 127.9 L 167.77 127.9 Q 168.25 127.9 168.5 127.81 Q 168.75 127.73 168.84 127.49 Q 168.94 127.25 168.94 126.81 L 169.31 126.81 L 169.31 129.36 L 168.94 129.36 Q 168.94 128.91 168.84 128.69 Q 168.75 128.47 168.5 128.41 Q 168.25 128.33 167.77 128.33 L 166.48 128.33 L 166.48 130.64 Q 166.48 131.2 166.73 131.37 Q 166.98 131.52 167.62 131.52 L 167.62 131.85 L 164.4 131.85 L 164.4 131.52 Q 164.85 131.52 165.07 131.45 Q 165.3 131.39 165.38 131.19 Q 165.46 130.98 165.46 130.57 L 165.46 125.87 Q 165.46 125.29 165.22 125.13 Q 164.99 124.95 164.4 124.95 L 164.4 124.62 L 170.25 124.62 L 170.31 126.43 Z M 175.03 130.28 L 175.24 130.43 Q 175.04 130.85 174.78 131.2 Q 174.52 131.54 174.13 131.75 Q 173.76 131.96 173.19 131.96 Q 172.52 131.96 171.99 131.65 Q 171.46 131.33 171.15 130.73 Q 170.84 130.11 170.84 129.23 Q 170.84 128.31 171.15 127.71 Q 171.47 127.11 172 126.81 Q 172.52 126.52 173.16 126.52 Q 174.07 126.52 174.61 127.14 Q 175.17 127.77 175.21 128.92 L 171.73 128.92 Q 171.73 129.68 171.98 130.18 Q 172.23 130.66 172.61 130.9 Q 173.01 131.14 173.45 131.14 Q 173.9 131.14 174.18 131.01 Q 174.46 130.89 174.66 130.71 Q 174.86 130.51 175.03 130.28 Z M 171.72 128.52 L 174.18 128.52 Q 174.16 128.11 174.03 127.76 Q 173.9 127.4 173.65 127.18 Q 173.39 126.96 173 126.96 Q 171.85 126.96 171.72 128.52 Z M 178.96 131.17 L 178.92 131.17 Q 178.53 131.51 178.18 131.72 Q 177.83 131.93 177.3 131.93 Q 176.66 131.93 176.32 131.57 Q 175.99 131.22 175.99 130.7 Q 175.99 130.26 176.19 129.96 Q 176.4 129.65 176.73 129.44 Q 177.07 129.23 177.45 129.09 Q 177.85 128.95 178.22 128.85 Q 178.6 128.75 178.88 128.66 L 178.88 128.18 Q 178.88 127.46 178.63 127.16 Q 178.39 126.86 177.89 126.86 Q 177.42 126.86 177.29 127.05 Q 177.16 127.25 177.16 127.75 Q 177.16 128.25 176.67 128.25 Q 176.51 128.25 176.35 128.13 Q 176.21 128 176.21 127.73 Q 176.21 127.42 176.44 127.14 Q 176.68 126.87 177.11 126.69 Q 177.55 126.52 178.15 126.52 Q 179.05 126.52 179.42 126.93 Q 179.8 127.35 179.8 128.21 L 179.8 130.71 Q 179.8 131.05 179.87 131.15 Q 179.95 131.25 180.13 131.25 Q 180.28 131.25 180.4 131.17 Q 180.53 131.09 180.64 130.97 L 180.81 131.15 Q 180.53 131.54 180.28 131.73 Q 180.04 131.91 179.62 131.91 Q 179.26 131.91 179.14 131.72 Q 179.02 131.53 178.96 131.17 Z M 178.88 130.84 L 178.88 129.02 Q 178.39 129.14 177.95 129.31 Q 177.51 129.47 177.23 129.74 Q 176.96 130 176.96 130.43 Q 176.96 130.84 177.18 131.08 Q 177.4 131.32 177.75 131.32 Q 178.3 131.32 178.88 130.84 Z M 184.08 130.86 L 184.28 131.04 Q 184.08 131.33 183.89 131.54 Q 183.71 131.74 183.49 131.85 Q 183.27 131.96 182.92 131.96 Q 182.37 131.96 182.12 131.64 Q 181.86 131.31 181.86 130.57 L 181.86 127.16 L 181.26 127.16 L 181.26 126.91 Q 181.64 126.67 181.92 126.26 Q 182.21 125.84 182.5 125.14 L 182.79 125.14 L 182.78 126.7 L 184.02 126.7 L 184.02 127.16 L 182.78 127.16 L 182.78 130.27 Q 182.78 130.85 182.88 131.08 Q 182.99 131.31 183.31 131.31 Q 183.57 131.31 183.71 131.2 Q 183.87 131.09 184.08 130.86 Z M 190.26 131.35 L 190.26 131.65 L 188.86 131.91 L 188.62 131.91 L 188.62 131.06 L 188.56 131.06 Q 188.12 131.49 187.71 131.73 Q 187.29 131.96 186.76 131.96 Q 186.08 131.96 185.69 131.52 Q 185.32 131.07 185.32 129.95 L 185.32 127.71 Q 185.32 127.26 185.16 127.18 Q 185.02 127.08 184.57 127.07 L 184.57 126.76 L 185.99 126.59 L 186.23 126.59 L 186.23 129.8 Q 186.23 130.64 186.51 130.95 Q 186.79 131.26 187.22 131.26 Q 187.64 131.26 187.94 131.07 Q 188.24 130.88 188.57 130.6 L 188.57 127.7 Q 188.57 127.26 188.39 127.16 Q 188.21 127.07 187.68 127.07 L 187.68 126.76 L 189.22 126.59 L 189.49 126.59 L 189.49 130.63 Q 189.49 131.11 189.62 131.23 Q 189.75 131.35 190.15 131.35 L 190.26 131.35 Z M 192.6 126.55 L 192.6 127.68 L 192.63 127.68 Q 193.05 127.07 193.35 126.78 Q 193.66 126.48 194.05 126.48 Q 194.37 126.48 194.53 126.65 Q 194.69 126.81 194.69 127.1 Q 194.69 127.41 194.54 127.55 Q 194.39 127.69 194.21 127.69 Q 194.03 127.69 193.89 127.6 Q 193.76 127.51 193.66 127.42 Q 193.56 127.32 193.49 127.32 Q 193.3 127.32 193.06 127.6 Q 192.82 127.89 192.62 128.22 L 192.62 130.73 Q 192.62 131.07 192.71 131.25 Q 192.8 131.42 193.02 131.48 Q 193.25 131.53 193.66 131.53 L 193.66 131.85 L 190.91 131.85 L 190.91 131.53 Q 191.27 131.53 191.43 131.48 Q 191.61 131.41 191.65 131.26 Q 191.71 131.09 191.71 130.78 L 191.71 127.76 Q 191.71 127.46 191.65 127.32 Q 191.61 127.16 191.31 127.16 Q 191.15 127.16 191.06 127.18 Q 190.97 127.19 190.97 127.19 L 190.97 126.88 L 192.34 126.55 L 192.6 126.55 Z M 199.33 130.28 L 199.54 130.43 Q 199.34 130.85 199.08 131.2 Q 198.82 131.54 198.43 131.75 Q 198.06 131.96 197.48 131.96 Q 196.82 131.96 196.29 131.65 Q 195.76 131.33 195.45 130.73 Q 195.14 130.11 195.14 129.23 Q 195.14 128.31 195.45 127.71 Q 195.77 127.11 196.3 126.81 Q 196.82 126.52 197.46 126.52 Q 198.36 126.52 198.91 127.14 Q 199.46 127.77 199.51 128.92 L 196.03 128.92 Q 196.03 129.68 196.27 130.18 Q 196.53 130.66 196.91 130.9 Q 197.31 131.14 197.75 131.14 Q 198.2 131.14 198.47 131.01 Q 198.76 130.89 198.96 130.71 Q 199.16 130.51 199.33 130.28 Z M 196.02 128.52 L 198.47 128.52 Q 198.46 128.11 198.33 127.76 Q 198.2 127.4 197.95 127.18 Q 197.69 126.96 197.3 126.96 Q 196.15 126.96 196.02 128.52 Z M 210.31 131.85 L 207.35 131.85 L 207.35 131.52 Q 207.52 131.52 207.69 131.5 Q 207.87 131.48 207.99 131.39 Q 208.11 131.3 208.11 131.11 Q 208.11 130.99 208.07 130.84 Q 208.03 130.67 207.92 130.43 L 207.49 129.44 L 204.68 129.44 L 204.18 130.61 Q 204.14 130.74 204.1 130.87 Q 204.06 130.99 204.06 131.15 Q 204.06 131.38 204.24 131.45 Q 204.41 131.52 204.8 131.52 L 204.8 131.85 L 202.49 131.85 L 202.49 131.52 Q 202.8 131.52 202.98 131.42 Q 203.17 131.32 203.35 131.03 Q 203.52 130.72 203.79 130.09 L 206.12 124.57 L 206.57 124.57 L 209.18 130.54 Q 209.42 131.08 209.64 131.3 Q 209.87 131.52 210.31 131.52 L 210.31 131.85 Z M 207.33 129 L 206.12 125.92 L 206.09 125.92 L 204.84 129 L 207.33 129 Z" fill="#000000"/></g><g data-sirentide-role="point" data-sirentide-id="FeatureB" data-sirentide-seq="1"><path d="M 277 76 A 4 4 0 1 1 269 76 A 4 4 0 1 1 277 76 Z" fill="#f28e2b"/><path d="M 287.31 74.43 L 286.96 74.43 Q 286.89 74.03 286.8 73.78 Q 286.72 73.52 286.56 73.38 Q 286.39 73.24 286.07 73.18 Q 285.76 73.12 285.22 73.12 L 283.48 73.12 L 283.48 75.9 L 284.77 75.9 Q 285.25 75.9 285.5 75.81 Q 285.75 75.72 285.84 75.49 Q 285.94 75.25 285.94 74.81 L 286.31 74.81 L 286.31 77.36 L 285.94 77.36 Q 285.94 76.91 285.84 76.69 Q 285.75 76.47 285.5 76.41 Q 285.25 76.33 284.77 76.33 L 283.48 76.33 L 283.48 78.64 Q 283.48 79.2 283.73 79.37 Q 283.98 79.52 284.62 79.52 L 284.62 79.85 L 281.4 79.85 L 281.4 79.52 Q 281.85 79.52 282.07 79.45 Q 282.3 79.39 282.38 79.19 Q 282.46 78.98 282.46 78.57 L 282.46 73.87 Q 282.46 73.29 282.22 73.13 Q 281.99 72.95 281.4 72.95 L 281.4 72.62 L 287.25 72.62 L 287.31 74.43 Z M 292.03 78.28 L 292.24 78.43 Q 292.04 78.85 291.78 79.2 Q 291.52 79.54 291.13 79.75 Q 290.76 79.96 290.19 79.96 Q 289.53 79.96 288.99 79.65 Q 288.46 79.33 288.15 78.73 Q 287.84 78.11 287.84 77.23 Q 287.84 76.31 288.15 75.71 Q 288.47 75.11 289 74.81 Q 289.53 74.52 290.16 74.52 Q 291.07 74.52 291.62 75.14 Q 292.17 75.77 292.21 76.92 L 288.73 76.92 Q 288.73 77.68 288.98 78.18 Q 289.23 78.66 289.61 78.9 Q 290.01 79.13 290.45 79.13 Q 290.9 79.13 291.18 79.01 Q 291.46 78.89 291.66 78.71 Q 291.86 78.51 292.03 78.28 Z M 288.72 76.52 L 291.18 76.52 Q 291.16 76.11 291.03 75.76 Q 290.9 75.4 290.65 75.18 Q 290.39 74.96 290 74.96 Q 288.85 74.96 288.72 76.52 Z M 295.96 79.17 L 295.92 79.17 Q 295.53 79.51 295.18 79.72 Q 294.83 79.93 294.3 79.93 Q 293.66 79.93 293.32 79.57 Q 292.99 79.22 292.99 78.69 Q 292.99 78.26 293.19 77.96 Q 293.4 77.65 293.73 77.44 Q 294.07 77.23 294.45 77.09 Q 294.85 76.95 295.22 76.85 Q 295.6 76.75 295.88 76.66 L 295.88 76.18 Q 295.88 75.46 295.63 75.16 Q 295.39 74.86 294.89 74.86 Q 294.42 74.86 294.29 75.05 Q 294.16 75.25 294.16 75.75 Q 294.16 76.25 293.67 76.25 Q 293.51 76.25 293.35 76.13 Q 293.21 76 293.21 75.72 Q 293.21 75.42 293.44 75.14 Q 293.68 74.87 294.11 74.69 Q 294.55 74.52 295.15 74.52 Q 296.05 74.52 296.42 74.93 Q 296.8 75.35 296.8 76.21 L 296.8 78.71 Q 296.8 79.05 296.87 79.15 Q 296.95 79.24 297.13 79.24 Q 297.28 79.24 297.4 79.17 Q 297.53 79.09 297.64 78.97 L 297.81 79.15 Q 297.53 79.54 297.28 79.73 Q 297.04 79.91 296.62 79.91 Q 296.26 79.91 296.14 79.72 Q 296.02 79.53 295.96 79.17 Z M 295.88 78.84 L 295.88 77.02 Q 295.39 77.14 294.95 77.31 Q 294.51 77.47 294.23 77.74 Q 293.96 78 293.96 78.43 Q 293.96 78.84 294.18 79.08 Q 294.4 79.32 294.75 79.32 Q 295.3 79.32 295.88 78.84 Z M 301.08 78.86 L 301.28 79.04 Q 301.08 79.33 300.89 79.54 Q 300.71 79.74 300.49 79.85 Q 300.27 79.96 299.92 79.96 Q 299.37 79.96 299.12 79.64 Q 298.86 79.31 298.86 78.57 L 298.86 75.16 L 298.26 75.16 L 298.26 74.91 Q 298.64 74.67 298.92 74.26 Q 299.21 73.84 299.5 73.14 L 299.79 73.14 L 299.78 74.7 L 301.02 74.7 L 301.02 75.16 L 299.78 75.16 L 299.78 78.27 Q 299.78 78.85 299.88 79.08 Q 299.99 79.31 300.3 79.31 Q 300.57 79.31 300.71 79.2 Q 300.87 79.09 301.08 78.86 Z M 307.26 79.35 L 307.26 79.65 L 305.86 79.91 L 305.62 79.91 L 305.62 79.06 L 305.56 79.06 Q 305.12 79.49 304.7 79.73 Q 304.29 79.96 303.76 79.96 Q 303.08 79.96 302.69 79.52 Q 302.32 79.07 302.32 77.95 L 302.32 75.71 Q 302.32 75.26 302.16 75.18 Q 302.02 75.08 301.57 75.07 L 301.57 74.76 L 302.99 74.59 L 303.23 74.59 L 303.23 77.8 Q 303.23 78.64 303.51 78.95 Q 303.79 79.26 304.22 79.26 Q 304.64 79.26 304.94 79.07 Q 305.24 78.88 305.57 78.6 L 305.57 75.7 Q 305.57 75.26 305.39 75.16 Q 305.21 75.07 304.68 75.07 L 304.68 74.76 L 306.22 74.59 L 306.49 74.59 L 306.49 78.63 Q 306.49 79.11 306.62 79.23 Q 306.75 79.35 307.15 79.35 L 307.26 79.35 Z M 309.6 74.55 L 309.6 75.68 L 309.63 75.68 Q 310.05 75.07 310.35 74.78 Q 310.66 74.48 311.05 74.48 Q 311.37 74.48 311.52 74.65 Q 311.69 74.81 311.69 75.1 Q 311.69 75.41 311.54 75.55 Q 311.39 75.69 311.21 75.69 Q 311.03 75.69 310.89 75.6 Q 310.75 75.51 310.66 75.42 Q 310.56 75.32 310.49 75.32 Q 310.3 75.32 310.06 75.6 Q 309.82 75.89 309.62 76.22 L 309.62 78.73 Q 309.62 79.07 309.71 79.24 Q 309.8 79.42 310.02 79.48 Q 310.25 79.53 310.66 79.53 L 310.66 79.85 L 307.91 79.85 L 307.91 79.53 Q 308.27 79.53 308.43 79.48 Q 308.61 79.41 308.65 79.26 Q 308.71 79.09 308.71 78.78 L 308.71 75.76 Q 308.71 75.46 308.65 75.32 Q 308.61 75.16 308.31 75.16 Q 308.15 75.16 308.06 75.18 Q 307.97 75.19 307.97 75.19 L 307.97 74.88 L 309.34 74.55 L 309.6 74.55 Z M 316.33 78.28 L 316.54 78.43 Q 316.34 78.85 316.08 79.2 Q 315.81 79.54 315.43 79.75 Q 315.06 79.96 314.48 79.96 Q 313.82 79.96 313.28 79.65 Q 312.76 79.33 312.45 78.73 Q 312.14 78.11 312.14 77.23 Q 312.14 76.31 312.45 75.71 Q 312.77 75.11 313.3 74.81 Q 313.82 74.52 314.46 74.52 Q 315.36 74.52 315.91 75.14 Q 316.46 75.77 316.51 76.92 L 313.03 76.92 Q 313.03 77.68 313.27 78.18 Q 313.53 78.66 313.91 78.9 Q 314.31 79.13 314.75 79.13 Q 315.2 79.13 315.47 79.01 Q 315.76 78.89 315.96 78.71 Q 316.16 78.51 316.33 78.28 Z M 313.02 76.52 L 315.47 76.52 Q 315.46 76.11 315.33 75.76 Q 315.2 75.4 314.95 75.18 Q 314.69 74.96 314.3 74.96 Q 313.15 74.96 313.02 76.52 Z M 323.95 76 L 323.95 76.04 Q 324.43 76.12 324.86 76.33 Q 325.3 76.54 325.58 76.92 Q 325.87 77.3 325.87 77.9 Q 325.87 78.84 325.16 79.34 Q 324.47 79.85 323.24 79.85 L 319.85 79.85 L 319.85 79.52 Q 320.3 79.52 320.52 79.44 Q 320.75 79.37 320.83 79.13 Q 320.92 78.9 320.92 78.45 L 320.92 73.95 Q 320.92 73.51 320.83 73.3 Q 320.75 73.08 320.52 73.02 Q 320.3 72.95 319.85 72.95 L 319.85 72.62 L 322.82 72.62 Q 324.3 72.62 324.9 73.07 Q 325.52 73.52 325.52 74.34 Q 325.52 75.08 325.08 75.45 Q 324.64 75.81 323.95 76 Z M 321.93 76.33 L 321.93 79.41 Q 322.33 79.44 322.72 79.44 Q 323.07 79.44 323.43 79.4 Q 323.78 79.35 324.06 79.21 Q 324.36 79.06 324.54 78.76 Q 324.71 78.45 324.71 77.93 Q 324.71 77.3 324.42 76.96 Q 324.13 76.6 323.67 76.47 Q 323.22 76.33 322.7 76.33 L 321.93 76.33 Z M 321.93 75.87 L 322.68 75.87 Q 323.68 75.87 324.05 75.53 Q 324.43 75.18 324.43 74.43 Q 324.43 73.78 324.01 73.41 Q 323.6 73.05 322.59 73.05 Q 322.26 73.05 321.93 73.08 L 321.93 75.87 Z" fill="#000000"/></g><g data-sirentide-role="point" data-sirentide-id="FeatureC" data-sirentide-seq="2"><path d="M 212 232 A 4 4 0 1 1 204 232 A 4 4 0 1 1 212 232 Z" fill="#59a14f"/><path d="M 222.31 230.43 L 221.96 230.43 Q 221.89 230.03 221.8 229.78 Q 221.72 229.53 221.56 229.38 Q 221.39 229.24 221.07 229.18 Q 220.76 229.12 220.22 229.12 L 218.48 229.12 L 218.48 231.9 L 219.77 231.9 Q 220.25 231.9 220.5 231.81 Q 220.75 231.73 220.84 231.49 Q 220.94 231.25 220.94 230.81 L 221.31 230.81 L 221.31 233.36 L 220.94 233.36 Q 220.94 232.91 220.84 232.69 Q 220.75 232.47 220.5 232.41 Q 220.25 232.33 219.77 232.33 L 218.48 232.33 L 218.48 234.64 Q 218.48 235.2 218.73 235.37 Q 218.98 235.52 219.62 235.52 L 219.62 235.85 L 216.4 235.85 L 216.4 235.52 Q 216.85 235.52 217.07 235.45 Q 217.3 235.39 217.38 235.19 Q 217.46 234.98 217.46 234.57 L 217.46 229.87 Q 217.46 229.29 217.22 229.13 Q 216.99 228.95 216.4 228.95 L 216.4 228.62 L 222.25 228.62 L 222.31 230.43 Z M 227.03 234.28 L 227.24 234.43 Q 227.04 234.85 226.78 235.2 Q 226.52 235.54 226.13 235.75 Q 225.76 235.96 225.19 235.96 Q 224.52 235.96 223.99 235.65 Q 223.46 235.33 223.15 234.73 Q 222.84 234.11 222.84 233.23 Q 222.84 232.31 223.15 231.71 Q 223.47 231.11 224 230.81 Q 224.52 230.52 225.16 230.52 Q 226.07 230.52 226.61 231.14 Q 227.17 231.77 227.21 232.92 L 223.73 232.92 Q 223.73 233.68 223.98 234.18 Q 224.23 234.66 224.61 234.9 Q 225.01 235.14 225.45 235.14 Q 225.9 235.14 226.18 235.01 Q 226.46 234.89 226.66 234.71 Q 226.86 234.51 227.03 234.28 Z M 223.72 232.52 L 226.18 232.52 Q 226.16 232.11 226.03 231.76 Q 225.9 231.4 225.65 231.18 Q 225.39 230.96 225 230.96 Q 223.85 230.96 223.72 232.52 Z M 230.96 235.17 L 230.92 235.17 Q 230.53 235.51 230.18 235.72 Q 229.83 235.93 229.3 235.93 Q 228.66 235.93 228.32 235.58 Q 227.99 235.22 227.99 234.7 Q 227.99 234.26 228.19 233.96 Q 228.4 233.65 228.73 233.44 Q 229.07 233.23 229.45 233.09 Q 229.85 232.95 230.22 232.85 Q 230.6 232.75 230.88 232.66 L 230.88 232.18 Q 230.88 231.46 230.63 231.16 Q 230.39 230.86 229.89 230.86 Q 229.42 230.86 229.29 231.05 Q 229.16 231.25 229.16 231.75 Q 229.16 232.25 228.67 232.25 Q 228.51 232.25 228.35 232.13 Q 228.21 232 228.21 231.73 Q 228.21 231.42 228.44 231.14 Q 228.68 230.87 229.11 230.69 Q 229.55 230.52 230.15 230.52 Q 231.05 230.52 231.42 230.93 Q 231.8 231.35 231.8 232.21 L 231.8 234.71 Q 231.8 235.05 231.87 235.15 Q 231.95 235.25 232.13 235.25 Q 232.28 235.25 232.4 235.17 Q 232.53 235.09 232.64 234.97 L 232.81 235.15 Q 232.53 235.54 232.28 235.73 Q 232.04 235.91 231.62 235.91 Q 231.26 235.91 231.14 235.72 Q 231.02 235.53 230.96 235.17 Z M 230.88 234.84 L 230.88 233.02 Q 230.39 233.14 229.95 233.31 Q 229.51 233.47 229.23 233.74 Q 228.96 234 228.96 234.43 Q 228.96 234.84 229.18 235.08 Q 229.4 235.32 229.75 235.32 Q 230.3 235.32 230.88 234.84 Z M 236.08 234.86 L 236.28 235.04 Q 236.08 235.33 235.89 235.54 Q 235.71 235.74 235.49 235.85 Q 235.27 235.96 234.92 235.96 Q 234.37 235.96 234.12 235.64 Q 233.86 235.31 233.86 234.57 L 233.86 231.16 L 233.26 231.16 L 233.26 230.91 Q 233.64 230.67 233.92 230.26 Q 234.21 229.84 234.5 229.14 L 234.79 229.14 L 234.78 230.7 L 236.02 230.7 L 236.02 231.16 L 234.78 231.16 L 234.78 234.27 Q 234.78 234.85 234.88 235.08 Q 234.99 235.31 235.31 235.31 Q 235.57 235.31 235.71 235.2 Q 235.87 235.09 236.08 234.86 Z M 242.26 235.36 L 242.26 235.65 L 240.86 235.91 L 240.62 235.91 L 240.62 235.06 L 240.56 235.06 Q 240.12 235.49 239.71 235.73 Q 239.29 235.96 238.76 235.96 Q 238.08 235.96 237.69 235.52 Q 237.32 235.07 237.32 233.95 L 237.32 231.71 Q 237.32 231.26 237.16 231.18 Q 237.02 231.08 236.57 231.07 L 236.57 230.76 L 237.99 230.59 L 238.23 230.59 L 238.23 233.8 Q 238.23 234.64 238.51 234.95 Q 238.79 235.26 239.22 235.26 Q 239.64 235.26 239.94 235.07 Q 240.24 234.88 240.57 234.6 L 240.57 231.7 Q 240.57 231.26 240.39 231.16 Q 240.21 231.07 239.68 231.07 L 239.68 230.76 L 241.22 230.59 L 241.49 230.59 L 241.49 234.63 Q 241.49 235.11 241.62 235.23 Q 241.75 235.36 242.15 235.36 L 242.26 235.36 Z M 244.6 230.55 L 244.6 231.68 L 244.63 231.68 Q 245.05 231.07 245.35 230.78 Q 245.66 230.48 246.05 230.48 Q 246.37 230.48 246.53 230.65 Q 246.69 230.81 246.69 231.1 Q 246.69 231.41 246.54 231.55 Q 246.39 231.69 246.21 231.69 Q 246.03 231.69 245.89 231.6 Q 245.76 231.51 245.66 231.42 Q 245.56 231.32 245.49 231.32 Q 245.3 231.32 245.06 231.6 Q 244.82 231.89 244.62 232.22 L 244.62 234.73 Q 244.62 235.07 244.71 235.25 Q 244.8 235.42 245.02 235.48 Q 245.25 235.53 245.66 235.53 L 245.66 235.85 L 242.91 235.85 L 242.91 235.53 Q 243.27 235.53 243.43 235.48 Q 243.61 235.41 243.65 235.26 Q 243.71 235.09 243.71 234.78 L 243.71 231.76 Q 243.71 231.46 243.65 231.32 Q 243.61 231.16 243.31 231.16 Q 243.15 231.16 243.06 231.18 Q 242.97 231.19 242.97 231.19 L 242.97 230.88 L 244.34 230.55 L 244.6 230.55 Z M 251.33 234.28 L 251.54 234.43 Q 251.34 234.85 251.08 235.2 Q 250.82 235.54 250.43 235.75 Q 250.06 235.96 249.48 235.96 Q 248.82 235.96 248.29 235.65 Q 247.76 235.33 247.45 234.73 Q 247.14 234.11 247.14 233.23 Q 247.14 232.31 247.45 231.71 Q 247.77 231.11 248.3 230.81 Q 248.82 230.52 249.46 230.52 Q 250.36 230.52 250.91 231.14 Q 251.46 231.77 251.51 232.92 L 248.03 232.92 Q 248.03 233.68 248.27 234.18 Q 248.53 234.66 248.91 234.9 Q 249.31 235.14 249.75 235.14 Q 250.2 235.14 250.47 235.01 Q 250.76 234.89 250.96 234.71 Q 251.16 234.51 251.33 234.28 Z M 248.02 232.52 L 250.47 232.52 Q 250.46 232.11 250.33 231.76 Q 250.2 231.4 249.95 231.18 Q 249.69 230.96 249.3 230.96 Q 248.15 230.96 248.02 232.52 Z M 261.14 234.21 L 261.41 234.44 Q 260.97 235.11 260.25 235.54 Q 259.54 235.97 258.46 235.97 Q 257.33 235.97 256.56 235.49 Q 255.79 235 255.39 234.16 Q 255.01 233.31 255.01 232.24 Q 255.01 231.04 255.47 230.21 Q 255.93 229.37 256.74 228.93 Q 257.56 228.49 258.61 228.49 Q 259.2 228.49 259.55 228.59 Q 259.9 228.69 260.11 228.79 Q 260.32 228.89 260.45 228.89 Q 260.58 228.89 260.65 228.78 Q 260.73 228.66 260.83 228.49 L 261.16 228.49 L 261.16 231.01 L 260.78 231.01 Q 260.61 229.93 260.03 229.45 Q 259.47 228.96 258.63 228.96 Q 257.44 228.96 256.79 229.81 Q 256.15 230.66 256.15 232.13 Q 256.15 233.23 256.48 233.93 Q 256.82 234.62 257.42 234.95 Q 258.01 235.28 258.78 235.28 Q 259.54 235.28 260.11 235 Q 260.68 234.72 261.14 234.21 Z" fill="#000000"/></g><path d="M 123.35 299.86 L 123.02 302 L 117.56 302 L 117.56 301.67 Q 118 301.67 118.21 301.59 Q 118.43 301.52 118.5 301.3 Q 118.56 301.08 118.56 300.65 L 118.56 296.17 Q 118.56 295.74 118.5 295.51 Q 118.43 295.28 118.21 295.19 Q 118 295.1 117.56 295.1 L 117.56 294.77 L 120.65 294.77 L 120.65 295.1 Q 120.21 295.1 119.97 295.2 Q 119.74 295.29 119.65 295.52 Q 119.58 295.75 119.58 296.18 L 119.58 300.96 Q 119.58 301.32 119.75 301.43 Q 119.93 301.54 120.41 301.54 L 120.92 301.54 Q 121.47 301.54 121.81 301.46 Q 122.15 301.37 122.35 301.18 Q 122.56 300.98 122.69 300.66 Q 122.83 300.33 123 299.86 L 123.35 299.86 Z M 126.37 296.67 Q 127.51 296.67 128.16 297.37 Q 128.82 298.07 128.82 299.29 Q 128.82 300.22 128.5 300.85 Q 128.19 301.47 127.64 301.79 Q 127.09 302.11 126.37 302.11 Q 125.22 302.11 124.56 301.4 Q 123.91 300.67 123.91 299.34 Q 123.91 298.54 124.22 297.94 Q 124.53 297.34 125.08 297.01 Q 125.64 296.67 126.37 296.67 Z M 126.33 297.08 Q 125.7 297.08 125.32 297.61 Q 124.93 298.14 124.93 299.2 Q 124.93 300.5 125.32 301.1 Q 125.71 301.68 126.42 301.67 Q 126.87 301.67 127.18 301.46 Q 127.48 301.25 127.64 300.75 Q 127.8 300.24 127.8 299.35 Q 127.8 298.34 127.43 297.71 Q 127.07 297.08 126.33 297.08 Z M 137.57 296.8 L 137.57 297.12 Q 137.25 297.12 137.09 297.27 Q 136.92 297.41 136.76 297.84 L 135.12 302.07 L 134.59 302.07 L 133.42 298.87 L 133.38 298.87 L 132.09 302.07 L 131.59 302.07 L 129.94 297.92 Q 129.79 297.58 129.67 297.41 Q 129.55 297.24 129.4 297.18 Q 129.24 297.12 129 297.12 L 129 296.8 L 131.37 296.8 L 131.37 297.12 Q 131.04 297.12 130.91 297.19 Q 130.78 297.26 130.78 297.39 Q 130.78 297.5 130.82 297.6 Q 130.86 297.7 130.91 297.82 L 131.86 300.25 L 132.06 300.89 L 132.14 300.89 L 132.37 300.25 L 133.16 298.25 L 133.04 297.92 Q 132.91 297.56 132.79 297.39 Q 132.68 297.21 132.52 297.17 Q 132.37 297.12 132.13 297.12 L 132.13 296.8 L 134.43 296.8 L 134.43 297.12 Q 134.12 297.12 134 297.19 Q 133.88 297.26 133.88 297.39 Q 133.88 297.49 133.9 297.61 Q 133.93 297.72 133.97 297.84 L 134.87 300.25 L 135.06 300.89 L 135.13 300.89 L 135.35 300.25 L 136.22 297.79 Q 136.23 297.74 136.25 297.64 Q 136.28 297.53 136.28 297.39 Q 136.28 297.24 136.13 297.18 Q 135.98 297.12 135.67 297.12 L 135.67 296.8 L 137.57 296.8 Z M 146.03 296.58 Q 146.03 297.19 145.74 297.58 Q 145.47 297.96 145.04 298.18 Q 144.62 298.39 144.17 298.5 L 144.17 298.55 Q 144.36 298.66 144.59 298.93 Q 144.83 299.2 145.21 299.72 Q 145.58 300.24 146.18 301.11 Q 146.45 301.47 146.69 301.57 Q 146.94 301.67 147.32 301.67 L 147.32 302 L 145.5 302 Q 145.05 301.32 144.74 300.87 Q 144.45 300.4 144.24 300.1 Q 144.03 299.78 143.86 299.54 Q 143.7 299.29 143.53 299.05 Q 143.37 298.8 143.23 298.74 Q 143.09 298.69 142.8 298.69 L 142.49 298.69 L 142.49 300.64 Q 142.49 301.09 142.57 301.32 Q 142.64 301.54 142.87 301.6 Q 143.1 301.67 143.58 301.67 L 143.58 302 L 140.49 302 L 140.49 301.67 Q 140.9 301.67 141.11 301.6 Q 141.32 301.54 141.39 301.32 Q 141.47 301.1 141.47 300.64 L 141.47 295.92 Q 141.47 295.61 141.4 295.43 Q 141.34 295.26 141.14 295.18 Q 140.93 295.1 140.49 295.1 L 140.49 294.77 L 143.19 294.77 Q 144.02 294.77 144.66 294.94 Q 145.3 295.09 145.67 295.49 Q 146.03 295.87 146.03 296.58 Z M 142.49 295.24 L 142.49 298.26 L 142.91 298.27 Q 143.82 298.23 144.37 297.86 Q 144.92 297.49 144.92 296.62 Q 144.92 295.96 144.51 295.59 Q 144.11 295.2 143.21 295.2 Q 142.84 295.2 142.49 295.24 Z M 151.83 300.43 L 152.04 300.58 Q 151.84 301 151.57 301.35 Q 151.31 301.69 150.93 301.9 Q 150.55 302.11 149.98 302.11 Q 149.32 302.11 148.78 301.8 Q 148.25 301.48 147.94 300.88 Q 147.64 300.26 147.64 299.38 Q 147.64 298.46 147.94 297.86 Q 148.26 297.26 148.79 296.96 Q 149.32 296.67 149.96 296.67 Q 150.86 296.67 151.41 297.29 Q 151.96 297.92 152 299.07 L 148.53 299.07 Q 148.53 299.83 148.77 300.33 Q 149.02 300.81 149.41 301.05 Q 149.8 301.29 150.24 301.29 Q 150.69 301.29 150.97 301.16 Q 151.26 301.04 151.45 300.86 Q 151.65 300.66 151.83 300.43 Z M 148.52 298.67 L 150.97 298.67 Q 150.96 298.26 150.83 297.91 Q 150.69 297.55 150.44 297.33 Q 150.19 297.11 149.79 297.11 Q 148.65 297.11 148.52 298.67 Z M 155.75 301.32 L 155.71 301.32 Q 155.33 301.66 154.97 301.87 Q 154.62 302.08 154.09 302.08 Q 153.46 302.08 153.11 301.73 Q 152.78 301.37 152.78 300.85 Q 152.78 300.4 152.98 300.11 Q 153.19 299.8 153.52 299.59 Q 153.86 299.38 154.25 299.24 Q 154.64 299.1 155.02 299 Q 155.39 298.9 155.68 298.81 L 155.68 298.33 Q 155.68 297.61 155.42 297.31 Q 155.18 297.01 154.69 297.01 Q 154.21 297.01 154.08 297.2 Q 153.95 297.4 153.95 297.9 Q 153.95 298.4 153.47 298.4 Q 153.3 298.4 153.15 298.28 Q 153 298.15 153 297.88 Q 153 297.57 153.24 297.29 Q 153.48 297.02 153.91 296.84 Q 154.35 296.67 154.94 296.67 Q 155.84 296.67 156.22 297.08 Q 156.59 297.5 156.59 298.36 L 156.59 300.86 Q 156.59 301.2 156.67 301.3 Q 156.74 301.4 156.92 301.4 Q 157.07 301.4 157.2 301.32 Q 157.33 301.24 157.44 301.12 L 157.6 301.3 Q 157.33 301.69 157.07 301.88 Q 156.83 302.06 156.41 302.06 Q 156.05 302.06 155.93 301.87 Q 155.81 301.68 155.75 301.32 Z M 155.68 300.99 L 155.68 299.17 Q 155.18 299.29 154.74 299.46 Q 154.3 299.62 154.03 299.89 Q 153.75 300.15 153.75 300.58 Q 153.75 300.99 153.97 301.23 Q 154.19 301.47 154.54 301.47 Q 155.09 301.47 155.68 300.99 Z M 162.13 300.37 L 162.34 300.53 Q 162.13 300.97 161.86 301.33 Q 161.6 301.69 161.2 301.9 Q 160.8 302.11 160.21 302.11 Q 159.53 302.11 159.03 301.78 Q 158.54 301.45 158.27 300.87 Q 158.01 300.27 158.01 299.51 Q 158.01 298.22 158.66 297.45 Q 159.31 296.67 160.5 296.67 Q 161.28 296.67 161.72 297.01 Q 162.17 297.35 162.17 297.83 Q 162.17 298.33 161.71 298.33 Q 161.46 298.33 161.33 298.21 Q 161.21 298.07 161.13 297.89 Q 161.06 297.7 160.97 297.51 Q 160.89 297.33 160.74 297.2 Q 160.59 297.07 160.31 297.07 Q 159.64 297.07 159.25 297.57 Q 158.88 298.05 158.88 299 Q 158.88 300 159.29 300.65 Q 159.7 301.29 160.55 301.29 Q 161.09 301.29 161.42 301.07 Q 161.76 300.85 162.13 300.37 Z M 164.57 298.05 L 164.57 300.93 Q 164.57 301.22 164.61 301.38 Q 164.65 301.55 164.83 301.62 Q 165.01 301.68 165.38 301.68 L 165.38 302 L 162.88 302 L 162.88 301.68 Q 163.31 301.68 163.48 301.56 Q 163.65 301.44 163.65 300.98 L 163.65 295.35 Q 163.65 295.06 163.49 294.98 Q 163.33 294.9 163.11 294.9 Q 162.98 294.9 162.88 294.92 Q 162.79 294.93 162.79 294.93 L 162.79 294.62 L 164.27 294.23 L 164.57 294.23 L 164.57 297.57 L 164.6 297.57 Q 165.12 297.08 165.52 296.87 Q 165.94 296.67 166.38 296.67 Q 166.85 296.67 167.14 296.85 Q 167.44 297.04 167.59 297.35 Q 167.74 297.64 167.8 298.01 Q 167.85 298.36 167.85 298.7 L 167.85 300.89 Q 167.85 301.33 168 301.51 Q 168.15 301.68 168.67 301.68 L 168.67 302 L 166.14 302 L 166.14 301.68 Q 166.52 301.68 166.69 301.6 Q 166.85 301.53 166.9 301.36 Q 166.94 301.2 166.94 300.93 L 166.94 299.03 Q 166.94 298.58 166.88 298.21 Q 166.81 297.82 166.59 297.6 Q 166.38 297.37 165.93 297.37 Q 165.61 297.37 165.29 297.52 Q 164.97 297.68 164.57 298.05 Z" fill="currentColor"/><path d="M 248.22 296.23 L 248.22 298.07 L 251.83 298.07 L 251.83 296.23 Q 251.83 295.8 251.77 295.55 Q 251.72 295.3 251.48 295.2 Q 251.26 295.1 250.76 295.1 L 250.76 294.77 L 253.9 294.77 L 253.9 295.1 Q 253.39 295.1 253.16 295.2 Q 252.93 295.3 252.87 295.54 Q 252.83 295.79 252.83 296.23 L 252.83 300.56 Q 252.83 301.03 252.88 301.27 Q 252.95 301.52 253.18 301.59 Q 253.41 301.67 253.9 301.67 L 253.9 302 L 250.76 302 L 250.76 301.67 Q 251.25 301.67 251.47 301.59 Q 251.7 301.52 251.76 301.27 Q 251.83 301.03 251.83 300.56 L 251.83 298.5 L 248.22 298.5 L 248.22 300.56 Q 248.22 301.04 248.27 301.29 Q 248.34 301.52 248.57 301.59 Q 248.8 301.67 249.3 301.67 L 249.3 302 L 246.14 302 L 246.14 301.67 Q 246.63 301.67 246.85 301.6 Q 247.08 301.53 247.14 301.29 Q 247.21 301.04 247.21 300.56 L 247.21 296.23 Q 247.21 295.8 247.15 295.55 Q 247.1 295.3 246.86 295.2 Q 246.64 295.1 246.14 295.1 L 246.14 294.77 L 249.3 294.77 L 249.3 295.1 Q 248.78 295.1 248.55 295.2 Q 248.32 295.3 248.26 295.55 Q 248.22 295.8 248.22 296.23 Z M 256.96 301.69 L 256.96 302 L 254.49 302 L 254.49 301.69 Q 254.86 301.69 255.02 301.63 Q 255.18 301.55 255.21 301.37 Q 255.26 301.2 255.26 300.89 L 255.26 297.82 Q 255.26 297.47 255.14 297.39 Q 255.02 297.3 254.77 297.3 Q 254.66 297.3 254.58 297.31 Q 254.5 297.33 254.5 297.33 L 254.5 297.01 L 255.88 296.7 L 256.17 296.7 L 256.17 300.89 Q 256.17 301.21 256.21 301.38 Q 256.26 301.56 256.42 301.63 Q 256.6 301.69 256.96 301.69 Z M 255.73 294.6 Q 256.02 294.6 256.18 294.78 Q 256.36 294.96 256.36 295.21 Q 256.36 295.47 256.18 295.65 Q 256.02 295.84 255.73 295.84 Q 255.46 295.84 255.28 295.65 Q 255.1 295.47 255.1 295.21 Q 255.1 294.96 255.27 294.78 Q 255.44 294.6 255.73 294.6 Z M 258.68 299.98 L 258.68 299.95 Q 258.28 299.72 258.05 299.36 Q 257.83 299 257.83 298.46 Q 257.83 297.63 258.39 297.15 Q 258.95 296.67 259.82 296.67 Q 260.19 296.67 260.46 296.73 Q 260.73 296.8 260.89 296.87 Q 261.04 296.94 261.04 296.94 L 262.46 296.86 L 262.46 297.46 L 261.43 297.42 L 261.43 297.48 Q 261.55 297.64 261.68 297.92 Q 261.82 298.19 261.82 298.61 Q 261.82 299.38 261.28 299.83 Q 260.75 300.28 259.88 300.28 Q 259.61 300.28 259.38 300.24 Q 259.15 300.2 258.93 300.12 Q 258.85 300.23 258.74 300.47 Q 258.65 300.71 258.65 300.86 Q 258.65 301.1 258.91 301.2 Q 259.18 301.3 259.94 301.3 Q 260.64 301.3 261.19 301.36 Q 261.75 301.43 262.07 301.7 Q 262.39 301.98 262.39 302.61 Q 262.39 303.15 262.11 303.53 Q 261.85 303.91 261.4 304.15 Q 260.96 304.38 260.42 304.48 Q 259.89 304.58 259.37 304.58 Q 258.66 304.58 258.24 304.41 Q 257.83 304.23 257.67 303.95 Q 257.5 303.67 257.5 303.38 Q 257.5 303.1 257.72 302.79 Q 257.95 302.5 258.39 302.07 L 258.39 302.02 Q 258.12 301.88 257.94 301.67 Q 257.78 301.46 257.78 301.23 Q 257.78 300.93 258.03 300.6 Q 258.29 300.27 258.68 299.98 Z M 258.67 302.11 Q 258.49 302.42 258.42 302.62 Q 258.36 302.83 258.36 303 Q 258.36 303.96 260.01 303.96 Q 260.66 303.96 261.05 303.79 Q 261.46 303.63 261.64 303.39 Q 261.82 303.14 261.82 302.91 Q 261.82 302.63 261.65 302.46 Q 261.47 302.31 261.19 302.24 Q 260.91 302.18 260.59 302.15 Q 260.28 302.13 260.01 302.13 Q 259.94 302.13 259.91 302.13 Q 259.47 302.12 259.23 302.12 Q 258.99 302.12 258.87 302.11 Q 258.74 302.11 258.67 302.11 Z M 259.75 297.06 Q 259.32 297.06 259.05 297.39 Q 258.8 297.72 258.8 298.41 Q 258.8 299.12 259.07 299.51 Q 259.35 299.9 259.89 299.9 Q 260.31 299.9 260.57 299.61 Q 260.84 299.33 260.84 298.55 Q 260.84 297.88 260.56 297.47 Q 260.27 297.06 259.75 297.06 Z M 264.61 298.05 L 264.61 300.93 Q 264.61 301.22 264.65 301.38 Q 264.7 301.55 264.87 301.62 Q 265.05 301.68 265.42 301.68 L 265.42 302 L 262.92 302 L 262.92 301.68 Q 263.35 301.68 263.52 301.56 Q 263.69 301.44 263.69 300.98 L 263.69 295.35 Q 263.69 295.06 263.53 294.98 Q 263.38 294.9 263.15 294.9 Q 263.02 294.9 262.92 294.92 Q 262.84 294.93 262.84 294.93 L 262.84 294.62 L 264.31 294.23 L 264.61 294.23 L 264.61 297.57 L 264.64 297.57 Q 265.16 297.08 265.56 296.87 Q 265.98 296.67 266.42 296.67 Q 266.9 296.67 267.18 296.85 Q 267.48 297.04 267.63 297.35 Q 267.79 297.64 267.84 298.01 Q 267.9 298.36 267.9 298.7 L 267.9 300.89 Q 267.9 301.33 268.04 301.51 Q 268.19 301.68 268.71 301.68 L 268.71 302 L 266.18 302 L 266.18 301.68 Q 266.57 301.68 266.73 301.6 Q 266.9 301.53 266.94 301.36 Q 266.98 301.2 266.98 300.93 L 266.98 299.03 Q 266.98 298.58 266.92 298.21 Q 266.85 297.82 266.63 297.6 Q 266.42 297.37 265.97 297.37 Q 265.65 297.37 265.33 297.52 Q 265.01 297.68 264.61 298.05 Z M 277.54 296.58 Q 277.54 297.19 277.26 297.58 Q 276.98 297.96 276.55 298.18 Q 276.13 298.39 275.68 298.5 L 275.68 298.55 Q 275.87 298.66 276.1 298.93 Q 276.34 299.2 276.72 299.72 Q 277.09 300.24 277.7 301.11 Q 277.96 301.47 278.2 301.57 Q 278.46 301.67 278.83 301.67 L 278.83 302 L 277.01 302 Q 276.56 301.32 276.26 300.87 Q 275.96 300.4 275.75 300.1 Q 275.54 299.78 275.38 299.54 Q 275.21 299.29 275.05 299.05 Q 274.88 298.8 274.74 298.74 Q 274.61 298.69 274.31 298.69 L 274 298.69 L 274 300.64 Q 274 301.09 274.08 301.32 Q 274.15 301.54 274.39 301.6 Q 274.62 301.67 275.09 301.67 L 275.09 302 L 272 302 L 272 301.67 Q 272.42 301.67 272.63 301.6 Q 272.83 301.54 272.9 301.32 Q 272.98 301.1 272.98 300.64 L 272.98 295.92 Q 272.98 295.61 272.91 295.43 Q 272.86 295.26 272.65 295.18 Q 272.44 295.1 272 295.1 L 272 294.77 L 274.7 294.77 Q 275.53 294.77 276.17 294.94 Q 276.82 295.09 277.18 295.49 Q 277.54 295.87 277.54 296.58 Z M 274 295.24 L 274 298.26 L 274.42 298.27 Q 275.33 298.23 275.88 297.86 Q 276.43 297.49 276.43 296.62 Q 276.43 295.96 276.02 295.59 Q 275.62 295.2 274.73 295.2 Q 274.35 295.2 274 295.24 Z M 283.34 300.43 L 283.55 300.58 Q 283.35 301 283.09 301.35 Q 282.82 301.69 282.44 301.9 Q 282.06 302.11 281.49 302.11 Q 280.83 302.11 280.29 301.8 Q 279.77 301.48 279.46 300.88 Q 279.15 300.26 279.15 299.38 Q 279.15 298.46 279.46 297.86 Q 279.78 297.26 280.3 296.96 Q 280.83 296.67 281.47 296.67 Q 282.37 296.67 282.92 297.29 Q 283.47 297.92 283.52 299.07 L 280.04 299.07 Q 280.04 299.83 280.28 300.33 Q 280.53 300.81 280.92 301.05 Q 281.32 301.29 281.76 301.29 Q 282.21 301.29 282.48 301.16 Q 282.77 301.04 282.97 300.86 Q 283.16 300.66 283.34 300.43 Z M 280.03 298.67 L 282.48 298.67 Q 282.47 298.26 282.34 297.91 Q 282.21 297.55 281.95 297.33 Q 281.7 297.11 281.3 297.11 Q 280.16 297.11 280.03 298.67 Z M 287.27 301.32 L 287.22 301.32 Q 286.84 301.66 286.49 301.87 Q 286.13 302.08 285.61 302.08 Q 284.97 302.08 284.63 301.73 Q 284.3 301.37 284.3 300.85 Q 284.3 300.4 284.49 300.11 Q 284.7 299.8 285.03 299.59 Q 285.37 299.38 285.76 299.24 Q 286.16 299.1 286.53 299 Q 286.9 298.9 287.19 298.81 L 287.19 298.33 Q 287.19 297.61 286.94 297.31 Q 286.69 297.01 286.2 297.01 Q 285.73 297.01 285.59 297.2 Q 285.46 297.4 285.46 297.9 Q 285.46 298.4 284.98 298.4 Q 284.81 298.4 284.66 298.28 Q 284.52 298.15 284.52 297.88 Q 284.52 297.57 284.75 297.29 Q 284.99 297.02 285.42 296.84 Q 285.86 296.67 286.45 296.67 Q 287.35 296.67 287.73 297.08 Q 288.1 297.5 288.1 298.36 L 288.1 300.86 Q 288.1 301.2 288.18 301.3 Q 288.26 301.4 288.43 301.4 Q 288.59 301.4 288.71 301.32 Q 288.84 301.24 288.95 301.12 L 289.11 301.3 Q 288.84 301.69 288.59 301.88 Q 288.34 302.06 287.93 302.06 Q 287.56 302.06 287.44 301.87 Q 287.32 301.68 287.27 301.32 Z M 287.19 300.99 L 287.19 299.17 Q 286.69 299.29 286.25 299.46 Q 285.81 299.62 285.54 299.89 Q 285.27 300.15 285.27 300.58 Q 285.27 300.99 285.48 301.23 Q 285.71 301.47 286.06 301.47 Q 286.61 301.47 287.19 300.99 Z M 293.65 300.37 L 293.86 300.53 Q 293.65 300.97 293.37 301.33 Q 293.11 301.69 292.71 301.9 Q 292.32 302.11 291.72 302.11 Q 291.04 302.11 290.54 301.78 Q 290.05 301.45 289.79 300.87 Q 289.52 300.27 289.52 299.51 Q 289.52 298.22 290.17 297.45 Q 290.82 296.67 292.01 296.67 Q 292.79 296.67 293.23 297.01 Q 293.68 297.35 293.68 297.83 Q 293.68 298.33 293.22 298.33 Q 292.98 298.33 292.84 298.21 Q 292.72 298.07 292.65 297.89 Q 292.57 297.7 292.48 297.51 Q 292.4 297.33 292.25 297.2 Q 292.11 297.07 291.82 297.07 Q 291.15 297.07 290.76 297.57 Q 290.39 298.05 290.39 299 Q 290.39 300 290.8 300.65 Q 291.22 301.29 292.06 301.29 Q 292.6 301.29 292.93 301.07 Q 293.27 300.85 293.65 300.37 Z M 296.08 298.05 L 296.08 300.93 Q 296.08 301.22 296.12 301.38 Q 296.17 301.55 296.34 301.62 Q 296.52 301.68 296.89 301.68 L 296.89 302 L 294.39 302 L 294.39 301.68 Q 294.82 301.68 294.99 301.56 Q 295.16 301.44 295.16 300.98 L 295.16 295.35 Q 295.16 295.06 295 294.98 Q 294.85 294.9 294.63 294.9 Q 294.49 294.9 294.39 294.92 Q 294.31 294.93 294.31 294.93 L 294.31 294.62 L 295.78 294.23 L 296.08 294.23 L 296.08 297.57 L 296.11 297.57 Q 296.63 297.08 297.03 296.87 Q 297.45 296.67 297.89 296.67 Q 298.37 296.67 298.65 296.85 Q 298.95 297.04 299.1 297.35 Q 299.26 297.64 299.31 298.01 Q 299.37 298.36 299.37 298.7 L 299.37 300.89 Q 299.37 301.33 299.51 301.51 Q 299.66 301.68 300.18 301.68 L 300.18 302 L 297.65 302 L 297.65 301.68 Q 298.04 301.68 298.2 301.6 Q 298.37 301.53 298.41 301.36 Q 298.45 301.2 298.45 300.93 L 298.45 299.03 Q 298.45 298.58 298.39 298.21 Q 298.32 297.82 298.1 297.6 Q 297.89 297.37 297.44 297.37 Q 297.12 297.37 296.8 297.52 Q 296.48 297.68 296.08 298.05 Z" fill="currentColor"/><path d="M 17.83 29.23 L 17.83 31.07 L 21.44 31.07 L 21.44 29.23 Q 21.44 28.8 21.39 28.55 Q 21.33 28.3 21.1 28.2 Q 20.88 28.1 20.38 28.1 L 20.38 27.77 L 23.52 27.77 L 23.52 28.1 Q 23 28.1 22.77 28.2 Q 22.54 28.3 22.49 28.54 Q 22.44 28.79 22.44 29.23 L 22.44 33.56 Q 22.44 34.03 22.5 34.27 Q 22.56 34.52 22.8 34.59 Q 23.03 34.67 23.52 34.67 L 23.52 35 L 20.38 35 L 20.38 34.67 Q 20.87 34.67 21.09 34.59 Q 21.32 34.52 21.38 34.27 Q 21.44 34.03 21.44 33.56 L 21.44 31.5 L 17.83 31.5 L 17.83 33.56 Q 17.83 34.04 17.89 34.28 Q 17.95 34.52 18.19 34.59 Q 18.42 34.67 18.91 34.67 L 18.91 35 L 15.76 35 L 15.76 34.67 Q 16.25 34.67 16.47 34.6 Q 16.7 34.53 16.76 34.28 Q 16.82 34.04 16.82 33.56 L 16.82 29.23 Q 16.82 28.8 16.77 28.55 Q 16.71 28.3 16.48 28.2 Q 16.26 28.1 15.76 28.1 L 15.76 27.77 L 18.91 27.77 L 18.91 28.1 Q 18.4 28.1 18.16 28.2 Q 17.93 28.3 17.88 28.55 Q 17.83 28.8 17.83 29.23 Z M 26.58 34.69 L 26.58 35 L 24.1 35 L 24.1 34.69 Q 24.48 34.69 24.63 34.63 Q 24.8 34.55 24.83 34.37 Q 24.87 34.2 24.87 33.89 L 24.87 30.82 Q 24.87 30.47 24.75 30.39 Q 24.63 30.3 24.39 30.3 Q 24.28 30.3 24.19 30.31 Q 24.11 30.33 24.11 30.33 L 24.11 30.01 L 25.5 29.7 L 25.79 29.7 L 25.79 33.89 Q 25.79 34.21 25.83 34.38 Q 25.87 34.56 26.04 34.63 Q 26.22 34.69 26.58 34.69 Z M 25.35 27.6 Q 25.63 27.6 25.8 27.78 Q 25.97 27.96 25.97 28.21 Q 25.97 28.47 25.8 28.65 Q 25.63 28.84 25.35 28.84 Q 25.07 28.84 24.9 28.65 Q 24.72 28.47 24.72 28.21 Q 24.72 27.96 24.88 27.78 Q 25.06 27.6 25.35 27.6 Z M 28.29 32.98 L 28.29 32.95 Q 27.9 32.72 27.67 32.36 Q 27.45 32 27.45 31.46 Q 27.45 30.63 28.01 30.15 Q 28.57 29.67 29.44 29.67 Q 29.8 29.67 30.08 29.73 Q 30.35 29.8 30.51 29.87 Q 30.66 29.94 30.66 29.94 L 32.08 29.86 L 32.08 30.46 L 31.04 30.42 L 31.04 30.48 Q 31.17 30.64 31.3 30.92 Q 31.44 31.19 31.44 31.61 Q 31.44 32.38 30.9 32.83 Q 30.36 33.28 29.49 33.28 Q 29.23 33.28 29 33.24 Q 28.77 33.2 28.55 33.12 Q 28.47 33.23 28.36 33.47 Q 28.26 33.71 28.26 33.86 Q 28.26 34.1 28.53 34.2 Q 28.8 34.3 29.56 34.3 Q 30.25 34.3 30.8 34.36 Q 31.36 34.43 31.68 34.7 Q 32 34.98 32 35.6 Q 32 36.16 31.73 36.53 Q 31.46 36.91 31.01 37.15 Q 30.57 37.38 30.03 37.48 Q 29.5 37.59 28.99 37.59 Q 28.27 37.59 27.85 37.41 Q 27.45 37.23 27.28 36.95 Q 27.12 36.67 27.12 36.38 Q 27.12 36.1 27.34 35.79 Q 27.57 35.49 28.01 35.07 L 28.01 35.02 Q 27.73 34.88 27.56 34.67 Q 27.39 34.46 27.39 34.23 Q 27.39 33.93 27.65 33.6 Q 27.91 33.27 28.29 32.98 Z M 28.28 35.11 Q 28.11 35.42 28.04 35.62 Q 27.98 35.83 27.98 36 Q 27.98 36.96 29.63 36.96 Q 30.27 36.96 30.67 36.79 Q 31.08 36.63 31.25 36.39 Q 31.44 36.14 31.44 35.91 Q 31.44 35.63 31.26 35.46 Q 31.09 35.31 30.8 35.24 Q 30.53 35.18 30.21 35.15 Q 29.9 35.13 29.63 35.13 Q 29.56 35.13 29.53 35.13 Q 29.09 35.12 28.84 35.12 Q 28.6 35.12 28.48 35.11 Q 28.36 35.11 28.28 35.11 Z M 29.36 30.06 Q 28.93 30.06 28.67 30.39 Q 28.42 30.72 28.42 31.41 Q 28.42 32.12 28.69 32.51 Q 28.97 32.9 29.5 32.9 Q 29.92 32.9 30.19 32.61 Q 30.46 32.33 30.46 31.55 Q 30.46 30.88 30.18 30.47 Q 29.89 30.06 29.36 30.06 Z M 34.22 31.05 L 34.22 33.93 Q 34.22 34.22 34.27 34.38 Q 34.31 34.55 34.49 34.62 Q 34.66 34.68 35.04 34.68 L 35.04 35 L 32.54 35 L 32.54 34.68 Q 32.97 34.68 33.13 34.56 Q 33.31 34.44 33.31 33.98 L 33.31 28.35 Q 33.31 28.06 33.15 27.98 Q 32.99 27.91 32.77 27.91 Q 32.64 27.91 32.54 27.92 Q 32.45 27.93 32.45 27.93 L 32.45 27.62 L 33.93 27.23 L 34.22 27.23 L 34.22 30.57 L 34.26 30.57 Q 34.77 30.08 35.18 29.87 Q 35.6 29.67 36.04 29.67 Q 36.51 29.67 36.8 29.85 Q 37.09 30.04 37.25 30.35 Q 37.4 30.64 37.46 31.01 Q 37.51 31.36 37.51 31.7 L 37.51 33.89 Q 37.51 34.33 37.66 34.51 Q 37.81 34.68 38.33 34.68 L 38.33 35 L 35.8 35 L 35.8 34.68 Q 36.18 34.68 36.35 34.6 Q 36.51 34.53 36.56 34.36 Q 36.6 34.2 36.6 33.93 L 36.6 32.03 Q 36.6 31.58 36.53 31.21 Q 36.47 30.82 36.25 30.6 Q 36.04 30.37 35.59 30.37 Q 35.27 30.37 34.95 30.52 Q 34.63 30.68 34.22 31.05 Z M 42.61 33.56 L 42.61 29.23 Q 42.61 28.8 42.55 28.55 Q 42.5 28.3 42.26 28.2 Q 42.04 28.1 41.52 28.1 L 41.52 27.77 L 44.68 27.77 L 44.68 28.1 Q 44.17 28.1 43.94 28.2 Q 43.71 28.3 43.65 28.55 Q 43.61 28.8 43.61 29.23 L 43.61 33.56 Q 43.61 34.03 43.67 34.27 Q 43.74 34.51 43.97 34.59 Q 44.2 34.67 44.68 34.67 L 44.68 35 L 41.52 35 L 41.52 34.67 Q 42.01 34.67 42.24 34.59 Q 42.47 34.51 42.54 34.27 Q 42.61 34.03 42.61 33.56 Z M 47.1 31.07 L 47.1 33.93 Q 47.1 34.4 47.26 34.54 Q 47.42 34.68 47.93 34.68 L 47.93 35 L 45.42 35 L 45.42 34.68 Q 45.77 34.68 45.93 34.63 Q 46.09 34.56 46.14 34.4 Q 46.19 34.22 46.19 33.89 L 46.19 30.81 Q 46.19 30.51 46.07 30.41 Q 45.96 30.31 45.73 30.31 Q 45.61 30.31 45.52 30.33 Q 45.43 30.34 45.43 30.34 L 45.43 30.02 L 46.81 29.7 L 47.07 29.7 L 47.07 30.59 L 47.12 30.59 Q 47.57 30.2 47.98 29.94 Q 48.4 29.67 48.96 29.67 Q 49.44 29.67 49.72 29.93 Q 50.02 30.18 50.18 30.58 L 50.23 30.58 Q 50.68 30.13 51.11 29.9 Q 51.54 29.67 51.98 29.67 Q 52.63 29.67 53.01 30.07 Q 53.4 30.48 53.4 31.48 L 53.4 33.72 Q 53.4 34.07 53.43 34.28 Q 53.47 34.49 53.64 34.59 Q 53.81 34.68 54.19 34.68 L 54.19 35 L 51.7 35 L 51.7 34.68 Q 52.08 34.68 52.24 34.58 Q 52.41 34.48 52.44 34.27 Q 52.48 34.05 52.48 33.72 L 52.48 31.61 Q 52.48 31.11 52.35 30.84 Q 52.23 30.58 52.01 30.48 Q 51.8 30.37 51.54 30.37 Q 51.2 30.37 50.87 30.6 Q 50.55 30.82 50.27 31.05 L 50.27 33.72 Q 50.27 34.1 50.32 34.31 Q 50.37 34.52 50.55 34.6 Q 50.72 34.68 51.12 34.68 L 51.12 35 L 48.51 35 L 48.51 34.68 Q 48.91 34.68 49.08 34.6 Q 49.26 34.53 49.3 34.32 Q 49.36 34.11 49.36 33.72 L 49.36 31.55 Q 49.36 30.84 49.11 30.61 Q 48.86 30.37 48.48 30.37 Q 48.05 30.37 47.7 30.61 Q 47.35 30.85 47.1 31.07 Z M 56.38 29.7 L 56.38 30.62 L 56.41 30.62 Q 56.81 30.16 57.21 29.92 Q 57.63 29.67 58.12 29.67 Q 58.67 29.67 59.07 29.98 Q 59.49 30.29 59.72 30.85 Q 59.96 31.4 59.96 32.13 Q 59.96 33.06 59.63 33.74 Q 59.31 34.4 58.76 34.76 Q 58.21 35.11 57.55 35.11 Q 57.25 35.11 56.96 35.03 Q 56.69 34.97 56.44 34.8 L 56.4 34.8 L 56.4 36.24 Q 56.4 36.6 56.49 36.78 Q 56.58 36.97 56.81 37.03 Q 57.04 37.1 57.47 37.1 L 57.47 37.42 L 54.68 37.42 L 54.68 37.11 Q 55.2 37.11 55.34 36.94 Q 55.49 36.77 55.49 36.31 L 55.49 30.86 Q 55.49 30.55 55.41 30.42 Q 55.34 30.3 55.07 30.3 Q 54.96 30.3 54.84 30.31 Q 54.72 30.33 54.72 30.33 L 54.72 30.01 L 56.1 29.7 L 56.38 29.7 Z M 56.4 31.08 L 56.4 33.96 Q 56.51 34.07 56.67 34.24 Q 56.84 34.42 57.07 34.55 Q 57.3 34.68 57.61 34.68 Q 58.19 34.68 58.58 34.13 Q 58.96 33.58 58.96 32.44 Q 58.96 31.39 58.62 30.91 Q 58.28 30.41 57.66 30.41 Q 57.22 30.41 56.88 30.64 Q 56.55 30.88 56.4 31.08 Z M 63.74 34.32 L 63.69 34.32 Q 63.31 34.66 62.96 34.87 Q 62.6 35.08 62.08 35.08 Q 61.44 35.08 61.1 34.73 Q 60.77 34.37 60.77 33.85 Q 60.77 33.41 60.96 33.11 Q 61.17 32.8 61.5 32.59 Q 61.84 32.38 62.23 32.24 Q 62.63 32.1 63 32 Q 63.37 31.9 63.66 31.81 L 63.66 31.33 Q 63.66 30.61 63.41 30.31 Q 63.16 30.01 62.67 30.01 Q 62.2 30.01 62.06 30.2 Q 61.93 30.4 61.93 30.9 Q 61.93 31.4 61.45 31.4 Q 61.28 31.4 61.13 31.28 Q 60.99 31.15 60.99 30.88 Q 60.99 30.57 61.22 30.29 Q 61.46 30.02 61.89 29.84 Q 62.33 29.67 62.92 29.67 Q 63.82 29.67 64.2 30.08 Q 64.57 30.5 64.57 31.36 L 64.57 33.86 Q 64.57 34.2 64.65 34.3 Q 64.73 34.4 64.9 34.4 Q 65.06 34.4 65.18 34.32 Q 65.31 34.24 65.42 34.12 L 65.58 34.3 Q 65.31 34.69 65.06 34.88 Q 64.81 35.06 64.4 35.06 Q 64.03 35.06 63.91 34.87 Q 63.79 34.68 63.74 34.32 Z M 63.66 33.99 L 63.66 32.17 Q 63.16 32.29 62.72 32.46 Q 62.28 32.62 62.01 32.89 Q 61.73 33.15 61.73 33.58 Q 61.73 33.99 61.95 34.23 Q 62.17 34.47 62.53 34.47 Q 63.08 34.47 63.66 33.99 Z M 70.12 33.37 L 70.33 33.53 Q 70.12 33.97 69.84 34.33 Q 69.58 34.69 69.18 34.9 Q 68.79 35.11 68.19 35.11 Q 67.51 35.11 67.01 34.78 Q 66.52 34.45 66.26 33.87 Q 65.99 33.27 65.99 32.51 Q 65.99 31.22 66.64 30.45 Q 67.29 29.67 68.48 29.67 Q 69.26 29.67 69.7 30.01 Q 70.15 30.35 70.15 30.83 Q 70.15 31.33 69.69 31.33 Q 69.45 31.33 69.31 31.21 Q 69.19 31.07 69.12 30.89 Q 69.04 30.7 68.95 30.51 Q 68.87 30.33 68.72 30.2 Q 68.58 30.07 68.29 30.07 Q 67.62 30.07 67.23 30.57 Q 66.86 31.05 66.86 32 Q 66.86 33 67.27 33.65 Q 67.69 34.28 68.53 34.28 Q 69.07 34.28 69.4 34.07 Q 69.74 33.85 70.12 33.37 Z M 73.76 34.01 L 73.97 34.19 Q 73.76 34.48 73.57 34.69 Q 73.4 34.89 73.18 35 Q 72.96 35.11 72.6 35.11 Q 72.05 35.11 71.8 34.79 Q 71.55 34.46 71.55 33.72 L 71.55 30.31 L 70.94 30.31 L 70.94 30.06 Q 71.33 29.82 71.6 29.41 Q 71.89 28.99 72.19 28.29 L 72.47 28.29 L 72.46 29.85 L 73.7 29.85 L 73.7 30.31 L 72.46 30.31 L 72.46 33.42 Q 72.46 34 72.56 34.23 Q 72.67 34.46 72.99 34.46 Q 73.25 34.46 73.4 34.35 Q 73.55 34.24 73.76 34.01 Z" fill="currentColor"/><path d="M 24.48 277.86 L 24.15 280 L 18.69 280 L 18.69 279.67 Q 19.13 279.67 19.34 279.59 Q 19.56 279.52 19.63 279.3 Q 19.69 279.08 19.69 278.65 L 19.69 274.17 Q 19.69 273.74 19.63 273.51 Q 19.56 273.28 19.34 273.19 Q 19.13 273.1 18.69 273.1 L 18.69 272.77 L 21.78 272.77 L 21.78 273.1 Q 21.34 273.1 21.1 273.2 Q 20.87 273.29 20.78 273.52 Q 20.71 273.75 20.71 274.18 L 20.71 278.96 Q 20.71 279.32 20.88 279.43 Q 21.06 279.54 21.54 279.54 L 22.05 279.54 Q 22.6 279.54 22.94 279.46 Q 23.28 279.37 23.48 279.18 Q 23.69 278.98 23.82 278.66 Q 23.96 278.33 24.13 277.86 L 24.48 277.86 Z M 27.5 274.67 Q 28.64 274.67 29.29 275.37 Q 29.95 276.07 29.95 277.29 Q 29.95 278.22 29.63 278.85 Q 29.32 279.47 28.77 279.79 Q 28.22 280.11 27.5 280.11 Q 26.35 280.11 25.69 279.4 Q 25.04 278.67 25.04 277.34 Q 25.04 276.54 25.35 275.94 Q 25.66 275.34 26.21 275.01 Q 26.77 274.67 27.5 274.67 Z M 27.46 275.08 Q 26.83 275.08 26.45 275.61 Q 26.06 276.14 26.06 277.2 Q 26.06 278.5 26.45 279.1 Q 26.84 279.68 27.55 279.67 Q 28 279.67 28.31 279.46 Q 28.61 279.25 28.77 278.75 Q 28.93 278.24 28.93 277.35 Q 28.93 276.34 28.56 275.71 Q 28.2 275.08 27.46 275.08 Z M 38.7 274.8 L 38.7 275.12 Q 38.38 275.12 38.22 275.27 Q 38.05 275.41 37.89 275.84 L 36.25 280.07 L 35.72 280.07 L 34.55 276.87 L 34.51 276.87 L 33.22 280.07 L 32.72 280.07 L 31.07 275.92 Q 30.92 275.58 30.8 275.41 Q 30.68 275.24 30.53 275.18 Q 30.37 275.12 30.13 275.12 L 30.13 274.8 L 32.5 274.8 L 32.5 275.12 Q 32.17 275.12 32.04 275.19 Q 31.91 275.26 31.91 275.39 Q 31.91 275.5 31.95 275.6 Q 31.99 275.7 32.04 275.82 L 32.99 278.25 L 33.19 278.89 L 33.27 278.89 L 33.5 278.25 L 34.29 276.25 L 34.17 275.92 Q 34.04 275.56 33.92 275.39 Q 33.81 275.21 33.65 275.17 Q 33.5 275.12 33.26 275.12 L 33.26 274.8 L 35.56 274.8 L 35.56 275.12 Q 35.25 275.12 35.13 275.19 Q 35.01 275.26 35.01 275.39 Q 35.01 275.49 35.03 275.61 Q 35.06 275.72 35.1 275.84 L 36 278.25 L 36.19 278.89 L 36.26 278.89 L 36.48 278.25 L 37.35 275.79 Q 37.36 275.74 37.38 275.64 Q 37.41 275.53 37.41 275.39 Q 37.41 275.24 37.26 275.18 Q 37.11 275.12 36.8 275.12 L 36.8 274.8 L 38.7 274.8 Z M 42.61 278.56 L 42.61 274.23 Q 42.61 273.8 42.55 273.55 Q 42.5 273.3 42.27 273.2 Q 42.05 273.1 41.52 273.1 L 41.52 272.77 L 44.69 272.77 L 44.69 273.1 Q 44.17 273.1 43.94 273.2 Q 43.71 273.3 43.65 273.55 Q 43.61 273.8 43.61 274.23 L 43.61 278.56 Q 43.61 279.03 43.67 279.27 Q 43.74 279.51 43.97 279.59 Q 44.2 279.67 44.69 279.67 L 44.69 280 L 41.52 280 L 41.52 279.67 Q 42.01 279.67 42.24 279.59 Q 42.47 279.51 42.54 279.27 Q 42.61 279.03 42.61 278.56 Z M 47.11 276.07 L 47.11 278.93 Q 47.11 279.4 47.26 279.54 Q 47.42 279.68 47.93 279.68 L 47.93 280 L 45.42 280 L 45.42 279.68 Q 45.77 279.68 45.93 279.63 Q 46.09 279.56 46.14 279.4 Q 46.19 279.22 46.19 278.89 L 46.19 275.81 Q 46.19 275.51 46.07 275.41 Q 45.96 275.31 45.73 275.31 Q 45.61 275.31 45.52 275.33 Q 45.43 275.34 45.43 275.34 L 45.43 275.02 L 46.81 274.7 L 47.07 274.7 L 47.07 275.59 L 47.12 275.59 Q 47.57 275.2 47.99 274.94 Q 48.4 274.67 48.96 274.67 Q 49.44 274.67 49.72 274.93 Q 50.02 275.18 50.19 275.58 L 50.23 275.58 Q 50.68 275.13 51.11 274.9 Q 51.54 274.67 51.98 274.67 Q 52.63 274.67 53.01 275.07 Q 53.4 275.48 53.4 276.48 L 53.4 278.72 Q 53.4 279.07 53.43 279.29 Q 53.47 279.49 53.64 279.59 Q 53.82 279.68 54.19 279.68 L 54.19 280 L 51.7 280 L 51.7 279.68 Q 52.08 279.68 52.24 279.58 Q 52.41 279.48 52.44 279.27 Q 52.48 279.05 52.48 278.72 L 52.48 276.61 Q 52.48 276.11 52.35 275.84 Q 52.23 275.58 52.01 275.48 Q 51.8 275.37 51.54 275.37 Q 51.2 275.37 50.87 275.6 Q 50.55 275.82 50.27 276.05 L 50.27 278.72 Q 50.27 279.1 50.32 279.31 Q 50.37 279.52 50.55 279.6 Q 50.72 279.68 51.12 279.68 L 51.12 280 L 48.51 280 L 48.51 279.68 Q 48.91 279.68 49.09 279.6 Q 49.26 279.53 49.31 279.32 Q 49.36 279.11 49.36 278.72 L 49.36 276.55 Q 49.36 275.84 49.11 275.61 Q 48.87 275.37 48.48 275.37 Q 48.05 275.37 47.7 275.61 Q 47.35 275.85 47.11 276.07 Z M 56.38 274.7 L 56.38 275.62 L 56.41 275.62 Q 56.81 275.16 57.21 274.92 Q 57.63 274.67 58.12 274.67 Q 58.67 274.67 59.07 274.98 Q 59.49 275.29 59.72 275.85 Q 59.96 276.4 59.96 277.13 Q 59.96 278.06 59.63 278.74 Q 59.32 279.4 58.77 279.76 Q 58.22 280.11 57.56 280.11 Q 57.25 280.11 56.96 280.03 Q 56.69 279.97 56.44 279.8 L 56.4 279.8 L 56.4 281.24 Q 56.4 281.6 56.49 281.78 Q 56.58 281.97 56.81 282.04 Q 57.04 282.1 57.47 282.1 L 57.47 282.42 L 54.68 282.42 L 54.68 282.11 Q 55.2 282.11 55.34 281.94 Q 55.49 281.77 55.49 281.31 L 55.49 275.86 Q 55.49 275.55 55.41 275.42 Q 55.34 275.3 55.07 275.3 Q 54.96 275.3 54.84 275.31 Q 54.72 275.33 54.72 275.33 L 54.72 275.01 L 56.1 274.7 L 56.38 274.7 Z M 56.4 276.08 L 56.4 278.96 Q 56.51 279.07 56.68 279.24 Q 56.84 279.42 57.07 279.55 Q 57.3 279.68 57.61 279.68 Q 58.19 279.68 58.58 279.13 Q 58.96 278.58 58.96 277.44 Q 58.96 276.39 58.62 275.91 Q 58.28 275.41 57.67 275.41 Q 57.23 275.41 56.88 275.64 Q 56.55 275.88 56.4 276.08 Z M 63.74 279.32 L 63.69 279.32 Q 63.31 279.66 62.96 279.87 Q 62.6 280.08 62.08 280.08 Q 61.44 280.08 61.1 279.73 Q 60.77 279.37 60.77 278.85 Q 60.77 278.4 60.97 278.11 Q 61.17 277.8 61.5 277.59 Q 61.85 277.38 62.23 277.24 Q 62.63 277.1 63 277 Q 63.37 276.9 63.66 276.81 L 63.66 276.33 Q 63.66 275.61 63.41 275.31 Q 63.17 275.01 62.67 275.01 Q 62.2 275.01 62.07 275.2 Q 61.93 275.4 61.93 275.9 Q 61.93 276.4 61.45 276.4 Q 61.28 276.4 61.13 276.28 Q 60.99 276.15 60.99 275.88 Q 60.99 275.57 61.22 275.29 Q 61.46 275.02 61.89 274.84 Q 62.33 274.67 62.92 274.67 Q 63.83 274.67 64.2 275.08 Q 64.57 275.5 64.57 276.36 L 64.57 278.86 Q 64.57 279.2 64.65 279.3 Q 64.73 279.4 64.9 279.4 Q 65.06 279.4 65.18 279.32 Q 65.31 279.24 65.42 279.12 L 65.59 279.3 Q 65.31 279.69 65.06 279.88 Q 64.82 280.06 64.4 280.06 Q 64.03 280.06 63.91 279.87 Q 63.79 279.68 63.74 279.32 Z M 63.66 278.99 L 63.66 277.17 Q 63.17 277.29 62.73 277.46 Q 62.29 277.62 62.01 277.89 Q 61.74 278.15 61.74 278.58 Q 61.74 278.99 61.96 279.23 Q 62.18 279.47 62.53 279.47 Q 63.08 279.47 63.66 278.99 Z M 70.12 278.37 L 70.33 278.53 Q 70.12 278.97 69.84 279.33 Q 69.58 279.69 69.18 279.9 Q 68.79 280.11 68.19 280.11 Q 67.51 280.11 67.02 279.78 Q 66.52 279.45 66.26 278.87 Q 65.99 278.27 65.99 277.51 Q 65.99 276.22 66.64 275.45 Q 67.29 274.67 68.48 274.67 Q 69.26 274.67 69.7 275.01 Q 70.15 275.35 70.15 275.83 Q 70.15 276.33 69.69 276.33 Q 69.45 276.33 69.31 276.21 Q 69.19 276.07 69.12 275.89 Q 69.04 275.7 68.95 275.51 Q 68.87 275.33 68.72 275.2 Q 68.58 275.07 68.29 275.07 Q 67.62 275.07 67.24 275.57 Q 66.86 276.05 66.86 277 Q 66.86 278 67.27 278.65 Q 67.69 279.29 68.53 279.29 Q 69.07 279.29 69.4 279.07 Q 69.74 278.85 70.12 278.37 Z M 73.76 279.01 L 73.97 279.19 Q 73.76 279.48 73.57 279.69 Q 73.4 279.89 73.18 280 Q 72.96 280.11 72.6 280.11 Q 72.05 280.11 71.8 279.79 Q 71.55 279.46 71.55 278.72 L 71.55 275.31 L 70.94 275.31 L 70.94 275.06 Q 71.33 274.82 71.6 274.41 Q 71.89 273.99 72.19 273.29 L 72.47 273.29 L 72.46 274.85 L 73.7 274.85 L 73.7 275.31 L 72.46 275.31 L 72.46 278.42 Q 72.46 279 72.56 279.23 Q 72.67 279.46 72.99 279.46 Q 73.25 279.46 73.4 279.35 Q 73.55 279.24 73.76 279.01 Z" fill="currentColor"/></svg>