<svg xmlns="http://www.w3.org/2000/svg" width="360" height="360" viewBox="0 0 360 360" role="img"><title>A3 root system</title><desc>A3 root system (sl4): 12 roots, Coxeter number 4. 24 ambient minimal-distance root links shown.</desc><g data-sirentide-role="edge" data-sirentide-id="rootedge-0-1" data-sirentide-seq="0"><line x1="180" y1="77.47" x2="77.47" y2="77.47" stroke="#8490a1" stroke-width="1"/></g><g data-sirentide-role="edge" data-sirentide-id="rootedge-0-2" data-sirentide-seq="1"><line x1="180" y1="77.47" x2="77.47" y2="180" stroke="#8490a1" stroke-width="1"/></g><g data-sirentide-role="edge" data-sirentide-id="rootedge-0-3" data-sirentide-seq="2"><line x1="180" y1="77.47" x2="282.53" y2="77.47" stroke="#8490a1" stroke-width="1"/></g><g data-sirentide-role="edge" data-sirentide-id="rootedge-0-5" data-sirentide-seq="3"><line x1="180" y1="77.47" x2="282.53" y2="180" stroke="#8490a1" stroke-width="1"/></g><g data-sirentide-role="edge" data-sirentide-id="rootedge-1-2" data-sirentide-seq="4"><line x1="77.47" y1="77.47" x2="77.47" y2="180" stroke="#8490a1" stroke-width="1"/></g><g data-sirentide-role="edge" data-sirentide-id="rootedge-1-4" data-sirentide-seq="5"><line x1="77.47" y1="77.47" x2="180" y2="77.47" stroke="#8490a1" stroke-width="1"/></g><g data-sirentide-role="edge" data-sirentide-id="rootedge-1-6" data-sirentide-seq="6"><line x1="77.47" y1="77.47" x2="77.47" y2="180" stroke="#8490a1" stroke-width="1"/></g><g data-sirentide-role="edge" data-sirentide-id="rootedge-2-7" data-sirentide-seq="7"><line x1="77.47" y1="180" x2="180" y2="282.53" stroke="#8490a1" stroke-width="1"/></g><g data-sirentide-role="edge" data-sirentide-id="rootedge-2-8" data-sirentide-seq="8"><line x1="77.47" y1="180" x2="77.47" y2="282.53" stroke="#8490a1" stroke-width="1"/></g><g data-sirentide-role="edge" data-sirentide-id="rootedge-3-4" data-sirentide-seq="9"><line x1="282.53" y1="77.47" x2="180" y2="77.47" stroke="#8490a1" stroke-width="1"/></g><g data-sirentide-role="edge" data-sirentide-id="rootedge-3-5" data-sirentide-seq="10"><line x1="282.53" y1="77.47" x2="282.53" y2="180" stroke="#8490a1" stroke-width="1"/></g><g data-sirentide-role="edge" data-sirentide-id="rootedge-3-9" data-sirentide-seq="11"><line x1="282.53" y1="77.47" x2="282.53" y2="180" stroke="#8490a1" stroke-width="1"/></g><g data-sirentide-role="edge" data-sirentide-id="rootedge-4-6" data-sirentide-seq="12"><line x1="180" y1="77.47" x2="77.47" y2="180" stroke="#8490a1" stroke-width="1"/></g><g data-sirentide-role="edge" data-sirentide-id="rootedge-4-9" data-sirentide-seq="13"><line x1="180" y1="77.47" x2="282.53" y2="180" stroke="#8490a1" stroke-width="1"/></g><g data-sirentide-role="edge" data-sirentide-id="rootedge-5-7" data-sirentide-seq="14"><line x1="282.53" y1="180" x2="180" y2="282.53" stroke="#8490a1" stroke-width="1"/></g><g data-sirentide-role="edge" data-sirentide-id="rootedge-5-10" data-sirentide-seq="15"><line x1="282.53" y1="180" x2="282.53" y2="282.53" stroke="#8490a1" stroke-width="1"/></g><g data-sirentide-role="edge" data-sirentide-id="rootedge-6-8" data-sirentide-seq="16"><line x1="77.47" y1="180" x2="77.47" y2="282.53" stroke="#8490a1" stroke-width="1"/></g><g data-sirentide-role="edge" data-sirentide-id="rootedge-6-11" data-sirentide-seq="17"><line x1="77.47" y1="180" x2="180" y2="282.53" stroke="#8490a1" stroke-width="1"/></g><g data-sirentide-role="edge" data-sirentide-id="rootedge-7-8" data-sirentide-seq="18"><line x1="180" y1="282.53" x2="77.47" y2="282.53" stroke="#8490a1" stroke-width="1"/></g><g data-sirentide-role="edge" data-sirentide-id="rootedge-7-10" data-sirentide-seq="19"><line x1="180" y1="282.53" x2="282.53" y2="282.53" stroke="#8490a1" stroke-width="1"/></g><g data-sirentide-role="edge" data-sirentide-id="rootedge-8-11" data-sirentide-seq="20"><line x1="77.47" y1="282.53" x2="180" y2="282.53" stroke="#8490a1" stroke-width="1"/></g><g data-sirentide-role="edge" data-sirentide-id="rootedge-9-10" data-sirentide-seq="21"><line x1="282.53" y1="180" x2="282.53" y2="282.53" stroke="#8490a1" stroke-width="1"/></g><g data-sirentide-role="edge" data-sirentide-id="rootedge-9-11" data-sirentide-seq="22"><line x1="282.53" y1="180" x2="180" y2="282.53" stroke="#8490a1" stroke-width="1"/></g><g data-sirentide-role="edge" data-sirentide-id="rootedge-10-11" data-sirentide-seq="23"><line x1="282.53" y1="282.53" x2="180" y2="282.53" stroke="#8490a1" stroke-width="1"/></g><path d="M 282.53 180 A 102.53 102.53 0 1 1 77.47 180 A 102.53 102.53 0 1 1 282.53 180 Z" fill="none" stroke="#94a3b8" stroke-width="0.75"/><path d="M 325 180 A 145 145 0 1 1 35 180 A 145 145 0 1 1 325 180 Z" fill="none" stroke="#94a3b8" stroke-width="0.75"/><g data-sirentide-role="point" data-sirentide-id="root-0" data-sirentide-seq="24"><path d="M 183.4 77.47 A 3.4 3.4 0 1 1 176.6 77.47 A 3.4 3.4 0 1 1 183.4 77.47 Z" fill="#2563eb"/></g><g data-sirentide-role="point" data-sirentide-id="root-1" data-sirentide-seq="25"><path d="M 80.87 77.47 A 3.4 3.4 0 1 1 74.07 77.47 A 3.4 3.4 0 1 1 80.87 77.47 Z" fill="#2563eb"/></g><g data-sirentide-role="point" data-sirentide-id="root-2" data-sirentide-seq="26"><path d="M 80.87 180 A 3.4 3.4 0 1 1 74.07 180 A 3.4 3.4 0 1 1 80.87 180 Z" fill="#2563eb"/></g><g data-sirentide-role="point" data-sirentide-id="root-3" data-sirentide-seq="27"><path d="M 285.93 77.47 A 3.4 3.4 0 1 1 279.13 77.47 A 3.4 3.4 0 1 1 285.93 77.47 Z" fill="#2563eb"/></g><g data-sirentide-role="point" data-sirentide-id="root-4" data-sirentide-seq="28"><path d="M 183.4 77.47 A 3.4 3.4 0 1 1 176.6 77.47 A 3.4 3.4 0 1 1 183.4 77.47 Z" fill="#2563eb"/></g><g data-sirentide-role="point" data-sirentide-id="root-5" data-sirentide-seq="29"><path d="M 285.93 180 A 3.4 3.4 0 1 1 279.13 180 A 3.4 3.4 0 1 1 285.93 180 Z" fill="#2563eb"/></g><g data-sirentide-role="point" data-sirentide-id="root-6" data-sirentide-seq="30"><path d="M 80.87 180 A 3.4 3.4 0 1 1 74.07 180 A 3.4 3.4 0 1 1 80.87 180 Z" fill="#2563eb"/></g><g data-sirentide-role="point" data-sirentide-id="root-7" data-sirentide-seq="31"><path d="M 183.4 282.53 A 3.4 3.4 0 1 1 176.6 282.53 A 3.4 3.4 0 1 1 183.4 282.53 Z" fill="#2563eb"/></g><g data-sirentide-role="point" data-sirentide-id="root-8" data-sirentide-seq="32"><path d="M 80.87 282.53 A 3.4 3.4 0 1 1 74.07 282.53 A 3.4 3.4 0 1 1 80.87 282.53 Z" fill="#2563eb"/></g><g data-sirentide-role="point" data-sirentide-id="root-9" data-sirentide-seq="33"><path d="M 285.93 180 A 3.4 3.4 0 1 1 279.13 180 A 3.4 3.4 0 1 1 285.93 180 Z" fill="#2563eb"/></g><g data-sirentide-role="point" data-sirentide-id="root-10" data-sirentide-seq="34"><path d="M 285.93 282.53 A 3.4 3.4 0 1 1 279.13 282.53 A 3.4 3.4 0 1 1 285.93 282.53 Z" fill="#2563eb"/></g><g data-sirentide-role="point" data-sirentide-id="root-11" data-sirentide-seq="35"><path d="M 183.4 282.53 A 3.4 3.4 0 1 1 176.6 282.53 A 3.4 3.4 0 1 1 183.4 282.53 Z" fill="#2563eb"/></g></svg>