<svg xmlns="http://www.w3.org/2000/svg" width="402" height="406" viewBox="0 0 402 406" role="img"><title>Sankey diagram</title><desc>Sankey diagram with 5 nodes and 4 flows. Flows: Coal to Electricity 25; Gas to Electricity 15; Electricity to Homes 20; Electricity to Industry 20.</desc><g data-sirentide-role="flow" data-sirentide-id="Coal-Electricity" data-sirentide-seq="0"><path d="M 42 24 L 192 24 L 192 236.5 L 42 236.5 Z" fill="#afc3d7"/></g><g data-sirentide-role="flow" data-sirentide-id="Gas-Electricity" data-sirentide-seq="1"><path d="M 42 254.5 L 192 236.5 L 192 364 L 42 382 Z" fill="#b4d5b0"/></g><g data-sirentide-role="flow" data-sirentide-id="Electricity-Homes" data-sirentide-seq="2"><path d="M 210 24 L 360 24 L 360 194 L 210 194 Z" fill="#f9cca0"/></g><g data-sirentide-role="flow" data-sirentide-id="Electricity-Industry" data-sirentide-seq="3"><path d="M 210 194 L 360 212 L 360 382 L 210 364 Z" fill="#f9cca0"/></g><g data-sirentide-role="node" data-sirentide-id="Coal" data-sirentide-seq="4"><rect x="24" y="24" width="18" height="212.5" fill="#4e79a7"/><path d="M 57.3 132.66 L 57.58 132.91 Q 57.1 133.65 56.32 134.11 Q 55.54 134.58 54.37 134.58 Q 53.13 134.58 52.29 134.05 Q 51.45 133.53 51.02 132.6 Q 50.6 131.68 50.6 130.51 Q 50.6 129.21 51.1 128.29 Q 51.61 127.38 52.5 126.9 Q 53.38 126.42 54.54 126.42 Q 55.17 126.42 55.56 126.53 Q 55.94 126.64 56.17 126.75 Q 56.4 126.85 56.54 126.85 Q 56.68 126.85 56.76 126.73 Q 56.84 126.6 56.95 126.42 L 57.31 126.42 L 57.31 129.17 L 56.9 129.17 Q 56.71 127.99 56.08 127.47 Q 55.47 126.94 54.55 126.94 Q 53.25 126.94 52.54 127.86 Q 51.85 128.79 51.85 130.39 Q 51.85 131.59 52.21 132.35 Q 52.58 133.11 53.23 133.47 Q 53.88 133.83 54.72 133.83 Q 55.54 133.83 56.17 133.53 Q 56.79 133.21 57.3 132.66 Z M 61.14 128.63 Q 62.37 128.63 63.08 129.4 Q 63.8 130.17 63.8 131.5 Q 63.8 132.51 63.45 133.19 Q 63.12 133.87 62.52 134.22 Q 61.92 134.57 61.14 134.57 Q 59.88 134.57 59.16 133.79 Q 58.45 133 58.45 131.55 Q 58.45 130.67 58.78 130.02 Q 59.12 129.36 59.72 129 Q 60.33 128.63 61.14 128.63 Z M 61.09 129.09 Q 60.4 129.09 59.98 129.66 Q 59.56 130.24 59.56 131.39 Q 59.56 132.82 59.98 133.47 Q 60.42 134.1 61.18 134.09 Q 61.68 134.09 62.01 133.86 Q 62.35 133.63 62.52 133.08 Q 62.7 132.53 62.7 131.56 Q 62.7 130.45 62.29 129.77 Q 61.89 129.09 61.09 129.09 Z M 67.9 133.71 L 67.86 133.71 Q 67.44 134.08 67.05 134.31 Q 66.67 134.53 66.09 134.53 Q 65.4 134.53 65.02 134.15 Q 64.66 133.77 64.66 133.19 Q 64.66 132.71 64.88 132.39 Q 65.11 132.05 65.47 131.82 Q 65.84 131.59 66.26 131.44 Q 66.69 131.28 67.1 131.17 Q 67.51 131.07 67.82 130.97 L 67.82 130.44 Q 67.82 129.66 67.54 129.34 Q 67.28 129 66.74 129 Q 66.22 129 66.08 129.22 Q 65.94 129.43 65.94 129.97 Q 65.94 130.53 65.41 130.53 Q 65.23 130.53 65.06 130.39 Q 64.9 130.25 64.9 129.95 Q 64.9 129.61 65.16 129.31 Q 65.42 129.01 65.89 128.82 Q 66.37 128.63 67.02 128.63 Q 68 128.63 68.41 129.09 Q 68.82 129.54 68.82 130.48 L 68.82 133.2 Q 68.82 133.57 68.9 133.68 Q 68.98 133.79 69.18 133.79 Q 69.34 133.79 69.48 133.71 Q 69.62 133.62 69.74 133.49 L 69.92 133.68 Q 69.62 134.11 69.34 134.32 Q 69.08 134.51 68.62 134.51 Q 68.23 134.51 68.1 134.31 Q 67.96 134.1 67.9 133.71 Z M 67.82 133.35 L 67.82 131.37 Q 67.28 131.5 66.8 131.68 Q 66.32 131.86 66.02 132.15 Q 65.72 132.43 65.72 132.9 Q 65.72 133.35 65.96 133.61 Q 66.2 133.87 66.58 133.87 Q 67.18 133.87 67.82 133.35 Z M 73.09 134.1 L 73.09 134.45 L 70.33 134.45 L 70.33 134.1 Q 70.72 134.1 70.9 134.03 Q 71.08 133.95 71.12 133.77 Q 71.17 133.57 71.17 133.24 L 71.17 127.21 Q 71.17 126.84 71.02 126.77 Q 70.89 126.7 70.66 126.7 Q 70.51 126.7 70.39 126.71 Q 70.28 126.72 70.28 126.72 L 70.28 126.4 L 71.86 125.98 L 72.16 125.98 L 72.16 133.24 Q 72.16 133.59 72.21 133.78 Q 72.27 133.96 72.46 134.03 Q 72.66 134.1 73.09 134.1 Z" fill="currentColor"/></g><g data-sirentide-role="node" data-sirentide-id="Electricity" data-sirentide-seq="5"><rect x="192" y="24" width="18" height="340" fill="#f28e2b"/><path d="M 225.18 195.97 L 224.84 198.2 L 218.43 198.2 L 218.43 197.84 Q 218.92 197.84 219.16 197.78 Q 219.42 197.71 219.5 197.48 Q 219.6 197.25 219.6 196.78 L 219.6 191.78 Q 219.6 191.32 219.5 191.08 Q 219.42 190.84 219.16 190.76 Q 218.92 190.68 218.43 190.68 L 218.43 190.32 L 224.73 190.32 L 224.8 192.28 L 224.42 192.28 Q 224.34 191.68 224.16 191.38 Q 223.99 191.07 223.59 190.96 Q 223.21 190.86 222.46 190.86 L 220.7 190.86 L 220.7 193.9 L 222.1 193.9 Q 222.66 193.9 222.94 193.81 Q 223.23 193.71 223.34 193.45 Q 223.45 193.18 223.45 192.7 L 223.83 192.7 L 223.83 195.49 L 223.45 195.49 Q 223.45 195 223.34 194.76 Q 223.23 194.52 222.94 194.44 Q 222.66 194.37 222.1 194.37 L 220.7 194.37 L 220.7 197.67 L 222.25 197.67 Q 222.94 197.67 223.36 197.61 Q 223.8 197.54 224.04 197.36 Q 224.29 197.18 224.44 196.84 Q 224.61 196.51 224.79 195.97 L 225.18 195.97 Z M 228.63 197.85 L 228.63 198.2 L 225.87 198.2 L 225.87 197.85 Q 226.27 197.85 226.45 197.78 Q 226.63 197.7 226.66 197.52 Q 226.71 197.32 226.71 196.99 L 226.71 190.96 Q 226.71 190.59 226.57 190.52 Q 226.44 190.45 226.21 190.45 Q 226.05 190.45 225.93 190.46 Q 225.82 190.47 225.82 190.47 L 225.82 190.15 L 227.41 189.73 L 227.71 189.73 L 227.71 196.99 Q 227.71 197.34 227.76 197.53 Q 227.82 197.71 228.01 197.78 Q 228.2 197.85 228.63 197.85 Z M 233.89 196.48 L 234.12 196.65 Q 233.9 197.11 233.61 197.49 Q 233.32 197.86 232.9 198.09 Q 232.5 198.32 231.87 198.32 Q 231.15 198.32 230.56 197.98 Q 229.99 197.64 229.65 196.98 Q 229.32 196.3 229.32 195.34 Q 229.32 194.34 229.65 193.69 Q 230 193.03 230.58 192.7 Q 231.15 192.38 231.85 192.38 Q 232.83 192.38 233.43 193.06 Q 234.03 193.75 234.08 195.01 L 230.29 195.01 Q 230.29 195.84 230.55 196.38 Q 230.83 196.9 231.25 197.17 Q 231.68 197.42 232.16 197.42 Q 232.65 197.42 232.95 197.29 Q 233.26 197.16 233.48 196.95 Q 233.7 196.74 233.89 196.48 Z M 230.28 194.56 L 232.95 194.56 Q 232.94 194.12 232.8 193.74 Q 232.65 193.34 232.38 193.1 Q 232.1 192.86 231.67 192.86 Q 230.42 192.86 230.28 194.56 Z M 239.37 196.42 L 239.6 196.59 Q 239.37 197.07 239.07 197.47 Q 238.78 197.86 238.35 198.09 Q 237.92 198.32 237.27 198.32 Q 236.53 198.32 235.99 197.96 Q 235.45 197.6 235.16 196.96 Q 234.87 196.32 234.87 195.49 Q 234.87 194.07 235.58 193.23 Q 236.29 192.38 237.58 192.38 Q 238.44 192.38 238.92 192.75 Q 239.41 193.12 239.41 193.65 Q 239.41 194.19 238.9 194.19 Q 238.64 194.19 238.5 194.06 Q 238.36 193.92 238.28 193.71 Q 238.2 193.51 238.1 193.3 Q 238.02 193.1 237.85 192.97 Q 237.69 192.82 237.38 192.82 Q 236.65 192.82 236.23 193.36 Q 235.82 193.89 235.82 194.92 Q 235.82 196.02 236.26 196.72 Q 236.72 197.42 237.64 197.42 Q 238.23 197.42 238.59 197.18 Q 238.96 196.94 239.37 196.42 Z M 243.34 197.12 L 243.57 197.31 Q 243.34 197.64 243.14 197.86 Q 242.95 198.08 242.71 198.2 Q 242.47 198.32 242.08 198.32 Q 241.48 198.32 241.21 197.97 Q 240.93 197.61 240.93 196.81 L 240.93 193.09 L 240.27 193.09 L 240.27 192.81 Q 240.69 192.55 240.99 192.1 Q 241.3 191.65 241.63 190.88 L 241.94 190.88 L 241.93 192.58 L 243.28 192.58 L 243.28 193.09 L 241.93 193.09 L 241.93 196.47 Q 241.93 197.11 242.04 197.36 Q 242.16 197.61 242.5 197.61 Q 242.79 197.61 242.95 197.49 Q 243.12 197.37 243.34 197.12 Z M 245.8 192.42 L 245.8 193.65 L 245.84 193.65 Q 246.3 192.98 246.62 192.67 Q 246.96 192.34 247.39 192.34 Q 247.74 192.34 247.9 192.52 Q 248.08 192.7 248.08 193.02 Q 248.08 193.35 247.92 193.51 Q 247.76 193.66 247.56 193.66 Q 247.36 193.66 247.21 193.57 Q 247.06 193.46 246.96 193.36 Q 246.85 193.26 246.78 193.26 Q 246.57 193.26 246.31 193.57 Q 246.04 193.88 245.83 194.24 L 245.83 196.98 Q 245.83 197.35 245.92 197.54 Q 246.02 197.73 246.26 197.79 Q 246.51 197.85 246.96 197.85 L 246.96 198.2 L 243.96 198.2 L 243.96 197.85 Q 244.35 197.85 244.53 197.79 Q 244.72 197.72 244.77 197.55 Q 244.83 197.37 244.83 197.04 L 244.83 193.74 Q 244.83 193.41 244.77 193.26 Q 244.72 193.09 244.4 193.09 Q 244.22 193.09 244.12 193.1 Q 244.03 193.11 244.03 193.11 L 244.03 192.78 L 245.52 192.42 L 245.8 192.42 Z M 251.25 197.86 L 251.25 198.2 L 248.55 198.2 L 248.55 197.86 Q 248.96 197.86 249.13 197.79 Q 249.31 197.71 249.34 197.52 Q 249.39 197.32 249.39 196.99 L 249.39 193.64 Q 249.39 193.26 249.26 193.17 Q 249.13 193.08 248.86 193.08 Q 248.74 193.08 248.65 193.09 Q 248.56 193.1 248.56 193.1 L 248.56 192.75 L 250.08 192.42 L 250.39 192.42 L 250.39 196.99 Q 250.39 197.34 250.44 197.53 Q 250.48 197.72 250.66 197.79 Q 250.86 197.86 251.25 197.86 Z M 249.91 190.12 Q 250.22 190.12 250.4 190.33 Q 250.59 190.52 250.59 190.8 Q 250.59 191.07 250.4 191.28 Q 250.22 191.48 249.91 191.48 Q 249.61 191.48 249.42 191.28 Q 249.22 191.07 249.22 190.8 Q 249.22 190.52 249.4 190.33 Q 249.6 190.12 249.91 190.12 Z M 256.48 196.42 L 256.71 196.59 Q 256.48 197.07 256.18 197.47 Q 255.9 197.86 255.46 198.09 Q 255.03 198.32 254.38 198.32 Q 253.64 198.32 253.1 197.96 Q 252.56 197.6 252.27 196.96 Q 251.98 196.32 251.98 195.49 Q 251.98 194.07 252.69 193.23 Q 253.4 192.38 254.7 192.38 Q 255.55 192.38 256.03 192.75 Q 256.52 193.12 256.52 193.65 Q 256.52 194.19 256.02 194.19 Q 255.75 194.19 255.61 194.06 Q 255.48 193.92 255.39 193.71 Q 255.31 193.51 255.21 193.3 Q 255.13 193.1 254.96 192.97 Q 254.8 192.82 254.49 192.82 Q 253.76 192.82 253.34 193.36 Q 252.93 193.89 252.93 194.92 Q 252.93 196.02 253.38 196.72 Q 253.83 197.42 254.76 197.42 Q 255.34 197.42 255.7 197.18 Q 256.08 196.94 256.48 196.42 Z M 260.02 197.86 L 260.02 198.2 L 257.32 198.2 L 257.32 197.86 Q 257.73 197.86 257.9 197.79 Q 258.08 197.71 258.12 197.52 Q 258.16 197.32 258.16 196.99 L 258.16 193.64 Q 258.16 193.26 258.03 193.17 Q 257.9 193.08 257.64 193.08 Q 257.52 193.08 257.42 193.09 Q 257.34 193.1 257.34 193.1 L 257.34 192.75 L 258.85 192.42 L 259.16 192.42 L 259.16 196.99 Q 259.16 197.34 259.21 197.53 Q 259.26 197.72 259.44 197.79 Q 259.63 197.86 260.02 197.86 Z M 258.68 190.12 Q 258.99 190.12 259.17 190.33 Q 259.36 190.52 259.36 190.8 Q 259.36 191.07 259.17 191.28 Q 258.99 191.48 258.68 191.48 Q 258.38 191.48 258.19 191.28 Q 258 191.07 258 190.8 Q 258 190.52 258.18 190.33 Q 258.37 190.12 258.68 190.12 Z M 263.88 197.12 L 264.1 197.31 Q 263.88 197.64 263.67 197.86 Q 263.48 198.08 263.24 198.2 Q 263 198.32 262.62 198.32 Q 262.02 198.32 261.74 197.97 Q 261.46 197.61 261.46 196.81 L 261.46 193.09 L 260.8 193.09 L 260.8 192.81 Q 261.22 192.55 261.52 192.1 Q 261.84 191.65 262.16 190.88 L 262.47 190.88 L 262.46 192.58 L 263.82 192.58 L 263.82 193.09 L 262.46 193.09 L 262.46 196.47 Q 262.46 197.11 262.57 197.36 Q 262.69 197.61 263.04 197.61 Q 263.32 197.61 263.48 197.49 Q 263.65 197.37 263.88 197.12 Z M 270.06 192.52 L 270.06 192.87 Q 269.7 192.87 269.53 193.04 Q 269.36 193.2 269.23 193.54 L 267.36 198.46 Q 267.01 199.38 266.67 199.94 Q 266.35 200.5 265.96 200.76 Q 265.58 201.02 265.06 201.02 Q 264.69 201.02 264.45 200.88 Q 264.21 200.73 264.21 200.4 Q 264.21 200.12 264.37 200 Q 264.54 199.88 264.76 199.88 Q 265.08 199.88 265.32 200.01 Q 265.57 200.14 265.69 200.14 Q 265.86 200.14 266.05 199.88 Q 266.24 199.63 266.42 199.27 Q 266.61 198.91 266.72 198.58 Q 266.84 198.27 266.84 198.14 Q 266.84 198.02 266.71 197.71 Q 266.59 197.4 266.48 197.16 L 264.72 193.3 Q 264.63 193.1 264.48 192.99 Q 264.32 192.87 264 192.87 L 264 192.52 L 266.56 192.52 L 266.56 192.88 Q 266.16 192.88 266.01 192.97 Q 265.88 193.04 265.88 193.2 Q 265.88 193.32 265.94 193.46 Q 266 193.59 266.05 193.72 L 267.22 196.36 L 267.38 196.95 L 267.46 196.95 L 268.63 193.47 Q 268.65 193.41 268.66 193.33 Q 268.69 193.23 268.69 193.17 Q 268.69 192.99 268.5 192.93 Q 268.32 192.87 268.02 192.87 L 268.02 192.52 L 270.06 192.52 Z" fill="currentColor"/></g><g data-sirentide-role="node" data-sirentide-id="Gas" data-sirentide-seq="6"><rect x="24" y="254.5" width="18" height="127.5" fill="#59a14f"/><path d="M 58.22 318.73 L 58.22 319.11 Q 57.72 319.11 57.56 319.29 Q 57.4 319.46 57.4 320.03 L 57.4 321.77 Q 56.76 322.14 56.1 322.37 Q 55.44 322.58 54.44 322.58 Q 52.53 322.58 51.56 321.53 Q 50.6 320.46 50.6 318.54 Q 50.6 317.21 51.1 316.29 Q 51.62 315.37 52.5 314.9 Q 53.38 314.42 54.51 314.42 Q 55.17 314.42 55.56 314.53 Q 55.95 314.64 56.17 314.75 Q 56.4 314.85 56.54 314.85 Q 56.7 314.85 56.77 314.73 Q 56.85 314.61 56.97 314.42 L 57.32 314.42 L 57.32 317.17 L 56.91 317.17 Q 56.71 315.97 56.1 315.45 Q 55.48 314.94 54.52 314.94 Q 53.25 314.94 52.54 315.87 Q 51.85 316.8 51.85 318.39 Q 51.85 320.23 52.58 321.14 Q 53.32 322.04 54.61 322.04 Q 55.17 322.04 55.56 321.87 Q 55.95 321.71 56.31 321.44 L 56.31 320.15 Q 56.31 319.71 56.24 319.5 Q 56.17 319.27 55.94 319.2 Q 55.71 319.11 55.26 319.11 L 55.26 318.73 L 58.22 318.73 Z M 62.34 321.71 L 62.29 321.71 Q 61.87 322.08 61.48 322.31 Q 61.1 322.53 60.52 322.53 Q 59.83 322.53 59.46 322.15 Q 59.1 321.77 59.1 321.19 Q 59.1 320.71 59.31 320.39 Q 59.54 320.05 59.9 319.82 Q 60.27 319.59 60.69 319.44 Q 61.12 319.28 61.53 319.17 Q 61.94 319.07 62.25 318.97 L 62.25 318.44 Q 62.25 317.66 61.98 317.34 Q 61.71 317 61.17 317 Q 60.66 317 60.51 317.22 Q 60.37 317.43 60.37 317.97 Q 60.37 318.53 59.84 318.53 Q 59.66 318.53 59.49 318.39 Q 59.34 318.25 59.34 317.95 Q 59.34 317.61 59.59 317.31 Q 59.85 317.01 60.32 316.82 Q 60.8 316.63 61.45 316.63 Q 62.43 316.63 62.84 317.09 Q 63.25 317.54 63.25 318.48 L 63.25 321.2 Q 63.25 321.57 63.33 321.68 Q 63.42 321.79 63.61 321.79 Q 63.78 321.79 63.91 321.71 Q 64.05 321.62 64.17 321.49 L 64.35 321.68 Q 64.05 322.11 63.78 322.32 Q 63.51 322.51 63.06 322.51 Q 62.66 322.51 62.53 322.31 Q 62.4 322.1 62.34 321.71 Z M 62.25 321.35 L 62.25 319.37 Q 61.71 319.5 61.23 319.68 Q 60.75 319.86 60.45 320.15 Q 60.15 320.43 60.15 320.9 Q 60.15 321.35 60.39 321.61 Q 60.63 321.87 61.02 321.87 Q 61.62 321.87 62.25 321.35 Z M 64.87 320.48 L 65.18 320.48 Q 65.37 321.41 65.74 321.78 Q 66.12 322.14 66.78 322.14 Q 67.23 322.14 67.52 321.96 Q 67.81 321.77 67.81 321.35 Q 67.81 321.06 67.7 320.87 Q 67.6 320.67 67.32 320.48 Q 67.03 320.28 66.46 320 Q 65.65 319.58 65.26 319.2 Q 64.88 318.8 64.88 318.14 Q 64.88 317.4 65.41 317.01 Q 65.95 316.63 66.72 316.63 Q 67.17 316.63 67.46 316.74 Q 67.75 316.83 67.98 316.94 L 67.99 316.94 L 68.19 316.69 L 68.43 316.69 L 68.47 318.53 L 68.14 318.53 Q 67.95 317.67 67.6 317.36 Q 67.26 317.04 66.7 317.04 Q 66.3 317.04 66.01 317.23 Q 65.73 317.42 65.73 317.83 Q 65.73 318.18 66.06 318.45 Q 66.38 318.73 67.14 319.11 Q 67.95 319.55 68.38 319.95 Q 68.82 320.35 68.82 321.02 Q 68.82 321.59 68.54 321.93 Q 68.26 322.27 67.8 322.43 Q 67.34 322.58 66.8 322.58 Q 66.28 322.58 65.97 322.47 Q 65.67 322.37 65.43 322.27 L 65.41 322.27 L 65.16 322.55 L 64.9 322.55 L 64.87 320.48 Z" fill="currentColor"/></g><g data-sirentide-role="node" data-sirentide-id="Homes" data-sirentide-seq="7"><rect x="360" y="24" width="18" height="170" fill="#e15759"/><path d="M 318.84 106.9 L 318.84 108.92 L 322.78 108.92 L 322.78 106.9 Q 322.78 106.43 322.72 106.17 Q 322.66 105.89 322.41 105.78 Q 322.17 105.68 321.62 105.68 L 321.62 105.32 L 325.05 105.32 L 325.05 105.68 Q 324.48 105.68 324.23 105.78 Q 323.98 105.89 323.92 106.16 Q 323.87 106.42 323.87 106.9 L 323.87 111.63 Q 323.87 112.14 323.93 112.41 Q 324 112.67 324.26 112.76 Q 324.51 112.84 325.05 112.84 L 325.05 113.2 L 321.62 113.2 L 321.62 112.84 Q 322.16 112.84 322.4 112.76 Q 322.65 112.67 322.71 112.41 Q 322.78 112.14 322.78 111.63 L 322.78 109.38 L 318.84 109.38 L 318.84 111.63 Q 318.84 112.16 318.9 112.42 Q 318.98 112.67 319.23 112.76 Q 319.48 112.84 320.02 112.84 L 320.02 113.2 L 316.58 113.2 L 316.58 112.84 Q 317.12 112.84 317.36 112.77 Q 317.61 112.68 317.67 112.42 Q 317.74 112.16 317.74 111.63 L 317.74 106.9 Q 317.74 106.43 317.68 106.17 Q 317.62 105.89 317.37 105.78 Q 317.13 105.68 316.58 105.68 L 316.58 105.32 L 320.02 105.32 L 320.02 105.68 Q 319.46 105.68 319.2 105.78 Q 318.95 105.89 318.89 106.17 Q 318.84 106.43 318.84 106.9 Z M 328.4 107.38 Q 329.63 107.38 330.34 108.15 Q 331.06 108.92 331.06 110.25 Q 331.06 111.26 330.71 111.94 Q 330.38 112.62 329.78 112.97 Q 329.18 113.32 328.4 113.32 Q 327.14 113.32 326.42 112.54 Q 325.71 111.75 325.71 110.3 Q 325.71 109.42 326.04 108.77 Q 326.38 108.11 326.98 107.75 Q 327.59 107.38 328.4 107.38 Z M 328.35 107.84 Q 327.66 107.84 327.24 108.41 Q 326.82 108.99 326.82 110.14 Q 326.82 111.57 327.24 112.22 Q 327.68 112.85 328.44 112.84 Q 328.94 112.84 329.27 112.61 Q 329.61 112.38 329.78 111.83 Q 329.96 111.28 329.96 110.31 Q 329.96 109.2 329.55 108.52 Q 329.15 107.84 328.35 107.84 Z M 333.69 108.92 L 333.69 112.04 Q 333.69 112.54 333.86 112.7 Q 334.04 112.85 334.59 112.85 L 334.59 113.2 L 331.85 113.2 L 331.85 112.85 Q 332.24 112.85 332.4 112.79 Q 332.58 112.72 332.63 112.54 Q 332.69 112.35 332.69 111.99 L 332.69 108.63 Q 332.69 108.3 332.56 108.2 Q 332.44 108.09 332.19 108.09 Q 332.06 108.09 331.96 108.1 Q 331.86 108.11 331.86 108.11 L 331.86 107.76 L 333.36 107.42 L 333.65 107.42 L 333.65 108.39 L 333.7 108.39 Q 334.19 107.97 334.65 107.68 Q 335.1 107.38 335.72 107.38 Q 336.23 107.38 336.54 107.67 Q 336.87 107.94 337.05 108.38 L 337.1 108.38 Q 337.59 107.88 338.06 107.63 Q 338.52 107.38 339 107.38 Q 339.71 107.38 340.13 107.82 Q 340.55 108.27 340.55 109.36 L 340.55 111.81 Q 340.55 112.18 340.59 112.42 Q 340.64 112.65 340.82 112.76 Q 341.01 112.85 341.42 112.85 L 341.42 113.2 L 338.7 113.2 L 338.7 112.85 Q 339.11 112.85 339.29 112.74 Q 339.47 112.64 339.51 112.41 Q 339.56 112.17 339.56 111.81 L 339.56 109.5 Q 339.56 108.95 339.41 108.66 Q 339.28 108.38 339.04 108.27 Q 338.81 108.15 338.52 108.15 Q 338.15 108.15 337.79 108.4 Q 337.44 108.64 337.14 108.89 L 337.14 111.81 Q 337.14 112.22 337.19 112.44 Q 337.25 112.67 337.44 112.77 Q 337.64 112.85 338.07 112.85 L 338.07 113.2 L 335.22 113.2 L 335.22 112.85 Q 335.66 112.85 335.85 112.77 Q 336.04 112.68 336.09 112.46 Q 336.15 112.23 336.15 111.81 L 336.15 109.43 Q 336.15 108.66 335.87 108.41 Q 335.61 108.15 335.19 108.15 Q 334.72 108.15 334.34 108.41 Q 333.95 108.68 333.69 108.92 Z M 346.67 111.48 L 346.9 111.65 Q 346.68 112.11 346.4 112.49 Q 346.11 112.86 345.69 113.09 Q 345.28 113.32 344.66 113.32 Q 343.94 113.32 343.35 112.98 Q 342.77 112.64 342.44 111.98 Q 342.1 111.3 342.1 110.34 Q 342.1 109.34 342.44 108.69 Q 342.78 108.03 343.36 107.7 Q 343.94 107.38 344.63 107.38 Q 345.62 107.38 346.22 108.06 Q 346.82 108.75 346.86 110.01 L 343.07 110.01 Q 343.07 110.84 343.34 111.38 Q 343.61 111.9 344.03 112.17 Q 344.46 112.42 344.94 112.42 Q 345.44 112.42 345.74 112.29 Q 346.05 112.16 346.26 111.95 Q 346.48 111.74 346.67 111.48 Z M 343.06 109.56 L 345.74 109.56 Q 345.72 109.12 345.58 108.74 Q 345.44 108.34 345.16 108.1 Q 344.88 107.86 344.45 107.86 Q 343.2 107.86 343.06 109.56 Z M 347.73 111.23 L 348.04 111.23 Q 348.23 112.16 348.6 112.53 Q 348.98 112.89 349.64 112.89 Q 350.09 112.89 350.38 112.71 Q 350.67 112.52 350.67 112.1 Q 350.67 111.81 350.56 111.62 Q 350.46 111.42 350.18 111.23 Q 349.89 111.03 349.32 110.75 Q 348.51 110.33 348.12 109.95 Q 347.74 109.55 347.74 108.89 Q 347.74 108.15 348.27 107.76 Q 348.81 107.38 349.58 107.38 Q 350.03 107.38 350.32 107.49 Q 350.61 107.58 350.84 107.69 L 350.85 107.69 L 351.05 107.44 L 351.29 107.44 L 351.33 109.28 L 351 109.28 Q 350.81 108.42 350.46 108.11 Q 350.12 107.79 349.56 107.79 Q 349.16 107.79 348.87 107.98 Q 348.59 108.17 348.59 108.58 Q 348.59 108.93 348.92 109.2 Q 349.24 109.48 350 109.86 Q 350.81 110.3 351.24 110.7 Q 351.68 111.1 351.68 111.77 Q 351.68 112.34 351.4 112.68 Q 351.12 113.02 350.66 113.18 Q 350.2 113.33 349.66 113.33 Q 349.14 113.33 348.83 113.22 Q 348.53 113.12 348.29 113.02 L 348.27 113.02 L 348.02 113.3 L 347.76 113.3 L 347.73 111.23 Z" fill="currentColor"/></g><g data-sirentide-role="node" data-sirentide-id="Industry" data-sirentide-seq="8"><rect x="360" y="212" width="18" height="170" fill="#76b7b2"/><path d="M 310.22 299.63 L 310.22 294.9 Q 310.22 294.43 310.16 294.17 Q 310.1 293.89 309.84 293.78 Q 309.6 293.68 309.03 293.68 L 309.03 293.32 L 312.48 293.32 L 312.48 293.68 Q 311.92 293.68 311.67 293.78 Q 311.42 293.89 311.36 294.17 Q 311.31 294.43 311.31 294.9 L 311.31 299.63 Q 311.31 300.14 311.38 300.41 Q 311.45 300.66 311.7 300.76 Q 311.96 300.84 312.48 300.84 L 312.48 301.2 L 309.03 301.2 L 309.03 300.84 Q 309.57 300.84 309.82 300.76 Q 310.07 300.66 310.14 300.41 Q 310.22 300.14 310.22 299.63 Z M 318.68 297.52 L 318.68 299.99 Q 318.68 300.32 318.72 300.52 Q 318.78 300.71 318.98 300.79 Q 319.17 300.86 319.56 300.86 L 319.56 301.2 L 316.79 301.2 L 316.79 300.86 Q 317.22 300.86 317.4 300.79 Q 317.6 300.71 317.63 300.52 Q 317.68 300.32 317.68 299.99 L 317.68 297.82 Q 317.68 297.1 317.51 296.74 Q 317.36 296.38 317.1 296.27 Q 316.85 296.15 316.58 296.15 Q 316.1 296.15 315.75 296.41 Q 315.4 296.66 315.12 296.9 L 315.12 299.99 Q 315.12 300.32 315.17 300.52 Q 315.22 300.71 315.41 300.79 Q 315.6 300.86 316.04 300.86 L 316.04 301.2 L 313.29 301.2 L 313.29 300.86 Q 313.7 300.86 313.86 300.79 Q 314.04 300.71 314.08 300.52 Q 314.13 300.32 314.13 299.99 L 314.13 296.62 Q 314.13 296.29 314 296.2 Q 313.86 296.09 313.62 296.09 Q 313.47 296.09 313.38 296.1 Q 313.3 296.11 313.3 296.11 L 313.3 295.76 L 314.82 295.42 L 315.1 295.42 L 315.09 296.39 L 315.14 296.39 Q 315.63 295.96 316.06 295.67 Q 316.5 295.38 317.07 295.38 Q 317.88 295.38 318.28 295.93 Q 318.68 296.48 318.68 297.52 Z M 325.98 300.98 L 324.45 301.26 L 324.17 301.26 L 324.17 300.43 L 324.12 300.43 Q 323.79 300.73 323.32 301.02 Q 322.86 301.3 322.26 301.3 Q 321.59 301.3 321.12 300.94 Q 320.67 300.58 320.44 299.96 Q 320.21 299.34 320.21 298.57 Q 320.21 297.58 320.58 296.87 Q 320.96 296.15 321.58 295.76 Q 322.22 295.38 322.97 295.38 Q 323.27 295.38 323.56 295.45 Q 323.86 295.51 324.14 295.67 L 324.14 294.1 Q 324.14 293.7 324.04 293.58 Q 323.96 293.46 323.61 293.46 Q 323.52 293.46 323.4 293.47 Q 323.3 293.48 323.3 293.48 L 323.3 293.15 L 324.81 292.73 L 325.13 292.73 L 325.13 299.92 Q 325.13 300.38 325.26 300.53 Q 325.4 300.66 325.73 300.66 L 325.98 300.66 L 325.98 300.98 Z M 324.14 299.99 L 324.14 296.82 Q 324.06 296.45 323.79 296.16 Q 323.51 295.86 322.95 295.86 Q 322.19 295.86 321.72 296.41 Q 321.26 296.96 321.26 298.1 Q 321.26 299.34 321.65 299.89 Q 322.06 300.43 322.83 300.43 Q 323.25 300.43 323.54 300.32 Q 323.82 300.2 324.14 299.99 Z M 332.76 300.66 L 332.76 300.98 L 331.24 301.26 L 330.98 301.26 L 330.98 300.34 L 330.92 300.34 Q 330.44 300.8 329.98 301.07 Q 329.52 301.32 328.95 301.32 Q 328.2 301.32 327.78 300.84 Q 327.38 300.35 327.38 299.12 L 327.38 296.69 Q 327.38 296.2 327.21 296.1 Q 327.05 295.99 326.56 295.98 L 326.56 295.64 L 328.11 295.46 L 328.37 295.46 L 328.37 298.97 Q 328.37 299.88 328.67 300.22 Q 328.98 300.55 329.45 300.55 Q 329.91 300.55 330.23 300.35 Q 330.57 300.14 330.93 299.83 L 330.93 296.68 Q 330.93 296.2 330.72 296.09 Q 330.53 295.98 329.96 295.98 L 329.96 295.64 L 331.64 295.46 L 331.92 295.46 L 331.92 299.87 Q 331.92 300.4 332.07 300.53 Q 332.21 300.66 332.64 300.66 L 332.76 300.66 Z M 333.59 299.23 L 333.9 299.23 Q 334.1 300.16 334.47 300.53 Q 334.84 300.89 335.5 300.89 Q 335.96 300.89 336.24 300.71 Q 336.53 300.52 336.53 300.1 Q 336.53 299.81 336.42 299.62 Q 336.33 299.42 336.04 299.23 Q 335.75 299.03 335.19 298.75 Q 334.37 298.33 333.99 297.95 Q 333.6 297.55 333.6 296.89 Q 333.6 296.15 334.13 295.76 Q 334.67 295.38 335.44 295.38 Q 335.9 295.38 336.18 295.49 Q 336.47 295.58 336.7 295.69 L 336.71 295.69 L 336.92 295.44 L 337.16 295.44 L 337.19 297.28 L 336.87 297.28 Q 336.68 296.42 336.33 296.11 Q 335.98 295.79 335.43 295.79 Q 335.02 295.79 334.73 295.98 Q 334.46 296.17 334.46 296.58 Q 334.46 296.93 334.78 297.2 Q 335.1 297.48 335.86 297.86 Q 336.68 298.3 337.11 298.7 Q 337.54 299.1 337.54 299.77 Q 337.54 300.34 337.26 300.68 Q 336.99 301.02 336.52 301.18 Q 336.06 301.33 335.52 301.33 Q 335.01 301.33 334.7 301.22 Q 334.4 301.12 334.16 301.02 L 334.13 301.02 L 333.88 301.3 L 333.63 301.3 L 333.59 299.23 Z M 341.38 300.12 L 341.61 300.31 Q 341.38 300.64 341.18 300.86 Q 340.98 301.08 340.74 301.2 Q 340.5 301.32 340.12 301.32 Q 339.52 301.32 339.24 300.97 Q 338.97 300.61 338.97 299.81 L 338.97 296.09 L 338.31 296.09 L 338.31 295.81 Q 338.73 295.55 339.03 295.1 Q 339.34 294.65 339.66 293.88 L 339.98 293.88 L 339.96 295.58 L 341.32 295.58 L 341.32 296.09 L 339.96 296.09 L 339.96 299.47 Q 339.96 300.11 340.07 300.36 Q 340.19 300.61 340.54 300.61 Q 340.83 300.61 340.98 300.49 Q 341.15 300.37 341.38 300.12 Z M 343.84 295.42 L 343.84 296.65 L 343.88 296.65 Q 344.33 295.98 344.66 295.67 Q 344.99 295.34 345.42 295.34 Q 345.77 295.34 345.94 295.52 Q 346.12 295.7 346.12 296.02 Q 346.12 296.35 345.95 296.51 Q 345.8 296.66 345.59 296.66 Q 345.4 296.66 345.24 296.57 Q 345.1 296.46 344.99 296.36 Q 344.88 296.26 344.81 296.26 Q 344.61 296.26 344.34 296.57 Q 344.08 296.88 343.86 297.24 L 343.86 299.98 Q 343.86 300.35 343.96 300.54 Q 344.06 300.73 344.3 300.79 Q 344.55 300.85 344.99 300.85 L 344.99 301.2 L 341.99 301.2 L 341.99 300.85 Q 342.39 300.85 342.57 300.79 Q 342.76 300.72 342.81 300.55 Q 342.87 300.37 342.87 300.04 L 342.87 296.74 Q 342.87 296.41 342.81 296.26 Q 342.76 296.09 342.44 296.09 Q 342.26 296.09 342.16 296.1 Q 342.06 296.11 342.06 296.11 L 342.06 295.78 L 343.55 295.42 L 343.84 295.42 Z M 352.12 295.52 L 352.12 295.87 Q 351.76 295.87 351.59 296.04 Q 351.42 296.2 351.29 296.54 L 349.42 301.46 Q 349.07 302.38 348.74 302.94 Q 348.41 303.5 348.03 303.76 Q 347.64 304.02 347.13 304.02 Q 346.76 304.02 346.52 303.88 Q 346.28 303.73 346.28 303.4 Q 346.28 303.12 346.43 303 Q 346.6 302.88 346.83 302.88 Q 347.14 302.88 347.38 303.01 Q 347.63 303.14 347.75 303.14 Q 347.92 303.14 348.11 302.88 Q 348.3 302.63 348.48 302.27 Q 348.68 301.91 348.78 301.58 Q 348.9 301.27 348.9 301.14 Q 348.9 301.02 348.77 300.71 Q 348.65 300.4 348.54 300.16 L 346.78 296.3 Q 346.7 296.1 346.54 295.99 Q 346.38 295.87 346.06 295.87 L 346.06 295.52 L 348.63 295.52 L 348.63 295.88 Q 348.22 295.88 348.08 295.97 Q 347.94 296.04 347.94 296.2 Q 347.94 296.32 348 296.46 Q 348.06 296.59 348.11 296.72 L 349.29 299.36 L 349.44 299.95 L 349.53 299.95 L 350.69 296.47 Q 350.72 296.41 350.73 296.33 Q 350.75 296.23 350.75 296.17 Q 350.75 295.99 350.56 295.93 Q 350.38 295.87 350.08 295.87 L 350.08 295.52 L 352.12 295.52 Z" fill="currentColor"/></g></svg>