<svg xmlns="http://www.w3.org/2000/svg" width="480" height="160" viewBox="0 0 480 160"><line x1="44" y1="80" x2="436" y2="80" stroke="#cbd5e1" stroke-width="2"/><path d="M 49 80 A 5 5 0 1 1 39 80 A 5 5 0 1 1 49 80 Z" fill="#4e79a7"/><path d="M 179.667 80 A 5 5 0 1 1 169.667 80 A 5 5 0 1 1 179.667 80 Z" fill="#f28e2b"/><path d="M 441 80 A 5 5 0 1 1 431 80 A 5 5 0 1 1 441 80 Z" fill="#59a14f"/><path d="M 29.47 60.58 L 29.12 60.58 Q 29.04 60.18 28.95 59.93 Q 28.87 59.68 28.71 59.53 Q 28.55 59.39 28.23 59.33 Q 27.92 59.27 27.38 59.27 L 25.63 59.27 L 25.63 62.05 L 26.93 62.05 Q 27.4 62.05 27.65 61.96 Q 27.91 61.88 27.99 61.64 Q 28.09 61.4 28.09 60.96 L 28.47 60.96 L 28.47 63.51 L 28.09 63.51 Q 28.09 63.06 27.99 62.84 Q 27.91 62.62 27.65 62.56 Q 27.4 62.48 26.93 62.48 L 25.63 62.48 L 25.63 64.79 Q 25.63 65.35 25.88 65.52 Q 26.14 65.67 26.77 65.67 L 26.77 66 L 23.55 66 L 23.55 65.67 Q 24 65.67 24.22 65.6 Q 24.45 65.54 24.53 65.34 Q 24.62 65.13 24.62 64.72 L 24.62 60.02 Q 24.62 59.44 24.38 59.28 Q 24.14 59.1 23.55 59.1 L 23.55 58.77 L 29.4 58.77 L 29.47 60.58 Z M 32.46 60.67 Q 33.59 60.67 34.24 61.37 Q 34.9 62.07 34.9 63.29 Q 34.9 64.22 34.58 64.85 Q 34.28 65.47 33.73 65.79 Q 33.18 66.11 32.46 66.11 Q 31.31 66.11 30.65 65.4 Q 30 64.67 30 63.34 Q 30 62.54 30.3 61.94 Q 30.61 61.34 31.16 61.01 Q 31.72 60.67 32.46 60.67 Z M 32.42 61.08 Q 31.79 61.08 31.4 61.61 Q 31.02 62.14 31.02 63.2 Q 31.02 64.5 31.4 65.1 Q 31.8 65.68 32.5 65.67 Q 32.96 65.67 33.26 65.46 Q 33.57 65.25 33.73 64.75 Q 33.89 64.24 33.89 63.35 Q 33.89 62.34 33.52 61.71 Q 33.15 61.08 32.42 61.08 Z M 41.22 65.51 L 41.22 65.8 L 39.82 66.06 L 39.58 66.06 L 39.58 65.21 L 39.52 65.21 Q 39.08 65.64 38.67 65.88 Q 38.25 66.11 37.72 66.11 Q 37.04 66.11 36.65 65.67 Q 36.28 65.22 36.28 64.1 L 36.28 61.86 Q 36.28 61.41 36.12 61.33 Q 35.98 61.23 35.53 61.22 L 35.53 60.91 L 36.95 60.74 L 37.19 60.74 L 37.19 63.95 Q 37.19 64.79 37.47 65.1 Q 37.75 65.41 38.18 65.41 Q 38.6 65.41 38.9 65.22 Q 39.2 65.03 39.53 64.75 L 39.53 61.85 Q 39.53 61.41 39.35 61.31 Q 39.17 61.22 38.64 61.22 L 38.64 60.91 L 40.18 60.74 L 40.45 60.74 L 40.45 64.78 Q 40.45 65.26 40.58 65.38 Q 40.71 65.51 41.11 65.51 L 41.22 65.51 Z M 46.84 62.62 L 46.84 64.89 Q 46.84 65.2 46.88 65.37 Q 46.94 65.55 47.11 65.63 Q 47.29 65.69 47.65 65.69 L 47.65 66 L 45.11 66 L 45.11 65.69 Q 45.51 65.69 45.67 65.63 Q 45.85 65.55 45.88 65.37 Q 45.93 65.2 45.93 64.89 L 45.93 62.9 Q 45.93 62.24 45.77 61.91 Q 45.63 61.58 45.4 61.48 Q 45.17 61.37 44.91 61.37 Q 44.47 61.37 44.15 61.61 Q 43.83 61.84 43.58 62.06 L 43.58 64.89 Q 43.58 65.2 43.63 65.37 Q 43.67 65.55 43.85 65.63 Q 44.02 65.69 44.42 65.69 L 44.42 66 L 41.9 66 L 41.9 65.69 Q 42.27 65.69 42.43 65.63 Q 42.59 65.55 42.63 65.37 Q 42.67 65.2 42.67 64.89 L 42.67 61.8 Q 42.67 61.5 42.55 61.41 Q 42.43 61.31 42.21 61.31 Q 42.06 61.31 41.99 61.33 Q 41.91 61.34 41.91 61.34 L 41.91 61.02 L 43.31 60.7 L 43.56 60.7 L 43.55 61.59 L 43.59 61.59 Q 44.04 61.19 44.44 60.93 Q 44.85 60.67 45.36 60.67 Q 46.11 60.67 46.47 61.17 Q 46.84 61.68 46.84 62.62 Z M 53.54 65.8 L 52.13 66.06 L 51.88 66.06 L 51.88 65.3 L 51.83 65.3 Q 51.52 65.57 51.1 65.83 Q 50.68 66.09 50.13 66.09 Q 49.51 66.09 49.08 65.76 Q 48.66 65.43 48.46 64.87 Q 48.25 64.3 48.25 63.59 Q 48.25 62.68 48.59 62.03 Q 48.93 61.37 49.5 61.02 Q 50.08 60.67 50.78 60.67 Q 51.05 60.67 51.32 60.73 Q 51.59 60.79 51.84 60.93 L 51.84 59.49 Q 51.84 59.13 51.76 59.02 Q 51.68 58.91 51.36 58.91 Q 51.28 58.91 51.17 58.92 Q 51.07 58.93 51.07 58.93 L 51.07 58.62 L 52.46 58.23 L 52.76 58.23 L 52.76 64.82 Q 52.76 65.25 52.88 65.38 Q 53 65.51 53.31 65.51 L 53.54 65.51 L 53.54 65.8 Z M 51.84 64.89 L 51.84 61.99 Q 51.78 61.64 51.52 61.38 Q 51.27 61.11 50.75 61.11 Q 50.06 61.11 49.63 61.61 Q 49.2 62.12 49.2 63.16 Q 49.2 64.3 49.57 64.8 Q 49.94 65.3 50.64 65.3 Q 51.03 65.3 51.29 65.2 Q 51.56 65.09 51.84 64.89 Z M 58.38 64.43 L 58.59 64.58 Q 58.39 65 58.12 65.35 Q 57.86 65.69 57.47 65.9 Q 57.1 66.11 56.53 66.11 Q 55.87 66.11 55.33 65.8 Q 54.8 65.48 54.49 64.88 Q 54.19 64.26 54.19 63.38 Q 54.19 62.46 54.49 61.86 Q 54.81 61.26 55.34 60.96 Q 55.87 60.67 56.51 60.67 Q 57.41 60.67 57.96 61.29 Q 58.51 61.92 58.55 63.07 L 55.08 63.07 Q 55.08 63.83 55.32 64.33 Q 55.57 64.81 55.96 65.05 Q 56.35 65.29 56.79 65.29 Q 57.24 65.29 57.52 65.16 Q 57.81 65.04 58 64.86 Q 58.2 64.66 58.38 64.43 Z M 55.07 62.67 L 57.52 62.67 Q 57.51 62.26 57.38 61.91 Q 57.24 61.55 56.99 61.33 Q 56.74 61.11 56.34 61.11 Q 55.2 61.11 55.07 62.67 Z M 64.57 65.8 L 63.16 66.06 L 62.91 66.06 L 62.91 65.3 L 62.86 65.3 Q 62.56 65.57 62.13 65.83 Q 61.71 66.09 61.16 66.09 Q 60.54 66.09 60.11 65.76 Q 59.7 65.43 59.49 64.87 Q 59.28 64.3 59.28 63.59 Q 59.28 62.68 59.62 62.03 Q 59.96 61.37 60.53 61.02 Q 61.12 60.67 61.81 60.67 Q 62.08 60.67 62.35 60.73 Q 62.62 60.79 62.88 60.93 L 62.88 59.49 Q 62.88 59.13 62.79 59.02 Q 62.71 58.91 62.39 58.91 Q 62.32 58.91 62.21 58.92 Q 62.11 58.93 62.11 58.93 L 62.11 58.62 L 63.49 58.23 L 63.79 58.23 L 63.79 64.82 Q 63.79 65.25 63.91 65.38 Q 64.03 65.51 64.34 65.51 L 64.57 65.51 L 64.57 65.8 Z M 62.88 64.89 L 62.88 61.99 Q 62.81 61.64 62.56 61.38 Q 62.3 61.11 61.79 61.11 Q 61.09 61.11 60.67 61.61 Q 60.24 62.12 60.24 63.16 Q 60.24 64.3 60.6 64.8 Q 60.97 65.3 61.68 65.3 Q 62.06 65.3 62.33 65.2 Q 62.59 65.09 62.88 64.89 Z" fill="#334155"/><path d="M 38.74 102.4 L 38.42 104 L 34.48 104 L 34.48 103.66 L 36 102.14 Q 36.5 101.63 36.83 101.22 Q 37.16 100.8 37.32 100.38 Q 37.49 99.96 37.49 99.44 Q 37.49 98.88 37.15 98.55 Q 36.82 98.21 36.24 98.21 Q 35.75 98.21 35.4 98.42 Q 35.06 98.63 34.78 99.19 L 34.54 99.09 Q 34.77 98.36 35.27 97.96 Q 35.77 97.56 36.5 97.56 Q 37.07 97.56 37.5 97.78 Q 37.93 97.99 38.17 98.38 Q 38.42 98.76 38.42 99.29 Q 38.42 99.73 38.23 100.14 Q 38.05 100.54 37.68 100.97 Q 37.32 101.4 36.79 101.94 L 35.47 103.19 L 35.47 103.24 L 36.17 103.21 L 37.56 103.21 Q 37.96 103.21 38.12 103.03 Q 38.28 102.85 38.45 102.4 L 38.74 102.4 Z M 43.73 100.83 Q 43.73 101.47 43.6 102.06 Q 43.48 102.65 43.21 103.11 Q 42.95 103.57 42.53 103.84 Q 42.11 104.11 41.52 104.11 Q 40.92 104.11 40.5 103.85 Q 40.08 103.58 39.82 103.12 Q 39.56 102.66 39.44 102.06 Q 39.32 101.46 39.32 100.8 Q 39.32 99.85 39.57 99.13 Q 39.83 98.4 40.32 97.99 Q 40.82 97.58 41.54 97.58 Q 42.19 97.58 42.68 97.97 Q 43.17 98.35 43.45 99.08 Q 43.73 99.8 43.73 100.83 Z M 42.76 100.89 Q 42.76 99.37 42.44 98.65 Q 42.13 97.92 41.51 97.92 Q 40.92 97.92 40.6 98.64 Q 40.28 99.36 40.28 100.85 Q 40.28 102.3 40.6 103.03 Q 40.92 103.75 41.52 103.75 Q 42.11 103.75 42.43 103.04 Q 42.76 102.33 42.76 100.89 Z M 48.64 102.4 L 48.32 104 L 44.38 104 L 44.38 103.66 L 45.9 102.14 Q 46.4 101.63 46.73 101.22 Q 47.06 100.8 47.22 100.38 Q 47.39 99.96 47.39 99.44 Q 47.39 98.88 47.05 98.55 Q 46.72 98.21 46.14 98.21 Q 45.65 98.21 45.3 98.42 Q 44.96 98.63 44.68 99.19 L 44.44 99.09 Q 44.67 98.36 45.17 97.96 Q 45.67 97.56 46.4 97.56 Q 46.97 97.56 47.4 97.78 Q 47.83 97.99 48.07 98.38 Q 48.32 98.76 48.32 99.29 Q 48.32 99.73 48.13 100.14 Q 47.95 100.54 47.58 100.97 Q 47.22 101.4 46.69 101.94 L 45.37 103.19 L 45.37 103.24 L 46.07 103.21 L 47.46 103.21 Q 47.86 103.21 48.02 103.03 Q 48.18 102.85 48.35 102.4 L 48.64 102.4 Z M 53.63 100.83 Q 53.63 101.47 53.5 102.06 Q 53.38 102.65 53.11 103.11 Q 52.85 103.57 52.43 103.84 Q 52.01 104.11 51.42 104.11 Q 50.82 104.11 50.4 103.85 Q 49.98 103.58 49.72 103.12 Q 49.46 102.66 49.34 102.06 Q 49.22 101.46 49.22 100.8 Q 49.22 99.85 49.47 99.13 Q 49.73 98.4 50.22 97.99 Q 50.72 97.58 51.44 97.58 Q 52.09 97.58 52.58 97.97 Q 53.07 98.35 53.35 99.08 Q 53.63 99.8 53.63 100.83 Z M 52.66 100.89 Q 52.66 99.37 52.34 98.65 Q 52.03 97.92 51.41 97.92 Q 50.82 97.92 50.5 98.64 Q 50.18 99.36 50.18 100.85 Q 50.18 102.3 50.5 103.03 Q 50.82 103.75 51.42 103.75 Q 52.01 103.75 52.33 103.04 Q 52.66 102.33 52.66 100.89 Z" fill="#64748b"/><path d="M 160.56 60.86 L 160.23 60.86 Q 160 59.95 159.61 59.51 Q 159.23 59.07 158.39 59.08 Q 157.83 59.08 157.52 59.35 Q 157.22 59.6 157.22 60.12 Q 157.22 60.52 157.45 60.82 Q 157.68 61.11 158.05 61.34 Q 158.43 61.57 158.83 61.81 Q 159.2 62.02 159.56 62.23 Q 159.93 62.44 160.23 62.7 Q 160.54 62.96 160.71 63.32 Q 160.9 63.67 160.9 64.16 Q 160.9 64.8 160.6 65.24 Q 160.32 65.68 159.81 65.91 Q 159.31 66.13 158.67 66.13 Q 158.1 66.13 157.73 66.04 Q 157.38 65.97 157.17 65.89 Q 156.97 65.8 156.84 65.8 Q 156.73 65.8 156.64 65.9 Q 156.56 66 156.54 66.17 L 156.2 66.17 L 156.1 63.79 L 156.45 63.79 Q 156.64 64.55 156.91 64.96 Q 157.17 65.35 157.56 65.51 Q 157.95 65.65 158.51 65.65 Q 159.13 65.65 159.49 65.38 Q 159.86 65.11 159.86 64.48 Q 159.86 64 159.58 63.68 Q 159.32 63.36 158.9 63.12 Q 158.48 62.87 158.03 62.61 Q 157.59 62.36 157.18 62.07 Q 156.78 61.79 156.51 61.39 Q 156.26 61 156.26 60.42 Q 156.26 59.84 156.54 59.46 Q 156.83 59.06 157.3 58.85 Q 157.78 58.64 158.35 58.64 Q 158.85 58.64 159.13 58.73 Q 159.4 58.81 159.56 58.89 Q 159.72 58.98 159.86 58.98 Q 160.12 58.98 160.2 58.66 L 160.48 58.66 L 160.56 60.86 Z M 165.83 64.43 L 166.04 64.58 Q 165.84 65 165.58 65.35 Q 165.31 65.69 164.93 65.9 Q 164.55 66.11 163.98 66.11 Q 163.32 66.11 162.78 65.8 Q 162.25 65.48 161.95 64.88 Q 161.64 64.26 161.64 63.38 Q 161.64 62.46 161.95 61.86 Q 162.26 61.26 162.79 60.96 Q 163.32 60.67 163.96 60.67 Q 164.86 60.67 165.41 61.29 Q 165.96 61.92 166 63.07 L 162.53 63.07 Q 162.53 63.83 162.77 64.33 Q 163.02 64.81 163.41 65.05 Q 163.8 65.29 164.24 65.29 Q 164.7 65.29 164.97 65.16 Q 165.26 65.04 165.45 64.86 Q 165.65 64.66 165.83 64.43 Z M 162.52 62.67 L 164.97 62.67 Q 164.96 62.26 164.83 61.91 Q 164.7 61.55 164.44 61.33 Q 164.19 61.11 163.79 61.11 Q 162.65 61.11 162.52 62.67 Z M 168.38 60.7 L 168.38 61.83 L 168.41 61.83 Q 168.83 61.22 169.13 60.93 Q 169.44 60.63 169.83 60.63 Q 170.15 60.63 170.31 60.8 Q 170.47 60.96 170.47 61.25 Q 170.47 61.56 170.32 61.7 Q 170.17 61.84 169.99 61.84 Q 169.81 61.84 169.67 61.75 Q 169.54 61.66 169.44 61.57 Q 169.34 61.47 169.27 61.47 Q 169.08 61.47 168.84 61.75 Q 168.6 62.04 168.4 62.37 L 168.4 64.88 Q 168.4 65.22 168.49 65.4 Q 168.58 65.57 168.8 65.63 Q 169.03 65.68 169.44 65.68 L 169.44 66 L 166.69 66 L 166.69 65.68 Q 167.05 65.68 167.21 65.63 Q 167.39 65.56 167.43 65.41 Q 167.49 65.24 167.49 64.93 L 167.49 61.91 Q 167.49 61.61 167.43 61.47 Q 167.39 61.31 167.09 61.31 Q 166.93 61.31 166.84 61.33 Q 166.75 61.34 166.75 61.34 L 166.75 61.03 L 168.12 60.7 L 168.38 60.7 Z M 173.37 65.69 L 173.37 66 L 170.9 66 L 170.9 65.69 Q 171.27 65.69 171.43 65.63 Q 171.59 65.55 171.63 65.37 Q 171.67 65.2 171.67 64.89 L 171.67 61.82 Q 171.67 61.47 171.55 61.39 Q 171.43 61.3 171.19 61.3 Q 171.08 61.3 170.99 61.31 Q 170.91 61.33 170.91 61.33 L 170.91 61.01 L 172.3 60.7 L 172.58 60.7 L 172.58 64.89 Q 172.58 65.21 172.63 65.38 Q 172.67 65.56 172.84 65.63 Q 173.01 65.69 173.37 65.69 Z M 172.14 58.6 Q 172.43 58.6 172.59 58.78 Q 172.77 58.96 172.77 59.21 Q 172.77 59.47 172.59 59.65 Q 172.43 59.84 172.14 59.84 Q 171.87 59.84 171.69 59.65 Q 171.52 59.47 171.52 59.21 Q 171.52 58.96 171.68 58.78 Q 171.86 58.6 172.14 58.6 Z M 178.25 64.43 L 178.46 64.58 Q 178.26 65 177.99 65.35 Q 177.73 65.69 177.35 65.9 Q 176.97 66.11 176.4 66.11 Q 175.74 66.11 175.2 65.8 Q 174.67 65.48 174.36 64.88 Q 174.06 64.26 174.06 63.38 Q 174.06 62.46 174.36 61.86 Q 174.68 61.26 175.21 60.96 Q 175.74 60.67 176.38 60.67 Q 177.28 60.67 177.83 61.29 Q 178.38 61.92 178.42 63.07 L 174.95 63.07 Q 174.95 63.83 175.19 64.33 Q 175.44 64.81 175.83 65.05 Q 176.22 65.29 176.66 65.29 Q 177.11 65.29 177.39 65.16 Q 177.68 65.04 177.87 64.86 Q 178.07 64.66 178.25 64.43 Z M 174.94 62.67 L 177.39 62.67 Q 177.38 62.26 177.25 61.91 Q 177.11 61.55 176.86 61.33 Q 176.61 61.11 176.21 61.11 Q 175.07 61.11 174.94 62.67 Z M 179.22 64.2 L 179.5 64.2 Q 179.68 65.04 180.02 65.38 Q 180.36 65.71 180.96 65.71 Q 181.38 65.71 181.65 65.55 Q 181.91 65.37 181.91 64.99 Q 181.91 64.72 181.81 64.55 Q 181.72 64.37 181.46 64.2 Q 181.2 64.01 180.68 63.76 Q 179.93 63.37 179.58 63.02 Q 179.23 62.66 179.23 62.05 Q 179.23 61.37 179.71 61.02 Q 180.21 60.67 180.91 60.67 Q 181.33 60.67 181.59 60.76 Q 181.86 60.85 182.06 60.95 L 182.08 60.95 L 182.26 60.72 L 182.48 60.72 L 182.52 62.4 L 182.22 62.4 Q 182.04 61.62 181.72 61.34 Q 181.4 61.04 180.9 61.04 Q 180.52 61.04 180.26 61.22 Q 180.01 61.39 180.01 61.77 Q 180.01 62.08 180.3 62.34 Q 180.6 62.59 181.29 62.94 Q 182.04 63.34 182.44 63.71 Q 182.83 64.08 182.83 64.69 Q 182.83 65.21 182.58 65.53 Q 182.33 65.83 181.9 65.98 Q 181.48 66.12 180.99 66.12 Q 180.51 66.12 180.23 66.02 Q 179.95 65.92 179.73 65.83 L 179.71 65.83 L 179.48 66.09 L 179.25 66.09 L 179.22 64.2 Z M 193.57 66 L 190.61 66 L 190.61 65.67 Q 190.78 65.67 190.95 65.65 Q 191.13 65.63 191.25 65.54 Q 191.37 65.45 191.37 65.26 Q 191.37 65.14 191.33 64.99 Q 191.29 64.82 191.18 64.58 L 190.75 63.59 L 187.94 63.59 L 187.44 64.76 Q 187.4 64.89 187.36 65.02 Q 187.32 65.14 187.32 65.3 Q 187.32 65.53 187.5 65.6 Q 187.67 65.67 188.06 65.67 L 188.06 66 L 185.75 66 L 185.75 65.67 Q 186.06 65.67 186.24 65.57 Q 186.43 65.47 186.61 65.18 Q 186.78 64.87 187.05 64.24 L 189.38 58.72 L 189.83 58.72 L 192.44 64.69 Q 192.68 65.23 192.9 65.45 Q 193.13 65.67 193.57 65.67 L 193.57 66 Z M 190.59 63.15 L 189.38 60.07 L 189.35 60.07 L 188.1 63.15 L 190.59 63.15 Z" fill="#334155"/><path d="M 169.41 102.4 L 169.09 104 L 165.15 104 L 165.15 103.66 L 166.67 102.14 Q 167.17 101.63 167.5 101.22 Q 167.83 100.8 167.99 100.38 Q 168.16 99.96 168.16 99.44 Q 168.16 98.88 167.82 98.55 Q 167.49 98.21 166.91 98.21 Q 166.42 98.21 166.07 98.42 Q 165.73 98.63 165.45 99.19 L 165.21 99.09 Q 165.44 98.36 165.94 97.96 Q 166.44 97.56 167.17 97.56 Q 167.74 97.56 168.17 97.78 Q 168.6 97.99 168.84 98.38 Q 169.09 98.76 169.09 99.29 Q 169.09 99.73 168.9 100.14 Q 168.72 100.54 168.35 100.97 Q 167.99 101.4 167.46 101.94 L 166.14 103.19 L 166.14 103.24 L 166.84 103.21 L 168.23 103.21 Q 168.63 103.21 168.79 103.03 Q 168.95 102.85 169.12 102.4 L 169.41 102.4 Z M 174.4 100.83 Q 174.4 101.47 174.27 102.06 Q 174.15 102.65 173.88 103.11 Q 173.62 103.57 173.2 103.84 Q 172.78 104.11 172.19 104.11 Q 171.59 104.11 171.17 103.85 Q 170.75 103.58 170.49 103.12 Q 170.23 102.66 170.11 102.06 Q 169.99 101.46 169.99 100.8 Q 169.99 99.85 170.24 99.13 Q 170.5 98.4 170.99 97.99 Q 171.49 97.58 172.21 97.58 Q 172.86 97.58 173.35 97.97 Q 173.84 98.35 174.12 99.08 Q 174.4 99.8 174.4 100.83 Z M 173.43 100.89 Q 173.43 99.37 173.11 98.65 Q 172.8 97.92 172.18 97.92 Q 171.59 97.92 171.27 98.64 Q 170.95 99.36 170.95 100.85 Q 170.95 102.3 171.27 103.03 Q 171.59 103.75 172.19 103.75 Q 172.78 103.75 173.1 103.04 Q 173.43 102.33 173.43 100.89 Z M 179.31 102.4 L 178.99 104 L 175.05 104 L 175.05 103.66 L 176.57 102.14 Q 177.07 101.63 177.4 101.22 Q 177.73 100.8 177.89 100.38 Q 178.06 99.96 178.06 99.44 Q 178.06 98.88 177.72 98.55 Q 177.39 98.21 176.81 98.21 Q 176.32 98.21 175.97 98.42 Q 175.63 98.63 175.35 99.19 L 175.11 99.09 Q 175.34 98.36 175.84 97.96 Q 176.34 97.56 177.07 97.56 Q 177.64 97.56 178.07 97.78 Q 178.5 97.99 178.74 98.38 Q 178.99 98.76 178.99 99.29 Q 178.99 99.73 178.8 100.14 Q 178.62 100.54 178.25 100.97 Q 177.89 101.4 177.36 101.94 L 176.04 103.19 L 176.04 103.24 L 176.74 103.21 L 178.13 103.21 Q 178.53 103.21 178.69 103.03 Q 178.85 102.85 179.02 102.4 L 179.31 102.4 Z M 183.88 104 L 180.42 104 L 180.42 103.72 Q 181.13 103.72 181.42 103.57 Q 181.71 103.42 181.71 103.05 L 181.71 98.82 Q 181.71 98.56 181.64 98.45 Q 181.57 98.33 181.38 98.33 Q 181.23 98.33 180.91 98.37 Q 180.59 98.41 180.36 98.49 L 180.36 98.16 L 182.3 97.61 L 182.59 97.61 L 182.59 103.05 Q 182.59 103.42 182.89 103.57 Q 183.19 103.72 183.88 103.72 L 183.88 104 Z" fill="#64748b"/><path d="M 424.46 63.86 L 424.13 66 L 418.68 66 L 418.68 65.67 Q 419.12 65.67 419.32 65.59 Q 419.54 65.52 419.61 65.3 Q 419.68 65.08 419.68 64.65 L 419.68 60.17 Q 419.68 59.74 419.61 59.51 Q 419.54 59.28 419.32 59.19 Q 419.12 59.1 418.68 59.1 L 418.68 58.77 L 421.77 58.77 L 421.77 59.1 Q 421.33 59.1 421.08 59.2 Q 420.85 59.29 420.77 59.52 Q 420.69 59.75 420.69 60.18 L 420.69 64.96 Q 420.69 65.32 420.86 65.43 Q 421.04 65.54 421.52 65.54 L 422.03 65.54 Q 422.58 65.54 422.92 65.46 Q 423.26 65.37 423.46 65.18 Q 423.67 64.98 423.8 64.66 Q 423.94 64.33 424.11 63.86 L 424.46 63.86 Z M 428.04 65.32 L 427.99 65.32 Q 427.61 65.66 427.26 65.87 Q 426.9 66.08 426.38 66.08 Q 425.74 66.08 425.4 65.72 Q 425.07 65.37 425.07 64.85 Q 425.07 64.41 425.26 64.11 Q 425.47 63.8 425.8 63.59 Q 426.14 63.38 426.53 63.24 Q 426.93 63.1 427.3 63 Q 427.67 62.9 427.96 62.81 L 427.96 62.33 Q 427.96 61.61 427.71 61.31 Q 427.46 61.01 426.97 61.01 Q 426.5 61.01 426.36 61.2 Q 426.23 61.4 426.23 61.9 Q 426.23 62.4 425.75 62.4 Q 425.58 62.4 425.43 62.28 Q 425.29 62.15 425.29 61.88 Q 425.29 61.57 425.52 61.29 Q 425.76 61.02 426.19 60.84 Q 426.63 60.67 427.22 60.67 Q 428.12 60.67 428.5 61.08 Q 428.87 61.5 428.87 62.36 L 428.87 64.86 Q 428.87 65.2 428.95 65.3 Q 429.03 65.4 429.2 65.4 Q 429.36 65.4 429.48 65.32 Q 429.61 65.24 429.72 65.12 L 429.88 65.3 Q 429.61 65.69 429.36 65.88 Q 429.11 66.06 428.7 66.06 Q 428.33 66.06 428.21 65.87 Q 428.09 65.68 428.04 65.32 Z M 427.96 64.99 L 427.96 63.17 Q 427.46 63.29 427.02 63.46 Q 426.58 63.62 426.31 63.89 Q 426.03 64.15 426.03 64.58 Q 426.03 64.99 426.25 65.23 Q 426.47 65.47 426.83 65.47 Q 427.38 65.47 427.96 64.99 Z M 435.87 65.51 L 435.87 65.8 L 434.47 66.06 L 434.23 66.06 L 434.23 65.21 L 434.17 65.21 Q 433.73 65.64 433.32 65.88 Q 432.9 66.11 432.37 66.11 Q 431.69 66.11 431.3 65.67 Q 430.93 65.22 430.93 64.1 L 430.93 61.86 Q 430.93 61.41 430.78 61.33 Q 430.63 61.23 430.18 61.22 L 430.18 60.91 L 431.6 60.74 L 431.84 60.74 L 431.84 63.95 Q 431.84 64.79 432.12 65.1 Q 432.4 65.41 432.83 65.41 Q 433.25 65.41 433.55 65.22 Q 433.86 65.03 434.19 64.75 L 434.19 61.85 Q 434.19 61.41 434 61.31 Q 433.82 61.22 433.29 61.22 L 433.29 60.91 L 434.83 60.74 L 435.1 60.74 L 435.1 64.78 Q 435.1 65.26 435.23 65.38 Q 435.36 65.51 435.76 65.51 L 435.87 65.51 Z M 441.49 62.62 L 441.49 64.89 Q 441.49 65.2 441.53 65.37 Q 441.59 65.55 441.76 65.63 Q 441.94 65.69 442.3 65.69 L 442.3 66 L 439.76 66 L 439.76 65.69 Q 440.16 65.69 440.32 65.63 Q 440.5 65.55 440.53 65.37 Q 440.58 65.2 440.58 64.89 L 440.58 62.9 Q 440.58 62.24 440.42 61.91 Q 440.28 61.58 440.05 61.48 Q 439.82 61.37 439.56 61.37 Q 439.12 61.37 438.81 61.61 Q 438.49 61.84 438.23 62.06 L 438.23 64.89 Q 438.23 65.2 438.28 65.37 Q 438.32 65.55 438.5 65.63 Q 438.67 65.69 439.07 65.69 L 439.07 66 L 436.55 66 L 436.55 65.69 Q 436.92 65.69 437.08 65.63 Q 437.24 65.55 437.28 65.37 Q 437.32 65.2 437.32 64.89 L 437.32 61.8 Q 437.32 61.5 437.2 61.41 Q 437.08 61.31 436.86 61.31 Q 436.72 61.31 436.64 61.33 Q 436.56 61.34 436.56 61.34 L 436.56 61.02 L 437.96 60.7 L 438.21 60.7 L 438.2 61.59 L 438.24 61.59 Q 438.7 61.19 439.09 60.93 Q 439.5 60.67 440.02 60.67 Q 440.76 60.67 441.13 61.17 Q 441.49 61.68 441.49 62.62 Z M 447.02 64.37 L 447.23 64.53 Q 447.02 64.97 446.75 65.33 Q 446.48 65.69 446.09 65.9 Q 445.69 66.11 445.1 66.11 Q 444.42 66.11 443.92 65.78 Q 443.43 65.45 443.16 64.87 Q 442.9 64.27 442.9 63.51 Q 442.9 62.22 443.55 61.45 Q 444.2 60.67 445.38 60.67 Q 446.16 60.67 446.6 61.01 Q 447.06 61.35 447.06 61.83 Q 447.06 62.33 446.59 62.33 Q 446.35 62.33 446.22 62.21 Q 446.1 62.07 446.02 61.89 Q 445.94 61.7 445.86 61.51 Q 445.78 61.33 445.63 61.2 Q 445.48 61.07 445.2 61.07 Q 444.53 61.07 444.14 61.57 Q 443.77 62.05 443.77 63 Q 443.77 64 444.17 64.65 Q 444.59 65.29 445.44 65.29 Q 445.98 65.29 446.31 65.07 Q 446.65 64.85 447.02 64.37 Z M 449.45 62.05 L 449.45 64.93 Q 449.45 65.22 449.5 65.38 Q 449.54 65.55 449.72 65.61 Q 449.89 65.68 450.27 65.68 L 450.27 66 L 447.77 66 L 447.77 65.68 Q 448.2 65.68 448.36 65.56 Q 448.54 65.44 448.54 64.98 L 448.54 59.35 Q 448.54 59.06 448.38 58.98 Q 448.22 58.91 448 58.91 Q 447.87 58.91 447.77 58.92 Q 447.68 58.93 447.68 58.93 L 447.68 58.62 L 449.16 58.23 L 449.45 58.23 L 449.45 61.57 L 449.49 61.57 Q 450 61.08 450.41 60.87 Q 450.83 60.67 451.27 60.67 Q 451.74 60.67 452.03 60.85 Q 452.32 61.04 452.48 61.35 Q 452.63 61.64 452.69 62.01 Q 452.74 62.36 452.74 62.7 L 452.74 64.89 Q 452.74 65.33 452.89 65.51 Q 453.04 65.68 453.56 65.68 L 453.56 66 L 451.03 66 L 451.03 65.68 Q 451.41 65.68 451.58 65.6 Q 451.74 65.53 451.79 65.36 Q 451.83 65.2 451.83 64.93 L 451.83 63.03 Q 451.83 62.58 451.76 62.21 Q 451.7 61.82 451.48 61.6 Q 451.27 61.37 450.82 61.37 Q 450.5 61.37 450.18 61.52 Q 449.86 61.68 449.45 62.05 Z" fill="#334155"/><path d="M 430.74 102.4 L 430.42 104 L 426.48 104 L 426.48 103.66 L 428 102.14 Q 428.5 101.63 428.83 101.22 Q 429.16 100.8 429.32 100.38 Q 429.49 99.96 429.49 99.44 Q 429.49 98.88 429.15 98.55 Q 428.82 98.21 428.24 98.21 Q 427.75 98.21 427.4 98.42 Q 427.06 98.63 426.78 99.19 L 426.54 99.09 Q 426.77 98.36 427.27 97.96 Q 427.77 97.56 428.5 97.56 Q 429.07 97.56 429.5 97.78 Q 429.93 97.99 430.17 98.38 Q 430.42 98.76 430.42 99.29 Q 430.42 99.73 430.23 100.14 Q 430.05 100.54 429.68 100.97 Q 429.32 101.4 428.79 101.94 L 427.47 103.19 L 427.47 103.24 L 428.17 103.21 L 429.56 103.21 Q 429.96 103.21 430.12 103.03 Q 430.28 102.85 430.45 102.4 L 430.74 102.4 Z M 435.73 100.83 Q 435.73 101.47 435.6 102.06 Q 435.48 102.65 435.21 103.11 Q 434.95 103.57 434.53 103.84 Q 434.11 104.11 433.52 104.11 Q 432.92 104.11 432.5 103.85 Q 432.08 103.58 431.82 103.12 Q 431.56 102.66 431.44 102.06 Q 431.32 101.46 431.32 100.8 Q 431.32 99.85 431.57 99.13 Q 431.83 98.4 432.32 97.99 Q 432.82 97.58 433.54 97.58 Q 434.19 97.58 434.68 97.97 Q 435.17 98.35 435.45 99.08 Q 435.73 99.8 435.73 100.83 Z M 434.76 100.89 Q 434.76 99.37 434.44 98.65 Q 434.13 97.92 433.51 97.92 Q 432.92 97.92 432.6 98.64 Q 432.28 99.36 432.28 100.85 Q 432.28 102.3 432.6 103.03 Q 432.92 103.75 433.52 103.75 Q 434.11 103.75 434.43 103.04 Q 434.76 102.33 434.76 100.89 Z M 440.64 102.4 L 440.32 104 L 436.38 104 L 436.38 103.66 L 437.9 102.14 Q 438.4 101.63 438.73 101.22 Q 439.06 100.8 439.22 100.38 Q 439.39 99.96 439.39 99.44 Q 439.39 98.88 439.05 98.55 Q 438.72 98.21 438.14 98.21 Q 437.65 98.21 437.3 98.42 Q 436.96 98.63 436.68 99.19 L 436.44 99.09 Q 436.67 98.36 437.17 97.96 Q 437.67 97.56 438.4 97.56 Q 438.97 97.56 439.4 97.78 Q 439.83 97.99 440.07 98.38 Q 440.32 98.76 440.32 99.29 Q 440.32 99.73 440.13 100.14 Q 439.95 100.54 439.58 100.97 Q 439.22 101.4 438.69 101.94 L 437.37 103.19 L 437.37 103.24 L 438.07 103.21 L 439.46 103.21 Q 439.86 103.21 440.02 103.03 Q 440.18 102.85 440.35 102.4 L 440.64 102.4 Z M 441.81 99.02 L 441.58 98.89 Q 442.15 97.56 443.39 97.56 Q 444.16 97.56 444.58 97.95 Q 445 98.33 445 98.9 Q 445 99.42 444.69 99.74 Q 444.39 100.06 443.92 100.36 L 443.92 100.39 Q 444.32 100.51 444.65 100.74 Q 444.99 100.96 445.19 101.29 Q 445.39 101.61 445.39 102.06 Q 445.39 102.74 445.01 103.21 Q 444.63 103.67 444.01 103.9 Q 443.39 104.13 442.66 104.13 Q 442.21 104.13 441.97 104.04 Q 441.73 103.96 441.63 103.84 Q 441.54 103.71 441.54 103.58 Q 441.54 103.42 441.64 103.28 Q 441.74 103.14 441.93 103.14 Q 442.05 103.14 442.15 103.19 Q 442.26 103.23 442.52 103.37 Q 442.84 103.53 442.99 103.58 Q 443.15 103.63 443.33 103.63 Q 443.65 103.63 443.93 103.52 Q 444.21 103.4 444.39 103.13 Q 444.57 102.85 444.57 102.36 Q 444.57 101.91 444.32 101.58 Q 444.07 101.25 443.65 101.07 Q 443.24 100.88 442.76 100.88 L 442.56 100.88 L 442.56 100.5 L 442.75 100.5 Q 443.09 100.5 443.41 100.33 Q 443.73 100.16 443.93 99.85 Q 444.14 99.54 444.14 99.14 Q 444.14 98.7 443.86 98.46 Q 443.59 98.21 443.12 98.21 Q 442.67 98.21 442.37 98.42 Q 442.07 98.62 441.81 99.02 Z" fill="#64748b"/></svg>